<svg enable-background="new 0 0 200.4 66.5" viewBox="0 0 200.4 66.5" xmlns="http://www.w3.org/2000/svg"><g fill="#8c98a4"><path d="m51.5 24.4h-22.5v6.6h16c-.8 9.3-8.6 13.4-15.9 13.4-9.4 0-17.6-7.4-17.6-17.7 0-10.1 7.8-17.9 17.6-17.9 7.6 0 12 4.8 12 4.8l4.6-4.8s-6-6.6-16.9-6.6c-13.9-.1-24.6 11.6-24.6 24.3 0 12.4 10.1 24.5 25 24.5 13.1 0 22.7-8.9 22.7-22.2 0-2.8-.4-4.4-.4-4.4z"/><path d="m69.8 19.5c-9.2 0-15.8 7.2-15.8 15.6 0 8.6 6.4 15.9 16 15.9 8.7 0 15.7-6.5 15.7-15.7-.1-10.4-8.3-15.8-15.9-15.8zm.1 6.3c4.5 0 8.8 3.7 8.8 9.5s-4.2 9.5-8.8 9.5c-5 0-8.9-4-8.9-9.6-.1-5.4 3.8-9.4 8.9-9.4z"/><path d="m104.2 19.5c-9.2 0-15.8 7.2-15.8 15.6 0 8.6 6.4 15.9 16 15.9 8.7 0 15.7-6.5 15.7-15.7-.1-10.4-8.3-15.8-15.9-15.8zm.1 6.3c4.5 0 8.8 3.7 8.8 9.5s-4.2 9.5-8.8 9.5c-5 0-8.9-4-8.9-9.6-.1-5.4 3.8-9.4 8.9-9.4z"/><path d="m137.9 19.6c-8.5 0-15.1 7.4-15.1 15.7 0 9.4 7.7 15.8 14.9 15.8 4.5 0 6.8-1.7 8.7-3.8v3.1c0 5.4-3.3 8.7-8.3 8.7-4.8 0-7.2-3.6-8.1-5.6l-6.1 2.5c2.1 4.5 6.4 9.2 14.1 9.2 8.4 0 14.8-5.3 14.8-16.4v-28.3h-6.6v2.7c-1.8-2.2-4.6-3.6-8.3-3.6zm.6 6.2c4.1 0 8.4 3.6 8.4 9.6 0 6.2-4.2 9.5-8.5 9.5-4.5 0-8.7-3.7-8.7-9.4.1-6.2 4.4-9.7 8.8-9.7z"/><path d="m182.4 19.5c-8 0-14.7 6.3-14.7 15.7 0 9.9 7.5 15.8 15.4 15.8 6.6 0 10.8-3.7 13.2-6.9l-5.5-3.7c-1.4 2.2-3.8 4.3-7.7 4.3-4.4 0-6.4-2.4-7.7-4.8l21.1-8.8-1.1-2.6c-2.1-4.8-6.8-9-13-9zm.2 6.1c2.9 0 4.9 1.5 5.9 3.4l-14 5.9c-.8-4.6 3.6-9.3 8.1-9.3z"/><path d="m157.7 50.1h6.9v-46.4h-6.9z"/></g></svg>