<svg enable-background="new 0 0 200.4 66.5" viewBox="0 0 200.4 66.5" xmlns="http://www.w3.org/2000/svg"><g fill="#8c98a4"><path d="m80.4 21.2c-3.5 0-7.4 1.6-9.8 4.8v-4.3h-8.2v30h8.2v-17.1c0-3.1 2.4-6.3 6.8-6.3 3.4 0 6.9 2.4 6.9 6.3v17.1h8.2v-18.6c.1-6.9-4.8-11.9-12.1-11.9z"/><path d="m151.2 21.7-7.4 20.4-7.5-20.4h-9.4l12.4 30h9l12.3-30z"/><path d="m55.8 26.1c-2.8-3.2-6.9-4.9-11.9-4.9-9.1 0-15.9 6.7-15.9 15.5 0 9.1 6.9 15.5 16.8 15.5 5.6 0 11.3-2.6 14-5.7l-5.2-4c-3.4 2.5-5.4 3.2-8.6 3.2-2.8 0-5.1-.9-6.6-2.4l21.1-8.7c-.5-3.4-1.8-6.3-3.7-8.5zm-19.7 11.8c-.4-3.1.4-5.5 1.7-7.2 1.4-1.9 3.6-3 6.3-3 3 0 5.2 1.7 6.4 4.2z"/><path d="m8.6 12.7h-8.4v39h27.1v-7.6h-18.7z"/><path d="m175.6 21.2c-9.1 0-16.2 6.8-16.2 15.5 0 8.8 7.1 15.5 16.1 15.5 9.1 0 16.2-6.8 16.2-15.5-.1-8.8-7.1-15.5-16.1-15.5zm0 23.9c-4.5 0-8.1-3.7-8.1-8.5 0-5 3.3-8.5 7.9-8.5 4.5 0 8.1 3.7 8.1 8.5 0 5-3.3 8.5-7.9 8.5z"/><path d="m112.1 21.2c-9.1 0-16.2 6.8-16.2 15.5 0 8.8 7.1 15.5 16.1 15.5 9.1 0 16.2-6.8 16.2-15.5 0-8.8-7.1-15.5-16.1-15.5zm0 23.9c-4.5 0-8.1-3.7-8.1-8.5 0-5 3.3-8.5 7.9-8.5 4.5 0 8.1 3.7 8.1 8.5 0 5-3.3 8.5-7.9 8.5z"/><path d="m191.4 48.1h1.4v3.6h.8v-3.6h1.3v-.7h-3.5z"/><path d="m199.3 47.4-1.3 2-1.3-2h-.9v4.3h.8v-3.1l1.4 2.1h.1l1.3-2.1v3.1h.8v-4.3z"/></g></svg>