<svg t="1649836707454" class="icon" viewBox="0 0 1024 1024" version="1.1" xmlns="http://www.w3.org/2000/svg" p-id="19676" width="16" height="16"><path d="M597.333333 384 832 384 597.333333 149.333333 597.333333 384M298.666667 85.333333 640 85.333333 896 341.333333 896 853.333333C896 900.266667 857.6 938.666667 810.666667 938.666667L298.666667 938.666667C251.306667 938.666667 213.333333 900.266667 213.333333 853.333333L213.333333 170.666667C213.333333 123.733333 251.733333 85.333333 298.666667 85.333333M509.013333 530.773333C526.506667 569.173333 548.693333 600.746667 574.293333 622.506667L591.786667 636.16C554.666667 642.986667 503.466667 654.933333 449.28 675.84L449.28 675.84 444.586667 677.546667 465.92 633.173333C485.12 596.053333 499.2 562.346667 509.013333 530.773333M785.493333 693.333333C793.173333 685.653333 797.013333 675.84 797.44 665.173333 798.72 656.64 796.586667 648.533333 792.32 641.706667 779.946667 621.653333 747.946667 612.266667 695.04 612.266667L640 615.253333 602.88 590.506667C576 568.32 551.68 529.493333 534.613333 481.28L536.32 475.306667C550.4 418.56 563.626667 349.866667 535.466667 321.706667 528.64 314.88 519.253333 311.466667 509.44 311.466667L499.2 311.466667C483.413333 311.466667 469.333333 328.106667 465.493333 344.32 449.706667 401.066667 459.093333 432.213333 474.88 483.84L474.88 484.266667C464.213333 521.813333 450.56 565.333333 428.8 609.28L387.84 686.08 349.866667 706.986667C298.666667 738.986667 274.346667 774.826667 269.653333 797.44 267.946667 805.546667 268.8 812.8 271.786667 820.48L273.066667 822.613333 293.546667 835.84 312.32 840.533333C346.88 840.533333 386.133333 800 439.04 709.546667L446.72 706.56C490.666667 692.48 545.28 682.666667 618.666667 674.56 662.613333 696.32 714.24 706.133333 746.666667 706.133333 765.44 706.133333 778.24 701.44 785.493333 693.333333M768 663.04 771.84 667.733333C771.413333 672 770.133333 672.426667 768 673.28L766.293333 673.28 758.186667 674.133333C738.56 674.133333 708.266667 666.026667 677.12 652.373333 680.96 648.106667 682.666667 648.106667 686.933333 648.106667 746.666667 648.106667 763.733333 658.773333 768 663.04M376.746667 725.333333C349.013333 776.106667 323.84 804.266667 304.64 810.666667 306.773333 794.453333 325.973333 766.293333 356.266667 738.56L376.746667 725.333333M505.6 430.506667C495.786667 392.106667 495.36 360.96 502.613333 343.04L505.6 337.92 512 340.053333C519.253333 350.293333 520.106667 363.946667 515.84 386.986667L514.56 393.813333 507.733333 428.8 505.6 430.506667Z" p-id="19677" fill="rgba(0, 0, 0, 0.4)"></path></svg>
