<svg t="1649836589110" class="icon" viewBox="0 0 1024 1024" version="1.1" xmlns="http://www.w3.org/2000/svg" p-id="19493" width="16" height="16"><path d="M256 85.333333 597.333333 85.333333 853.333333 341.333333 853.333333 853.333333C853.333333 900.266667 814.933333 938.666667 768 938.666667L256 938.666667C209.066667 938.666667 170.666667 900.266667 170.666667 853.333333L170.666667 170.666667C170.666667 123.733333 209.066667 85.333333 256 85.333333M554.666667 149.333333 554.666667 384 789.333333 384 554.666667 149.333333M298.666667 554.666667 362.666667 853.333333 448 853.333333 512 725.333333 576 853.333333 661.333333 853.333333 725.333333 554.666667 768 554.666667 768 469.333333 597.333333 469.333333 597.333333 554.666667 640 554.666667 601.6 733.866667 554.666667 640 554.666667 640 469.333333 640 469.333333 640 422.4 733.866667 384 554.666667 426.666667 554.666667 426.666667 469.333333 256 469.333333 256 554.666667 298.666667 554.666667Z" p-id="19494" fill="rgba(0, 0, 0, 0.4)"></path></svg>
