<svg height="200" viewBox="0 0 1024 1024" width="200" xmlns="http://www.w3.org/2000/svg"><g fill="#d62223"><path d="m735.232 0h-571.392a61.44 61.44 0 0 0 -61.44 61.44v901.12a61.44 61.44 0 0 0 61.44 61.44h798.72a61.44 61.44 0 0 0 61.44-61.44v-750.08l-212.1728-212.48zm227.328 901.12a61.44 61.44 0 0 1 -61.44 61.44h-675.84a61.44 61.44 0 0 1 -61.44-61.44v-778.24a61.44 61.44 0 0 1 61.44-61.44h571.392l165.888 166.1952z"/><path d="m962.56 154.5216v70.7584h-102.4a61.44 61.44 0 0 1 -61.44-61.44v-102.4h70.656l-61.44-61.44h-70.656v225.28a61.44 61.44 0 0 0 61.44 61.44h225.28v-70.7584z"/><path d="m61.44 587.5712h552.96q61.44 0 61.44 61.44v122.88q0 61.44-61.44 61.44h-552.96q-61.44 0-61.44-61.44v-122.88q0-61.44 61.44-61.44z"/></g><path d="m122.88 621.6704h54.8864c40.2432 0 69.0176 13.7216 69.0176 54.5792s-28.7744 57.7536-68.096 57.7536h-27.0336v68.608h-28.7744zm53.1456 89.4976c28.9792 0 42.7008-11.0592 42.7008-34.9184s-14.9504-31.744-43.7248-31.744h-23.552v66.6624zm106.0864-89.4976h47.0016c55.5008 0 87.2448 30.72 87.2448 89.7024s-31.744 91.2384-85.8112 91.2384h-48.4352zm44.9536 157.4912c38.912 0 59.8016-22.8352 59.8016-67.7888s-20.48-66.56-59.8016-66.56h-16.4864v134.3488zm126.8736-157.4912h107.1104v23.4496h-78.6432v55.296h66.8672v23.8592h-66.8672v77.9264h-28.4672z" fill="#fff"/><path d="m519.5776 307.2a87.7568 87.7568 0 0 0 -20.48 1.6384 68.9152 68.9152 0 0 0 23.8592 6.3488 33.9968 33.9968 0 0 0 15.872-1.6384c0-2.3552-3.1744-6.3488-19.0464-6.3488m-108.544-41.984-.8192 1.6384-.8192-.6144c-7.168 18.3296-15.1552 36.5568-23.9616 54.0672l1.6384-.8192v1.6384a502.6816 502.6816 0 0 1 54.0672-15.9744l-1.024-1.024h2.3552a236.9536 236.9536 0 0 1 -31.8464-38.912m-5.5296-115.4048h-2.4576a4.608 4.608 0 0 0 -3.1744.8192 64.9216 64.9216 0 0 0 4.8128 40.96 67.4816 67.4816 0 0 0 .8192-40.96m-105.472 238.4896 2.3552-.8192a51.2 51.2 0 0 0 26.3168-22.2208 62.6688 62.6688 0 0 0 -28.672 23.04m222.9248-49.3568a99.9424 99.9424 0 0 1 -58.88-24.3712 572.8256 572.8256 0 0 0 -94.72 30.72c-24.7808 43.7248-47.8208 66.048-67.6864 66.048a20.48 20.48 0 0 1 -11.9808-3.1744 23.3472 23.3472 0 0 1 -13.0048-21.9136c0-7.168 1.536-27.0336 77.2096-59.6992a563.2 563.2 0 0 0 42.0864-98.7136c-9.5232-19.1488-30.72-66.1504-15.872-90.0096a25.3952 25.3952 0 0 1 24.6784-12.6976 26.4192 26.4192 0 0 1 20.48 10.24c10.24 14.336 9.5232 44.6464-3.9936 89.1904a238.6944 238.6944 0 0 0 49.3568 63.6928 266.24 266.24 0 0 1 50.176-5.632c37.376.8192 42.9056 18.432 42.1888 28.672 0 27.0336-26.2144 27.0336-39.7312 27.0336" fill="#d62223"/></svg>