<svg t="1653717823069" class="icon" viewBox="0 0 1024 1024" version="1.1" xmlns="http://www.w3.org/2000/svg" p-id="3892" width="200" height="200"><path d="M931.8 1000H211.6c-22.1 0-40-17.9-40-40V900.1c0-22.1 17.9-40 40-40s40 17.9 40 40v19.9h640.1V283.6L710.8 104H251.6v107.6c0 22.1-17.9 40-40 40s-40-17.9-40-40V64c0-22.1 17.9-40 40-40h515.7c10.6 0 20.7 4.2 28.2 11.6l204.4 203c7.6 7.5 11.8 17.7 11.8 28.4v693c0.1 22.1-17.9 40-39.9 40z" fill="#55B983" p-id="3893"></path><path d="M915.6 320.2h-231c-22.1 0-40-17.9-40-40V64c0-22.1 17.9-40 40-40s40 17.9 40 40v176.2h191c22.1 0 40 17.9 40 40s-17.9 40-40 40zM812.8 489.1H635.7c-22.1 0-40-17.9-40-40s17.9-40 40-40h177.1c22.1 0 40 17.9 40 40s-17.9 40-40 40zM812.8 628.5H635.7c-22.1 0-40-17.9-40-40s17.9-40 40-40h177.1c22.1 0 40 17.9 40 40s-17.9 40-40 40zM812.8 767.8H635.7c-22.1 0-40-17.9-40-40s17.9-40 40-40h177.1c22.1 0 40 17.9 40 40s-17.9 40-40 40zM53.8 305.4v503.8h503.4V305.4H53.8z m419.9 364c15.6 15.6 15.6 41-0.1 56.6-7.8 7.8-18 11.7-28.2 11.7-10.3 0-20.5-3.9-28.3-11.8L305.5 614 193.9 725.9c-7.8 7.8-18.1 11.8-28.3 11.8s-20.4-3.9-28.2-11.7c-15.6-15.6-15.7-40.9-0.1-56.6l111.7-112-111.8-112.1c-15.6-15.6-15.6-41 0.1-56.6 15.6-15.6 41-15.6 56.6 0.1l111.6 111.9 111.6-111.9c15.6-15.6 40.9-15.7 56.6-0.1 15.6 15.6 15.7 40.9 0.1 56.6L362 557.4l111.7 112z" fill="#55B983" p-id="3894"></path></svg>
