<svg t="1653721014316" class="icon" viewBox="0 0 1024 1024" version="1.1" xmlns="http://www.w3.org/2000/svg" p-id="3447" width="200" height="200"><path d="M641.8 127.2l174 166.1v603.9h-609v-770h435m4.3-63H196.3c-29 0-52.5 23.5-52.5 52.5v791c0 29 23.5 52.5 52.5 52.5h630c29 0 52.5-23.5 52.5-52.5V288.8c0-14.3-5.9-28.1-16.2-38L682.3 78.7c-9.8-9.3-22.7-14.5-36.2-14.5z m0 0" fill="#4070FF" p-id="3448"></path><path d="M527.1 312.7H315.3c-17.4 0-31.5-14.1-31.5-31.5s14.1-31.5 31.5-31.5H527c17.4 0 31.5 14.1 31.5 31.5 0.1 17.4-14 31.5-31.4 31.5z m320.2 9.6H661.8c-17.4 0-31.5-14.1-31.5-31.5V105.4c0-17.4 14.1-31.5 31.5-31.5s31.5 14.1 31.5 31.5v154h154c17.4 0 31.5 14.1 31.5 31.5s-14.1 31.4-31.5 31.4zM527.1 428.2H315.3c-17.4 0-31.5-14.1-31.5-31.5s14.1-31.5 31.5-31.5H527c17.4 0 31.5 14.1 31.5 31.5 0.1 17.4-14 31.5-31.4 31.5z m0 0M161.3 549.8h509.3c11.7 0 17.5 5.8 17.5 17.5v241.5c0 11.7-5.8 17.5-17.5 17.5H161.3c-11.7 0-17.5-5.8-17.5-17.5V567.3c0-11.6 5.9-17.5 17.5-17.5z m0 0" fill="#4070FF" p-id="3449"></path><path d="M204.2 721.8h33.7c0.2 7 2.2 12.5 6.2 16.5s9.4 6.2 15.1 6c14.8 0 22.2-8.5 22.2-25.4V605.3h35.2v111.9c0 18.7-5.1 32.8-15.2 42.5-10.2 9.6-24.1 14.5-41.8 14.4-8.3 0.1-16.5-1.3-24.2-4.2-6.6-2.5-12.5-6.4-17.4-11.5-4.5-4.8-7.9-10.4-10.2-16.6-2.5-6.4-3.6-13.2-3.6-20z m145.4 49.1V605.3h67.5c17.7 0 31.5 5.3 41.6 15.8 10.1 10.5 15.1 23.8 15.1 39.9 0 16.3-5 29.7-15.1 40.1-10.1 10.4-24 15.6-41.8 15.6h-32v54.4l-35.3-0.2z m35.2-81.3h18.5c11.5 0 20.1-2.2 26-6.6 5.9-4.4 8.8-11.8 8.8-22.1 0-9.2-2.5-16.2-7.4-21.2-5-5-11.9-7.5-20.8-7.5h-25.2v57.4z m104.6 8.3v-20.6c0-23 6.3-41.2 19.1-54.8 12.7-13.5 30.2-20.3 52.5-20.3 9.8-0.1 19.5 1.5 28.6 4.8 8.5 3.2 15.5 7.5 20.8 12.8 5.2 5.2 9.4 11.3 12.4 18 2.9 6.6 4.5 13.8 4.8 21.1H593c-1.1-8.6-4.5-15.4-10.4-20.2-5.9-4.9-13.3-7.3-22.2-7.3-10.9 0-19.7 3.9-26.1 11.6-6.5 7.7-9.7 19.3-9.7 34.6v20.3c0 14.5 2.9 26 8.8 34.5s15 12.7 27.4 12.8c10.1 0 18.1-2.7 24.2-8.2 5.9-5.1 9.2-12.5 9.1-20.3v-9.3h-32.2v-26.1h65.8v32.8c0 5.6-0.7 11.1-2.1 16.5-1.6 5.7-4 11.2-7.3 16.1-3.4 5.4-7.7 10.1-12.7 14.1-5 4.1-11.5 7.3-19.2 9.8-8.4 2.6-17.2 3.8-26.1 3.7-12 0-22.6-1.9-31.8-5.7-8.6-3.4-16.3-8.9-22.2-16.1-5.8-7.1-10.1-15.3-12.7-24.1-2.9-10-4.3-20.3-4.2-30.5z m0 0" fill="#FFFFFF" p-id="3450"></path></svg>
