<svg t="1649836778639" class="icon" viewBox="0 0 1024 1024" version="1.1" xmlns="http://www.w3.org/2000/svg" p-id="19859" width="16" height="16"><path d="M256 85.333333 597.333333 85.333333 853.333333 341.333333 853.333333 853.333333C853.333333 900.266667 814.933333 938.666667 768 938.666667L256 938.666667C209.066667 938.666667 170.666667 900.266667 170.666667 853.333333L170.666667 170.666667C170.666667 123.733333 209.066667 85.333333 256 85.333333M554.666667 149.333333 554.666667 384 789.333333 384 554.666667 149.333333M725.333333 469.333333 554.666667 469.333333 554.666667 554.666667 597.333333 554.666667 512 625.92 426.666667 554.666667 469.333333 554.666667 469.333333 469.333333 298.666667 469.333333 298.666667 554.666667 341.333333 554.666667 469.333333 661.333333 341.333333 768 298.666667 768 298.666667 853.333333 469.333333 853.333333 469.333333 768 426.666667 768 512 696.746667 597.333333 768 554.666667 768 554.666667 853.333333 725.333333 853.333333 725.333333 768 682.666667 768 554.666667 661.333333 682.666667 554.666667 725.333333 554.666667 725.333333 469.333333Z" p-id="19860" fill="rgba(0, 0, 0, 0.4)"></path></svg>
