<svg height="200" viewBox="0 0 1024 1024" width="200" xmlns="http://www.w3.org/2000/svg"><g fill="#55b983"><path d="m931.8 1000h-720.2c-22.1 0-40-17.9-40-40v-59.9c0-22.1 17.9-40 40-40s40 17.9 40 40v19.9h640.1v-636.4l-180.9-179.6h-459.2v107.6c0 22.1-17.9 40-40 40s-40-17.9-40-40v-147.6c0-22.1 17.9-40 40-40h515.7c10.6 0 20.7 4.2 28.2 11.6l204.4 203c7.6 7.5 11.8 17.7 11.8 28.4v693c.1 22.1-17.9 40-39.9 40z"/><path d="m915.6 320.2h-231c-22.1 0-40-17.9-40-40v-216.2c0-22.1 17.9-40 40-40s40 17.9 40 40v176.2h191c22.1 0 40 17.9 40 40s-17.9 40-40 40zm-102.8 168.9h-177.1c-22.1 0-40-17.9-40-40s17.9-40 40-40h177.1c22.1 0 40 17.9 40 40s-17.9 40-40 40zm0 139.4h-177.1c-22.1 0-40-17.9-40-40s17.9-40 40-40h177.1c22.1 0 40 17.9 40 40s-17.9 40-40 40zm0 139.3h-177.1c-22.1 0-40-17.9-40-40s17.9-40 40-40h177.1c22.1 0 40 17.9 40 40s-17.9 40-40 40zm-759-462.4v503.8h503.4v-503.8zm419.9 364c15.6 15.6 15.6 41-.1 56.6-7.8 7.8-18 11.7-28.2 11.7-10.3 0-20.5-3.9-28.3-11.8l-111.6-111.9-111.6 111.9c-7.8 7.8-18.1 11.8-28.3 11.8s-20.4-3.9-28.2-11.7c-15.6-15.6-15.7-40.9-.1-56.6l111.7-112-111.8-112.1c-15.6-15.6-15.6-41 .1-56.6 15.6-15.6 41-15.6 56.6.1l111.6 111.9 111.6-111.9c15.6-15.6 40.9-15.7 56.6-.1 15.6 15.6 15.7 40.9.1 56.6l-111.8 112.1z"/></g></svg>