<svg t="1649836789417" class="icon" viewBox="0 0 1024 1024" version="1.1" xmlns="http://www.w3.org/2000/svg" p-id="20002" width="16" height="16"><path d="M554.666667 384 789.333333 384 554.666667 149.333333 554.666667 384M256 85.333333 597.333333 85.333333 853.333333 341.333333 853.333333 853.333333C853.333333 900.266667 814.933333 938.666667 768 938.666667L256 938.666667C208.64 938.666667 170.666667 900.266667 170.666667 853.333333L170.666667 170.666667C170.666667 123.306667 208.64 85.333333 256 85.333333M256 853.333333 640 853.333333 768 853.333333 768 512 597.333333 682.666667 512 597.333333 256 853.333333M341.333333 384C294.4 384 256 422.4 256 469.333333 256 516.266667 294.4 554.666667 341.333333 554.666667 388.266667 554.666667 426.666667 516.266667 426.666667 469.333333 426.666667 422.4 388.266667 384 341.333333 384Z" p-id="20003" fill="rgba(0, 0, 0, 0.4)"></path></svg>
