<svg>
  <defs>
    <g id="github"><svg fill="currentColor" viewBox="0 0 1024 1024"><path d="M0 524.992q0 166.016 95.488 298.496t247.488 185.504q6.016 0.992 10.016 0.992t6.496-1.504 4-3.008 2.016-4.992 0.512-4.992v-100.512q-36.992 4-66.016-0.512t-45.504-14.016-28.992-23.488-16.992-25.504-8.992-24-5.504-14.496q-8.992-15.008-27.008-27.488t-27.008-20-2.016-14.496q50.016-26.016 112.992 66.016 34.016 51.008 119.008 30.016 10.016-40.992 40-70.016Q293.984 736 237.984 670.976t-56-158.016q0-87.008 55.008-151.008-22.016-64.992 6.016-136.992 28.992-2.016 64.992 11.488t50.496 23.008 25.504 17.504q56.992-16 128.512-16t129.504 16q12.992-8.992 28.992-19.008t48.992-21.504 60.992-9.504q27.008 71.008 7.008 135.008 56 64 56 151.008 0 92.992-56.992 158.496t-172 85.504q43.008 43.008 43.008 104v128.992q0 0.992 0.992 3.008 0 6.016 0.512 8.992t4.512 6.016 12 3.008q152.992-52 250.496-185.504t97.504-300.512q0-104-40.512-199.008t-108.992-163.488-163.488-108.992T512.032 12.96 313.024 53.472 149.536 162.464t-108.992 163.488-40.512 199.008z"></path></svg>
    </g>
    <g id="offiaccount">
      <svg fill="currentColor" viewBox="0 0 1024 1024" version="1.1"  p-id="1814"  ><path d="M947 480.6l-62.9-62.9c-4.2-4.2-9.8-6.5-15.7-6.5-19.8 0-29.7 23.9-15.7 37.9l47.2 47.2c8.7 8.7 8.7 22.7 0 31.4L797.4 630.2v145c0 12.3-9.9 22.2-22.2 22.2h-145L527.7 899.9c-8.7 8.7-22.7 8.7-31.4 0l-89.5-89.5-13-13h-145c-12.3 0-22.2-9.9-22.2-22.2v-145L124.1 527.7c-8.7-8.7-8.7-22.7 0-31.4l102.5-102.5v-145c0-12.3 9.9-22.2 22.2-22.2h145l102.5-102.5c8.7-8.7 22.7-8.7 31.4 0l89.5 89.5 13 13h145c12.3 0 22.2 9.9 22.2 22.2V277c0 12.3 9.9 22.2 22.2 22.2 12.3 0 22.2-9.9 22.2-22.2v-50.4c0-24.5-19.9-44.4-44.4-44.4H648.6L543.4 77c-17.3-17.3-45.5-17.3-62.8 0L375.4 182.2H226.6c-24.5 0-44.4 19.9-44.4 44.4v148.8L77 480.6c-17.3 17.3-17.3 45.5 0 62.8l105.2 105.2v148.8c0 24.5 19.9 44.4 44.4 44.4h148.8L480.6 947c17.3 17.3 45.5 17.3 62.8 0l105.2-105.2h148.8c24.5 0 44.4-19.9 44.4-44.4V648.6L947 543.4c17.3-17.3 17.3-45.5 0-62.8z m-276.6-95.3L464.5 591.2 353.6 480.3c-8.7-8.7-23-8.7-31.7 0s-8.7 23 0 31.7l126.7 126.7c4.4 4.4 10.1 6.5 15.8 6.5 5.7 0 11.5-2.2 15.8-6.5L702.1 417c8.7-8.7 8.7-23 0-31.7s-23-8.7-31.7 0z" p-id="1815"></path></svg>
    </g>
    <g id="zhihu">
      <svg fill="currentColor" viewBox="0 0 1024 1024"><path d="M544.949 561.422s0-71.387-34.779-75.050c-34.779-3.663-142.775 0-142.775 0v-219.654h161.078s-1.83-73.219-32.949-73.219h-261.755l43.93-117.148s-65.897 3.663-89.692 45.761-98.844 252.604-98.844 252.604 25.627 10.983 67.726-20.134c42.101-31.116 56.743-86.033 56.743-86.033l76.879-3.663 1.83 223.316s-133.621-1.83-161.078 0c-27.457 1.83-42.101 75.050-42.101 75.050h203.182s-18.307 124.47-69.557 214.164c-53.085 89.692-151.929 161.078-151.929 161.078s71.387 29.287 140.947-10.983c69.557-42.101 120.811-223.316 120.811-223.316l162.912 203.182s14.643-97.013-1.83-124.47c-18.307-27.457-113.49-137.283-113.49-137.283l-42.101 36.607 29.287-120.811h177.552zM587.050 188.010l-1.83 660.793h65.897l23.795 82.37 115.321-82.37h162.912v-660.793h-366.091zM879.92 775.584h-76.879l-97.013 75.050-21.965-75.050h-20.134v-512.527h215.991v512.527z"></path></svg>
    </g>
    <g id="twitter">
     <svg fill="currentColor" viewBox="0 0 512 512"><path fill="currentColor" d="M459.37 151.716c.325 4.548.325 9.097.325 13.645 0 138.72-105.583 298.558-298.558 298.558-59.452 0-114.68-17.219-161.137-47.106 8.447.974 16.568 1.299 25.34 1.299 49.055 0 94.213-16.568 130.274-44.832-46.132-.975-84.792-31.188-98.112-72.772 6.498.974 12.995 1.624 19.818 1.624 9.421 0 18.843-1.3 27.614-3.573-48.081-9.747-84.143-51.98-84.143-102.985v-1.299c13.969 7.797 30.214 12.67 47.431 13.319-28.264-18.843-46.781-51.005-46.781-87.391 0-19.492 5.197-37.36 14.294-52.954 51.655 63.675 129.3 105.258 216.365 109.807-1.624-7.797-2.599-15.918-2.599-24.04 0-57.828 46.782-104.934 104.934-104.934 30.213 0 57.502 12.67 76.67 33.137 23.715-4.548 46.456-13.32 66.599-25.34-7.798 24.366-24.366 44.833-46.132 57.827 21.117-2.273 41.584-8.122 60.426-16.243-14.292 20.791-32.161 39.308-52.628 54.253z"></path></svg>
    </g>
    <g id="wechat">
      <svg fill="currentColor" viewBox="0 0 1024 1024"><path d="M691.230034 363.055736c4.50664 0 8.985652 0.100284 13.443174 0.267083-28.387537-129.98547-162.365948-228.411153-323.384202-228.411153-181.674713 0-328.949964 125.291564-328.949964 279.844569 0 90.298586 50.28629 170.592306 128.319527 221.76171l-32.865525 96.941889 108.828614-59.677171c38.45073 13.407358 80.538291 20.818141 124.666324 20.818141 8.506744 0 16.937764-0.274246 25.28078-0.814552-9.205663-24.38027-14.193257-50.360991-14.193257-77.331249C392.377552 476.507648 526.177907 363.055736 691.230034 363.055736zM494.810502 273.250384c26.828019 0 48.577369 21.748327 48.577369 48.577369 0 26.828019-21.748327 48.577369-48.577369 48.577369s-48.577369-21.748327-48.577369-48.577369C446.234157 294.998711 467.982484 273.250384 494.810502 273.250384zM268.822538 370.404098c-26.828019 0-48.577369-21.748327-48.577369-48.577369 0-26.828019 21.748327-48.577369 48.577369-48.577369s48.577369 21.748327 48.577369 48.577369C317.399907 348.654748 295.65158 370.404098 268.822538 370.404098z"></path><path d="M968.963523 616.456027c0-130.059148-124.345006-235.492432-277.733489-235.492432S413.497569 486.396879 413.497569 616.456027s124.345006 235.492432 277.733489 235.492432c32.206516 0 63.123666-4.66423 91.88778-13.211906l94.959745 52.070936-27.598568-81.407078C922.118612 766.810407 968.963523 696.275957 968.963523 616.456027zM604.457762 582.663386c-21.48022 0-38.892799-17.412578-38.892799-38.892799 0-21.48022 17.412578-38.892799 38.892799-38.892799 21.48022 0 38.892799 17.412578 38.892799 38.892799C643.35056 565.250808 625.937982 582.663386 604.457762 582.663386zM785.395694 582.663386c-21.48022 0-38.892799-17.412578-38.892799-38.892799 0-21.48022 17.412578-38.892799 38.892799-38.892799 21.48022 0 38.892799 17.412578 38.892799 38.892799C824.288492 565.250808 806.874891 582.663386 785.395694 582.663386z"></path></svg>
    </g>
    <g id="weibo">
      <svg fill="currentColor" viewBox="0 0 512 512"><path fill="currentColor" d="M407 177.6c7.6-24-13.4-46.8-37.4-41.7-22 4.8-28.8-28.1-7.1-32.8 50.1-10.9 92.3 37.1 76.5 84.8-6.8 21.2-38.8 10.8-32-10.3zM214.8 446.7C108.5 446.7 0 395.3 0 310.4c0-44.3 28-95.4 76.3-143.7C176 67 279.5 65.8 249.9 161c-4 13.1 12.3 5.7 12.3 6 79.5-33.6 140.5-16.8 114 51.4-3.7 9.4 1.1 10.9 8.3 13.1 135.7 42.3 34.8 215.2-169.7 215.2zm143.7-146.3c-5.4-55.7-78.5-94-163.4-85.7-84.8 8.6-148.8 60.3-143.4 116s78.5 94 163.4 85.7c84.8-8.6 148.8-60.3 143.4-116zM347.9 35.1c-25.9 5.6-16.8 43.7 8.3 38.3 72.3-15.2 134.8 52.8 111.7 124-7.4 24.2 29.1 37 37.4 12 31.9-99.8-55.1-195.9-157.4-174.3zm-78.5 311c-17.1 38.8-66.8 60-109.1 46.3-40.8-13.1-58-53.4-40.3-89.7 17.7-35.4 63.1-55.4 103.4-45.1 42 10.8 63.1 50.2 46 88.5zm-86.3-30c-12.9-5.4-30 .3-38 12.9-8.3 12.9-4.3 28 8.6 34 13.1 6 30.8.3 39.1-12.9 8-13.1 3.7-28.3-9.7-34zm32.6-13.4c-5.1-1.7-11.4.6-14.3 5.4-2.9 5.1-1.4 10.6 3.7 12.9 5.1 2 11.7-.3 14.6-5.4 2.8-5.2 1.1-10.9-4-12.9z"></path></svg>
    </g>
    <g id="youtube">
      <svg fill="currentColor" viewBox="0 0 576 512"><path fill="currentColor" d="M549.655 124.083c-6.281-23.65-24.787-42.276-48.284-48.597C458.781 64 288 64 288 64S117.22 64 74.629 75.486c-23.497 6.322-42.003 24.947-48.284 48.597-11.412 42.867-11.412 132.305-11.412 132.305s0 89.438 11.412 132.305c6.281 23.65 24.787 41.5 48.284 47.821C117.22 448 288 448 288 448s170.78 0 213.371-11.486c23.497-6.321 42.003-24.171 48.284-47.821 11.412-42.867 11.412-132.305 11.412-132.305s0-89.438-11.412-132.305zm-317.51 213.508V175.185l142.739 81.205-142.739 81.201z"></path></svg>
    </g>
    <g id="arrow_right">
      <svg viewBox="0 0 24 24" fill="currentColor"><path d="M0 0h24v24H0V0z" fill="none"/><path d="M8.59 16.59L13.17 12 8.59 7.41 10 6l6 6-6 6-1.41-1.41z"/></svg>
    </g>
    <g id="dark_mode">
      <svg fill="currentColor" enable-background="new 0 0 24 24" viewBox="0 0 24 24"><rect fill="none" height="24" width="24"/><path d="M12,3c-4.97,0-9,4.03-9,9s4.03,9,9,9s9-4.03,9-9c0-0.46-0.04-0.92-0.1-1.36c-0.98,1.37-2.58,2.26-4.4,2.26 c-2.98,0-5.4-2.42-5.4-5.4c0-1.81,0.89-3.42,2.26-4.4C12.92,3.04,12.46,3,12,3L12,3z"/></svg>
    </g>
    <g id="wave">
      <svg fill="currentColor" preserveAspectRatio="none" viewBox="0 0 1920 280">
      <path d="M1920 0v19.386904c-211.21011 136.245161-517.56385 173.305269-919.06121 111.180324C679.06786 80.763131 345.421597 103.907388 0 200L-2 0h1922z">
      </path>
      <path d="M1920 5e-7v4C1667.96041 175.947611 1365.12512 235.086515 1011.49414 181.416714 361.105403 82.708636-2.15142107 200 .25415139 200 1.85786636 200 1.10648256 133.333334-2 5e-7h1922z"
        fill-opacity=".35"></path>
      <path d="M1920 0v29.7237781C1689.33854 194.640614 1390.184 251.491708 1022.53638 200.27706 568.814969 137.07202 198.918919 150.11433 0 269V0h1920z"
        fill-opacity=".17"></path>
      <path d="M1919.999998 0v29.7237781c-223.98059 145.4796669-526.68468 188.5528329-908.11226 129.2194999C630.460153 99.609945 293.299854 122.962185.406838 229V0h1919.59316z"
        fill-opacity=".45"></path>
      </svg>
    </g>
    <g id="shape">
      <svg viewBox="0 0 2880 48" fill="none">
      <path d="M0 48H1437.5H2880V0H2160C1442.5 52 720 0 720 0H0V48Z" fill="currentColor">
      </path>
      </svg>
    </g>
    <g id="deepseek">
      <svg viewBox="0 0 1024 1024"><path d="M1013.321143 207.725714c-10.898286-5.193143-15.579429 4.608-21.942857 9.581715-2.194286 1.609143-4.022857 3.730286-5.851429 5.632-15.798857 16.457143-34.377143 27.282286-58.514286 25.965714a116.004571 116.004571 0 0 0-92.306285 35.108571c-5.705143-32.329143-24.576-51.712-53.248-64.073143-14.994286-6.436571-30.208-12.946286-40.667429-26.989714-7.387429-9.947429-9.362286-21.065143-13.092571-31.963428-2.267429-6.582857-4.681143-13.385143-12.434286-14.555429-8.557714-1.316571-11.849143 5.632-15.213714 11.410286-13.385143 23.698286-18.505143 49.810286-18.066286 76.288 1.170286 59.392 27.062857 106.788571 78.482286 140.434285 5.851429 3.876571 7.314286 7.826286 5.485714 13.458286-3.510857 11.556571-7.68 22.820571-11.337143 34.377143-2.340571 7.460571-5.851429 9.142857-13.970286 5.851429a235.373714 235.373714 0 0 1-74.166857-48.786286c-36.571429-34.377143-69.558857-72.192-110.811428-101.814857a476.598857 476.598857 0 0 0-29.330286-19.529143c-42.057143-39.643429 5.485714-72.265143 16.530286-76.068572 11.483429-4.022857 3.949714-17.92-33.28-17.700571-37.156571 0.146286-71.241143 12.214857-114.614857 28.306286a122.88 122.88 0 0 1-19.821715 5.632 424.740571 424.740571 0 0 0-123.026285-4.169143c-80.457143 8.777143-144.676571 45.641143-191.926858 108.617143C3.510857 378.441143-9.874286 464.530286 6.582857 554.422857c17.188571 94.500571 66.852571 172.836571 143.36 234.057143 79.213714 63.414857 170.496 94.573714 274.651429 88.576 63.268571-3.510857 133.705143-11.702857 213.065143-76.946286 20.041143 9.581714 41.106286 13.458286 75.995428 16.384 26.843429 2.413714 52.662857-1.316571 72.777143-5.339428 31.378286-6.436571 29.184-34.596571 17.846857-39.789715-92.013714-41.545143-71.826286-24.649143-90.185143-38.326857 46.811429-53.686857 117.174857-109.421714 144.749715-290.011428 2.194286-14.409143 0.292571-23.405714 0-35.035429-0.146286-7.021714 1.462857-9.801143 9.801142-10.605714 23.04-2.56 45.348571-8.630857 65.901715-19.675429 59.611429-31.597714 83.602286-83.382857 89.234285-145.627428 0.877714-9.508571-0.146286-19.382857-10.459428-24.356572z m-519.168 559.689143c-89.234286-68.022857-132.388571-90.331429-150.235429-89.380571-16.676571 0.877714-13.677714 19.456-10.020571 31.524571 3.803429 11.922286 8.777143 20.187429 15.872 30.646857 4.827429 6.875429 8.192 17.261714-4.827429 24.941715-28.745143 17.334857-78.628571-5.851429-80.969143-6.948572-58.075429-33.133714-106.642286-76.946286-140.873142-136.850286a409.453714 409.453714 0 0 1-55.369143-185.636571c-0.804571-16.091429 4.022857-21.650286 20.333714-24.502857 21.504-3.876571 43.739429-4.681143 65.316571-1.682286 90.916571 12.946286 168.374857 52.443429 233.252572 114.834286 37.010286 35.693714 65.097143 78.262857 93.988571 119.808 30.72 44.178286 63.707429 86.235429 105.764572 120.685714 14.848 12.068571 26.697143 21.211429 38.034285 28.086857-34.157714 3.657143-91.282286 4.388571-130.340571-25.526857z m42.642286-266.678857c0-7.094857 5.851429-12.726857 13.165714-12.726857a13.165714 13.165714 0 0 1 9.362286 3.949714c2.340571 2.194286 3.657143 5.412571 3.657142 8.777143 0 7.094857-5.851429 12.726857-13.165714 12.726857a12.726857 12.726857 0 0 1-13.019428-12.726857z m132.681142 66.121143a80.018286 80.018286 0 0 1-25.161142 6.582857 54.857143 54.857143 0 0 1-34.084572-10.459429c-11.702857-9.508571-19.968-14.848-23.552-31.451428a71.021714 71.021714 0 0 1 0.731429-24.356572c2.998857-13.531429-0.365714-22.162286-10.24-30.134857-8.045714-6.436571-18.139429-8.118857-29.257143-8.118857a24.283429 24.283429 0 0 1-10.971429-3.291428c-4.608-2.267429-8.484571-7.899429-4.827428-14.848a49.225143 49.225143 0 0 1 8.265143-8.630858c15.140571-8.411429 32.621714-5.632 48.859428 0.658286 14.994286 5.924571 26.331429 16.822857 42.715429 32.329143 16.676571 18.651429 19.748571 23.917714 29.257143 37.814857 7.460571 11.044571 14.262857 22.308571 19.017142 35.181714 2.779429 8.045714-0.877714 14.628571-10.752 18.724572z" p-id="2098"></path></svg>
    </g>
  </defs>
</svg>
