<svg>
  <defs>
  <g id="github"><svg fill="currentColor" viewBox="0 0 1024 1024" version="1.1"  p-id="1259"  ><path d="M0 524.992q0 166.016 95.488 298.496t247.488 185.504q6.016 0.992 10.016 0.992t6.496-1.504 4-3.008 2.016-4.992 0.512-4.992v-100.512q-36.992 4-66.016-0.512t-45.504-14.016-28.992-23.488-16.992-25.504-8.992-24-5.504-14.496q-8.992-15.008-27.008-27.488t-27.008-20-2.016-14.496q50.016-26.016 112.992 66.016 34.016 51.008 119.008 30.016 10.016-40.992 40-70.016Q293.984 736 237.984 670.976t-56-158.016q0-87.008 55.008-151.008-22.016-64.992 6.016-136.992 28.992-2.016 64.992 11.488t50.496 23.008 25.504 17.504q56.992-16 128.512-16t129.504 16q12.992-8.992 28.992-19.008t48.992-21.504 60.992-9.504q27.008 71.008 7.008 135.008 56 64 56 151.008 0 92.992-56.992 158.496t-172 85.504q43.008 43.008 43.008 104v128.992q0 0.992 0.992 3.008 0 6.016 0.512 8.992t4.512 6.016 12 3.008q152.992-52 250.496-185.504t97.504-300.512q0-104-40.512-199.008t-108.992-163.488-163.488-108.992T512.032 12.96 313.024 53.472 149.536 162.464t-108.992 163.488-40.512 199.008z" p-id="1260"></path></svg></g>
    <g id="offiaccount">
      <svg fill="currentColor" viewBox="0 0 1024 1024" version="1.1"  p-id="1814"  ><path d="M947 480.6l-62.9-62.9c-4.2-4.2-9.8-6.5-15.7-6.5-19.8 0-29.7 23.9-15.7 37.9l47.2 47.2c8.7 8.7 8.7 22.7 0 31.4L797.4 630.2v145c0 12.3-9.9 22.2-22.2 22.2h-145L527.7 899.9c-8.7 8.7-22.7 8.7-31.4 0l-89.5-89.5-13-13h-145c-12.3 0-22.2-9.9-22.2-22.2v-145L124.1 527.7c-8.7-8.7-8.7-22.7 0-31.4l102.5-102.5v-145c0-12.3 9.9-22.2 22.2-22.2h145l102.5-102.5c8.7-8.7 22.7-8.7 31.4 0l89.5 89.5 13 13h145c12.3 0 22.2 9.9 22.2 22.2V277c0 12.3 9.9 22.2 22.2 22.2 12.3 0 22.2-9.9 22.2-22.2v-50.4c0-24.5-19.9-44.4-44.4-44.4H648.6L543.4 77c-17.3-17.3-45.5-17.3-62.8 0L375.4 182.2H226.6c-24.5 0-44.4 19.9-44.4 44.4v148.8L77 480.6c-17.3 17.3-17.3 45.5 0 62.8l105.2 105.2v148.8c0 24.5 19.9 44.4 44.4 44.4h148.8L480.6 947c17.3 17.3 45.5 17.3 62.8 0l105.2-105.2h148.8c24.5 0 44.4-19.9 44.4-44.4V648.6L947 543.4c17.3-17.3 17.3-45.5 0-62.8z m-276.6-95.3L464.5 591.2 353.6 480.3c-8.7-8.7-23-8.7-31.7 0s-8.7 23 0 31.7l126.7 126.7c4.4 4.4 10.1 6.5 15.8 6.5 5.7 0 11.5-2.2 15.8-6.5L702.1 417c8.7-8.7 8.7-23 0-31.7s-23-8.7-31.7 0z" p-id="1815"></path></svg>
    </g>
    <g id="zhihu">
      <svg fill="currentColor" viewBox="0 0 1024 1024" version="1.1"  p-id="1983"  ><path d="M544.949 561.422s0-71.387-34.779-75.050c-34.779-3.663-142.775 0-142.775 0v-219.654h161.078s-1.83-73.219-32.949-73.219h-261.755l43.93-117.148s-65.897 3.663-89.692 45.761-98.844 252.604-98.844 252.604 25.627 10.983 67.726-20.134c42.101-31.116 56.743-86.033 56.743-86.033l76.879-3.663 1.83 223.316s-133.621-1.83-161.078 0c-27.457 1.83-42.101 75.050-42.101 75.050h203.182s-18.307 124.47-69.557 214.164c-53.085 89.692-151.929 161.078-151.929 161.078s71.387 29.287 140.947-10.983c69.557-42.101 120.811-223.316 120.811-223.316l162.912 203.182s14.643-97.013-1.83-124.47c-18.307-27.457-113.49-137.283-113.49-137.283l-42.101 36.607 29.287-120.811h177.552zM587.050 188.010l-1.83 660.793h65.897l23.795 82.37 115.321-82.37h162.912v-660.793h-366.091zM879.92 775.584h-76.879l-97.013 75.050-21.965-75.050h-20.134v-512.527h215.991v512.527z" p-id="1984"></path></svg>
    </g>
    <g id="wechat">
      <svg fill="currentColor" t="1610466939580" viewBox="0 0 1024 1024" version="1.1"  p-id="2808"  ><path d="M691.230034 363.055736c4.50664 0 8.985652 0.100284 13.443174 0.267083-28.387537-129.98547-162.365948-228.411153-323.384202-228.411153-181.674713 0-328.949964 125.291564-328.949964 279.844569 0 90.298586 50.28629 170.592306 128.319527 221.76171l-32.865525 96.941889 108.828614-59.677171c38.45073 13.407358 80.538291 20.818141 124.666324 20.818141 8.506744 0 16.937764-0.274246 25.28078-0.814552-9.205663-24.38027-14.193257-50.360991-14.193257-77.331249C392.377552 476.507648 526.177907 363.055736 691.230034 363.055736zM494.810502 273.250384c26.828019 0 48.577369 21.748327 48.577369 48.577369 0 26.828019-21.748327 48.577369-48.577369 48.577369s-48.577369-21.748327-48.577369-48.577369C446.234157 294.998711 467.982484 273.250384 494.810502 273.250384zM268.822538 370.404098c-26.828019 0-48.577369-21.748327-48.577369-48.577369 0-26.828019 21.748327-48.577369 48.577369-48.577369s48.577369 21.748327 48.577369 48.577369C317.399907 348.654748 295.65158 370.404098 268.822538 370.404098z" p-id="2809"></path><path d="M968.963523 616.456027c0-130.059148-124.345006-235.492432-277.733489-235.492432S413.497569 486.396879 413.497569 616.456027s124.345006 235.492432 277.733489 235.492432c32.206516 0 63.123666-4.66423 91.88778-13.211906l94.959745 52.070936-27.598568-81.407078C922.118612 766.810407 968.963523 696.275957 968.963523 616.456027zM604.457762 582.663386c-21.48022 0-38.892799-17.412578-38.892799-38.892799 0-21.48022 17.412578-38.892799 38.892799-38.892799 21.48022 0 38.892799 17.412578 38.892799 38.892799C643.35056 565.250808 625.937982 582.663386 604.457762 582.663386zM785.395694 582.663386c-21.48022 0-38.892799-17.412578-38.892799-38.892799 0-21.48022 17.412578-38.892799 38.892799-38.892799 21.48022 0 38.892799 17.412578 38.892799 38.892799C824.288492 565.250808 806.874891 582.663386 785.395694 582.663386z" p-id="2810"></path></svg>
    </g>
    <g id="arrow_right">
      <svg viewBox="0 0 24 24" fill="currentColor"><path d="M0 0h24v24H0V0z" fill="none"/><path d="M8.59 16.59L13.17 12 8.59 7.41 10 6l6 6-6 6-1.41-1.41z"/></svg>
    </g>
    <g id="dark_mode">
      <svg fill="currentColor" enable-background="new 0 0 24 24" viewBox="0 0 24 24"><rect fill="none" height="24" width="24"/><path d="M12,3c-4.97,0-9,4.03-9,9s4.03,9,9,9s9-4.03,9-9c0-0.46-0.04-0.92-0.1-1.36c-0.98,1.37-2.58,2.26-4.4,2.26 c-2.98,0-5.4-2.42-5.4-5.4c0-1.81,0.89-3.42,2.26-4.4C12.92,3.04,12.46,3,12,3L12,3z"/></svg>
    </g>
    <g id="wave">
      <svg fill="currentColor" preserveAspectRatio="none" viewBox="0 0 1920 280">
      <path d="M1920 0v19.386904c-211.21011 136.245161-517.56385 173.305269-919.06121 111.180324C679.06786 80.763131 345.421597 103.907388 0 200L-2 0h1922z">
      </path>
      <path d="M1920 5e-7v4C1667.96041 175.947611 1365.12512 235.086515 1011.49414 181.416714 361.105403 82.708636-2.15142107 200 .25415139 200 1.85786636 200 1.10648256 133.333334-2 5e-7h1922z"
        fill-opacity=".35"></path>
      <path d="M1920 0v29.7237781C1689.33854 194.640614 1390.184 251.491708 1022.53638 200.27706 568.814969 137.07202 198.918919 150.11433 0 269V0h1920z"
        fill-opacity=".17"></path>
      <path d="M1919.999998 0v29.7237781c-223.98059 145.4796669-526.68468 188.5528329-908.11226 129.2194999C630.460153 99.609945 293.299854 122.962185.406838 229V0h1919.59316z"
        fill-opacity=".45"></path>
      </svg>
    </g>
  </defs>
</svg>
