<svg width="433" height="153" viewBox="0 0 433 153" fill="none" xmlns="http://www.w3.org/2000/svg">
<path d="M426.43 110.157C423.025 114.166 418.674 113 415.161 112.577C394.017 110.279 372.678 108.706 351.923 104.958C309.139 97.3799 266.678 88.5931 224.265 80.5962C220.817 79.9312 217.304 79.5079 213.419 79.5033C226.431 88.9479 240.946 95.6865 253.651 105.308C253.086 106.452 252.585 107.354 252.019 108.497C249.296 108.027 246.201 107.975 243.672 106.779C223.988 97.1007 204.126 87.116 184.571 76.9544C177.29 73.1902 177.135 67.9677 184.072 63.3501C189.411 59.8589 195.346 57.0454 201.151 54.7152C213.858 49.8306 226.741 45.2524 239.625 40.6742C248.171 37.7831 249.138 38.0422 258.37 41.2929C244.864 53.9939 226.344 54.4714 210.956 63.5596C214.033 64.6432 216.256 66.0159 218.738 66.4218C284.129 79.5396 349.278 92.5925 414.669 105.71C418.36 106.44 423.228 105.672 426.43 110.157Z" fill="#3758F9"/>
<path d="M152.419 71.5033C156.304 71.5079 141.43 62.1742 143.43 62.6742L143.43 61.6742C140.949 61.2683 153.033 56.6432 149.956 55.5596C165.344 46.4714 183.864 45.9939 197.37 33.2929C188.138 30.0422 187.171 29.7831 178.625 32.6742L178.625 32.6743C165.741 37.2525 152.858 41.8306 140.151 46.7152C134.346 49.0454 128.411 51.8589 123.072 55.3501C116.135 59.9677 116.29 65.1902 123.571 68.9544C143.126 79.116 162.988 89.1007 182.672 98.7789C185.201 99.9747 188.296 100.027 191.019 100.497C191.585 99.3537 192.086 98.4517 192.651 97.308C179.946 87.6865 165.431 80.9479 152.419 71.5033Z" fill="#3758F9" fill-opacity="0.4"/>
<path d="M95.4192 64.5033C99.3037 64.5079 84.4302 55.1742 86.4302 55.6742L86.4302 54.6742C83.9486 54.2683 96.0334 49.6432 92.9562 48.5596C108.344 39.4714 126.864 38.9939 140.37 26.2929C131.138 23.0422 130.171 22.7831 121.625 25.6742L121.625 25.6743C108.741 30.2525 95.8576 34.8306 83.1509 39.7152C77.3456 42.0454 71.4108 44.8589 66.0716 48.3501C59.1353 52.9677 59.2902 58.1902 66.5711 61.9544C86.1262 72.116 105.988 82.1007 125.672 91.7789C128.201 92.9747 131.296 93.0267 134.019 93.4974C134.585 92.3537 135.086 91.4517 135.651 90.308C122.946 80.6865 108.431 73.9479 95.4192 64.5033Z" fill="#3758F9" fill-opacity="0.1"/>
<path d="M39.4192 56.5033C43.3037 56.5079 28.4302 47.1742 30.4302 47.6742L30.4302 46.6742C27.9486 46.2683 40.0334 41.6432 36.9562 40.5596C52.3437 31.4714 70.8638 30.9939 84.3698 18.2929C75.138 15.0422 74.1712 14.7831 65.6252 17.6742L65.6248 17.6743C52.7412 22.2525 39.8576 26.8306 27.1509 31.7152C21.3456 34.0454 15.4108 36.8589 10.0716 40.3501C3.13531 44.9677 3.29025 50.1902 10.5711 53.9544C30.1262 64.116 49.9877 74.1007 69.6723 83.7789C72.2014 84.9747 75.296 85.0267 78.0194 85.4974C78.5849 84.3537 79.0856 83.4517 79.6511 82.308C66.9455 72.6865 52.4313 65.9479 39.4192 56.5033Z" fill="#3758F9" fill-opacity="0.04"/>
</svg>
