<svg enable-background="new 0 0 200.4 66.5" viewBox="0 0 200.4 66.5" xmlns="http://www.w3.org/2000/svg"><g fill="#8c98a4"><path d="m161.8 21.8c-1.6-1.8-4.4-2.8-8.1-2.8h-11.1c-.8 0-1.4.6-1.5 1.3l-4.5 28.4c-.1.6.3 1.1.9 1.1h5.7c.5 0 1-.4 1.1-.9l1.3-8c.1-.7.8-1.3 1.5-1.3h3.5c7.3 0 11.5-3.5 12.6-10.5.5-3.2 0-5.6-1.4-7.3zm-6.8 7.6c-.6 4-3.6 4-6.6 4h-1.7l1.2-7.4c.1-.4.5-.8.9-.8h.8c2 0 3.9 0 4.9 1.1.5.7.7 1.7.5 3.1z"/><path d="m186.8 29.3h-5.3c-.5 0-.8.3-.9.8l-.2 1.5-.4-.5c-1.1-1.7-3.7-2.2-6.3-2.2-5.9 0-10.9 4.4-11.8 10.7-.5 3.1.2 6.1 2 8.1 1.6 1.9 3.9 2.7 6.7 2.7 4.7 0 7.3-3 7.3-3l-.2 1.5c-.1.6.3 1.1.9 1.1h4.8c.8 0 1.4-.6 1.5-1.3l2.9-18.1c0-.8-.4-1.3-1-1.3zm-7.4 10.3c-.5 3-2.9 5.1-6 5.1-1.5 0-2.8-.5-3.6-1.4s-1.1-2.3-.8-3.7c.5-3 2.9-5.1 5.9-5.1 1.5 0 2.7.5 3.5 1.4.9.9 1.3 2.2 1 3.7z"/><path d="m199.1 19h-5.1c-.5 0-.8.3-.9.8l-4.5 28.9c-.1.6.3 1.1.9 1.1h4.6c.8 0 1.4-.5 1.5-1.3l4.4-28.4c.1-.6-.4-1.1-.9-1.1z"/><path d="m82.9 21.8c-1.6-1.8-4.4-2.8-8.1-2.8h-11.1c-.8 0-1.4.6-1.5 1.3l-4.5 28.4c-.1.6.3 1.1.9 1.1h5.3c.8 0 1.4-.5 1.5-1.3l1.2-7.7c.1-.7.8-1.3 1.5-1.3h3.5c7.3 0 11.5-3.5 12.6-10.5.6-3.1.1-5.5-1.3-7.2zm-6.8 7.6c-.6 4-3.6 4-6.6 4h-1.7l1.2-7.4c.1-.4.5-.8.9-.8h.8c2 0 3.9 0 4.9 1.1.5.7.7 1.7.5 3.1z"/><path d="m107.9 29.3h-5.3c-.5 0-.8.3-.9.8l-.2 1.5-.4-.5c-1.1-1.7-3.7-2.2-6.3-2.2-5.9 0-10.9 4.4-11.8 10.7-.5 3.1.2 6.1 2 8.1 1.6 1.9 3.9 2.7 6.7 2.7 4.7 0 7.3-3 7.3-3l-.2 1.5c-.1.6.3 1.1.9 1.1h4.8c.8 0 1.4-.6 1.5-1.3l2.9-18.1c0-.8-.5-1.3-1-1.3zm-7.4 10.3c-.5 3-2.9 5.1-6 5.1-1.5 0-2.8-.5-3.6-1.4s-1.1-2.3-.8-3.7c.5-3 2.9-5.1 5.9-5.1 1.5 0 2.7.5 3.5 1.4.9.9 1.2 2.2 1 3.7z"/><path d="m136.1 29.3h-5.3c-.5 0-1 .3-1.3.7l-7.3 10.8-3.2-10.4c-.2-.7-.8-1.1-1.5-1.1h-5.2c-.6 0-1.1.6-.9 1.2l5.9 17.2-5.5 7.8c-.4.6 0 1.5.8 1.5h5.3c.5 0 1-.2 1.3-.7l17.7-25.6c.4-.6-.1-1.4-.8-1.4z"/></g><path d="m39.5 22.2c-.6-.7-1.3-1.2-2.2-1.7 0 .3-.1.6-.2.9s-.1.6-.2.8c-1.9 8.5-7.3 12.1-14.3 12.9-.5.1-.9.1-1.4.1s-1.1 0-1.6 0h-4.5c-1.1 0-2 .8-2.1 1.8l-2 12.8-.3 1.7-.7 4.1c-.1.7.4 1.3 1.1 1.3h7.9c.9 0 1.7-.7 1.9-1.6l.1-.4 1.5-9.4.1-.5c.1-.9.9-1.6 1.9-1.6h1.2c7.7 0 13.6-3.1 15.4-12.1.7-3.8.3-6.9-1.6-9.1z" fill="#909da5"/><path d="m13 37.1.1-.5 2.5-16c.1-.6.5-1.2 1.1-1.4.3-.1.5-.2.8-.2h11.9c1.4 0 2.7.1 3.9.3.3.1.7.1 1 .2s.6.2.9.2c.1 0 .2.1.3.1h.1.1c.6.2 1.1.4 1.6.7.6-3.8 0-6.4-2.1-8.7-2.2-2.6-6.3-3.7-11.5-3.7h-15.2c-1.1 0-2 .8-2.1 1.8l-6.4 40.1c-.1.8.5 1.5 1.3 1.5h9.4l.3-1.7z" fill="#8c98a4"/><path d="m37.3 20.5c-.5-.3-1-.5-1.6-.7 0 0 0 0-.1 0h-.1c-.1 0-.2-.1-.3-.1-.3-.1-.6-.2-.9-.2-.3-.1-.7-.1-1-.2-1.2-.2-2.5-.3-3.9-.3h-12c-.3 0-.6.1-.8.2-.5.3-1 .8-1.1 1.4l-2.5 16v.5c.2-1.1 1.1-1.8 2.1-1.8h4.5 1.6s1-.1 1.4-.1c7-.8 12.4-4.4 14.4-12.8.1-.3.1-.5.2-.8 0-.5.1-.8.1-1.1z" fill="#8c98a4"/></svg>