<svg enable-background="new 0 0 200.4 66.5" viewBox="0 0 200.4 66.5" xmlns="http://www.w3.org/2000/svg"><path d="m43.6 15.3c0-.3-.3-.4-.5-.5-.2 0-4.5-.3-4.5-.3s-3-3-3.3-3.3-1-.2-1.2-.2c0 0-.7.2-1.7.5-1-2.9-2.7-5.5-5.8-5.5h-.2c-.9-1.1-2-1.7-2.9-1.7-7.2 0-10.6 9-11.7 13.6-2.8.9-4.8 1.5-5 1.5-1.5.5-1.6.5-1.8 2-.2 1-4.2 32.6-4.2 32.6l31.7 5.9 17.2-3.6s-6-40.7-6.1-41zm-12.9-3.2c-.8.3-1.7.5-2.7.8v-.6c0-1.8-.3-3.2-.7-4.3 1.7.1 2.8 2 3.4 4.1zm-5.2-3.7c.4 1.1.7 2.7.7 4.8v.3c-1.7.5-3.6 1.1-5.5 1.7 1-4.1 3-6.1 4.8-6.8zm-2.2-2c.3 0 .6.1.9.3-2.3 1.1-4.8 3.8-5.8 9.3-1.5.5-3 .9-4.4 1.3 1.3-4.2 4.2-10.9 9.3-10.9z" fill="#8c98a4"/><path d="m43.1 14.8c-.2 0-4.5-.3-4.5-.3s-3-3-3.3-3.3c-.1-.1-.3-.2-.5-.2l-2.4 49 17.3-3.7s-6-40.8-6.1-41.1c0-.3-.3-.4-.5-.4z" fill="#8c98a4"/><path d="m26.7 24.3-2.1 6.3s-1.9-1-4.1-1c-3.3 0-3.5 2.1-3.5 2.6 0 2.9 7.5 4 7.5 10.7 0 5.3-3.4 8.7-7.9 8.7-5.4 0-8.2-3.4-8.2-3.4l1.4-4.8s2.9 2.5 5.3 2.5c1.6 0 2.2-1.2 2.2-2.2 0-3.8-6.2-3.9-6.2-10.1 0-5.2 3.7-10.2 11.3-10.2 2.9 0 4.3.9 4.3.9z" fill="#fff"/><path d="m69.8 36.1c-1.7-.9-2.6-1.7-2.6-2.8 0-1.4 1.2-2.3 3.2-2.3 2.2 0 4.2.9 4.2.9l1.6-4.8s-1.4-1.1-5.7-1.1c-5.9 0-10 3.4-10 8.1 0 2.7 1.9 4.8 4.5 6.2 2.1 1.2 2.8 2 2.8 3.2 0 1.3-1 2.3-3 2.3-2.9 0-5.5-1.5-5.5-1.5l-1.7 4.8s2.5 1.7 6.7 1.7c6.1 0 10.4-3 10.4-8.4-.1-2.7-2.3-4.7-4.9-6.3zm24.2-10c-3 0-5.3 1.4-7.2 3.6h-.1l2.6-13.7h-6.8l-6.6 34.6h6.8l2.3-11.8c.9-4.5 3.2-7.2 5.3-7.2 1.5 0 2.1 1 2.1 2.5 0 .9-.1 2.1-.3 3l-2.6 13.5h6.9l2.7-14c.3-1.5.5-3.2.5-4.4-.1-3.8-2.1-6.1-5.6-6.1zm20.8 0c-8.1 0-13.5 7.4-13.5 15.5 0 5.3 3.2 9.5 9.3 9.5 8 0 13.4-7.2 13.4-15.5 0-5-2.9-9.5-9.2-9.5zm-3.3 19.7c-2.3 0-3.3-2-3.3-4.4 0-3.9 2-10.2 5.7-10.2 2.4 0 3.2 2.1 3.2 4.1-.1 4.1-2.1 10.5-5.6 10.5zm29.8-19.7c-4.6 0-7.2 4-7.2 4h-.1l.4-3.6h-6c-.3 2.5-.8 6.2-1.4 9l-4.6 24.7h6.7l1.9-10h.1s1.4.9 4 .9c7.9 0 13.1-8.1 13.1-16.4 0-4.6-2-8.6-6.9-8.6zm-6.5 19.7c-1.8 0-2.8-1-2.8-1l1.1-6.3c.8-4.2 3-7 5.3-7 2.1 0 2.7 1.9 2.7 3.7.1 4.5-2.5 10.6-6.3 10.6zm23.1-29.5c-2.2 0-3.9 1.7-3.9 3.9 0 2 1.3 3.4 3.2 3.4h.1c2.1 0 3.9-1.4 4-3.9 0-1.9-1.4-3.4-3.4-3.4zm-9.5 34.1h6.8l4.6-24h-6.8m24 .2h-4.7l.2-1.1c.4-2.3 1.8-4.4 4-4.4 1.2 0 2.2.3 2.2.3l1.3-5.3s-1.2-.6-3.7-.6c-2.4 0-4.8.7-6.6 2.3-2.3 2-3.4 4.8-3.9 7.6l-.2 1.1h-3.2l-1 5.1h3.2l-3.6 18.8h6.8l3.6-18.9h4.7zm16.2 0s-4.2 10.7-6.1 16.5h-.1c-.1-1.9-1.7-16.5-1.7-16.5h-7.1l4.1 22c.1.5 0 .8-.1 1.1-.8 1.5-2.1 3-3.7 4.1-1.3.9-2.7 1.5-3.8 1.9l1.9 5.7c1.4-.3 4.2-1.4 6.6-3.7 3.1-2.9 5.9-7.4 8.9-13.4l8.3-17.7z" fill="#8c98a4"/></svg>