<svg enable-background="new 0 0 200.4 66.5" viewBox="0 0 200.4 66.5" xmlns="http://www.w3.org/2000/svg"><path d="m30 2.8c-16.6 0-30 13.4-30 30s13.4 30 30 30 30-13.4 30-30-13.4-30-30-30zm13.8 43.3c-.5.9-1.7 1.2-2.6.6-7-4.3-15.9-5.3-26.4-2.9-1 .2-2-.4-2.2-1.4s.4-2 1.4-2.2c11.4-2.6 21.2-1.5 29.1 3.3.9.5 1.2 1.7.7 2.6zm3.6-8.2c-.7 1.1-2.1 1.4-3.2.8-8.1-5-20.4-6.4-29.9-3.5-1.2.4-2.5-.3-2.9-1.6-.4-1.2.3-2.5 1.6-2.9 10.9-3.3 24.4-1.7 33.7 4 1.1.7 1.4 2.1.7 3.2zm.4-8.5c-9.7-5.7-25.6-6.3-34.9-3.5-1.5.4-3.1-.4-3.5-1.9s.4-3 1.9-3.5c10.6-3.2 28.2-2.6 39.3 4 1.3.8 1.8 2.5 1 3.8-.8 1.4-2.5 1.9-3.8 1.1zm33.8 1.1c-5.2-1.2-6.1-2.1-6.1-3.9 0-1.7 1.6-2.9 4-2.9 2.3 0 4.7.9 7.1 2.7.1.1.2.1.3.1s.2-.1.2-.1l2.5-3.6c.1-.1.1-.3-.1-.5-2.9-2.3-6.1-3.4-9.9-3.4-5.6 0-9.5 3.4-9.5 8.2 0 5.1 3.4 7 9.2 8.4 5 1.1 5.8 2.1 5.8 3.8 0 1.9-1.7 3.1-4.4 3.1-3 0-5.5-1-8.3-3.4 0-.2-.1-.2-.2-.2s-.2.1-.2.1l-2.8 3.4c-.1.1-.1.4 0 .5 3.2 2.9 7.2 4.4 11.4 4.4 6 0 9.9-3.3 9.9-8.4 0-4.4-2.5-6.8-8.9-8.3zm22.6-5.1c-2.6 0-4.8 1-6.5 3.1v-2.4c0-.2-.2-.3-.3-.3h-4.6c-.2 0-.3.2-.3.3v26.4c0 .2.2.3.3.3h4.5c.2 0 .3-.2.3-.3v-8.3c1.8 2 3.9 3 6.5 3 4.9 0 9.8-3.7 9.8-10.9s-4.9-10.9-9.7-10.9zm4.3 10.9c0 3.6-2.2 6.2-5.4 6.2s-5.6-2.7-5.6-6.2 2.4-6.2 5.6-6.2c3.1 0 5.4 2.6 5.4 6.2zm18-10.9c-6.3 0-11.1 4.8-11.1 11 0 6.1 4.9 10.8 11.1 10.8 6.3 0 11.2-4.8 11.2-10.9-.1-6.1-5-10.9-11.2-10.9zm0 17.1c-3.3 0-5.8-2.7-5.8-6.2 0-3.6 2.4-6.1 5.8-6.1 3.3 0 5.9 2.7 5.9 6.2-.1 3.5-2.5 6.1-5.9 6.1zm24.5-16.7h-5.1v-5.2c0-.2-.2-.3-.3-.3h-4.6c-.2 0-.3.2-.3.3v5.2h-2.4c-.2 0-.3.2-.3.3v4c0 .2.2.3.3.3h2.2v10.4c0 4.2 2.1 6.3 6.2 6.3 1.7 0 3-.3 4.3-1.1.1-.1.2-.2.2-.3v-3.8c0-.1-.1-.2-.2-.3s-.2-.1-.3 0c-.9.4-1.8.7-2.7.7-1.5 0-2.2-.7-2.2-2.2v-9.6h5.1c.2 0 .3-.2.3-.3v-4c.1-.2 0-.4-.2-.4zm17.8 0v-.6c0-1.9.7-2.7 2.3-2.7 1 0 1.7.2 2.6.5h.3c.1-.1.1-.2.1-.3v-3.9c0-.1-.1-.3-.2-.3-.9-.3-2.1-.6-3.9-.6-4.3 0-6.5 2.4-6.5 7v1h-2.2c-.2 0-.3.2-.3.3v4c0 .2.2.3.3.3h2.2v15.9c0 .2.2.3.3.3h4.6c.2 0 .3-.2.3-.3v-15.9h4.3l6.6 15.9c-.8 1.7-1.5 2-2.5 2-.8 0-1.7-.2-2.6-.7-.1 0-.2-.1-.3 0-.1 0-.2.1-.2.2l-1.6 3.4c-.1.2 0 .4.1.4 1.6.9 3.1 1.3 5 1.3 3.4 0 5.3-1.6 7-5.9l8-20.8c0-.1 0-.2 0-.3-.1-.1-.2-.1-.3-.1h-4.8c-.1 0-.3.1-.3.2l-4.9 14.1-5.4-14.1c-.1-.1-.2-.2-.3-.2zm-10.4 0h-4.6c-.2 0-.3.2-.3.3v20.2c0 .2.2.3.3.3h4.6c.2 0 .3-.2.3-.3v-20.1c.1-.2-.1-.4-.3-.4zm-2.2-9.2c-1.8 0-3.3 1.5-3.3 3.3s1.5 3.3 3.3 3.3 3.3-1.5 3.3-3.3-1.5-3.3-3.3-3.3zm40.6 15.7c-1.8 0-3.3-1.5-3.3-3.3s1.4-3.3 3.3-3.3 3.3 1.5 3.3 3.3-1.5 3.3-3.3 3.3zm0-6.2c-1.7 0-2.9 1.3-2.9 3 0 1.6 1.3 2.9 2.9 2.9 1.7 0 2.9-1.3 2.9-3 0-1.6-1.2-2.9-2.9-2.9zm.7 3.3.9 1.3h-.8l-.8-1.2h-.7v1.2h-.7v-3.4h1.5c.8 0 1.3.4 1.3 1.1.1.5-.2.8-.7 1zm-.5-1.6h-.8v1.1h.8c.4 0 .7-.2.7-.5-.1-.4-.3-.6-.7-.6z" fill="#8c98a4"/></svg>