<svg height="512" viewBox="0 0 512 512" width="512" xmlns="http://www.w3.org/2000/svg"><path d="m63 393v-233h-30v233a33.038 33.038 0 0 0 33 33h30a33.038 33.038 0 0 1 -33-33z" fill="#d4e1f4"/><path d="m80 86.621v-3.621h-15a33.038 33.038 0 0 0 -33 33v33h30v-33a33.028 33.028 0 0 1 18-29.379z" fill="#d4e1f4"/><g fill="#2eca8b"><path d="m59.156 240.133h38a11.012 11.012 0 0 0 11-11v-38a11.012 11.012 0 0 0 -11-11h-38a11.013 11.013 0 0 0 -11 11v38a11.012 11.012 0 0 0 11 11zm3-46h32v32h-32z"/><path d="m124.156 191.133v38a11.012 11.012 0 0 0 11 11h38a11.012 11.012 0 0 0 11-11v-38a11.012 11.012 0 0 0 -11-11h-38a11.013 11.013 0 0 0 -11 11zm14 3h32v32h-32z"/><path d="m212.156 240.133h38a11.012 11.012 0 0 0 11-11v-38a11.012 11.012 0 0 0 -11-11h-38a11.013 11.013 0 0 0 -11 11v38a11.012 11.012 0 0 0 11 11zm3-46h32v32h-32z"/><path d="m288.156 240.133h38a11.012 11.012 0 0 0 11-11v-38a11.012 11.012 0 0 0 -11-11h-38a11.013 11.013 0 0 0 -11 11v38a11.012 11.012 0 0 0 11 11zm3-46h32v32h-32z"/><path d="m354.156 191.133v38a11.012 11.012 0 0 0 11 11h38a11.012 11.012 0 0 0 11-11v-38a11.012 11.012 0 0 0 -11-11h-38a11.013 11.013 0 0 0 -11 11zm14 3h32v32h-32z"/><path d="m60.156 325.133h38a11.012 11.012 0 0 0 11-11v-38a11.012 11.012 0 0 0 -11-11h-38a11.013 11.013 0 0 0 -11 11v38a11.012 11.012 0 0 0 11 11zm3-46h32v32h-32z"/><path d="m174.156 265.133h-38a11.013 11.013 0 0 0 -11 11v38a11.012 11.012 0 0 0 11 11h38a11.012 11.012 0 0 0 11-11v-38a11.012 11.012 0 0 0 -11-11zm-3 46h-32v-32h32z"/><path d="m251.156 265.133h-38a11.013 11.013 0 0 0 -11 11v38a11.012 11.012 0 0 0 11 11h38a11.012 11.012 0 0 0 11-11v-38a11.012 11.012 0 0 0 -11-11zm-3 46h-32v-32h32z"/><path d="m49.156 394.133a11.012 11.012 0 0 0 11 11h38a11.012 11.012 0 0 0 11-11v-39a11.012 11.012 0 0 0 -11-11h-38a11.013 11.013 0 0 0 -11 11zm14-36h32v33h-32z"/><path d="m174.156 405.133a11.012 11.012 0 0 0 11-11v-39a11.012 11.012 0 0 0 -11-11h-38a11.013 11.013 0 0 0 -11 11v39a11.012 11.012 0 0 0 11 11zm-35-47h32v33h-32z"/><path d="m331.156 295.133a7 7 0 0 0 7-7v-12a11.012 11.012 0 0 0 -11-11h-38a11.013 11.013 0 0 0 -11 11v38a11.012 11.012 0 0 0 11 11h11a7 7 0 0 0 0-14h-8v-32h32v9a7 7 0 0 0 7 7z"/><path d="m336.724 410.645a6.965 6.965 0 0 0 3.665-1.041l48.438-29.834a7 7 0 0 0 3.329-5.96v-76.677a7 7 0 0 0 -14 0v72.767l-45.109 27.783a7 7 0 0 0 3.677 12.962z"/><path d="m99.055 120.133h4.2a24.927 24.927 0 0 0 24.9-24.9v-40.2a24.927 24.927 0 0 0 -24.9-24.9h-4.2a24.928 24.928 0 0 0 -24.9 24.9v40.2a24.928 24.928 0 0 0 24.9 24.9zm-10.9-65.1a10.912 10.912 0 0 1 10.9-10.9h4.2a10.912 10.912 0 0 1 10.9 10.9v40.2a10.911 10.911 0 0 1 -10.9 10.9h-4.2a10.911 10.911 0 0 1 -10.9-10.9z"/><path d="m359.055 120.133h4.2a24.927 24.927 0 0 0 24.9-24.9v-40.2a24.927 24.927 0 0 0 -24.9-24.9h-4.2a24.928 24.928 0 0 0 -24.9 24.9v40.2a24.928 24.928 0 0 0 24.9 24.9zm-10.9-65.1a10.912 10.912 0 0 1 10.9-10.9h4.2a10.912 10.912 0 0 1 10.9 10.9v40.2a10.911 10.911 0 0 1 -10.9 10.9h-4.2a10.911 10.911 0 0 1 -10.9-10.9z"/></g><path d="m122.156 89.133h219a7 7 0 0 0 0-14h-219a7 7 0 0 0 0 14z" fill="#2f55d4"/><path d="m444.156 282.913v-165.233c0-23.858-18.2-42.547-41.437-42.547h-21.563a7 7 0 0 0 0 14h21.563c15.385 0 27.437 12.539 27.437 28.547v28.453h-398v-28.453c0-15.207 14.246-28.547 30.485-28.547h18.515a7 7 0 0 0 0-14h-18.515c-24.113 0-44.485 19.484-44.485 42.547v277.432c0 23.32 20.372 43.021 44.485 43.021h236.374a108.025 108.025 0 1 0 145.141-155.22zm-381.515 141.22c-16.239 0-30.485-13.561-30.485-29.021v-234.979h398v115.155a108.028 108.028 0 0 0 -139.968 148.845zm323.146 43.734a94.057 94.057 0 1 1 94.057-94.056 94.164 94.164 0 0 1 -94.057 94.056z" fill="#2f55d4"/></svg>