<?xml version="1.0"?>
<svg xmlns="http://www.w3.org/2000/svg" height="512px" viewBox="0 -23 458.01754 458" width="512px" class=""><g><g fill="#d4e1f4"><path d="m274.496094 352.351562c-3.53125 1.46875-7.503906 1.46875-11.035156 0-171.015626-67.859374-229.492188-193.636718-211.289063-288.519531 2.234375-12.027343 5.855469-23.753906 10.800781-34.945312-25.484375 18.042969-43.703125 47.527343-50.800781 84.945312-18.199219 94.886719 40.273437 220.667969 211.289063 288.523438 3.53125 1.46875 7.503906 1.46875 11.035156 0 87.894531-35.609375 145.949218-85.84375 179.238281-138.984375-33.746094 33.945312-79.625 64.828125-139.238281 88.980468zm0 0" data-original="#D4E1F4" class=""/><path d="m240.855469 188.378906c-11.683594.019532-21.175781-9.433594-21.199219-21.121094-7.945312 5.988282-10.652344 16.695313-6.5 25.738282 4.148438 9.039062 14.035156 13.96875 23.753906 11.84375s16.644532-10.730469 16.644532-20.675782v-.015624c-3.660157 2.75-8.117188 4.234374-12.699219 4.230468zm0 0" data-original="#D4E1F4" class=""/><path d="m222.203125 393.652344-6.300781-104.8125-19.042969.015625-.019531-39.125c.003906-10.128907 4.332031-19.777344 11.894531-26.519531-16.722656 3.308593-28.789063 17.949218-28.847656 34.992187l.023437 49.125 19.039063-.011719 6.300781 84.808594 29.820312 10 .878907-8.472656zm0 0" data-original="#D4E1F4" class=""/><path d="m171.488281 103.890625h-.019531c-12.425781.019531-23.914062-6.605469-30.117188-17.371094-6.207031-10.761719-6.183593-24.023437.0625-34.765625-18.09375 2.441406-31.199218 18.488282-29.980468 36.707032 1.222656 18.21875 16.351562 32.375 34.609375 32.378906h.023437c12.351563-.019532 23.765625-6.589844 29.988282-17.261719-1.511719.203125-3.039063.308594-4.566407.3125zm0 0" data-original="#D4E1F4" class=""/><path d="m327.042969 127.054688h-.019531c-13.015626.035156-24.953126-7.226563-30.90625-18.796876-5.957032-11.570312-4.929688-25.5 2.660156-36.070312-18.570313 1.488281-32.648438 17.378906-31.890625 35.992188.757812 18.613281 16.082031 33.304687 34.710937 33.28125h.023438c11.191406-.03125 21.691406-5.4375 28.222656-14.53125-.925781.070312-1.855469.125-2.800781.125zm0 0" data-original="#D4E1F4" class=""/><path d="m93.03125 234.472656 12.0625-.011718 4.800781 100.769531 26.160157 10-5.535157-127.71875-12.0625.011719h-.007812c-4.210938 0-7.628907-3.414063-7.625-7.625l-.019531-45.867188c-.023438-9.214844 2.898437-18.195312 8.34375-25.632812-19.746094 4.679687-33.710938 22.289062-33.765626 42.582031l.015626 45.867187c0 4.210938 3.414062 7.621094 7.625 7.625zm0 0" data-original="#D4E1F4" class=""/><path d="m255.496094 244.613281c1.027344 1.367188 2.625 2.1875 4.335937 2.230469h.007813l9.710937-.011719 3.101563 118.402344 21.027344 10-3.65625-136.871094-9.710938.007813h-.007812c-1.710938-.039063-3.308594-.863282-4.335938-2.230469-1.191406-1.542969-1.828125-3.441406-1.800781-5.394531l-.011719-48.914063c-.082031-8.988281 2.238281-17.839843 6.714844-25.636719-6.6875 2.074219-12.570313 6.15625-16.851563 11.691407-6.667969 8.285156-10.339843 19.261719-10.332031 30.894531l.011719 40.441406c-.023438 1.949219.605469 3.847656 1.796875 5.390625zm0 0" data-original="#D4E1F4" class=""/></g><path d="m228.980469 412.453125c-2.851563-.09375-5.671875-.621094-8.363281-1.566406-.160157-.050781-.316407-.109375-.472657-.171875-175.949219-69.8125-235.675781-200.265625-216.8125-298.585938 12.917969-68.097656 61.429688-112.1210935 123.589844-112.1210935 33.167969 0 67.503906 12.4765625 102.132813 37.0898435 34.164062-23.566406 69.117187-35.984375 101.433593-35.984375 61.804688 0 110.523438 43.542969 124.121094 110.933594 0 .023437.011719.042969.015625.066406 10.125 52.15625-2.582031 108.972657-35.773438 159.984375-37.730468 57.988282-100.308593 105.914063-180.972656 138.59375-.175781.070313-.355468.136719-.535156.199219-2.691406.945313-5.511719 1.472656-8.363281 1.5625zm-2.453125-18.570313c.804687.277344 1.636718.46875 2.484375.570313.8125-.109375 1.613281-.300781 2.394531-.5625 77.097656-31.285156 136.6875-76.789063 172.355469-131.609375 30.625-47.066406 42.414062-99.164062 33.199219-146.699219-5.863282-29.03125-18.964844-53.414062-37.890626-70.511719-18.792968-16.980468-42.507812-25.953124-68.582031-25.953124-30.183593 0-63.457031 12.570312-96.21875 36.347656-3.1875 2.316406-7.511719 2.289062-10.667969-.070313-33.25-24.796875-65.777343-37.378906-96.675781-37.378906-26.136719 0-49.816406 9.007813-68.476562 26.054687-18.902344 17.261719-31.84375 41.960938-37.433594 71.433594-17.464844 91.011719 39.3125 212.339844 205.511719 278.378906zm0 0" fill="#1ae5be" data-original="#1AE5BE" class="active-path" style="fill:#2ECA8B" data-old_color="#1ae5be"/><path d="m149.789062 125.449219c14.820313.066406 28.542969-7.800781 35.96875-20.628907 7.425782-12.824218 7.421876-28.644531-.011718-41.464843-7.4375-12.820313-21.167969-20.679688-35.988282-20.601563h-.027343c-22.839844.007813-41.34375 18.527344-41.335938 41.363282.007813 22.839843 18.527344 41.34375 41.363281 41.335937zm-23.433593-41.332031c.003906-12.910157 10.476562-23.371094 23.386719-23.363282h.015624c12.898438 0 23.363282 10.433594 23.402344 23.332032-.007812 12.910156-10.480468 23.371093-23.390625 23.363281h-.015625c-12.894531 0-23.363281-10.433594-23.402344-23.332031zm0 0" fill="#0635c9" data-original="#0635C9" class="" style="fill:#2F55D4" data-old_color="#0635c9"/><path d="m329.367188 156.164062h-.039063l-42.84375.03125c-9.714844.023438-19.230469 2.753907-27.476563 7.886719-6.023437-9.617187-16.566406-15.460937-27.914062-15.464843h-.023438c-6.796874 0-13.425781 2.113281-18.96875 6.046874-9.890624-12.347656-24.847656-19.539062-40.667968-19.554687h-.039063l-42.84375.027344c-28.796875.035156-52.136719 23.367187-52.171875 52.167969l.027344 54.796874c0 4.972657 4.027344 9 9 9h.003906l14.519532-.011718 4.753906 85.816406c.265625 4.765625 4.203125 8.496094 8.976562 8.5.167969 0 .335938 0 .5-.015625 4.964844-.273437 8.765625-4.519531 8.492188-9.484375l-5.222656-94.320312c-.265626-4.769532-4.210938-8.5-8.988282-8.5h-.003906l-14.042969.011718-.019531-45.800781c.03125-18.863281 15.320312-34.140625 34.183594-34.15625l42.84375-.03125h.023437c11.367188.019531 21.984375 5.675781 28.34375 15.09375.253907.375.488281.761719.730469 1.148437-4.050781 10.136719-2.800781 21.621094 3.332031 30.652344 6.128907 9.027344 16.34375 14.425782 27.257813 14.402344h.023437c17.699219 0 32.226563-14 32.882813-31.6875.371094-.328125.75-.652344 1.132812-.964844 6.039063-4.902344 13.585938-7.570312 21.363282-7.554687l42.84375-.03125h.027343c18.847657 0 34.144531 15.25 34.203125 34.101562l.019532 35.273438-14.042969.011719c-4.773438.003906-8.714844 3.734374-8.980469 8.5l-4.800781 85.636718c-.277344 4.964844 3.519531 9.210938 8.484375 9.492188.171875.007812.339844.011718.507812.011718 4.773438-.003906 8.714844-3.734374 8.980469-8.5l4.324219-77.148437 14.539062-.007813c4.96875-.003906 8.992188-4.03125 8.992188-9l-.023438-44.277343c-.070312-28.78125-23.417968-52.082031-52.199218-52.097657zm-87.699219 35.867188c-2.796875 2.808594-6.597657 4.382812-10.5625 4.375h-.011719c-5.347656.046875-10.3125-2.78125-13-7.40625s-2.691406-10.335938-.003906-14.964844c2.683594-4.625 7.644531-7.457031 12.996094-7.414062h.007812c8.226562-.003906 14.90625 6.652344 14.933594 14.882812.011718 3.949219-1.554688 7.742188-4.359375 10.527344zm0 0" fill="#0635c9" data-original="#0635C9" class="" style="fill:#2F55D4" data-old_color="#0635c9"/><path d="m307.71875 146.503906c15.046875-.011718 28.902344-8.171875 36.207031-21.324218h3.175781c9.273438.058593 17.867188-4.855469 22.519532-12.878907 4.652344-8.019531 4.652344-17.917969 0-25.9375-4.652344-8.023437-13.246094-12.933593-22.519532-12.878906h-12.835937c-7.441406-6.253906-16.851563-9.679687-26.574219-9.671875h-.03125c-22.835937.007812-41.339844 18.527344-41.332031 41.359375.007813 22.835937 18.527344 41.34375 41.363281 41.332031zm47.230469-47.171875c-.007813 3.578125-2.433594 6.699219-5.902344 7.589844.027344-.601563.042969-1.195313.042969-1.800781 0-4.644532-.792969-9.257813-2.335938-13.640625h.34375c4.335938 0 7.847656 3.515625 7.851563 7.851562zm-70.660157 5.84375c.007813-12.910156 10.480469-23.371093 23.386719-23.363281h.019531c12.894532 0 23.359376 10.433594 23.398438 23.332031-.007812 12.910157-10.476562 23.367188-23.386719 23.359375h-.019531c-12.894531 0-23.359375-10.433594-23.398438-23.328125zm0 0" fill="#0635c9" data-original="#0635C9" class="" style="fill:#2F55D4" data-old_color="#0635c9"/><path d="m236.257812 222.929688h-.035156l-10.375.03125c-28.480468.070312-51.550781 23.140624-51.621094 51.621093l.023438 37.414063c-.007812 3.492187 2.019531 6.671875 5.191406 8.136718l-3.9375 59.125c-.332031 4.960938 3.421875 9.25 8.378906 9.578126.207032.015624.410157.019531.609376.019531 4.734374-.003907 8.65625-3.675781 8.972656-8.398438l3.960937-59.476562h.320313l6.820312 78.796875 17.933594-1.546875-7.53125-87.03125c-.402344-4.652344-4.296875-8.226563-8.96875-8.226563h-.003906l-13.753906.011719-.015626-28.410156c.074219-18.550781 15.105469-33.5625 33.65625-33.613281l10.371094-.027344h.023438c18.550781 0 33.605468 15.011718 33.664062 33.5625l.015625 28.410156-13.75.007812c-4.6875.003907-8.589843 3.605469-8.964843 8.277344l-7.046876 87.089844 17.941407 1.449219 4.300781-53.089844 2.597656 33.90625c.359375 4.6875 4.265625 8.308594 8.964844 8.3125.230469 0 .464844-.007813.699219-.027344 4.957031-.378906 8.664062-4.707031 8.285156-9.660156l-4.472656-58.273437h.460937c4.972656 0 9.003906-4.03125 9-9.003907l-.027344-37.414062c-.074218-28.492188-23.191406-51.550781-51.6875-51.550781zm0 0" fill="#0635c9" data-original="#0635C9" class="" style="fill:#2F55D4" data-old_color="#0635c9"/></g> </svg>
