<?xml version="1.0"?>
<svg xmlns="http://www.w3.org/2000/svg" height="512px" viewBox="-29 0 454 454.61839" width="512px" class="hovered-paths"><g><path d="m214.441406 211.195312c2.105469 1.570313 4.988282 1.589844 7.113282.046876 18.808593-13.652344 37.859374-21.867188 55.707031-24.140626-3.324219-.449218-6.671875-.671874-10.023438-.671874-18.589843 0-38.894531 7-59.105469 20.285156 2.101563 1.429687 4.210938 2.902344 6.308594 4.480468zm0 0" fill="#d4e1f4" data-original="#D4E1F4"/><path d="m76.105469 252.265625c3.820312-20.125 12.660156-36.996094 25.566406-48.785156 10.214844-9.371094 23.070313-15.355469 36.816406-17.140625-3.328125-.429688-6.683593-.648438-10.039062-.660156-17.855469 0-34.03125 6.15625-46.777344 17.800781-12.90625 11.789062-21.746094 28.65625-25.566406 48.78125-11.914063 62.109375 26.820312 144.902343 140.210937 189.960937.5625.195313 1.144532.328125 1.738282.398438.570312-.074219 1.132812-.203125 1.679687-.390625 2.746094-1.113281 5.480469-2.269531 8.203125-3.472657-106.910156-45.738281-143.449219-125.9375-131.832031-186.492187zm0 0" fill="#d4e1f4" data-original="#D4E1F4"/><g fill="#0635c9"><path d="m192.0625 453.445312c.097656.039063.207031.078126.316406.113282 3.636719 1.414062 7.675782 1.414062 11.3125 0 .121094-.039063.242188-.085938.359375-.132813 119.878907-48.566406 160.558594-137.164062 147.699219-203.421875 0-.015625 0-.03125-.007812-.042968-9.257813-45.882813-42.421876-75.53125-84.496094-75.53125-22.027344 0-45.859375 8.480468-69.15625 24.566406-23.613282-16.796875-47.023438-25.316406-69.636719-25.316406-42.3125 0-75.335937 29.96875-84.128906 76.335937-12.855469 66.980469 27.84375 155.855469 147.738281 203.429687zm-135.957031-201.179687c3.820312-20.125 12.660156-36.996094 25.566406-48.785156 12.746094-11.644531 28.921875-17.800781 46.777344-17.800781 21.101562 0 43.300781 8.585937 66 25.515624 2.105469 1.570313 4.988281 1.589844 7.113281.046876 22.359375-16.230469 45.074219-24.808594 65.683594-24.808594 17.292968-.199219 34.023437 6.132812 46.851562 17.730468 12.925782 11.675782 21.871094 28.324219 25.875 48.148438 16.527344 85.179688-58.492187 156.734375-140.234375 189.914062-.546875.1875-1.109375.320313-1.683593.394532-.589844-.074219-1.175782-.207032-1.738282-.402344-113.390625-45.054688-152.125-127.847656-140.210937-189.953125zm0 0" data-original="#0635C9" class="" style="fill:#2F55D4" data-old_color="#0635C9"/><path d="m124.972656 379.019531c1.371094 1.609375 2.730469 3.207031 4.03125 4.800781 2.101563 2.5625 5.882813 2.9375 8.445313.835938s2.9375-5.882812.835937-8.445312c-1.347656-1.640626-2.753906-3.300782-4.171875-4.964844-3.378906-3.808594-6.535156-7.816406-9.441406-12-1.167969-1.808594-3.214844-2.855469-5.367187-2.738282-2.148438.113282-4.074219 1.375-5.039063 3.296876-.964844 1.925781-.828125 4.222656.367187 6.015624 3.171876 4.605469 6.625 9.011719 10.339844 13.199219zm0 0" data-original="#0635C9" class="" style="fill:#2F55D4" data-old_color="#0635C9"/><path d="m113.308594 337.542969c-.164063-.234375-16.445313-23.613281-16.304688-52.984375.015625-3.316406-2.65625-6.015625-5.972656-6.03125-3.3125-.015625-6.011719 2.660156-6.027344 5.972656-.15625 33.347656 17.757813 58.917969 18.523438 59.992188 1.925781 2.679687 5.65625 3.300781 8.34375 1.386718 2.691406-1.910156 3.335937-5.636718 1.4375-8.335937zm0 0" data-original="#0635C9" class="" style="fill:#2F55D4" data-old_color="#0635C9"/></g><path d="m256.519531 69.890625c.707031-2.171875.121094-4.554687-1.515625-6.148437l-24.128906-23.523438 5.695312-33.199219c.386719-2.253906-.539062-4.527343-2.386718-5.871093-1.847656-1.339844-4.296875-1.519532-6.320313-.453126l-29.820312 15.671876-29.824219-15.679688c-2.019531-1.0625-4.472656-.882812-6.320312.457031-1.847657 1.34375-2.773438 3.617188-2.386719 5.871094l5.695312 33.203125-24.128906 23.523438c-1.632813 1.59375-2.222656 3.976562-1.515625 6.148437s2.582031 3.757813 4.84375 4.085937l33.34375 4.84375 14.910156 30.214844c1.011719 2.050782 3.097656 3.347656 5.382813 3.347656 2.285156 0 4.371093-1.296874 5.378906-3.347656l14.910156-30.214844 33.347657-4.847656c2.257812-.328125 4.132812-1.910156 4.839843-4.082031zm-43.03125-2.492187c-1.957031.285156-3.644531 1.511718-4.519531 3.28125l-10.925781 22.140624-10.929688-22.144531c-.871093-1.769531-2.5625-2.996093-4.515625-3.28125l-24.4375-3.546875 17.683594-17.230468c1.414062-1.378907 2.058594-3.363282 1.722656-5.308594l-4.171875-24.339844 21.855469 11.488281c1.746094.921875 3.835938.921875 5.582031 0l21.855469-11.488281-4.171875 24.335938c-.335937 1.945312.308594 3.933593 1.726563 5.3125l17.679687 17.230468zm0 0" fill="#1ae5be" data-original="#1AE5BE" class="hovered-path active-path" style="fill:#2ECA8B" data-old_color="#1ae5be"/><path d="m91.917969 93.617188 5.695312-33.207032c.382813-2.25-.539062-4.527344-2.386719-5.867187-1.847656-1.34375-4.300781-1.519531-6.320312-.457031l-29.824219 15.679687-29.824219-15.683594c-2.019531-1.0625-4.46875-.886719-6.316406.457031s-2.773437 3.617188-2.386718 5.867188l5.695312 33.210938-24.128906 23.515624c-1.636719 1.597657-2.222656 3.980469-1.519532 6.152344.707032 2.171875 2.585938 3.753906 4.84375 4.082032l33.34375 4.851562 14.914063 30.210938c1.007813 2.046874 3.09375 3.34375 5.378906 3.34375 2.285157 0 4.371094-1.296876 5.382813-3.34375l14.910156-30.210938 33.34375-4.847656c2.261719-.328125 4.140625-1.910156 4.847656-4.085938.703125-2.171875.113282-4.558594-1.523437-6.152344zm-17.390625 27.179687c-1.953125.28125-3.644532 1.511719-4.515625 3.28125l-10.929688 22.140625-10.925781-22.140625c-.875-1.773437-2.5625-3-4.519531-3.28125l-24.433594-3.550781 17.683594-17.234375c1.410156-1.378907 2.058593-3.367188 1.722656-5.3125l-4.171875-24.335938 21.851562 11.488281c1.75.921876 3.839844.921876 5.585938 0l21.855469-11.488281-4.175781 24.335938c-.332032 1.945312.3125 3.933593 1.726562 5.3125l17.679688 17.234375zm0 0" fill="#1ae5be" data-original="#1AE5BE" class="hovered-path active-path" style="fill:#2ECA8B" data-old_color="#1ae5be"/><path d="m300.859375 54.539062c-1.847656 1.34375-2.773437 3.617188-2.386719 5.867188l5.695313 33.210938-24.125 23.515624c-1.636719 1.59375-2.226563 3.980469-1.519531 6.152344.707031 2.171875 2.582031 3.753906 4.84375 4.082032l33.34375 4.847656 14.910156 30.214844c1.011718 2.046874 3.097656 3.34375 5.382812 3.34375s4.371094-1.296876 5.378906-3.34375l14.910157-30.210938 33.347656-4.851562c2.261719-.328126 4.140625-1.910157 4.84375-4.082032.707031-2.171875.117187-4.554687-1.515625-6.152344l-24.132812-23.515624 5.699218-33.207032c.386719-2.25-.539062-4.527344-2.386718-5.867187-1.847657-1.34375-4.296876-1.519531-6.320313-.457031l-29.824219 15.679687-29.824218-15.683594c-2.023438-1.0625-4.472657-.886719-6.320313.457031zm33.347656 27.308594c1.75.921875 3.839844.921875 5.585938 0l21.855469-11.488281-4.175782 24.335937c-.332031 1.945313.3125 3.933594 1.726563 5.3125l17.683593 17.234376-24.441406 3.550781c-1.953125.285156-3.644531 1.511719-4.515625 3.28125l-10.925781 22.144531-10.925781-22.140625c-.875-1.769531-2.5625-3-4.515625-3.28125l-24.4375-3.550781 17.683594-17.234375c1.410156-1.378907 2.058593-3.367188 1.722656-5.3125l-4.171875-24.335938zm0 0" fill="#1ae5be" data-original="#1AE5BE" class="hovered-path active-path" style="fill:#2ECA8B" data-old_color="#1ae5be"/></g> </svg>
