<svg height="512" viewBox="0 0 512 512" width="512" xmlns="http://www.w3.org/2000/svg"><path d="m142 256a143.715 143.715 0 0 1 129.02-143.219 143.9 143.9 0 0 0 -159.02 143.219c0 79.4 64.6 144 144 144a144.948 144.948 0 0 0 15-.779c-72.38-7.521-129-68.884-129-143.221z" fill="#d4e1f4"/><path d="m256 412c86.019 0 156-69.981 156-156s-69.981-156-156-156a155.836 155.836 0 0 0 -156 156c0 86.019 69.981 156 156 156zm-37.572-295.051a144.436 144.436 0 0 1 37.572-4.949c79.4 0 144 64.6 144 144s-64.6 144-144 144-144-64.6-144-144a144.2 144.2 0 0 1 106.428-139.051z" fill="#2f55d4"/><path d="m200 222a6 6 0 0 0 6 6h65.024a36.6 36.6 0 0 1 -36.409 31h-28.615a6.062 6.062 0 0 0 -4.121 10.446l71.519 67.6a6 6 0 0 0 8.483-.229 6.068 6.068 0 0 0 -.24-8.537l-60.556-57.28h13.53a49.173 49.173 0 0 0 48.524-43h22.861a6 6 0 0 0 0-12h-22.861a50.494 50.494 0 0 0 -16.49-31h39.351a6 6 0 0 0 0-12h-100a6 6 0 0 0 0 12h28.615c18.306 0 33.533 14 36.409 31h-65.024a6 6 0 0 0 -6 6z" fill="#2f55d4"/><g fill="#2eca8b"><path d="m203.109 458.23a32.157 32.157 0 0 1 -13.969-32.93 6 6 0 0 0 -10.91-4.41 32.154 32.154 0 0 1 -32.93 13.97 6 6 0 0 0 -4.41 10.91 32.157 32.157 0 0 1 13.97 32.93 6 6 0 0 0 10.91 4.41 32.17 32.17 0 0 1 32.93-13.97 6 6 0 0 0 4.41-10.91zm-36.352 6.739a44.048 44.048 0 0 0 -7.726-18.212 44.074 44.074 0 0 0 18.212-7.726 44.048 44.048 0 0 0 7.726 18.212 44.074 44.074 0 0 0 -18.212 7.726z"/><path d="m458.6 96.116a47.954 47.954 0 0 1 -37.72-37.72 6 6 0 0 0 -11.768 0 47.954 47.954 0 0 1 -37.72 37.72 6 6 0 0 0 0 11.768 47.954 47.954 0 0 1 37.72 37.72 6 6 0 0 0 11.768 0 47.954 47.954 0 0 1 37.72-37.72 6 6 0 0 0 0-11.768zm-43.6 30.635a59.839 59.839 0 0 0 -24.751-24.751 59.839 59.839 0 0 0 24.751-24.751 59.839 59.839 0 0 0 24.751 24.751 59.839 59.839 0 0 0 -24.751 24.751z"/><path d="m117.6 375.116a47.954 47.954 0 0 1 -37.72-37.72 6 6 0 0 0 -11.768 0 47.954 47.954 0 0 1 -37.72 37.72 6 6 0 0 0 0 11.768 47.954 47.954 0 0 1 37.72 37.72 6 6 0 0 0 11.768 0 47.954 47.954 0 0 1 37.72-37.72 6 6 0 0 0 0-11.768zm-43.6 30.635a59.839 59.839 0 0 0 -24.751-24.751 59.839 59.839 0 0 0 24.751-24.751 59.839 59.839 0 0 0 24.751 24.751 59.839 59.839 0 0 0 -24.751 24.751z"/></g></svg>