<svg xmlns="http://www.w3.org/2000/svg" width="950" height="799" fill="none" viewBox="0 0 950 799"><g clip-path="url(#clip0_5790_91121)"><path fill="#fff" d="M0 5.00001C0 2.23858 2.23858 0 5 0H950V799H4.99999C2.23857 799 0 796.761 0 794V5.00001Z"/><rect width="700" height="951" fill="#fff" transform="translate(125 64)"/><text fill="#333" font-family="'Nunito Sans', 'Helvetica Neue', Helvetica, Arial, sans-serif" font-size="32" font-weight="800" letter-spacing="0em" xml:space="preserve" style="white-space:pre"><tspan x="125" y="94.528">TimeFrame</tspan></text><text fill="#444" font-family="'Nunito Sans', 'Helvetica Neue', Helvetica, Arial, sans-serif" font-size="16" letter-spacing="0" xml:space="preserve" style="white-space:pre"><tspan x="125" y="140.064">TimeFrame is a component that allows you to select a range of data points from a time period. It </tspan><tspan x="125" y="165.664">combines a time chart visualization and slider. TimeFrames are often used in tandem with a form </tspan><tspan x="125" y="191.264">or as a facet in search.</tspan></text><rect width="700" height="330" x="125" y="231" fill="#fff" rx="5"/><rect width="699" height="329" x="125.5" y="231.5" stroke="#000" stroke-opacity=".1" rx="4.5"/><g clip-path="url(#clip1_5790_91121)"><path fill="#7A858E" d="M147.5 245C147.5 244.724 147.276 244.5 147 244.5H144C143.724 244.5 143.5 244.724 143.5 245C143.5 245.276 143.724 245.5 144 245.5H145.535C143.712 246.651 142.5 248.684 142.5 251C142.5 254.221 144.843 256.894 147.917 257.41C148.19 257.456 148.447 257.272 148.493 257C148.539 256.727 148.355 256.47 148.083 256.424C145.482 255.988 143.5 253.725 143.5 251C143.5 248.863 144.719 247.01 146.5 246.1V248C146.5 248.276 146.724 248.5 147 248.5C147.276 248.5 147.5 248.276 147.5 248V245.353C147.5 245.345 147.5 245.338 147.5 245.33V245Z"/><path fill="#7A858E" d="M149.507 245C149.553 244.728 149.81 244.544 150.083 244.59C153.157 245.106 155.5 247.779 155.5 251C155.5 253.316 154.288 255.349 152.466 256.5H154C154.276 256.5 154.5 256.724 154.5 257C154.5 257.276 154.276 257.5 154 257.5H151C150.724 257.5 150.5 257.276 150.5 257V254C150.5 253.724 150.724 253.5 151 253.5C151.276 253.5 151.5 253.724 151.5 254V255.9C153.281 254.99 154.5 253.137 154.5 251C154.5 248.275 152.518 246.012 149.917 245.576C149.645 245.53 149.461 245.273 149.507 245Z"/></g><g clip-path="url(#clip2_5790_91121)"><path fill="#7A858E" d="M180 247.5C180.276 247.5 180.5 247.724 180.5 248V249.5H182C182.276 249.5 182.5 249.724 182.5 250C182.5 250.276 182.276 250.5 182 250.5H180.5V252C180.5 252.276 180.276 252.5 180 252.5C179.724 252.5 179.5 252.276 179.5 252V250.5H178C177.724 250.5 177.5 250.276 177.5 250C177.5 249.724 177.724 249.5 178 249.5H179.5V248C179.5 247.724 179.724 247.5 180 247.5Z"/><path fill="#7A858E" fill-rule="evenodd" d="M183.544 254.206C182.587 255.013 181.35 255.5 180 255.5C176.962 255.5 174.5 253.038 174.5 250C174.5 246.962 176.962 244.5 180 244.5C183.038 244.5 185.5 246.962 185.5 250C185.5 251.35 185.013 252.587 184.206 253.544C184.259 253.568 184.31 253.602 184.354 253.646L187.354 256.646C187.549 256.842 187.549 257.158 187.354 257.354C187.158 257.549 186.842 257.549 186.646 257.354L183.646 254.354C183.602 254.31 183.568 254.259 183.544 254.206ZM184.5 250C184.5 252.485 182.485 254.5 180 254.5C177.515 254.5 175.5 252.485 175.5 250C175.5 247.515 177.515 245.5 180 245.5C182.485 245.5 184.5 247.515 184.5 250Z" clip-rule="evenodd"/></g><g clip-path="url(#clip3_5790_91121)"><path fill="#7A858E" d="M210 249.5C209.724 249.5 209.5 249.724 209.5 250C209.5 250.276 209.724 250.5 210 250.5H214C214.276 250.5 214.5 250.276 214.5 250C214.5 249.724 214.276 249.5 214 249.5H210Z"/><path fill="#7A858E" fill-rule="evenodd" d="M212 255.5C213.35 255.5 214.587 255.013 215.544 254.206C215.568 254.259 215.602 254.31 215.646 254.354L218.646 257.354C218.842 257.549 219.158 257.549 219.354 257.354C219.549 257.158 219.549 256.842 219.354 256.646L216.354 253.646C216.31 253.602 216.259 253.568 216.206 253.544C217.013 252.587 217.5 251.35 217.5 250C217.5 246.962 215.038 244.5 212 244.5C208.962 244.5 206.5 246.962 206.5 250C206.5 253.038 208.962 255.5 212 255.5ZM212 254.5C214.485 254.5 216.5 252.485 216.5 250C216.5 247.515 214.485 245.5 212 245.5C209.515 245.5 207.5 247.515 207.5 250C207.5 252.485 209.515 254.5 212 254.5Z" clip-rule="evenodd"/></g><g clip-path="url(#clip4_5790_91121)"><path fill="#7A858E" d="M239.5 246.837V245.5C239.5 245.224 239.276 245 239 245C238.724 245 238.5 245.224 238.5 245.5V248C238.5 248.276 238.724 248.5 239 248.5H241.5C241.776 248.5 242 248.276 242 248C242 247.724 241.776 247.5 241.5 247.5H240.258C241.065 246.293 242.44 245.5 244 245.5C246.485 245.5 248.5 247.515 248.5 250C248.5 252.485 246.485 254.5 244 254.5C242.048 254.5 240.384 253.256 239.762 251.516C239.669 251.256 239.383 251.121 239.123 251.214C238.863 251.307 238.727 251.593 238.82 251.853C239.581 253.978 241.612 255.5 244 255.5C245.35 255.5 246.587 255.013 247.544 254.206C247.568 254.259 247.602 254.31 247.646 254.354L250.646 257.354C250.842 257.549 251.158 257.549 251.354 257.354C251.549 257.158 251.549 256.842 251.354 256.646L248.354 253.646C248.31 253.602 248.259 253.568 248.206 253.544C249.013 252.587 249.5 251.35 249.5 250C249.5 246.962 247.038 244.5 244 244.5C242.139 244.5 240.495 245.424 239.5 246.837Z"/></g><path fill="#7A858E" d="M271.5 245.004C271.224 245.004 271 245.228 271 245.504C271 245.78 271.224 246.004 271.5 246.004H282V256.504C282 256.78 282.224 257.004 282.5 257.004C282.776 257.004 283 256.78 283 256.504V246.004C283 245.452 282.552 245.004 282 245.004H271.5Z"/><path fill="#7A858E" d="M271 247.504C271 247.228 271.224 247.004 271.5 247.004H280C280.552 247.004 281 247.452 281 248.004V256.504C281 256.78 280.776 257.004 280.5 257.004C280.224 257.004 280 256.78 280 256.504V248.004H271.5C271.224 248.004 271 247.78 271 247.504Z"/><path fill="#7A858E" fill-rule="evenodd" d="M271.5 249.004C271.224 249.004 271 249.228 271 249.504V256.504C271 256.78 271.224 257.004 271.5 257.004H278.5C278.776 257.004 279 256.78 279 256.504V249.504C279 249.228 278.776 249.004 278.5 249.004H271.5ZM272 250.004V256.004H278V250.004H272Z" clip-rule="evenodd"/><rect width="1" height="24" x="301" y="239" fill="#E1E5E8"/><path fill="#7A858E" d="M320.5 245.004C320.776 245.004 321 245.228 321 245.504V246.004H331V245.504C331 245.228 331.224 245.004 331.5 245.004C331.776 245.004 332 245.228 332 245.504V247.504C332 247.78 331.776 248.004 331.5 248.004C331.224 248.004 331 247.78 331 247.504V247.004H321V247.504C321 247.78 320.776 248.004 320.5 248.004C320.224 248.004 320 247.78 320 247.504V245.504C320 245.228 320.224 245.004 320.5 245.004Z"/><path fill="#7A858E" fill-rule="evenodd" d="M320.5 250C320.224 250 320 250.224 320 250.5V256.5C320 256.776 320.224 257 320.5 257H331.5C331.776 257 332 256.776 332 256.5V250.5C332 250.224 331.776 250 331.5 250H320.5ZM321 251V256H331V251H330V253.5C330 253.776 329.776 254 329.5 254C329.224 254 329 253.776 329 253.5V251H328.25V252C328.25 252.276 328.026 252.5 327.75 252.5C327.474 252.5 327.25 252.276 327.25 252V251H326.5V253.5C326.5 253.776 326.276 254 326 254C325.724 254 325.5 253.776 325.5 253.5V251H324.75V252C324.75 252.276 324.526 252.5 324.25 252.5C323.974 252.5 323.75 252.276 323.75 252V251H323V253.5C323 253.776 322.776 254 322.5 254C322.224 254 322 253.776 322 253.5V251H321Z" clip-rule="evenodd"/><path fill="#7A858E" fill-rule="evenodd" d="M352 245.504C352 245.228 352.224 245.004 352.5 245.004H357C357.276 245.004 357.5 245.228 357.5 245.504V250.004C357.5 250.28 357.276 250.504 357 250.504H352.5C352.224 250.504 352 250.28 352 250.004V245.504ZM353 249.504V246.004H356.5V249.504H353Z" clip-rule="evenodd"/><path fill="#7A858E" fill-rule="evenodd" d="M358.5 245.504C358.5 245.228 358.724 245.004 359 245.004H363.5C363.776 245.004 364 245.228 364 245.504V250.004C364 250.28 363.776 250.504 363.5 250.504H359C358.724 250.504 358.5 250.28 358.5 250.004V245.504ZM359.5 249.504V246.004H363V249.504H359.5Z" clip-rule="evenodd"/><path fill="#7A858E" fill-rule="evenodd" d="M352.5 251.504C352.224 251.504 352 251.728 352 252.004V256.504C352 256.78 352.224 257.004 352.5 257.004H357C357.276 257.004 357.5 256.78 357.5 256.504V252.004C357.5 251.728 357.276 251.504 357 251.504H352.5ZM353 252.504V256.004H356.5V252.504H353Z" clip-rule="evenodd"/><path fill="#7A858E" fill-rule="evenodd" d="M358.5 252.004C358.5 251.728 358.724 251.504 359 251.504H363.5C363.776 251.504 364 251.728 364 252.004V256.504C364 256.78 363.776 257.004 363.5 257.004H359C358.724 257.004 358.5 256.78 358.5 256.504V252.004ZM359.5 256.004V252.504H363V256.004H359.5Z" clip-rule="evenodd"/><path fill="#7A858E" d="M385 246.004V248.004H384V245.504C384 245.228 384.224 245.004 384.5 245.004H387V246.004H385Z"/><path fill="#7A858E" d="M384 253.004V249.004H385V253.004H384Z"/><path fill="#7A858E" d="M384 254.004V256.504C384 256.78 384.224 257.004 384.5 257.004H387V256.004H385V254.004H384Z"/><path fill="#7A858E" d="M393 257.004H395.5C395.776 257.004 396 256.78 396 256.504V254.004H395V256.004H393V257.004Z"/><path fill="#7A858E" d="M395 248.004H396V245.504C396 245.228 395.776 245.004 395.5 245.004H393V246.004H395V248.004Z"/><path fill="#7A858E" d="M392 256.004V257.004H388V256.004H392Z"/><path fill="#7A858E" d="M392 245.004V246.004H388V245.004H392Z"/><path fill="#7A858E" d="M396 253.004H395V249.004H396V253.004Z"/><path fill="#7A858E" d="M390 252.004C390.552 252.004 391 251.556 391 251.004C391 250.452 390.552 250.004 390 250.004C389.448 250.004 389 250.452 389 251.004C389 251.556 389.448 252.004 390 252.004Z"/><path fill="#7A858E" d="M796 245.004C795.448 245.004 795 245.452 795 246.004V256.004C795 256.556 795.448 257.004 796 257.004H806C806.552 257.004 807 256.556 807 256.004V251.504C807 251.228 806.776 251.004 806.5 251.004C806.224 251.004 806 251.228 806 251.504V256.004H796V246.004L800.5 246.004C800.776 246.004 801 245.78 801 245.504C801 245.228 800.776 245.004 800.5 245.004H796Z"/><path fill="#7A858E" d="M801.354 251.357L806 246.711V248.504C806 248.78 806.224 249.004 806.5 249.004C806.776 249.004 807 248.78 807 248.504V245.504C807 245.228 806.776 245.004 806.5 245.004H803.5C803.224 245.004 803 245.228 803 245.504C803 245.78 803.224 246.004 803.5 246.004H805.293L800.646 250.65C800.451 250.846 800.451 251.162 800.646 251.357C800.842 251.553 801.158 251.553 801.354 251.357Z"/><path fill="#E1E5E8" d="M825 270H125V272H825V270Z" mask="url(#path-6-outside-1_5790_91121)"/><rect width="440" height="226.509" x="255" y="301" fill="#fff" fill-opacity=".8" rx="6.943"/><g filter="url(#filter0_dd_5790_91121)"><path fill="#fff" d="M255.868 307.432C255.868 304.359 258.359 301.868 261.432 301.868H688.568C691.641 301.868 694.132 304.359 694.132 307.432V521.076C694.132 524.15 691.641 526.641 688.568 526.641H261.432C258.359 526.641 255.868 524.15 255.868 521.076V307.432Z"/><path stroke="#000" stroke-opacity=".1" stroke-width=".868" d="M261.432 301.434C258.119 301.434 255.434 304.119 255.434 307.432V521.076C255.434 524.389 258.119 527.075 261.432 527.075H688.568C691.88 527.075 694.566 524.389 694.566 521.076V307.432C694.566 304.119 691.88 301.434 688.568 301.434H261.432Z"/></g><text fill="#333" font-family="'Nunito Sans', 'Helvetica Neue', Helvetica, Arial, sans-serif" font-size="13" font-weight="bold" letter-spacing="0em" xml:space="preserve" style="white-space:pre"><tspan x="273.225" y="324.691">Usage freqency</tspan></text><rect width="438.264" height="156.213" fill="url(#paint0_linear_5790_91121)" transform="translate(255.868 337.45)"/><rect width=".868" height="156.213" x="401.666" y="337.45" fill="#000" fill-opacity=".1"/><rect width=".868" height="156.213" x="547.465" y="337.45" fill="#000" fill-opacity=".1"/><rect width=".868" height="156.213" x="292.317" y="337.45" fill="#000" fill-opacity=".1"/><rect width=".868" height="156.213" x="438.116" y="337.45" fill="#000" fill-opacity=".1"/><rect width=".868" height="156.213" x="583.915" y="337.45" fill="#000" fill-opacity=".1"/><rect width=".868" height="156.213" x="328.767" y="337.45" fill="#000" fill-opacity=".1"/><rect width=".868" height="156.213" x="474.565" y="337.45" fill="#000" fill-opacity=".1"/><rect width=".868" height="156.213" x="620.364" y="337.45" fill="#000" fill-opacity=".1"/><rect width=".868" height="156.213" x="365.216" y="337.45" fill="#000" fill-opacity=".1"/><rect width=".868" height="156.213" x="511.015" y="337.45" fill="#000" fill-opacity=".1"/><rect width=".868" height="156.213" x="656.814" y="337.45" fill="#000" fill-opacity=".1"/><rect width=".868" height="156.213" x="274.092" y="337.45" fill="#000" fill-opacity=".1"/><rect width=".868" height="156.213" x="419.891" y="337.45" fill="#000" fill-opacity=".1"/><rect width=".868" height="156.213" x="565.69" y="337.45" fill="#000" fill-opacity=".1"/><rect width=".868" height="156.213" x="310.542" y="337.45" fill="#000" fill-opacity=".1"/><rect width=".868" height="156.213" x="456.341" y="337.45" fill="#000" fill-opacity=".1"/><rect width=".868" height="156.213" x="602.14" y="337.45" fill="#000" fill-opacity=".1"/><rect width=".868" height="156.213" x="346.992" y="337.45" fill="#000" fill-opacity=".1"/><rect width=".868" height="156.213" x="492.791" y="337.45" fill="#000" fill-opacity=".1"/><rect width=".868" height="156.213" x="638.589" y="337.45" fill="#000" fill-opacity=".1"/><rect width=".868" height="156.213" x="383.441" y="337.45" fill="#000" fill-opacity=".1"/><rect width=".868" height="156.213" x="529.24" y="337.45" fill="#000" fill-opacity=".1"/><rect width=".868" height="156.213" x="675.039" y="337.45" fill="#000" fill-opacity=".1"/><circle cx="274.616" cy="466.899" r="2.702" fill="#CBDFDC"/><circle cx="492.773" cy="447.988" r="2.702" fill="#CBDFDC"/><circle cx="438.74" cy="429.077" r="2.702" fill="#CBDFDC"/><circle cx="401.592" cy="410.165" r="2.702" fill="#CBDFDC"/><circle cx="438.74" cy="372.342" r="2.702" fill="#CBDFDC"/><circle cx="329.325" cy="372.342" r="2.702" fill="#CBDFDC"/><circle cx="456.977" cy="353.431" r="2.702" fill="#CBDFDC"/><circle cx="292.852" cy="466.899" r="2.702" fill="#CBDFDC"/><circle cx="511.009" cy="447.988" r="2.702" fill="#CBDFDC"/><circle cx="583.954" cy="447.988" r="2.702" fill="#CBDFDC"/><circle cx="456.977" cy="429.077" r="2.702" fill="#CBDFDC"/><circle cx="583.954" cy="410.165" r="2.702" fill="#CBDFDC"/><circle cx="602.865" cy="391.253" r="2.702" fill="#CBDFDC"/><circle cx="621.102" cy="372.342" r="2.702" fill="#CBDFDC"/><circle cx="639.337" cy="353.431" r="2.702" fill="#CBDFDC"/><circle cx="419.829" cy="410.165" r="2.702" fill="#CBDFDC"/><circle cx="456.977" cy="372.342" r="2.702" fill="#CBDFDC"/><circle cx="474.539" cy="353.431" r="2.702" fill="#CBDFDC"/><circle cx="419.829" cy="391.253" r="2.702" fill="#CBDFDC"/><circle cx="292.852" cy="410.165" r="2.702" fill="#CBDFDC"/><circle cx="311.089" cy="391.253" r="2.702" fill="#CBDFDC"/><circle cx="311.764" cy="466.899" r="2.702" fill="#CBDFDC"/><circle cx="529.921" cy="447.988" r="2.702" fill="#37D5D3"/><circle cx="529.921" cy="466.899" r="2.702" fill="#37D5D3"/><circle cx="602.865" cy="447.988" r="2.702" fill="#CBDFDC"/><circle cx="474.539" cy="429.077" r="2.702" fill="#CBDFDC"/><circle cx="602.865" cy="410.165" r="2.702" fill="#CBDFDC"/><circle cx="621.102" cy="391.253" r="2.702" fill="#CBDFDC"/><circle cx="639.337" cy="372.342" r="2.702" fill="#CBDFDC"/><circle cx="657.573" cy="353.431" r="2.702" fill="#CBDFDC"/><circle cx="438.74" cy="410.165" r="2.702" fill="#CBDFDC"/><circle cx="474.539" cy="372.342" r="2.702" fill="#CBDFDC"/><circle cx="492.773" cy="353.431" r="2.702" fill="#CBDFDC"/><circle cx="438.74" cy="391.253" r="2.702" fill="#CBDFDC"/><circle cx="566.394" cy="466.899" r="2.702" fill="#CBDFDC"/><circle cx="583.954" cy="466.899" r="2.702" fill="#CBDFDC"/><circle cx="675.809" cy="466.899" r="2.702" fill="#CBDFDC"/><circle cx="621.102" cy="466.9" r="4.728" fill="#CBDFDC"/><circle cx="583.954" cy="429.077" r="4.728" fill="#CBDFDC"/><circle cx="566.393" cy="410.165" r="4.052" fill="#CBDFDC"/><circle cx="566.393" cy="391.253" r="4.052" fill="#CBDFDC"/><circle cx="602.865" cy="353.431" r="4.052" fill="#CBDFDC"/><circle cx="583.954" cy="391.253" r="4.052" fill="#CBDFDC"/><circle cx="583.954" cy="372.342" r="4.052" fill="#CBDFDC"/><circle cx="602.865" cy="372.342" r="4.052" fill="#CBDFDC"/><circle cx="621.101" cy="353.431" r="4.052" fill="#CBDFDC"/><circle cx="566.393" cy="429.077" r="4.728" fill="#CBDFDC"/><circle cx="548.157" cy="429.077" r="4.728" fill="#37D5D3"/><circle cx="548.157" cy="466.9" r="3.377" fill="#37D5D3"/><circle cx="529.921" cy="429.076" r="7.429" fill="#37D5D3"/><circle cx="511.009" cy="429.076" r="6.754" fill="#CBDFDC"/><circle cx="492.774" cy="410.165" r="6.754" fill="#CBDFDC"/><circle cx="511.009" cy="391.254" r="6.754" fill="#CBDFDC"/><circle cx="529.921" cy="391.253" r="7.429" fill="#37D5D3"/><circle cx="566.393" cy="353.431" r="6.754" fill="#CBDFDC"/><circle cx="511.009" cy="410.165" r="6.754" fill="#CBDFDC"/><circle cx="492.773" cy="429.077" r="5.403" fill="#CBDFDC"/><circle cx="474.538" cy="410.165" r="6.079" fill="#CBDFDC"/><circle cx="548.158" cy="447.988" r="6.079" fill="#37D5D3"/><circle cx="492.773" cy="391.253" r="6.079" fill="#CBDFDC"/><circle cx="529.922" cy="353.431" r="6.079" fill="#37D5D3"/><circle cx="511.01" cy="372.342" r="6.079" fill="#CBDFDC"/><circle cx="529.921" cy="372.342" r="6.754" fill="#37D5D3"/><circle cx="548.157" cy="372.342" r="6.754" fill="#37D5D3"/><circle cx="511.01" cy="353.431" r="5.403" fill="#CBDFDC"/><circle cx="492.773" cy="372.343" r="5.403" fill="#CBDFDC"/><circle cx="456.977" cy="410.165" r="5.403" fill="#CBDFDC"/><circle cx="474.537" cy="391.254" r="5.403" fill="#CBDFDC"/><circle cx="529.921" cy="410.165" r="5.403" fill="#37D5D3"/><circle cx="548.157" cy="410.165" r="5.403" fill="#37D5D3"/><circle cx="548.157" cy="391.254" r="4.728" fill="#37D5D3"/><circle cx="548.157" cy="353.431" r="5.403" fill="#37D5D3"/><circle cx="583.954" cy="353.431" r="4.728" fill="#CBDFDC"/><circle cx="566.393" cy="372.342" r="4.728" fill="#CBDFDC"/><circle cx="602.865" cy="429.077" r="4.052" fill="#CBDFDC"/><circle cx="639.338" cy="466.9" r="4.052" fill="#CBDFDC"/><circle cx="657.573" cy="466.9" r="4.052" fill="#CBDFDC"/><rect width=".868" height="157.949" x="519.694" y="337.45" fill="#F40" fill-opacity=".7"/><rect width=".868" height="157.949" x="556.144" y="337.45" fill="#F40" fill-opacity=".7"/><rect width="438.264" height="1.736" x="255.868" y="493.663" fill="#000" fill-opacity=".1"/><rect width="438.264" height=".868" x="255.868" y="336.582" fill="#000" fill-opacity=".1"/><text fill="#999" font-family="-apple-system, BlinkMacSystemFont, 'avenir next', avenir, 'helvetica neue', helvetica, ubuntu, roboto, noto, 'segoe ui', arial, sans-serif" font-size="8.678" letter-spacing="0em" xml:space="preserve" style="white-space:pre"><tspan x="268.886" y="513.406">0:00</tspan></text><text fill="#999" font-family="-apple-system, BlinkMacSystemFont, 'avenir next', avenir, 'helvetica neue', helvetica, ubuntu, roboto, noto, 'segoe ui', arial, sans-serif" font-size="8.678" letter-spacing="0em" xml:space="preserve" style="white-space:pre"><tspan x="344.389" y="513.406">4:00</tspan></text><text fill="#999" font-family="-apple-system, BlinkMacSystemFont, 'avenir next', avenir, 'helvetica neue', helvetica, ubuntu, roboto, noto, 'segoe ui', arial, sans-serif" font-size="8.678" letter-spacing="0em" xml:space="preserve" style="white-space:pre"><tspan x="419.892" y="513.406">8:00</tspan></text><text fill="#999" font-family="-apple-system, BlinkMacSystemFont, 'avenir next', avenir, 'helvetica neue', helvetica, ubuntu, roboto, noto, 'segoe ui', arial, sans-serif" font-size="8.678" letter-spacing="0em" xml:space="preserve" style="white-space:pre"><tspan x="495.395" y="513.406">12:00</tspan></text><text fill="#999" font-family="-apple-system, BlinkMacSystemFont, 'avenir next', avenir, 'helvetica neue', helvetica, ubuntu, roboto, noto, 'segoe ui', arial, sans-serif" font-size="8.678" letter-spacing="0em" xml:space="preserve" style="white-space:pre"><tspan x="576.105" y="513.406">16:00</tspan></text><text fill="#999" font-family="-apple-system, BlinkMacSystemFont, 'avenir next', avenir, 'helvetica neue', helvetica, ubuntu, roboto, noto, 'segoe ui', arial, sans-serif" font-size="8.678" letter-spacing="0em" xml:space="preserve" style="white-space:pre"><tspan x="656.815" y="513.406">20:00</tspan></text><g filter="url(#filter1_d_5790_91121)"><circle cx="519.694" cy="495.398" r="6.943" fill="#fff"/><circle cx="519.694" cy="495.398" r="6.943" stroke="#000" stroke-opacity=".1" stroke-width=".868"/></g><rect width=".868" height="6.943" x="517.958" y="491.927" fill="#CCC" rx=".434"/><rect width=".868" height="6.943" x="520.562" y="491.927" fill="#CCC" rx=".434"/><g filter="url(#filter2_d_5790_91121)"><circle cx="557.012" cy="495.398" r="6.943" fill="#fff"/><circle cx="557.012" cy="495.398" r="6.943" stroke="#000" stroke-opacity=".1" stroke-width=".868"/></g><rect width=".868" height="6.943" x="555.276" y="491.927" fill="#CCC" rx=".434"/><rect width=".868" height="6.943" x="557.879" y="491.927" fill="#CCC" rx=".434"/><rect width="77.564" height="18.207" x="603.876" y="310.546" fill="#000" fill-opacity=".05" rx="2.604"/><g clip-path="url(#clip5_5790_91121)"><path fill="#666" d="M613.422 316.55C613.593 316.55 613.732 316.689 613.732 316.86V319.34L615.282 319.34C615.453 319.34 615.592 319.479 615.592 319.65C615.592 319.821 615.453 319.96 615.282 319.96L613.422 319.96C613.251 319.96 613.112 319.821 613.112 319.65V316.86C613.112 316.689 613.251 316.55 613.422 316.55Z"/><path fill="#666" fill-rule="evenodd" d="M613.422 323.989C615.819 323.989 617.762 322.046 617.762 319.65C617.762 317.253 615.819 315.311 613.422 315.311C611.026 315.311 609.083 317.253 609.083 319.65C609.083 322.046 611.026 323.989 613.422 323.989ZM613.422 323.369C615.476 323.369 617.142 321.704 617.142 319.65C617.142 317.596 615.476 315.93 613.422 315.93C611.368 315.93 609.703 317.596 609.703 319.65C609.703 321.704 611.368 323.369 613.422 323.369Z" clip-rule="evenodd"/></g><text fill="#666" font-family="'Nunito Sans', 'Helvetica Neue', Helvetica, Arial, sans-serif" font-size="8.678" letter-spacing="0em" xml:space="preserve" style="white-space:pre"><tspan x="621.528" y="322.08">13:30 – 14:30</tspan></text><rect width="439" height="225.509" x="255.5" y="301.5" stroke="#000" stroke-opacity=".1" rx="6.443"/><path fill="#fff" d="M742 539C742 536.791 743.791 535 746 535H825V561H742V539Z"/><path stroke="#000" stroke-opacity=".1" d="M742.5 539C742.5 537.067 744.067 535.5 746 535.5H824.5V560.5H742.5V539Z"/><text fill="#333" font-family="'Nunito Sans', 'Helvetica Neue', Helvetica, Arial, sans-serif" font-size="12" font-weight="bold" letter-spacing="0" xml:space="preserve" style="white-space:pre"><tspan x="753.32" y="551.948">Show code</tspan></text><g filter="url(#filter3_dd_5790_91121)"><g clip-path="url(#clip6_5790_91121)"><rect width="948" height="40" fill="#F6F9FC" transform="translate(125 634)"/><rect width="948" height="1" x="125" y="673" fill="#DDD"/><text fill="#666" font-family="'Nunito Sans', 'Helvetica Neue', Helvetica, Arial, sans-serif" font-size="11" font-weight="800" letter-spacing=".38em" xml:space="preserve" style="white-space:pre"><tspan x="136" y="657.119">PROPS</tspan></text><mask id="path-158-inside-2_5790_91121" fill="#fff"><path d="M125 674H825V732H125V674Z"/></mask><path fill="#fff" d="M125 674H825V732H125V674Z"/><text fill="#666" font-family="'Nunito Sans', 'Helvetica Neue', Helvetica, Arial, sans-serif" font-size="13" font-weight="bold" letter-spacing="0em" xml:space="preserve" style="white-space:pre"><tspan x="145" y="697.277">label</tspan></text><text fill="#666" font-family="'Nunito Sans', 'Helvetica Neue', Helvetica, Arial, sans-serif" font-size="13" letter-spacing="0em" xml:space="preserve" style="white-space:pre"><tspan x="274.333" y="697.277">Label of component</tspan></text><rect width="56" height="16" x="274.333" y="704" fill="#F3F3F3" rx="2"/><text fill="#444" font-family="'SFMono-Regular', Consolas, 'Liberation Mono', Menlo, Courier, monospace" font-size="12" letter-spacing="0em" xml:space="preserve" style="white-space:pre"><tspan x="280.333" y="716.154">String</tspan></text><rect width="55" height="15" x="274.833" y="704.5" stroke="#000" stroke-opacity=".1" rx="1.5"/><rect width="135" height="16" x="453.667" y="684" fill="#F3F3F3" rx="2"/><text fill="#444" font-family="'SFMono-Regular', Consolas, 'Liberation Mono', Menlo, Courier, monospace" font-size="12" letter-spacing="0em" xml:space="preserve" style="white-space:pre"><tspan x="459.667" y="696.154">Choose time frame</tspan></text><rect width="134" height="15" x="454.167" y="684.5" stroke="#000" stroke-opacity=".1" rx="1.5"/><rect width="169" height="31" x="635.5" y="684.5" fill="#fff" rx="3.5"/><text fill="#333" font-family="'Nunito Sans', 'Helvetica Neue', Helvetica, Arial, sans-serif" font-size="13" letter-spacing="0em" xml:space="preserve" style="white-space:pre"><tspan x="647" y="704.277">Usage frequency</tspan></text><rect width="169" height="31" x="635.5" y="684.5" stroke="#E1E5E8" rx="3.5"/><path fill="#E1E5E8" d="M825 731H125V733H825V731Z" mask="url(#path-158-inside-2_5790_91121)"/><mask id="path-170-inside-3_5790_91121" fill="#fff"><path d="M125 732H825V790H125V732Z"/></mask><path fill="#fff" d="M125 732H825V790H125V732Z"/><text fill="#666" font-family="'Nunito Sans', 'Helvetica Neue', Helvetica, Arial, sans-serif" font-size="13" font-weight="bold" letter-spacing="0em" xml:space="preserve" style="white-space:pre"><tspan x="145" y="755.277">startTime</tspan></text><text fill="#666" font-family="'Nunito Sans', 'Helvetica Neue', Helvetica, Arial, sans-serif" font-size="13" letter-spacing="0em" xml:space="preserve" style="white-space:pre"><tspan x="274.333" y="755.277">Start time in 24h notation</tspan></text><rect width="56" height="16" x="274.333" y="762" fill="#F3F3F3" rx="2"/><text fill="#444" font-family="'SFMono-Regular', Consolas, 'Liberation Mono', Menlo, Courier, monospace" font-size="12" letter-spacing="0em" xml:space="preserve" style="white-space:pre"><tspan x="280.333" y="774.154">string</tspan></text><rect width="55" height="15" x="274.833" y="762.5" stroke="#000" stroke-opacity=".1" rx="1.5"/><rect width="78" height="16" x="453.667" y="742" fill="#F3F3F3" rx="2"/><text fill="#444" font-family="'SFMono-Regular', Consolas, 'Liberation Mono', Menlo, Courier, monospace" font-size="12" letter-spacing="0em" xml:space="preserve" style="white-space:pre"><tspan x="459.667" y="754.154">undefined</tspan></text><rect width="77" height="15" x="454.167" y="742.5" stroke="#000" stroke-opacity=".1" rx="1.5"/><rect width="169" height="31" x="635.5" y="742.5" fill="#fff" rx="3.5"/><text fill="#7A858E" font-family="'Nunito Sans', 'Helvetica Neue', Helvetica, Arial, sans-serif" font-size="13" letter-spacing="0em" xml:space="preserve" style="white-space:pre"><tspan x="647" y="763.277">Edit string...</tspan></text><rect width="169" height="31" x="635.5" y="742.5" stroke="#E1E5E8" rx="3.5"/><path fill="#E1E5E8" d="M825 789H125V791H825V789Z" mask="url(#path-170-inside-3_5790_91121)"/><mask id="path-182-inside-4_5790_91121" fill="#fff"><path d="M125 790H825V848H125V790Z"/></mask><path fill="#fff" d="M125 790H825V848H125V790Z"/><path fill="#E1E5E8" d="M825 847H125V849H825V847Z" mask="url(#path-182-inside-4_5790_91121)"/></g><rect width="699" height="271" x="125.5" y="634.5" stroke="#000" stroke-opacity=".1" rx="4.5"/></g><rect width="700" height="40" fill="#fff" transform="translate(125 593)"/><text fill="#666" font-family="'Nunito Sans', 'Helvetica Neue', Helvetica, Arial, sans-serif" font-size="13" font-weight="bold" letter-spacing="0em" xml:space="preserve" style="white-space:pre"><tspan x="145" y="617.277">Name</tspan></text><text fill="#666" font-family="'Nunito Sans', 'Helvetica Neue', Helvetica, Arial, sans-serif" font-size="13" font-weight="bold" letter-spacing="0em" xml:space="preserve" style="white-space:pre"><tspan x="274" y="617.277">Description</tspan></text><text fill="#666" font-family="'Nunito Sans', 'Helvetica Neue', Helvetica, Arial, sans-serif" font-size="13" font-weight="bold" letter-spacing="0em" xml:space="preserve" style="white-space:pre"><tspan x="454" y="617.277">Default</tspan></text><text fill="#666" font-family="'Nunito Sans', 'Helvetica Neue', Helvetica, Arial, sans-serif" font-size="13" font-weight="bold" letter-spacing="0em" xml:space="preserve" style="white-space:pre"><tspan x="635" y="617.277">Controls</tspan></text><g clip-path="url(#clip7_5790_91121)"><path fill="#7A858E" d="M799.5 607C799.5 606.724 799.276 606.5 799 606.5H796C795.724 606.5 795.5 606.724 795.5 607C795.5 607.276 795.724 607.5 796 607.5H797.535C795.712 608.651 794.5 610.684 794.5 613C794.5 616.221 796.843 618.894 799.917 619.41C800.19 619.456 800.447 619.272 800.493 619C800.539 618.727 800.355 618.47 800.083 618.424C797.482 617.988 795.5 615.725 795.5 613C795.5 610.863 796.719 609.01 798.5 608.1V610C798.5 610.276 798.724 610.5 799 610.5C799.276 610.5 799.5 610.276 799.5 610V607.353C799.5 607.345 799.5 607.338 799.5 607.33V607Z"/><path fill="#7A858E" d="M801.507 607C801.553 606.728 801.81 606.544 802.083 606.59C805.157 607.106 807.5 609.779 807.5 613C807.5 615.316 806.288 617.349 804.466 618.5H806C806.276 618.5 806.5 618.724 806.5 619C806.5 619.276 806.276 619.5 806 619.5H803C802.724 619.5 802.5 619.276 802.5 619V616C802.5 615.724 802.724 615.5 803 615.5C803.276 615.5 803.5 615.724 803.5 616V617.9C805.281 616.99 806.5 615.137 806.5 613C806.5 610.275 804.518 608.012 801.917 607.576C801.645 607.53 801.461 607.273 801.507 607Z"/></g></g><defs><filter id="filter0_dd_5790_91121" width="456.693" height="243.202" x="246.653" y="295.436" color-interpolation-filters="sRGB" filterUnits="userSpaceOnUse"><feFlood flood-opacity="0" result="BackgroundImageFix"/><feColorMatrix in="SourceAlpha" result="hardAlpha" type="matrix" values="0 0 0 0 0 0 0 0 0 0 0 0 0 0 0 0 0 0 127 0"/><feOffset dy="2.782"/><feGaussianBlur stdDeviation="4.173"/><feColorMatrix type="matrix" values="0 0 0 0 0 0 0 0 0 0 0 0 0 0 0 0 0 0 0.1 0"/><feBlend in2="BackgroundImageFix" mode="normal" result="effect1_dropShadow_5790_91121"/><feColorMatrix in="SourceAlpha" result="hardAlpha" type="matrix" values="0 0 0 0 0 0 0 0 0 0 0 0 0 0 0 0 0 0 127 0"/><feOffset dy=".556"/><feGaussianBlur stdDeviation=".835"/><feColorMatrix type="matrix" values="0 0 0 0 0 0 0 0 0 0 0 0 0 0 0 0 0 0 0.05 0"/><feBlend in2="effect1_dropShadow_5790_91121" mode="normal" result="effect2_dropShadow_5790_91121"/><feBlend in="SourceGraphic" in2="effect2_dropShadow_5790_91121" mode="normal" result="shape"/></filter><filter id="filter1_d_5790_91121" width="19.96" height="19.96" x="509.714" y="486.286" color-interpolation-filters="sRGB" filterUnits="userSpaceOnUse"><feFlood flood-opacity="0" result="BackgroundImageFix"/><feColorMatrix in="SourceAlpha" result="hardAlpha" type="matrix" values="0 0 0 0 0 0 0 0 0 0 0 0 0 0 0 0 0 0 127 0"/><feOffset dy=".868"/><feGaussianBlur stdDeviation="1.302"/><feColorMatrix type="matrix" values="0 0 0 0 0 0 0 0 0 0 0 0 0 0 0 0 0 0 0.1 0"/><feBlend in2="BackgroundImageFix" mode="normal" result="effect1_dropShadow_5790_91121"/><feBlend in="SourceGraphic" in2="effect1_dropShadow_5790_91121" mode="normal" result="shape"/></filter><filter id="filter2_d_5790_91121" width="19.96" height="19.96" x="547.031" y="486.286" color-interpolation-filters="sRGB" filterUnits="userSpaceOnUse"><feFlood flood-opacity="0" result="BackgroundImageFix"/><feColorMatrix in="SourceAlpha" result="hardAlpha" type="matrix" values="0 0 0 0 0 0 0 0 0 0 0 0 0 0 0 0 0 0 127 0"/><feOffset dy=".868"/><feGaussianBlur stdDeviation="1.302"/><feColorMatrix type="matrix" values="0 0 0 0 0 0 0 0 0 0 0 0 0 0 0 0 0 0 0.1 0"/><feBlend in2="BackgroundImageFix" mode="normal" result="effect1_dropShadow_5790_91121"/><feBlend in="SourceGraphic" in2="effect1_dropShadow_5790_91121" mode="normal" result="shape"/></filter><filter id="filter3_dd_5790_91121" width="730" height="302" x="110" y="619" color-interpolation-filters="sRGB" filterUnits="userSpaceOnUse"><feFlood flood-opacity="0" result="BackgroundImageFix"/><feColorMatrix in="SourceAlpha" result="hardAlpha" type="matrix" values="0 0 0 0 0 0 0 0 0 0 0 0 0 0 0 0 0 0 127 0"/><feOffset dy="1"/><feGaussianBlur stdDeviation="1"/><feColorMatrix type="matrix" values="0 0 0 0 0 0 0 0 0 0 0 0 0 0 0 0 0 0 0.1 0"/><feBlend in2="BackgroundImageFix" mode="normal" result="effect1_dropShadow_5790_91121"/><feColorMatrix in="SourceAlpha" result="hardAlpha" type="matrix" values="0 0 0 0 0 0 0 0 0 0 0 0 0 0 0 0 0 0 127 0"/><feOffset/><feGaussianBlur stdDeviation="7.5"/><feColorMatrix type="matrix" values="0 0 0 0 0 0 0 0 0 0 0 0 0 0 0 0 0 0 0.05 0"/><feBlend in2="effect1_dropShadow_5790_91121" mode="normal" result="effect2_dropShadow_5790_91121"/><feBlend in="SourceGraphic" in2="effect2_dropShadow_5790_91121" mode="normal" result="shape"/></filter><linearGradient id="paint0_linear_5790_91121" x1="219.132" x2="219.132" y1="0" y2="156.213" gradientUnits="userSpaceOnUse"><stop stop-color="#E7FBFB"/><stop offset="1" stop-color="#F4F8FA"/></linearGradient><clipPath id="clip0_5790_91121"><path fill="#fff" d="M0 5.00001C0 2.23858 2.23858 0 5 0H950V799H4.99999C2.23857 799 0 796.761 0 794V5.00001Z"/></clipPath><clipPath id="clip1_5790_91121"><rect width="14" height="14" fill="#fff" transform="translate(142 244)"/></clipPath><clipPath id="clip2_5790_91121"><rect width="14" height="14" fill="#fff" transform="translate(174 244)"/></clipPath><clipPath id="clip3_5790_91121"><rect width="14" height="14" fill="#fff" transform="translate(206 244)"/></clipPath><clipPath id="clip4_5790_91121"><rect width="14" height="14" fill="#fff" transform="translate(238 244)"/></clipPath><clipPath id="clip5_5790_91121"><rect width="8.678" height="8.678" fill="#fff" transform="translate(609.083 315.311)"/></clipPath><clipPath id="clip6_5790_91121"><rect width="700" height="272" x="125" y="634" fill="#fff" rx="5"/></clipPath><clipPath id="clip7_5790_91121"><rect width="14" height="14" fill="#fff" transform="translate(794 606)"/></clipPath></defs></svg>