<svg height="475pt" viewBox="-8 0 475 475.80012" width="475pt" xmlns="http://www.w3.org/2000/svg"><g fill="#d4e1f4"><path d="m432.101562 357.199219h-20c9.746094.027343 17.628907 7.953125 17.597657 17.699219v23.5c-.011719 9.714843-7.882813 17.585937-17.597657 17.601562h20c9.714844-.015625 17.585938-7.886719 17.597657-17.601562v-23.5c.03125-9.746094-7.851563-17.671876-17.597657-17.699219zm0 0"/><path d="m269.699219 398.398438v-23.5c-.027344-9.746094 7.851562-17.671876 17.601562-17.699219h-19.898437c-4.6875-.003907-9.183594 1.863281-12.488282 5.1875-3.304687 3.320312-5.144531 7.828125-5.113281 12.511719v23.5c.015625 9.714843 7.886719 17.585937 17.601563 17.601562h20c-9.75.03125-17.675782-7.851562-17.703125-17.601562zm0 0"/><path d="m124 125.699219c0-52.851563 42.847656-95.699219 95.699219-95.699219 3.101562 0 6.101562.199219 9.101562.398438-32.085937-25.167969-76.597656-27.246094-110.886719-5.171876-34.292968 22.074219-50.832031 63.449219-41.207031 103.078126 9.621094 39.628906 43.296875 68.808593 83.894531 72.695312-23.113281-18.152344-36.605468-45.914062-36.601562-75.300781zm0 0"/><path d="m219.601562 265.199219c11.289063-.007813 22.550782 1.164062 33.597657 3.5-25.117188-15.5-54.082031-23.640625-83.597657-23.5-88.101562.199219-159.402343 70.5-159.199218 166.199219l51-.097657c9.097656-85.300781 76.398437-145.902343 158.199218-146.101562zm0 0"/><path d="m385.601562 451.300781v2.597657c-.011718 3.144531-1.273437 6.15625-3.503906 8.367187-2.234375 2.214844-5.253906 3.449219-8.398437 3.433594h-18.5c-6.511719-.011719-11.785157-5.289063-11.796875-11.800781v-2.597657c.011718-6.511719 5.285156-11.789062 11.796875-11.800781h18.5c3.15625-.050781 6.195312 1.175781 8.433593 3.394531 2.242188 2.222657 3.488282 5.25 3.46875 8.40625zm0 0"/></g><path d="m169.699219 211.398438c58.378906 0 105.703125-47.320313 105.703125-105.699219 0-58.375-47.324219-105.699219-105.703125-105.699219-58.375 0-105.699219 47.324219-105.699219 105.699219.054688 58.355469 47.347656 105.644531 105.699219 105.699219zm0-191.398438c47.332031 0 85.703125 38.371094 85.703125 85.699219 0 47.332031-38.371094 85.699219-85.703125 85.699219-47.328125 0-85.699219-38.367188-85.699219-85.699219.054688-47.308594 38.390625-85.644531 85.699219-85.699219zm0 0" fill="#2f55d4"/><path d="m169.902344 235.199219h-.402344c-45.800781.101562-88.300781 17.902343-119.800781 50.300781-31.898438 32.699219-49.398438 77.398438-49.296875 125.898438.015625 2.652343 1.054687 5.195312 2.898437 7.101562 1.878907 1.882812 4.441407 2.925781 7.101563 2.898438l244-.5c5.519531 0 10-4.476563 10-10 0-5.519532-4.480469-10-10-10l-233.703125.5c2.101562-39.296876 17.402343-75.199219 43.402343-101.898438 27.699219-28.5 65.199219-44.199219 105.5-44.199219h.300782c38.152344-.199219 74.878906 14.472657 102.398437 40.898438 3.976563 3.8125 10.289063 3.675781 14.101563-.300781 3.808594-3.976563 3.675781-10.289063-.300782-14.097657-31.101562-30.101562-72.402343-46.601562-116.199218-46.601562zm0 0" fill="#2f55d4"/><path d="m423.199219 407c-5.515625.015625-9.984375 4.484375-10 10v14.398438c-.027344 6.230468-5.070313 11.273437-11.296875 11.300781h-8.203125c-3.488281-7.9375-11.328125-13.070313-20-13.097657h-18.5c-12.027344.027344-21.769531 9.769532-21.796875 21.796876v2.601562c.027344 12.027344 9.769531 21.773438 21.796875 21.800781h18.5c8.71875.027344 16.601562-5.175781 20-13.199219h8.203125c17.273437-.027343 31.273437-14.027343 31.296875-31.300781v-14.402343c.007812-2.644532-1.046875-5.179688-2.929688-7.039063-1.878906-1.863281-4.425781-2.890625-7.070312-2.859375zm-47.597657 46.898438c-.003906.496093-.210937.964843-.570312 1.304687-.355469.339844-.835938.519531-1.332031.496094h-18.5c-.476563.003906-.9375-.1875-1.273438-.523438-.339843-.339843-.527343-.796875-.523437-1.277343v-2.597657c-.003906-.480469.183594-.9375.523437-1.277343.335938-.335938.796875-.523438 1.273438-.523438h18.5c1.015625-.011719 1.859375.785156 1.902343 1.800781zm0 0" fill="#2f55d4"/><path d="m433.199219 347.199219v-24.800781c.027343-46.140626-37.355469-83.570313-83.5-83.597657-46.140625-.027343-83.570313 37.355469-83.597657 83.5v24.800781c-14.789062.644532-26.457031 12.796876-26.5 27.597657v23.5c.042969 15.265625 12.433594 27.613281 27.699219 27.601562h20.601563c5.515625-.015625 9.980468-4.484375 10-10v-58.800781c-.019532-5.515625-4.484375-9.984375-10-10h-1.800782v-24.800781c0-35.070313 28.429688-63.5 63.5-63.5 35.070313 0 63.5 28.429687 63.5 63.5v24.800781h-1.800781c-5.515625.015625-9.984375 4.484375-10 10v58.800781c.015625 5.515625 4.484375 9.984375 10 10h20.601563c15.230468-.03125 27.566406-12.371093 27.597656-27.601562v-23.5c.199219-14.699219-11.597656-26.800781-26.300781-27.5zm-155.296875 58.800781h-10.5c-4.21875.007812-7.65625-3.382812-7.703125-7.601562v-23.5c.007812-2.03125.824219-3.976563 2.269531-5.402344 1.445312-1.425782 3.398438-2.21875 5.433594-2.195313h10.597656v38.699219zm161.796875-7.601562c0 4.199218-3.402344 7.601562-7.597657 7.601562h-10.601562v-38.800781h10.601562c4.195313 0 7.597657 3.402343 7.597657 7.601562zm0 0" fill="#2eca8b"/></svg>