<svg xmlns="http://www.w3.org/2000/svg" width="1280" height="993" fill="none" viewBox="0 0 1280 993"><g filter="url(#filter0_dddd_2185_71922)"><rect width="1200" height="910" x="40" y="20" fill="#1D1F24" rx="8"/><rect width="1199" height="909" x="40.5" y="20.5" stroke="#fff" stroke-opacity=".1" rx="7.5"/></g><circle cx="58" cy="36" r="5" fill="#FC521F"/><circle cx="76" cy="36" r="5" fill="#FFAE00"/><circle cx="94" cy="36" r="5" fill="#66BF3C"/><rect width="1198" height="1" x="41" y="51" fill="#fff" fill-opacity=".1"/><g clip-path="url(#clip0_2185_71922)"><path fill="#232A35" d="M41 52H1239V922C1239 925.866 1235.87 929 1232 929H48C44.134 929 41 925.866 41 922V52Z"/><rect width="56" height="877" x="41" y="52" fill="#000" fill-opacity=".2"/><rect width="731" height="40" x="508" y="52" fill="#000" fill-opacity=".2"/><rect width="1" height="879" x="327" y="52" fill="#fff" fill-opacity=".1"/><rect width="1" height="40" x="507" y="52" fill="#fff" fill-opacity=".1"/><rect width="1" height="40" x="688" y="52" fill="#fff" fill-opacity=".1"/><rect width="1" height="40" x="869" y="52" fill="#fff" fill-opacity=".1"/><rect width="1" height="40" x="1050" y="52" fill="#fff" fill-opacity=".1"/><rect width="1" height="877" x="96" y="52" fill="#fff" fill-opacity=".1"/><rect width="230" height="1" x="97" y="92" fill="#fff" fill-opacity=".1"/><rect width="732" height="1" x="507" y="92" fill="#fff" fill-opacity=".1"/><path fill="#666" d="M303 72C303 72.8284 302.328 73.5 301.5 73.5C300.672 73.5 300 72.8284 300 72C300 71.1716 300.672 70.5 301.5 70.5C302.328 70.5 303 71.1716 303 72Z"/><path fill="#666" d="M312 72C312 72.8284 311.328 73.5 310.5 73.5C309.672 73.5 309 72.8284 309 72C309 71.1716 309.672 70.5 310.5 70.5C311.328 70.5 312 71.1716 312 72Z"/><path fill="#666" d="M306 73.5C306.828 73.5 307.5 72.8284 307.5 72C307.5 71.1716 306.828 70.5 306 70.5C305.172 70.5 304.5 71.1716 304.5 72C304.5 72.8284 305.172 73.5 306 73.5Z"/><path fill="#666" d="M1212 72C1212 72.8284 1211.33 73.5 1210.5 73.5C1209.67 73.5 1209 72.8284 1209 72C1209 71.1716 1209.67 70.5 1210.5 70.5C1211.33 70.5 1212 71.1716 1212 72Z"/><path fill="#666" d="M1221 72C1221 72.8284 1220.33 73.5 1219.5 73.5C1218.67 73.5 1218 72.8284 1218 72C1218 71.1716 1218.67 70.5 1219.5 70.5C1220.33 70.5 1221 71.1716 1221 72Z"/><path fill="#666" d="M1215 73.5C1215.83 73.5 1216.5 72.8284 1216.5 72C1216.5 71.1716 1215.83 70.5 1215 70.5C1214.17 70.5 1213.5 71.1716 1213.5 72C1213.5 72.8284 1214.17 73.5 1215 73.5Z"/><path fill="#666" fill-rule="evenodd" d="M1179.11 68.8718C1179.63 68.6386 1180 68.1121 1180 67.5C1180 66.6716 1179.33 66 1178.5 66C1177.67 66 1177 66.6716 1177 67.5C1177 68.1531 1177.42 68.7087 1178 68.9146V75.0854C1177.42 75.2913 1177 75.8469 1177 76.5C1177 77.3284 1177.67 78 1178.5 78C1179.33 78 1180 77.3284 1180 76.5C1180 75.8469 1179.58 75.2913 1179 75.0854V71.409C1179.26 71.819 1179.57 72.1797 1179.93 72.4921C1181.03 73.4729 1182.5 73.9248 1184.08 73.9913C1184.29 74.5784 1184.84 75 1185.5 75C1186.33 75 1187 74.3284 1187 73.5C1187 72.6716 1186.33 72 1185.5 72C1184.85 72 1184.3 72.4129 1184.09 72.9906C1182.68 72.9258 1181.47 72.5227 1180.59 71.7432C1179.87 71.1034 1179.33 70.1743 1179.11 68.8718ZM1178.5 76C1178.22 76 1178 76.2239 1178 76.5C1178 76.7761 1178.22 77 1178.5 77C1178.78 77 1179 76.7761 1179 76.5C1179 76.2239 1178.78 76 1178.5 76ZM1179 67.5C1179 67.7761 1178.78 68 1178.5 68C1178.22 68 1178 67.7761 1178 67.5C1178 67.2239 1178.22 67 1178.5 67C1178.78 67 1179 67.2239 1179 67.5ZM1186 73.5C1186 73.7761 1185.78 74 1185.5 74C1185.22 74 1185 73.7761 1185 73.5C1185 73.2239 1185.22 73 1185.5 73C1185.78 73 1186 73.2239 1186 73.5Z" clip-rule="evenodd"/><path fill="#666" fill-rule="evenodd" d="M1145.03 72.5C1145.28 74.4732 1146.96 76 1149 76C1151.04 76 1152.72 74.4732 1152.97 72.5H1155.5C1155.78 72.5 1156 72.2761 1156 72C1156 71.7239 1155.78 71.5 1155.5 71.5H1152.97C1152.72 69.5268 1151.04 68 1149 68C1146.96 68 1145.28 69.5268 1145.03 71.5H1142.5C1142.22 71.5 1142 71.7239 1142 72C1142 72.2761 1142.22 72.5 1142.5 72.5H1145.03ZM1149 75C1150.66 75 1152 73.6569 1152 72C1152 70.3431 1150.66 69 1149 69C1147.34 69 1146 70.3431 1146 72C1146 73.6569 1147.34 75 1149 75Z" clip-rule="evenodd"/><text style="white-space:pre" fill="#DDD" font-family="'Nunito Sans', 'Helvetica Neue', Helvetica, Arial, sans-serif" font-size="11" font-weight="800" letter-spacing=".38em" xml:space="preserve"><tspan x="106" y="76.119">EXPLORER</tspan></text><text style="white-space:pre" fill="#DDD" font-family="'Nunito Sans', 'Helvetica Neue', Helvetica, Arial, sans-serif" font-size="13" letter-spacing="0em" xml:space="preserve"><tspan x="343" y="76.277">RangeSlider.js</tspan></text><text style="white-space:pre" fill="#DDD" font-family="'Nunito Sans', 'Helvetica Neue', Helvetica, Arial, sans-serif" font-size="13" letter-spacing="0em" xml:space="preserve"><tspan x="523" y="76.277">RangeSlider.stories.js</tspan></text><text style="white-space:pre" fill="#DDD" font-family="'Nunito Sans', 'Helvetica Neue', Helvetica, Arial, sans-serif" font-size="13" letter-spacing="0em" xml:space="preserve"><tspan x="704" y="76.277">RangeSlider.mdx</tspan></text><text style="white-space:pre" fill="#DDD" font-family="'Nunito Sans', 'Helvetica Neue', Helvetica, Arial, sans-serif" font-size="13" letter-spacing="0em" xml:space="preserve"><tspan x="885" y="76.277">RangeSlider.test.mdx</tspan></text><path fill="#CCC" fill-rule="evenodd" d="M109 107L112.5 103.5H105.5L109 107Z" clip-rule="evenodd"/><text style="white-space:pre" fill="#FFAE00" font-family="'Nunito Sans', 'Helvetica Neue', Helvetica, Arial, sans-serif" font-size="13" letter-spacing="0em" xml:space="preserve"><tspan x="120" y="109.277">charts</tspan></text><path fill="#CCC" fill-rule="evenodd" d="M127.188 129L123.688 125.5V132.5L127.188 129Z" clip-rule="evenodd"/><text style="white-space:pre" fill="#fff" font-family="'Nunito Sans', 'Helvetica Neue', Helvetica, Arial, sans-serif" font-size="13" letter-spacing="0em" xml:space="preserve"><tspan x="136" y="133.277">LineGraph</tspan></text><path fill="#CCC" fill-rule="evenodd" d="M127.188 153L123.688 149.5V156.5L127.188 153Z" clip-rule="evenodd"/><text style="white-space:pre" fill="#fff" font-family="'Nunito Sans', 'Helvetica Neue', Helvetica, Arial, sans-serif" font-size="13" letter-spacing="0em" xml:space="preserve"><tspan x="136" y="157.277">PieChart</tspan></text><path fill="#CCC" fill-rule="evenodd" d="M127.188 177L123.688 173.5V180.5L127.188 177Z" clip-rule="evenodd"/><text style="white-space:pre" fill="#fff" font-family="'Nunito Sans', 'Helvetica Neue', Helvetica, Arial, sans-serif" font-size="13" letter-spacing="0em" xml:space="preserve"><tspan x="136" y="181.277">SparkLine</tspan></text><path fill="#CCC" fill-rule="evenodd" d="M127.188 201L123.688 197.5V204.5L127.188 201Z" clip-rule="evenodd"/><text style="white-space:pre" fill="#FFAE00" font-family="'Nunito Sans', 'Helvetica Neue', Helvetica, Arial, sans-serif" font-size="13" letter-spacing="0em" xml:space="preserve"><tspan x="136" y="205.277">RangeSlider</tspan></text><text style="white-space:pre" fill="#fff" font-family="'Nunito Sans', 'Helvetica Neue', Helvetica, Arial, sans-serif" font-size="13" letter-spacing="0em" xml:space="preserve"><tspan x="166" y="229.277">RangeSlider.js</tspan></text><rect width="230" height="24" fill="#1EA7FD" fill-opacity=".1" transform="translate(97 237)"/><text style="white-space:pre" fill="#fff" font-family="'Nunito Sans', 'Helvetica Neue', Helvetica, Arial, sans-serif" font-size="13" letter-spacing="0em" xml:space="preserve"><tspan x="166" y="253.277">RangeSlider.stories.js</tspan></text><text style="white-space:pre" fill="#fff" font-family="'Nunito Sans', 'Helvetica Neue', Helvetica, Arial, sans-serif" font-size="13" letter-spacing="0em" xml:space="preserve"><tspan x="166" y="277.277">RangeSlider.mdx</tspan></text><text style="white-space:pre" fill="#fff" font-family="'Nunito Sans', 'Helvetica Neue', Helvetica, Arial, sans-serif" font-size="13" letter-spacing="0em" xml:space="preserve"><tspan x="166" y="301.277">RangeSlider.test.js</tspan></text><path fill="#CCC" fill-rule="evenodd" d="M109 323L112.5 319.5H105.5L109 323Z" clip-rule="evenodd"/><text style="white-space:pre" fill="#fff" font-family="'Nunito Sans', 'Helvetica Neue', Helvetica, Arial, sans-serif" font-size="13" letter-spacing="0em" xml:space="preserve"><tspan x="120" y="325.277">interstitial</tspan></text><path fill="#CCC" fill-rule="evenodd" d="M127.188 345L123.688 341.5V348.5L127.188 345Z" clip-rule="evenodd"/><text style="white-space:pre" fill="#fff" font-family="'Nunito Sans', 'Helvetica Neue', Helvetica, Arial, sans-serif" font-size="13" letter-spacing="0em" xml:space="preserve"><tspan x="136" y="349.277">Spinners</tspan></text><path fill="#CCC" fill-rule="evenodd" d="M125 371L128.5 367.5H121.5L125 371Z" clip-rule="evenodd"/><text style="white-space:pre" fill="#fff" font-family="'Nunito Sans', 'Helvetica Neue', Helvetica, Arial, sans-serif" font-size="13" letter-spacing="0em" xml:space="preserve"><tspan x="136" y="373.277">Progress indicators</tspan></text><path fill="#CCC" fill-rule="evenodd" d="M144.188 393L140.688 389.5V396.5L144.188 393Z" clip-rule="evenodd"/><text style="white-space:pre" fill="#fff" font-family="'Nunito Sans', 'Helvetica Neue', Helvetica, Arial, sans-serif" font-size="13" letter-spacing="0em" xml:space="preserve"><tspan x="153" y="397.277">ProgressBar</tspan></text><path fill="#CCC" fill-rule="evenodd" d="M144.188 417L140.688 413.5V420.5L144.188 417Z" clip-rule="evenodd"/><text style="white-space:pre" fill="#fff" font-family="'Nunito Sans', 'Helvetica Neue', Helvetica, Arial, sans-serif" font-size="13" letter-spacing="0em" xml:space="preserve"><tspan x="153" y="421.277">ProgressCircle</tspan></text><path fill="#CCC" fill-rule="evenodd" d="M127.188 441L123.688 437.5V444.5L127.188 441Z" clip-rule="evenodd"/><text style="white-space:pre" fill="#fff" font-family="'Nunito Sans', 'Helvetica Neue', Helvetica, Arial, sans-serif" font-size="13" letter-spacing="0em" xml:space="preserve"><tspan x="136" y="445.277">Modal</tspan></text><path fill="#CCC" fill-rule="evenodd" d="M109 467L112.5 463.5H105.5L109 467Z" clip-rule="evenodd"/><text style="white-space:pre" fill="#fff" font-family="'Nunito Sans', 'Helvetica Neue', Helvetica, Arial, sans-serif" font-size="13" letter-spacing="0em" xml:space="preserve"><tspan x="120" y="469.277">components</tspan></text><path fill="#CCC" fill-rule="evenodd" d="M127.188 489L123.688 485.5V492.5L127.188 489Z" clip-rule="evenodd"/><text style="white-space:pre" fill="#fff" font-family="'Nunito Sans', 'Helvetica Neue', Helvetica, Arial, sans-serif" font-size="13" letter-spacing="0em" xml:space="preserve"><tspan x="136" y="493.277">Image</tspan></text><path fill="#CCC" fill-rule="evenodd" d="M127.188 513L123.688 509.5V516.5L127.188 513Z" clip-rule="evenodd"/><text style="white-space:pre" fill="#fff" font-family="'Nunito Sans', 'Helvetica Neue', Helvetica, Arial, sans-serif" font-size="13" letter-spacing="0em" xml:space="preserve"><tspan x="136" y="517.277">tooltips</tspan></text><path fill="#CCC" fill-rule="evenodd" d="M127.188 537L123.688 533.5V540.5L127.188 537Z" clip-rule="evenodd"/><text style="white-space:pre" fill="#fff" font-family="'Nunito Sans', 'Helvetica Neue', Helvetica, Arial, sans-serif" font-size="13" letter-spacing="0em" xml:space="preserve"><tspan x="136" y="541.277">badges</tspan></text><path fill="#CCC" fill-rule="evenodd" d="M127.188 561L123.688 557.5V564.5L127.188 561Z" clip-rule="evenodd"/><text style="white-space:pre" fill="#fff" font-family="'Nunito Sans', 'Helvetica Neue', Helvetica, Arial, sans-serif" font-size="13" letter-spacing="0em" xml:space="preserve"><tspan x="136" y="565.277">buttons</tspan></text><path fill="#CCC" fill-rule="evenodd" d="M109 587L112.5 583.5H105.5L109 587Z" clip-rule="evenodd"/><text style="white-space:pre" fill="#fff" font-family="'Nunito Sans', 'Helvetica Neue', Helvetica, Arial, sans-serif" font-size="13" letter-spacing="0em" xml:space="preserve"><tspan x="120" y="589.277">webapp</tspan></text><path fill="#CCC" fill-rule="evenodd" d="M127.188 609L123.688 605.5V612.5L127.188 609Z" clip-rule="evenodd"/><text style="white-space:pre" fill="#fff" font-family="'Nunito Sans', 'Helvetica Neue', Helvetica, Arial, sans-serif" font-size="13" letter-spacing="0em" xml:space="preserve"><tspan x="136" y="613.277">Accordion</tspan></text><path fill="#CCC" fill-rule="evenodd" d="M127.188 633L123.688 629.5V636.5L127.188 633Z" clip-rule="evenodd"/><text style="white-space:pre" fill="#fff" font-family="'Nunito Sans', 'Helvetica Neue', Helvetica, Arial, sans-serif" font-size="13" letter-spacing="0em" xml:space="preserve"><tspan x="136" y="637.277">Alert</tspan></text><path fill="#CCC" fill-rule="evenodd" d="M127.188 657L123.688 653.5V660.5L127.188 657Z" clip-rule="evenodd"/><text style="white-space:pre" fill="#fff" font-family="'Nunito Sans', 'Helvetica Neue', Helvetica, Arial, sans-serif" font-size="13" letter-spacing="0em" xml:space="preserve"><tspan x="136" y="661.277">AccountMenu</tspan></text><path fill="#CCC" fill-rule="evenodd" d="M127.188 681L123.688 677.5V684.5L127.188 681Z" clip-rule="evenodd"/><text style="white-space:pre" fill="#fff" font-family="'Nunito Sans', 'Helvetica Neue', Helvetica, Arial, sans-serif" font-size="13" letter-spacing="0em" xml:space="preserve"><tspan x="136" y="685.277">ActivityItem</tspan></text><path fill="#CCC" fill-rule="evenodd" d="M127.188 705L123.688 701.5V708.5L127.188 705Z" clip-rule="evenodd"/><text style="white-space:pre" fill="#fff" font-family="'Nunito Sans', 'Helvetica Neue', Helvetica, Arial, sans-serif" font-size="13" letter-spacing="0em" xml:space="preserve"><tspan x="136" y="709.277">ActivityList</tspan></text><path fill="#CCC" fill-rule="evenodd" d="M127.188 729L123.688 725.5V732.5L127.188 729Z" clip-rule="evenodd"/><text style="white-space:pre" fill="#fff" font-family="'Nunito Sans', 'Helvetica Neue', Helvetica, Arial, sans-serif" font-size="13" letter-spacing="0em" xml:space="preserve"><tspan x="136" y="733.277">Avatar</tspan></text><path fill="#CCC" fill-rule="evenodd" d="M127.188 753L123.688 749.5V756.5L127.188 753Z" clip-rule="evenodd"/><text style="white-space:pre" fill="#fff" font-family="'Nunito Sans', 'Helvetica Neue', Helvetica, Arial, sans-serif" font-size="13" letter-spacing="0em" xml:space="preserve"><tspan x="136" y="757.277">BuildItem</tspan></text><path fill="#CCC" fill-rule="evenodd" d="M127.188 777L123.688 773.5V780.5L127.188 777Z" clip-rule="evenodd"/><text style="white-space:pre" fill="#fff" font-family="'Nunito Sans', 'Helvetica Neue', Helvetica, Arial, sans-serif" font-size="13" letter-spacing="0em" xml:space="preserve"><tspan x="136" y="781.277">BuildList</tspan></text><path fill="#CCC" fill-rule="evenodd" d="M127.188 801L123.688 797.5V804.5L127.188 801Z" clip-rule="evenodd"/><text style="white-space:pre" fill="#fff" font-family="'Nunito Sans', 'Helvetica Neue', Helvetica, Arial, sans-serif" font-size="13" letter-spacing="0em" xml:space="preserve"><tspan x="136" y="805.277">Calendar</tspan></text><path fill="#CCC" fill-rule="evenodd" d="M127.188 825L123.688 821.5V828.5L127.188 825Z" clip-rule="evenodd"/><text style="white-space:pre" fill="#fff" font-family="'Nunito Sans', 'Helvetica Neue', Helvetica, Arial, sans-serif" font-size="13" letter-spacing="0em" xml:space="preserve"><tspan x="136" y="829.277">Footer</tspan></text><path fill="#CCC" fill-rule="evenodd" d="M127.188 849L123.688 845.5V852.5L127.188 849Z" clip-rule="evenodd"/><text style="white-space:pre" fill="#fff" font-family="'Nunito Sans', 'Helvetica Neue', Helvetica, Arial, sans-serif" font-size="13" letter-spacing="0em" xml:space="preserve"><tspan x="136" y="853.277">Header</tspan></text><path fill="#CCC" fill-rule="evenodd" d="M127.188 873L123.688 869.5V876.5L127.188 873Z" clip-rule="evenodd"/><text style="white-space:pre" fill="#fff" font-family="'Nunito Sans', 'Helvetica Neue', Helvetica, Arial, sans-serif" font-size="13" letter-spacing="0em" xml:space="preserve"><tspan x="136" y="877.277">NewAppForm</tspan></text><path fill="#CCC" fill-rule="evenodd" d="M127.188 897L123.688 893.5V900.5L127.188 897Z" clip-rule="evenodd"/><text style="white-space:pre" fill="#fff" font-family="'Nunito Sans', 'Helvetica Neue', Helvetica, Arial, sans-serif" font-size="13" letter-spacing="0em" xml:space="preserve"><tspan x="136" y="901.277">Pagination</tspan></text><path fill="#CCC" fill-rule="evenodd" d="M127.188 921L123.688 917.5V924.5L127.188 921Z" clip-rule="evenodd"/><text style="white-space:pre" fill="#fff" font-family="'Nunito Sans', 'Helvetica Neue', Helvetica, Arial, sans-serif" font-size="13" letter-spacing="0em" xml:space="preserve"><tspan x="136" y="925.277">Sidebar</tspan></text><g clip-path="url(#clip1_2185_71922)"><path fill="#999" fill-rule="evenodd" d="M77.1363 72.1187C77.0057 72.0448 76.8598 72.0078 76.7141 72.0078H66.4286C65.9552 72.0078 65.5714 72.3916 65.5714 72.865V77.1498H57.8571C57.3838 77.1498 57 77.5336 57 78.007V95.1498C57 95.6232 57.3838 96.007 57.8571 96.007H71.5714C72.0448 96.007 72.4286 95.6232 72.4286 95.1498L72.4286 90.865H80.1429C80.6162 90.865 81 90.4812 81 90.0078L80.9999 76.3038L81 76.2935C81 76.0538 80.9016 75.837 80.7429 75.6814L77.3264 72.265C77.3009 72.2389 77.2738 72.2145 77.2451 72.1919C77.2104 72.1644 77.1739 72.14 77.1363 72.1187ZM72.4285 89.1507H79.2857V77.1507H76.7143C76.2409 77.1507 75.8571 76.7669 75.8571 76.2935V73.7221H67.2857V77.1498H68.1426C68.2884 77.1499 68.4343 77.1868 68.5648 77.2607C68.6025 77.2821 68.6389 77.3065 68.6737 77.3339C68.7023 77.3566 68.7295 77.381 68.755 77.407L72.1714 80.8234C72.3301 80.979 72.4286 81.1958 72.4286 81.4355L72.4285 81.4458L72.4285 89.1507ZM58.7143 78.8641V94.2927H70.7143V82.2927H68.1429C67.6695 82.2927 67.2857 81.9089 67.2857 81.4355V78.8641H58.7143Z" clip-rule="evenodd"/></g><g clip-path="url(#clip2_2185_71922)"><path fill="#999" fill-rule="evenodd" d="M73.3618 145.496C71.7209 146.88 69.6009 147.715 67.286 147.715C62.0787 147.715 57.8574 143.493 57.8574 138.286C57.8574 133.079 62.0787 128.857 67.286 128.857C72.4932 128.857 76.7146 133.079 76.7146 138.286C76.7146 140.601 75.8803 142.721 74.4961 144.362C74.5879 144.403 74.6738 144.462 74.7492 144.537L79.8921 149.68C80.2268 150.015 80.2268 150.557 79.8921 150.892C79.5573 151.227 79.0146 151.227 78.6799 150.892L73.537 145.749C73.4616 145.674 73.4032 145.588 73.3618 145.496ZM75.0003 138.286C75.0003 142.546 71.5465 146 67.286 146C63.0255 146 59.5717 142.546 59.5717 138.286C59.5717 134.026 63.0255 130.572 67.286 130.572C71.5465 130.572 75.0003 134.026 75.0003 138.286Z" clip-rule="evenodd"/></g><path fill="#999" fill-rule="evenodd" d="M67.2854 188.285C67.2854 189.405 66.5699 190.357 65.5711 190.71V197.659C66.5207 196.686 67.9146 196 69.8569 196C71.3813 196 72.3484 195.567 72.9635 195.045C73.3364 194.728 73.6044 194.358 73.7898 193.983C72.9796 193.551 72.4283 192.697 72.4283 191.714C72.4283 190.294 73.5796 189.142 74.9997 189.142C76.4199 189.142 77.5711 190.294 77.5711 191.714C77.5711 192.946 76.7048 193.975 75.5481 194.227C75.2818 194.952 74.8189 195.719 74.0728 196.352C73.105 197.174 71.7275 197.714 69.8569 197.714C68.0791 197.714 67.0507 198.435 66.4382 199.286C65.9765 199.927 65.7312 200.674 65.6293 201.31C66.5975 201.679 67.2854 202.616 67.2854 203.714C67.2854 205.134 66.1342 206.285 64.714 206.285C63.2938 206.285 62.1426 205.134 62.1426 203.714C62.1426 202.594 62.8581 201.642 63.8569 201.289V190.71C62.8581 190.357 62.1426 189.405 62.1426 188.285C62.1426 186.865 63.2938 185.714 64.714 185.714C66.1342 185.714 67.2854 186.865 67.2854 188.285ZM63.8569 203.714C63.8569 203.24 64.2406 202.857 64.714 202.857C65.1874 202.857 65.5711 203.24 65.5711 203.714C65.5711 204.187 65.1874 204.571 64.714 204.571C64.2406 204.571 63.8569 204.187 63.8569 203.714ZM65.5711 188.285C65.5711 188.759 65.1874 189.142 64.714 189.142C64.2406 189.142 63.8569 188.759 63.8569 188.285C63.8569 187.812 64.2406 187.428 64.714 187.428C65.1874 187.428 65.5711 187.812 65.5711 188.285ZM75.8569 191.714C75.8569 192.187 75.4731 192.571 74.9997 192.571C74.5263 192.571 74.1426 192.187 74.1426 191.714C74.1426 191.24 74.5263 190.857 74.9997 190.857C75.4731 190.857 75.8569 191.24 75.8569 191.714Z" clip-rule="evenodd"/><path fill="#999" fill-rule="evenodd" d="M63.0006 241.721C60.6336 241.721 58.7148 243.639 58.7148 246.006V258.006C58.7148 260.373 60.6336 262.292 63.0006 262.292H75.0006C77.3675 262.292 79.2863 260.373 79.2863 258.006V246.006C79.2863 243.639 77.3675 241.721 75.0006 241.721H63.0006ZM77.572 251.149H69.8577V243.435H75.0006C76.4207 243.435 77.572 244.586 77.572 246.006V251.149ZM77.572 252.864V258.006C77.572 259.427 76.4207 260.578 75.0006 260.578H69.8577V252.864H77.572ZM68.1434 260.578V252.864H60.4291V258.006C60.4291 259.427 61.5804 260.578 63.0006 260.578H68.1434ZM60.4291 251.149H68.1434V243.435H63.0006C61.5804 243.435 60.4291 244.586 60.4291 246.006V251.149Z" clip-rule="evenodd"/><path fill="#999" d="M78.9653 308.729L63.4509 318.333C62.8799 318.686 62.1426 318.276 62.1426 317.604V298.396C62.1426 297.724 62.8799 297.313 63.4509 297.667L78.9653 307.271C79.5066 307.606 79.5066 308.393 78.9653 308.729Z"/><g clip-path="url(#clip3_2185_71922)"><path fill="#999" d="M66.5756 894.576C67.9146 893.237 70.0854 893.237 71.4244 894.576C72.4176 895.569 72.6753 897.021 72.1924 898.253C72.0197 898.694 72.237 899.191 72.6777 899.364C73.1185 899.537 73.6158 899.32 73.7885 898.879C74.511 897.035 74.1287 894.856 72.6365 893.363C70.6281 891.355 67.3719 891.355 65.3635 893.363C63.355 895.372 63.355 898.628 65.3635 900.637C66.8556 902.129 69.0351 902.511 70.8788 901.789C71.3196 901.616 71.5369 901.119 71.3642 900.678C71.1915 900.237 70.6941 900.02 70.2534 900.192C69.0212 900.675 67.5688 900.418 66.5756 899.424C65.2367 898.085 65.2367 895.915 66.5756 894.576Z"/><path fill="#999" fill-rule="evenodd" d="M58.6089 896.189C58.8283 896.408 58.934 896.698 58.9277 896.985C58.9342 897.273 58.8285 897.563 58.6089 897.782L57 899.391C57.3181 900.996 57.9495 902.488 58.8285 903.8H61.093C61.4036 903.8 61.6832 903.93 61.8821 904.138C62.0898 904.337 62.2197 904.616 62.2196 904.927L62.2197 907.185C63.5258 908.056 65.0086 908.683 66.6033 909L68.2147 907.388C68.4279 907.175 68.7075 907.069 68.9871 907.069L69.0118 907.07L69.0357 907.069C69.3153 907.069 69.5948 907.175 69.808 907.388L71.4163 908.997C73.0044 908.679 74.4814 908.053 75.7827 907.185V904.901C75.7827 904.591 75.9128 904.311 76.1209 904.112C76.3197 903.905 76.5991 903.775 76.9093 903.775L79.1908 903.775C80.0586 902.472 80.6833 900.994 81 899.404L79.3781 897.782C79.1585 897.563 79.0528 897.273 79.0593 896.985C79.053 896.698 79.1587 896.408 79.3781 896.189L80.9955 894.571C80.6791 893 80.0615 891.538 79.2058 890.247L76.9093 890.247C76.5992 890.247 76.3197 890.117 76.1209 889.909C75.9128 889.71 75.7827 889.431 75.7827 889.12V886.814C74.4832 885.947 73.0086 885.322 71.4229 885.003L69.808 886.618C69.5948 886.832 69.3152 886.937 69.0357 886.937L69.0118 886.937L68.9871 886.937C68.7075 886.937 68.4279 886.832 68.2147 886.618L66.5966 885C65.0044 885.317 63.5239 885.944 62.2197 886.814L62.2196 889.095C62.2197 889.405 62.0898 889.685 61.8821 889.883C61.6832 890.092 61.4036 890.222 61.093 890.222H58.8134C57.9467 891.522 57.3222 892.998 57.0046 894.584L58.6089 896.189ZM59.8213 898.994C60.3775 898.438 60.6486 897.705 60.6421 896.984C60.6481 896.264 60.3771 895.533 59.8212 894.977L58.8981 894.053C59.1142 893.311 59.4103 892.602 59.7765 891.936H61.093C61.8802 891.936 62.5899 891.609 63.0949 891.095C63.6079 890.591 63.9339 889.882 63.9339 889.095L63.9339 887.776C64.6035 887.407 65.3172 887.11 66.065 886.893L67.0021 887.83C67.5522 888.38 68.2752 888.652 68.9871 888.652L69.0115 888.652L69.0357 888.652C69.7474 888.652 70.4699 888.381 71.0201 887.83L71.9533 886.897C72.6953 887.114 73.4035 887.41 74.0684 887.776V889.12C74.0684 889.907 74.3949 890.617 74.909 891.122C75.4136 891.635 76.1225 891.961 76.9091 891.961L78.2398 891.961C78.5978 892.616 78.8879 893.312 79.1011 894.041L78.1662 894.976C77.6101 895.532 77.3389 896.265 77.3449 896.984C77.3384 897.705 77.6093 898.438 78.1659 898.994L79.1073 899.936C78.8911 900.681 78.5946 901.393 78.2274 902.06L76.9096 902.06C76.1233 902.06 75.4138 902.386 74.9089 902.9C74.3949 903.405 74.0684 904.114 74.0684 904.901V906.223C73.4017 906.59 72.6914 906.887 71.9471 907.103L71.0208 906.177C70.4706 905.627 69.7475 905.355 69.0357 905.355L69.0115 905.355L68.9871 905.355C68.275 905.355 67.5523 905.626 67.0021 906.177L66.0713 907.108C65.3212 906.891 64.6054 906.592 63.9339 906.222L63.9339 904.927C63.9339 904.141 63.608 903.431 63.0947 902.926C62.5898 902.412 61.8801 902.086 61.093 902.086H59.7889C59.4134 901.407 59.111 900.683 58.8919 899.924L59.8213 898.994Z" clip-rule="evenodd"/></g><g clip-path="url(#clip4_2185_71922)"><path fill="#F3F3F3" d="M481.74 66.8309C481.489 66.5798 481.082 66.5798 480.831 66.8309C480.58 67.0819 480.58 67.489 480.831 67.74L485.091 71.9997L480.831 76.2594C480.58 76.5105 480.58 76.9175 480.831 77.1686C481.082 77.4196 481.489 77.4196 481.74 77.1686L486 72.9089L490.259 77.1686C490.51 77.4196 490.918 77.4196 491.169 77.1686C491.42 76.9175 491.42 76.5105 491.169 76.2594L486.909 71.9997L491.169 67.74C491.42 67.489 491.42 67.0819 491.169 66.8309C490.918 66.5798 490.51 66.5798 490.259 66.8309L486 71.0906L481.74 66.8309Z"/></g><g clip-path="url(#clip5_2185_71922)"><rect width="911" height="836" fill="#232A35" transform="translate(328 93)"/><text style="white-space:pre" fill="#546E7A" font-family="'SFMono-Regular', Consolas, 'Liberation Mono', Menlo, Courier, monospace" font-size="12" font-weight="500" letter-spacing="0em" xml:space="preserve"><tspan x="345.805" y="117.5">1 </tspan><tspan x="345.805" y="137.5">2 </tspan><tspan x="345.805" y="157.5">3 </tspan><tspan x="345.805" y="177.5">4 </tspan><tspan x="345.805" y="197.5">5 </tspan><tspan x="345.805" y="217.5">6 </tspan><tspan x="345.805" y="237.5">7 </tspan><tspan x="345.805" y="257.5">8 </tspan><tspan x="345.805" y="277.5">9 </tspan><tspan x="338.609" y="297.5">10 </tspan><tspan x="338.609" y="317.5">11 </tspan><tspan x="338.609" y="337.5">12 </tspan><tspan x="338.609" y="357.5">13 </tspan><tspan x="338.609" y="377.5">14 </tspan><tspan x="338.609" y="397.5">15 </tspan><tspan x="338.609" y="417.5">16 </tspan><tspan x="338.609" y="437.5">17 </tspan><tspan x="338.609" y="457.5">18 </tspan><tspan x="338.609" y="477.5">19 </tspan><tspan x="338.609" y="497.5">20 </tspan><tspan x="338.609" y="517.5">21 </tspan><tspan x="338.609" y="537.5">22 </tspan><tspan x="338.609" y="557.5">23 </tspan><tspan x="338.609" y="577.5">24 </tspan><tspan x="338.609" y="597.5">25 </tspan><tspan x="338.609" y="617.5">26 </tspan><tspan x="338.609" y="637.5">27 </tspan><tspan x="338.609" y="657.5">28 </tspan><tspan x="338.609" y="677.5">29 </tspan><tspan x="338.609" y="697.5">30 </tspan><tspan x="338.609" y="717.5">31 </tspan><tspan x="338.609" y="737.5">32 </tspan><tspan x="338.609" y="757.5">33 </tspan><tspan x="338.609" y="777.5">34 </tspan><tspan x="338.609" y="797.5">35 </tspan><tspan x="338.609" y="817.5">36 </tspan><tspan x="338.609" y="837.5">37 </tspan><tspan x="338.609" y="857.5">38 </tspan><tspan x="338.609" y="877.5">39 </tspan><tspan x="338.609" y="897.5">40 </tspan><tspan x="338.609" y="917.5">41 </tspan><tspan x="338.609" y="937.5">42 </tspan><tspan x="338.609" y="957.5">43</tspan></text><text style="white-space:pre" fill="#89DDFF" font-family="'SFMono-Regular', Consolas, 'Liberation Mono', Menlo, Courier, monospace" font-size="12" font-weight="500" letter-spacing="0em" xml:space="preserve"><tspan x="488.312" y="197.661">=</tspan><tspan x="560.383" y="217.661">=</tspan><tspan x="466.691" y="257.661">=</tspan><tspan x="553.176" y="257.661">&lt;</tspan><tspan x="596.418" y="257.661">&gt;</tspan><tspan x="502.727" y="337.661">=&gt;</tspan><tspan x="618.039" y="337.661">===</tspan><tspan x="726.145" y="337.661">?</tspan><tspan x="531.555" y="417.661">=&gt;</tspan><tspan x="646.867" y="417.661">!==</tspan><tspan x="747.766" y="417.661">?</tspan><tspan x="445.07" y="497.661">=&gt;</tspan><tspan x="545.969" y="497.661">===</tspan><tspan x="639.66" y="497.661">&amp;&amp;</tspan><tspan x="445.07" y="597.661">=&gt;</tspan><tspan x="545.969" y="597.661">===</tspan><tspan x="632.453" y="597.661">&amp;&amp;</tspan><tspan x="445.07" y="697.661">=&gt;</tspan><tspan x="545.969" y="697.661">===</tspan><tspan x="625.246" y="697.661">&amp;&amp;</tspan><tspan x="445.07" y="797.661">=&gt;</tspan><tspan x="560.383" y="797.661">===</tspan><tspan x="661.281" y="797.661">&amp;&amp;</tspan><tspan x="445.07" y="897.661">=&gt;</tspan><tspan x="560.383" y="897.661">===</tspan><tspan x="668.488" y="897.661">&amp;&amp;</tspan><tspan x="445.07" y="977.661">=&gt;</tspan><tspan x="560.383" y="977.661">===</tspan><tspan x="668.488" y="977.661">&amp;&amp;</tspan><tspan x="445.07" y="1077.66">=&gt;</tspan><tspan x="560.383" y="1077.66">===</tspan><tspan x="668.488" y="1077.66">&amp;&amp;</tspan></text><text style="white-space:pre" fill="#F07178" font-family="'SFMono-Regular', Consolas, 'Liberation Mono', Menlo, Courier, monospace" font-size="12" font-weight="500" letter-spacing="0em" xml:space="preserve"><tspan x="502.727" y="197.661">styles</tspan><tspan x="574.797" y="217.661">animation</tspan><tspan x="481.105" y="257.661">styled</tspan><tspan x="560.383" y="257.661">Props</tspan><tspan x="603.625" y="257.661">` </tspan><tspan x="387.414" y="277.661">background-color: ${color</tspan><tspan x="654.074" y="277.661">}; </tspan><tspan x="387.414" y="297.661">border-radius: 3em; </tspan><tspan x="387.414" y="317.661">// TODO: verify if this change is correct </tspan><tspan x="387.414" y="337.661">cursor: ${</tspan><tspan x="906.32" y="337.661">}; </tspan><tspan x="387.414" y="357.661">display: inline-block; </tspan><tspan x="387.414" y="377.661">overflow: hidden; </tspan><tspan x="387.414" y="397.661">position: relative; </tspan><tspan x="387.414" y="417.661">transition: ${</tspan><tspan x="978.391" y="417.661">}; </tspan><tspan x="387.414" y="437.661">transform: translate3d(0,0,0); </tspan><tspan x="387.414" y="457.661">vertical-align: top; </tspan><tspan x="373" y="477.661"> </tspan><tspan x="387.414" y="497.661">${</tspan><tspan x="661.281" y="497.661">css` </tspan><tspan x="401.828" y="517.661">height: 32px; </tspan><tspan x="401.828" y="537.661">width: 32px; </tspan><tspan x="387.414" y="557.661">`} </tspan><tspan x="373" y="577.661"> </tspan><tspan x="387.414" y="597.661">${</tspan><tspan x="654.074" y="597.661">css` </tspan><tspan x="401.828" y="617.661">height: 20px; </tspan><tspan x="401.828" y="637.661">width: 20px; </tspan><tspan x="387.414" y="657.661">`} </tspan><tspan x="387.414" y="697.661">${</tspan><tspan x="646.867" y="697.661">css` </tspan><tspan x="401.828" y="717.661">width: 6px; </tspan><tspan x="401.828" y="737.661">height: 6px; </tspan><tspan x="387.414" y="757.661">`} </tspan><tspan x="387.414" y="797.661">${</tspan><tspan x="682.902" y="797.661">css` </tspan><tspan x="401.828" y="817.661">animation: ${glow}</tspan><tspan x="538.762" y="817.661">1.5s ease-in-out infinite; </tspan><tspan x="387.414" y="837.661">`} </tspan><tspan x="387.414" y="877.661">/* background */ </tspan><tspan x="387.414" y="897.661">${</tspan><tspan x="690.109" y="897.661">css` </tspan><tspan x="401.828" y="917.661">background-color: #ccc; </tspan><tspan x="387.414" y="937.661">`} </tspan><tspan x="387.414" y="977.661">${</tspan><tspan x="690.109" y="977.661">css` </tspan><tspan x="401.828" y="997.661">background-color: ${color</tspan><tspan x="646.867" y="997.661">}; </tspan><tspan x="401.828" y="1017.66">background-image: linear-gradient(20deg, #74E48B 0%, #61D135 100%); </tspan><tspan x="387.414" y="1037.66">`} </tspan><tspan x="387.414" y="1077.66">${</tspan><tspan x="690.109" y="1077.66">css` </tspan><tspan x="401.828" y="1097.66">background-color: ${color</tspan><tspan x="646.867" y="1097.66">}; </tspan><tspan x="401.828" y="1117.66">background-image: linear-gradient(22deg, #EB7E44 0%, #FF4400 100%), linear-gradient(-245deg, rgba(255,219,0,0.30) 5%, rgba(0,0,0,0.00) 100%); </tspan><tspan x="387.414" y="1137.66">`}</tspan></text><text style="white-space:pre" fill="#C3E88D" font-family="'SFMono-Regular', Consolas, 'Liberation Mono', Menlo, Courier, monospace" font-size="12" font-weight="500" letter-spacing="0em" xml:space="preserve"><tspan x="618.039" y="117.661">&apos;@storybook/design-system&apos;</tspan><tspan x="574.797" y="137.661">&apos;@storybook/theming&apos;</tspan><tspan x="502.727" y="157.661">&apos;react&apos;</tspan><tspan x="646.867" y="337.661">&apos;progress&apos;</tspan><tspan x="740.559" y="337.661">&apos;progress&apos;</tspan><tspan x="834.25" y="337.661">&apos;inherit&apos;</tspan><tspan x="675.695" y="417.661">&apos;loading&apos;</tspan><tspan x="762.18" y="417.661">&apos;all 200ms ease-out;&apos;</tspan><tspan x="935.148" y="417.661">&apos;none&apos;</tspan><tspan x="574.797" y="497.661">&apos;medium&apos;</tspan><tspan x="574.797" y="597.661">&apos;small&apos;</tspan><tspan x="574.797" y="697.661">&apos;tiny&apos;</tspan><tspan x="589.211" y="797.661">&apos;loading&apos;</tspan><tspan x="589.211" y="897.661">&apos;disabled&apos;</tspan><tspan x="589.211" y="977.661">&apos;positive&apos;</tspan><tspan x="589.211" y="1077.66">&apos;negative&apos;</tspan></text><text style="white-space:pre" fill="#82AAFF" font-family="'SFMono-Regular', Consolas, 'Liberation Mono', Menlo, Courier, monospace" font-size="12" font-weight="500" letter-spacing="0em" xml:space="preserve"><tspan x="437.863" y="117.661">animation</tspan><tspan x="517.141" y="117.661">styles</tspan><tspan x="437.863" y="137.661">css</tspan><tspan x="473.898" y="137.661">styled</tspan><tspan x="423.449" y="157.661">React</tspan><tspan x="430.656" y="197.661">color</tspan><tspan x="430.656" y="217.661">rotate360</tspan><tspan x="509.934" y="217.661">glow</tspan><tspan x="416.242" y="257.661">Status</tspan><tspan x="459.484" y="337.661">props</tspan><tspan x="488.312" y="417.661">props</tspan><tspan x="401.828" y="497.661">props</tspan><tspan x="401.828" y="597.661">props</tspan><tspan x="401.828" y="697.661">props</tspan><tspan x="401.828" y="797.661">props</tspan><tspan x="401.828" y="897.661">props</tspan><tspan x="401.828" y="977.661">props</tspan><tspan x="401.828" y="1077.66">props</tspan></text><text style="white-space:pre" fill="#EFF" font-family="'SFMono-Regular', Consolas, 'Liberation Mono', Menlo, Courier, monospace" font-size="12" font-weight="500" letter-spacing="0em" xml:space="preserve"><tspan x="416.242" y="117.661">{ </tspan><tspan x="502.727" y="117.661">, </tspan><tspan x="560.383" y="117.661"> } </tspan><tspan x="610.832" y="117.661"> </tspan><tspan x="805.422" y="117.661">; </tspan><tspan x="416.242" y="137.661"> { </tspan><tspan x="459.484" y="137.661">, </tspan><tspan x="517.141" y="137.661"> } </tspan><tspan x="567.59" y="137.661"> </tspan><tspan x="718.938" y="137.661">; </tspan><tspan x="416.242" y="157.661"> </tspan><tspan x="459.484" y="157.661"> </tspan><tspan x="495.52" y="157.661"> </tspan><tspan x="553.176" y="157.661">; </tspan><tspan x="409.035" y="197.661"> { </tspan><tspan x="466.691" y="197.661"> } </tspan><tspan x="495.52" y="197.661"> </tspan><tspan x="545.969" y="197.661">; </tspan><tspan x="409.035" y="217.661"> { </tspan><tspan x="495.52" y="217.661">, </tspan><tspan x="538.762" y="217.661"> } </tspan><tspan x="567.59" y="217.661"> </tspan><tspan x="639.66" y="217.661">; </tspan><tspan x="409.035" y="257.661"> </tspan><tspan x="459.484" y="257.661"> </tspan><tspan x="473.898" y="257.661"> </tspan><tspan x="524.348" y="257.661">.</tspan><tspan x="373" y="277.661"> </tspan><tspan x="567.59" y="277.661">.</tspan><tspan x="373" y="297.661"> </tspan><tspan x="373" y="317.661"> </tspan><tspan x="373" y="337.661"> </tspan><tspan x="495.52" y="337.661"> </tspan><tspan x="517.141" y="337.661"> props.</tspan><tspan x="610.832" y="337.661"> </tspan><tspan x="639.66" y="337.661"> </tspan><tspan x="718.938" y="337.661"> </tspan><tspan x="733.352" y="337.661"> </tspan><tspan x="812.629" y="337.661"> : </tspan><tspan x="899.113" y="337.661"> </tspan><tspan x="373" y="357.661"> </tspan><tspan x="373" y="377.661"> </tspan><tspan x="373" y="397.661"> </tspan><tspan x="373" y="417.661"> </tspan><tspan x="524.348" y="417.661"> </tspan><tspan x="545.969" y="417.661"> props.</tspan><tspan x="639.66" y="417.661"> </tspan><tspan x="668.488" y="417.661"> </tspan><tspan x="740.559" y="417.661"> </tspan><tspan x="754.973" y="417.661"> </tspan><tspan x="913.527" y="417.661"> : </tspan><tspan x="373" y="437.661"> </tspan><tspan x="373" y="457.661"> </tspan><tspan x="373" y="497.661"> </tspan><tspan x="437.863" y="497.661"> </tspan><tspan x="459.484" y="497.661"> props.</tspan><tspan x="538.762" y="497.661"> </tspan><tspan x="567.59" y="497.661"> </tspan><tspan x="632.453" y="497.661"> </tspan><tspan x="654.074" y="497.661"> </tspan><tspan x="373" y="517.661"> </tspan><tspan x="373" y="537.661"> </tspan><tspan x="373" y="557.661"> </tspan><tspan x="373" y="597.661"> </tspan><tspan x="437.863" y="597.661"> </tspan><tspan x="459.484" y="597.661"> props.</tspan><tspan x="538.762" y="597.661"> </tspan><tspan x="567.59" y="597.661"> </tspan><tspan x="625.246" y="597.661"> </tspan><tspan x="646.867" y="597.661"> </tspan><tspan x="373" y="617.661"> </tspan><tspan x="373" y="637.661"> </tspan><tspan x="373" y="657.661"> </tspan><tspan x="373" y="677.661">​ </tspan><tspan x="373" y="697.661"> </tspan><tspan x="437.863" y="697.661"> </tspan><tspan x="459.484" y="697.661"> props.</tspan><tspan x="538.762" y="697.661"> </tspan><tspan x="567.59" y="697.661"> </tspan><tspan x="618.039" y="697.661"> </tspan><tspan x="639.66" y="697.661"> </tspan><tspan x="373" y="717.661"> </tspan><tspan x="373" y="737.661"> </tspan><tspan x="373" y="757.661"> </tspan><tspan x="373" y="777.661">​ </tspan><tspan x="373" y="797.661"> </tspan><tspan x="437.863" y="797.661"> </tspan><tspan x="459.484" y="797.661"> props.</tspan><tspan x="553.176" y="797.661"> </tspan><tspan x="582.004" y="797.661"> </tspan><tspan x="654.074" y="797.661"> </tspan><tspan x="675.695" y="797.661"> </tspan><tspan x="373" y="817.661"> </tspan><tspan x="531.555" y="817.661"> </tspan><tspan x="373" y="837.661"> </tspan><tspan x="373" y="857.661">​ </tspan><tspan x="373" y="877.661"> </tspan><tspan x="373" y="897.661"> </tspan><tspan x="437.863" y="897.661"> </tspan><tspan x="459.484" y="897.661"> props.</tspan><tspan x="553.176" y="897.661"> </tspan><tspan x="582.004" y="897.661"> </tspan><tspan x="661.281" y="897.661"> </tspan><tspan x="682.902" y="897.661"> </tspan><tspan x="373" y="917.661"> </tspan><tspan x="373" y="937.661"> </tspan><tspan x="373" y="957.661">​ </tspan><tspan x="373" y="977.661"> </tspan><tspan x="437.863" y="977.661"> </tspan><tspan x="459.484" y="977.661"> props.</tspan><tspan x="553.176" y="977.661"> </tspan><tspan x="582.004" y="977.661"> </tspan><tspan x="661.281" y="977.661"> </tspan><tspan x="682.902" y="977.661"> </tspan><tspan x="373" y="997.661"> </tspan><tspan x="582.004" y="997.661">.</tspan><tspan x="373" y="1017.66"> </tspan><tspan x="373" y="1037.66"> </tspan><tspan x="373" y="1057.66">​ </tspan><tspan x="373" y="1077.66"> </tspan><tspan x="437.863" y="1077.66"> </tspan><tspan x="459.484" y="1077.66"> props.</tspan><tspan x="553.176" y="1077.66"> </tspan><tspan x="582.004" y="1077.66"> </tspan><tspan x="661.281" y="1077.66"> </tspan><tspan x="682.902" y="1077.66"> </tspan><tspan x="373" y="1097.66"> </tspan><tspan x="582.004" y="1097.66">.</tspan></text><text style="white-space:pre" fill="#C792EA" font-family="'SFMono-Regular', Consolas, 'Liberation Mono', Menlo, Courier, monospace" font-size="12" font-weight="500" letter-spacing="0em" xml:space="preserve"><tspan x="373" y="117.661">import</tspan><tspan x="582.004" y="117.661">from</tspan><tspan x="373" y="137.661">import</tspan><tspan x="538.762" y="137.661">from</tspan><tspan x="373" y="157.661">import</tspan><tspan x="466.691" y="157.661">from</tspan><tspan x="373" y="197.661">const</tspan><tspan x="373" y="217.661">const</tspan><tspan x="373" y="257.661">const</tspan><tspan x="531.555" y="257.661">div</tspan><tspan x="574.797" y="277.661">mediumlight</tspan><tspan x="567.59" y="337.661">status</tspan><tspan x="596.418" y="417.661">status</tspan><tspan x="509.934" y="497.661">size</tspan><tspan x="509.934" y="597.661">size</tspan><tspan x="509.934" y="697.661">size</tspan><tspan x="509.934" y="797.661">status</tspan><tspan x="509.934" y="897.661">status</tspan><tspan x="509.934" y="977.661">status</tspan><tspan x="589.211" y="997.661">positive</tspan><tspan x="509.934" y="1077.66">status</tspan><tspan x="589.211" y="1097.66">negative</tspan></text></g></g><defs><filter id="filter0_dddd_2185_71922" width="1280" height="1000" x="0" y="0" color-interpolation-filters="sRGB" filterUnits="userSpaceOnUse"><feFlood flood-opacity="0" result="BackgroundImageFix"/><feColorMatrix in="SourceAlpha" result="hardAlpha" type="matrix" values="0 0 0 0 0 0 0 0 0 0 0 0 0 0 0 0 0 0 127 0"/><feOffset dy="1"/><feGaussianBlur stdDeviation="1.5"/><feColorMatrix type="matrix" values="0 0 0 0 0 0 0 0 0 0 0 0 0 0 0 0 0 0 0.1 0"/><feBlend in2="BackgroundImageFix" mode="normal" result="effect1_dropShadow_2185_71922"/><feColorMatrix in="SourceAlpha" result="hardAlpha" type="matrix" values="0 0 0 0 0 0 0 0 0 0 0 0 0 0 0 0 0 0 127 0"/><feOffset dy="10"/><feGaussianBlur stdDeviation="10"/><feColorMatrix type="matrix" values="0 0 0 0 0 0 0 0 0 0 0 0 0 0 0 0 0 0 0.1 0"/><feBlend in2="effect1_dropShadow_2185_71922" mode="normal" result="effect2_dropShadow_2185_71922"/><feColorMatrix in="SourceAlpha" result="hardAlpha" type="matrix" values="0 0 0 0 0 0 0 0 0 0 0 0 0 0 0 0 0 0 127 0"/><feOffset dy="20"/><feGaussianBlur stdDeviation="20"/><feColorMatrix type="matrix" values="0 0 0 0 0 0 0 0 0 0 0 0 0 0 0 0 0 0 0.05 0"/><feBlend in2="effect2_dropShadow_2185_71922" mode="normal" result="effect3_dropShadow_2185_71922"/><feColorMatrix in="SourceAlpha" result="hardAlpha" type="matrix" values="0 0 0 0 0 0 0 0 0 0 0 0 0 0 0 0 0 0 127 0"/><feOffset dy="40"/><feGaussianBlur stdDeviation="15"/><feColorMatrix type="matrix" values="0 0 0 0 0 0 0 0 0 0 0 0 0 0 0 0 0 0 0.05 0"/><feBlend in2="effect3_dropShadow_2185_71922" mode="normal" result="effect4_dropShadow_2185_71922"/><feBlend in="SourceGraphic" in2="effect4_dropShadow_2185_71922" mode="normal" result="shape"/></filter><clipPath id="clip0_2185_71922"><path fill="#fff" d="M41 52H1239V922C1239 925.866 1235.87 929 1232 929H48C44.134 929 41 925.866 41 922V52Z"/></clipPath><clipPath id="clip1_2185_71922"><rect width="24" height="24" fill="#fff" transform="translate(57 72)"/></clipPath><clipPath id="clip2_2185_71922"><rect width="24" height="24" fill="#fff" transform="translate(57 128)"/></clipPath><clipPath id="clip3_2185_71922"><rect width="24" height="24" fill="#fff" transform="translate(57 885)"/></clipPath><clipPath id="clip4_2185_71922"><rect width="12" height="12" fill="#fff" transform="translate(480 66)"/></clipPath><clipPath id="clip5_2185_71922"><rect width="911" height="836" fill="#fff" transform="translate(328 93)"/></clipPath></defs></svg>