<svg height="547" viewBox="0 0 747 547" width="747" xmlns="http://www.w3.org/2000/svg" xmlns:xlink="http://www.w3.org/1999/xlink"><defs><path id="a" d="m5.388768 0h125.02374c2.976135 0 5.388768 2.41263361 5.388768 5.388768v40.6500064c0 2.9761344-2.412633 5.388768-5.388768 5.388768h-125.02374c-2.97613439 0-5.388768-2.4126336-5.388768-5.388768v-40.6500064c0-2.97613439 2.41263361-5.388768 5.388768-5.388768z"/><filter id="b" height="280.8%" width="168.5%" x="-28.4%" y="-72.9%"><feOffset dx="8" dy="9" in="SourceAlpha" result="shadowOffsetOuter1"/><feGaussianBlur in="shadowOffsetOuter1" result="shadowBlurOuter1" stdDeviation="14"/><feColorMatrix in="shadowBlurOuter1" result="shadowMatrixOuter1" type="matrix" values="0 0 0 0 0.0755212756   0 0 0 0 0.582569014   0 0 0 0 0.878793025  0 0 0 0.229458042 0"/><feOffset dx="0" dy="2" in="SourceAlpha" result="shadowOffsetOuter2"/><feGaussianBlur in="shadowOffsetOuter2" result="shadowBlurOuter2" stdDeviation="7.5"/><feColorMatrix in="shadowBlurOuter2" result="shadowMatrixOuter2" type="matrix" values="0 0 0 0 0.50398247   0 0 0 0 0.700178215   0 0 0 0 1  0 0 0 0.233828671 0"/><feMerge><feMergeNode in="shadowMatrixOuter1"/><feMergeNode in="shadowMatrixOuter2"/></feMerge></filter><path id="c" d="m5 0h158.949198c2.761424 0 5 2.23857625 5 5v132.679592c0 2.761424-2.238576 5-5 5h-158.949198c-2.76142375 0-5-2.238576-5-5v-132.679592c0-2.76142375 2.23857625-5 5-5z"/><filter id="d" height="165.2%" width="155%" x="-22.8%" y="-26.3%"><feOffset dx="8" dy="9" in="SourceAlpha" result="shadowOffsetOuter1"/><feGaussianBlur in="shadowOffsetOuter1" result="shadowBlurOuter1" stdDeviation="14"/><feColorMatrix in="shadowBlurOuter1" result="shadowMatrixOuter1" type="matrix" values="0 0 0 0 0.0755212756   0 0 0 0 0.582569014   0 0 0 0 0.878793025  0 0 0 0.229458042 0"/><feOffset dx="0" dy="2" in="SourceAlpha" result="shadowOffsetOuter2"/><feGaussianBlur in="shadowOffsetOuter2" result="shadowBlurOuter2" stdDeviation="7.5"/><feColorMatrix in="shadowBlurOuter2" result="shadowMatrixOuter2" type="matrix" values="0 0 0 0 0.50398247   0 0 0 0 0.700178215   0 0 0 0 1  0 0 0 0.233828671 0"/><feMerge><feMergeNode in="shadowMatrixOuter1"/><feMergeNode in="shadowMatrixOuter2"/></feMerge></filter><path id="e" d="m22.6524064 109.608163c13.3900459-3.849653 23.0370753-9.7032628 28.9410882-17.5608287 8.8560193-11.7863488 11.8416796-23.2106876 27.0731653-23.2106876s17.1843633 17.4971531 33.6499611 17.4971531c16.465598 0 17.366063-22.3135732 22.838615-31.1736865 3.648368-5.9067422 8.620687-8.8601133 14.916957-8.8601133"/><filter id="f" height="198.7%" width="149%" x="-24.7%" y="-28.4%"><feMorphology in="SourceAlpha" operator="dilate" radius="2.002" result="shadowSpreadOuter1"/><feOffset dx="0" dy="13" in="shadowSpreadOuter1" result="shadowOffsetOuter1"/><feMorphology in="SourceAlpha" operator="erode" radius="2.002" result="shadowInner"/><feOffset dx="0" dy="13" in="shadowInner" result="shadowInner"/><feComposite in="shadowOffsetOuter1" in2="shadowInner" operator="out" result="shadowOffsetOuter1"/><feGaussianBlur in="shadowOffsetOuter1" result="shadowBlurOuter1" stdDeviation="7.5"/><feColorMatrix in="shadowBlurOuter1" type="matrix" values="0 0 0 0 0   0 0 0 0 0   0 0 0 0 0  0 0 0 0.144394668 0"/></filter><path id="g" d="m7.4844 0h225.2124c4.13352 0 7.4844 3.35088002 7.4844 7.4844v150.515866c0 4.13352-3.35088 7.4844-7.4844 7.4844h-225.2124c-4.13351998 0-7.4844-3.35088-7.4844-7.4844v-150.515866c0-4.13351998 3.35088002-7.4844 7.4844-7.4844z"/><filter id="h" height="132.6%" width="122.5%" x="-8.7%" y="-12.7%"><feOffset dx="6" dy="6" in="SourceAlpha" result="shadowOffsetOuter1"/><feGaussianBlur in="shadowOffsetOuter1" result="shadowBlurOuter1" stdDeviation="8"/><feColorMatrix in="shadowBlurOuter1" type="matrix" values="0 0 0 0 0.701879529   0 0 0 0 0.701879529   0 0 0 0 0.701879529  0 0 0 0.208724869 0"/></filter><linearGradient id="i"><stop offset="0" stop-color="#ffafaf"/><stop offset="1" stop-color="#f07777"/></linearGradient><linearGradient id="j" x1="45.135929%" x2="62.017602%" xlink:href="#i" y1="-28.185925%" y2="121.546626%"/><linearGradient id="k"><stop offset="0" stop-color="#fdc6c6"/><stop offset="1" stop-color="#fab2b2"/></linearGradient><linearGradient id="l" x1="31.713261%" x2="55.144278%" xlink:href="#k" y1="-6.206297%" y2="90.72046%"/><linearGradient id="m" x1="42.314264%" x2="50%" xlink:href="#k" y1="-3.859983%" y2="78.278468%"/><linearGradient id="n" x1="28.502916%" x2="77.061497%" y1="98.643102%" y2="9.204311%"><stop offset="0" stop-color="#28324f"/><stop offset="1" stop-color="#222735"/></linearGradient><linearGradient id="o" x1="44.359463%" x2="50%" xlink:href="#k" y1="-28.185925%" y2="91.050481%"/><linearGradient id="p" x1="42.314264%" x2="50%" xlink:href="#k" y1="28.062499%" y2="61.517994%"/><linearGradient id="q" x1="70.829054%" x2="32.509657%" y1="38.182259%" y2="84.863651%"><stop offset="0" stop-color="#4d63a0"/><stop offset="1" stop-color="#222735"/></linearGradient><linearGradient id="r" x1="68.669473%" x2="68.669473%" y1="-6.664324%" y2="100%"><stop offset="0" stop-color="#fe62be"/><stop offset="1" stop-color="#fdb3a8"/></linearGradient><path id="s" d="m2.67368445.44290169h30.65189935c1.113406 0 2.016.90259395 2.016 2.016 0 .05858587-.0025538.1171439-.0076541.17550734l-5.9068652 67.59277717c-.0910081 1.0414135-.9629633 1.8404926-2.0083458 1.8404926h-18.83816913c-1.04538255 0-1.91733779-.7990791-2.00834588-1.8404926l-5.90686512-67.59277717c-.09693003-1.10917881.72365974-2.08692319 1.83283854-2.18385322.05836344-.00510032.11692147-.00765412.17550734-.00765412z"/><linearGradient id="t" x1="42.314264%" x2="50%" xlink:href="#k" y1="-3.801552%" y2="78.24779%"/><linearGradient id="u" x1="43.487456%" x2="50%" xlink:href="#k" y1="-28.185925%" y2="91.050481%"/><linearGradient id="v" x1="45.248892%" x2="61.738507%" xlink:href="#i" y1="-28.185925%" y2="121.546626%"/><linearGradient id="w" x1="31.713261%" x2="55.144278%" xlink:href="#k" y1="-6.145321%" y2="90.676284%"/><linearGradient id="x" x1="42.314264%" x2="50%" xlink:href="#k" y1="8.581204%" y2="71.746388%"/><linearGradient id="y" x1="42.314264%" x2="50%" xlink:href="#k" y1="22.418294%" y2="64.481408%"/><linearGradient id="z" x1="68.669473%" x2="68.669473%" y1="-22.754103%" y2="100%"><stop offset="0" stop-color="#9ff6ec"/><stop offset="1" stop-color="#7d9dff"/></linearGradient><linearGradient id="A"><stop offset="0" stop-color="#fdc6c6"/><stop offset="1" stop-color="#a47070"/></linearGradient><linearGradient id="B" x1="45.163377%" x2="50%" xlink:href="#A" y1="-28.185925%" y2="91.050481%"/><linearGradient id="C" x1="44.186568%" x2="50%" xlink:href="#A" y1="-28.185925%" y2="91.050481%"/><linearGradient id="D" x1="43.83586%" x2="50%" xlink:href="#A" y1="-28.185925%" y2="91.050481%"/><linearGradient id="E"><stop offset="0" stop-color="#fdc6c6"/><stop offset="1" stop-color="#ffcca1"/></linearGradient><linearGradient id="F" x1="46.188435%" x2="50%" xlink:href="#E" y1="-28.185925%" y2="91.050481%"/><linearGradient id="G" x1="46.514502%" x2="50%" xlink:href="#k" y1="-28.185925%" y2="91.050481%"/><linearGradient id="H" x1="45.676024%" x2="50%" xlink:href="#k" y1="-28.185925%" y2="91.050481%"/><linearGradient id="I" x1="44.187812%" x2="50%" xlink:href="#E" y1="-28.185925%" y2="91.050481%"/><linearGradient id="J" x1="42.314264%" x2="50%" xlink:href="#E" y1="-8.452658%" y2="80.689791%"/><mask id="K" fill="#fff"><use fill="#fff" fill-rule="evenodd" xlink:href="#c"/></mask><mask id="L" fill="#fff"><use fill="#fff" fill-rule="evenodd" xlink:href="#s"/></mask></defs><g fill="none" fill-rule="evenodd"><g transform="translate(1 1.818995)"><path d="m673.320496 164.42973c9.377346-12.518241 27.133146-15.068873 39.658691-5.696994 12.400288 9.278159 15.025623 26.763254 5.978061 39.258465l-.277744.377102-74.299779 99.186119c-9.463416 12.633141-27.039343 15.8361-40.339168 7.428539l-.401703-.25833-46.773957-30.596137-47.159472 68.645737c-8.768011 12.762592-26.141129 16.100186-39.003628 7.577145l-.388379-.261907c-12.770038-8.762899-16.109579-26.125887-7.581565-38.980887l.26206-.388152 61.799085-89.953868c9.206404-13.400712 27.348195-17.093721 41.048422-8.441394l.413785.265973 47.643081 31.164275z" fill="#7367f0" fill-rule="nonzero" opacity=".084542"/><path d="m430.118007 3.47524559c2.377598-3.45440257 7.113575-4.33295643 10.578099-1.96230495 3.418939 2.33945869 4.322018 6.96893108 2.060217 10.41018516l-.092162.1370082-18.516476 26.8999015c-2.714547 3.7907731-7.966943 4.7039135-11.803104 2.0815689l-.136397-.0951595-10.634601-7.570843-11.525385 18.2592464c-2.209148 3.4997239-6.813895 4.5829703-10.352529 2.4646638l-.139122-.085282c-3.509978-2.2026937-4.596399-6.7939876-2.471885-10.3222827l.085531-.1387149 15.284875-24.2142378c2.517992-3.9889944 7.802423-5.1874407 11.803107-2.6768045l.209229.1355879.205177.1416117 10.857769 7.7298873z" fill="#7367f0" fill-rule="nonzero" opacity=".084542"/><g fill="#00cfe8"><path d="m634.903005 126.988904v-17.977101h17.989048c1.380712 0 2.5-1.119289 2.5-2.5v-8.6548004c0-1.3807119-1.119288-2.5-2.5-2.5h-17.989048v-18.109672c0-1.3807118-1.119288-2.5-2.5-2.5h-8.795414c-1.380712 0-2.5 1.1192882-2.5 2.5v18.109672h-17.989048c-1.380712 0-2.5 1.1192881-2.5 2.5v8.6548004c0 1.380711 1.119288 2.5 2.5 2.5h17.989048v17.977101c0 1.380712 1.119288 2.5 2.5 2.5h8.795414c1.380712 0 2.5-1.119288 2.5-2.5z" opacity=".070266"/><path d="m91.602649 20.1810047c50.591478 0 91.603974 40.9885827 91.603974 91.5505623 0 50.561979-41.012496 91.550561-91.603974 91.550561-50.5914776 0-91.6039735-40.988582-91.6039735-91.550561 0-50.5619796 41.0124959-91.5505623 91.6039735-91.5505623zm0 45.3033708c-25.5565196 0-46.2741722 20.7055727-46.2741722 46.2471915 0 25.541618 20.7176526 46.247191 46.2741722 46.247191 25.55652 0 46.274172-20.705573 46.274172-46.247191 0-25.5416188-20.717652-46.2471915-46.274172-46.2471915z" opacity=".07394"/></g></g><g transform="translate(61.596257 87)"><path d="m16 0h470.128342c8.836556 0 16 7.163444 16 16v204.22449c0 8.836556-7.163444 16-16 16h-470.128342c-8.836556 0-16-7.163444-16-16v-204.22449c0-8.836556 7.163444-16 16-16z" fill="#e7fcff"/><path d="m23.5508021 0h462.5775399c8.836556 0 16 7.163444 16 16v204.22449c0 8.836556-7.163444 16-16 16h-462.5775399c-8.836556 0-15.99999996-7.163444-15.99999996-16v-204.22449c0-8.836556 7.16344396-16 15.99999996-16z" fill="#00cfe8" opacity=".383371"/><path d="m25.1016043 7.55918367h459.4759357c5.522848 0 10 4.47715253 10 10.00000003v201.1061223c0 5.522848-4.477152 10-10 10h-459.4759357c-5.5228475 0-10-4.477152-10-10v-201.1061223c0-5.5228475 4.4771525-10.00000003 10-10.00000003z" fill="#e7fcff"/><path d="m220.254011 208.822449h69.171123c3.313708 0 6 2.686291 6 6v13.842857h-81.171123v-13.842857c0-3.313709 2.686291-6 6-6z" fill="#d4efff"/><path d="m227.804813 208.822449h69.171123c3.313708 0 6 2.686291 6 6v21.402041h-81.171123v-21.402041c0-3.313709 2.686291-6 6-6z" fill="#91d6ff"/></g><g transform="translate(90.855615 104.008163)"><use fill="#000" filter="url(#b)" xlink:href="#a"/><use fill="#fff" fill-rule="evenodd" xlink:href="#a"/><path d="m41.7084527 29.0234645h25.4275631c.843643 0 1.5275508.6839078 1.5275508 1.5275508s-.6839078 1.5275508-1.5275508 1.5275508h-25.4275631c-.843643 0-1.5275508-.6839078-1.5275508-1.5275508s.6839078-1.5275508 1.5275508-1.5275508z" fill="#c7c1ff" opacity=".454078"/><path d="m41.7084527 20.3673435h15.2551829c.843643 0 1.5275508.6839078 1.5275508 1.5275508s-.6839078 1.5275508-1.5275508 1.5275508h-15.2551829c-.843643 0-1.5275508-.6839078-1.5275508-1.5275508s.6839078-1.5275508 1.5275508-1.5275508z" fill="#8478ff"/><g transform="translate(78.327328 13.238773)"><path d="m36.6295477 5.03689567c2.1698594-2.85439808 6.2402592-3.40737373 9.0914924-1.23510568.6558906.49970314 1.2106588 1.11995055 1.6346227 1.82755683.21847.36463201.1003101.83752624-.2639176 1.05623882-.3642277.21871257-.8365976.1004215-1.0550677-.26421051-.3234512-.5398482-.7466959-1.01304841-1.2470891-1.39428279-2.1308745-1.62344862-5.1543006-1.25174686-6.8329525.81115805l-.1031445.1311309-2.3846993 3.13701472c-3.7251207 4.90030689-10.0277543 7.06096609-15.9588543 5.49506849l-.253954-.0693943-1.9187521-.542114c-.1234946-.0348915-.2479778-.066176-.3732914-.0938137-3.5080363-.7736921-6.97897561 1.3978067-7.83813394 4.8676121l-.04013664.1716857-.39563994 1.7978756c-.1400371.6363597-.41165551 1.2363025-.7973623 1.7611905-1.52543351 2.0758819-4.44301056 2.5207358-6.51659074.993609-.34212136-.2519616-.41543672-.7338689-.16375444-1.07637.25168228-.3425012.73305525-.4158979 1.07517661-.1639362 1.38933745 1.0232034 3.34416857.725143 4.36623751-.6657367.22612691-.3077241.39372842-.6539501.49495264-1.0213349l.039295-.1586956.39563994-1.7978757c.96825831-4.3999806 5.3161209-7.1810699 9.7112229-6.2117368l.2309113.0544671.2292298.0611732 1.9187521.542114c5.3146808 1.5015814 11.0003329-.3514429 14.4151246-4.67497479l.1559837-.20129861z" fill="#8478ff"/><path d="m29.698819 4.10617156c1.5703698-3.49653353 5.6747588-5.05659329 9.1674177-3.48449095.7016395.3158193 1.3458891.74632966 1.9063494 1.27388998 1.3193197 1.24187346 2.5408062 3.20488757 3.6859666 5.89222398.1666581.39109475-.0149323.84339268-.4055934 1.01023571-.3906611.16684304-.8424575-.01494889-1.0091156-.40604364-1.0689782-2.50856047-2.1844287-4.30116728-3.3248445-5.37463874-.4361389-.41053688-.9374811-.74555143-1.4834829-.9913157-2.6685012-1.20113561-5.7958868-.05271082-7.0653066 2.56464738l-.0685971.14691445-.4948284 1.10177656c-.1152185.25654366-.247567.50502664-.3961468.74376175-1.8273941 2.93622098-5.6864279 3.83345836-8.6193932 2.00403584-.3492786-.21786078-.7323335-.37602084-1.1334719-.46800081-1.9516693-.44751245-3.8963505.73568036-4.4106653 2.65572713l-.0335437.135141-.8560686 3.741737c-.2579295 1.1273679-.8051748 2.1678709-1.5876796 3.0187292-2.4406061 2.6537981-6.5384577 2.8679925-9.24014983.5163544l-.14338051-.1284358-3.48648745-3.2135239c-.31246116-.287998-.33255134-.7750475-.04487267-1.0878555.26850009-.2919542.7102039-.328938 1.02194691-.0984185l.06470239.053496 3.48648745 3.2135239c2.07327 1.9109498 5.30140071 1.7774977 7.21023171-.2980737.555019-.6035011.9560079-1.3311673 1.1702969-2.1208824l.0496638-.1986856.8560685-3.7417369c.6470615-2.82820069 3.4617759-4.59578112 6.2868407-3.94800144.4965241.11385163.9734625.29938054 1.4159436.55044634l.1874817.11159419c2.2120038 1.37972636 5.1224362.70304174 6.5006328-1.51141741.0747046-.12003391.1439686-.24333526.2075911-.36952701l.0911776-.1914083z" fill="#c7c1ff"/></g><ellipse cx="22.633546" cy="26.222955" fill="#8478ff" rx="10.42669" ry="10.438264"/></g><g transform="translate(90.855615 162.591837)"><use fill="#000" filter="url(#d)" xlink:href="#c"/><use fill="#fff" fill-rule="evenodd" xlink:href="#c"/><g mask="url(#K)" stroke-linecap="round"><use fill="#000" filter="url(#f)" xlink:href="#e"/><use stroke="#8eeaf6" stroke-width="4.004" xlink:href="#e"/></g><path d="m22.6524064 108.389866c13.3900459-3.833029 23.0370753-9.6613593 28.9410882-17.4849919 8.8560193-11.7354488 11.8416796-23.110451 27.0731653-23.110451s17.1843633 17.4215908 33.6499611 17.4215908c16.465598 0 17.366063-22.217211 22.838615-31.0390614 3.648368-5.8812336 8.620687-8.8218505 14.916957-8.8218505v74.401633c0 1.701037-1.378963 3.08-3.08 3.08h-121.2597866c-1.701037 0-3.08-1.378963-3.08-3.08z" fill="#cef9ff" mask="url(#K)" opacity=".414737"/><g fill="#8eeaf6"><path d="m13.213904 14.173469h52.855615v5.669388h-52.855615z" mask="url(#K)"/><path d="m16.0485976 28.3469388h18.8707192c1.5655582 0 2.8346939 1.2691357 2.8346939 2.8346939s-1.2691357 2.8346938-2.8346939 2.8346938h-18.8707192c-1.5655582 0-2.8346939-1.2691356-2.8346939-2.8346938s1.2691357-2.8346939 2.8346939-2.8346939z" fill-opacity=".401934" mask="url(#K)"/><path d="m136.386364 20.7877551c1.824459 0 3.303476-1.4806583 3.303476-3.3071429 0-1.8264845-1.479017-3.3071428-3.303476-3.3071428-1.82446 0-3.303476 1.4806583-3.303476 3.3071428 0 1.8264846 1.479016 3.3071429 3.303476 3.3071429z" fill-opacity=".451705" mask="url(#K)"/><path d="m145.824866 20.7877551c1.82446 0 3.303476-1.4806583 3.303476-3.3071429 0-1.8264845-1.479016-3.3071428-3.303476-3.3071428-1.824459 0-3.303476 1.4806583-3.303476 3.3071428 0 1.8264846 1.479017 3.3071429 3.303476 3.3071429z" fill-opacity=".451705" mask="url(#K)"/><path d="m155.263369 20.7877551c1.824459 0 3.303476-1.4806583 3.303476-3.3071429 0-1.8264845-1.479017-3.3071428-3.303476-3.3071428s-3.303476 1.4806583-3.303476 3.3071428c0 1.8264846 1.479017 3.3071429 3.303476 3.3071429z" fill-opacity=".451705" mask="url(#K)"/></g></g><g transform="translate(286.23262 117.236735)"><use fill="#000" filter="url(#h)" xlink:href="#g"/><use fill="#fff" fill-rule="evenodd" xlink:href="#g"/><g transform="translate(31.788688 84.863931)"><path d="m8.83019118 0v59.1864269h-8.83019118v-59.1864269z" fill="#e7e4ff"/><path d="m8.83019118 14.1439886v45.0424383h-8.83019118v-45.0424383z" fill="#c7c1ff"/><path d="m8.83019118 42.4319657v16.7544612h-8.83019118v-16.7544612z" fill="#8478ff"/></g><g transform="translate(52.981147 70.719943)"><path d="m8.83019118 0v73.3304155h-8.83019118v-73.3304155z" fill="#e7e4ff"/><path d="m8.83019118 21.2159829v52.1144326h-8.83019118v-52.1144326z" fill="#c7c1ff"/><path d="m8.83019118 56.5759543v16.7544612h-8.83019118v-16.7544612z" fill="#8478ff"/></g><g transform="translate(74.173606 81.327934)"><path d="m8.83019118 0v62.722424h-8.83019118v-62.722424z" fill="#e7e4ff"/><path d="m8.83019118 21.2159829v41.5064411h-8.83019118v-41.5064411z" fill="#c7c1ff"/><path d="m8.83019118 49.50396v13.218464h-8.83019118v-13.218464z" fill="#8478ff"/></g><g transform="translate(95.366065 63.647949)"><path d="m8.83019118 0v80.4024098h-8.83019118v-80.4024098z" fill="#e7e4ff"/><path d="m8.83019118 21.2159829v59.1864269h-8.83019118v-59.1864269z" fill="#c7c1ff"/><path d="m8.83019118 49.50396v30.8984498h-8.83019118v-30.8984498z" fill="#8478ff"/></g><g transform="translate(116.558524 49.50396)"><path d="m8.83019118 0v94.5463983h-8.83019118v-94.5463983z" fill="#e7e4ff"/><path d="m8.83019118 28.2879771v66.2584212h-8.83019118v-66.2584212z" fill="#c7c1ff"/><path d="m8.83019118 70.7199429v23.8264554h-8.83019118v-23.8264554z" fill="#8478ff"/></g><g transform="translate(137.750982 70.719943)"><path d="m8.83019118 0v73.3304155h-8.83019118v-73.3304155z" fill="#e7e4ff"/><path d="m8.83019118 21.2159829v52.1144326h-8.83019118v-52.1144326z" fill="#c7c1ff"/><path d="m8.83019118 53.7471566v19.5832589h-8.83019118v-19.5832589z" fill="#8478ff"/></g><g transform="translate(158.943441 77.791937)"><path d="m8.83019118 0v66.2584212h-8.83019118v-66.2584212z" fill="#e7e4ff"/><path d="m8.83019118 14.1439886v52.1144326h-8.83019118v-52.1144326z" fill="#c7c1ff"/><path d="m8.83019118 41.7247663v24.5336549h-8.83019118v-24.5336549z" fill="#8478ff"/></g><g transform="translate(180.1359 63.647949)"><path d="m8.83019118 0v80.4024098h-8.83019118v-80.4024098z" fill="#e7e4ff"/><path d="m8.83019118 28.2879771v52.1144327h-8.83019118v-52.1144327z" fill="#c7c1ff"/><path d="m8.83019118 62.9407491v17.4616607h-8.83019118v-17.4616607z" fill="#8478ff"/></g><g transform="translate(201.328359 77.791937)"><path d="m8.83019118 0v66.2584212h-8.83019118v-66.2584212z" fill="#e7e4ff"/><path d="m8.83019118 14.1439886v52.1144326h-8.83019118v-52.1144326z" fill="#c7c1ff"/><path d="m8.83019118 48.7967606v17.4616606h-8.83019118v-17.4616606z" fill="#8478ff"/></g><path d="m31.0846253 28.2879771h70.6368247c1.171726 0 2.121598.949872 2.121598 2.1215983 0 1.1717264-.949872 2.1215983-2.121598 2.1215983h-70.6368247c-1.1717263 0-2.1215982-.9498719-2.1215982-2.1215983 0-1.1717263.9498719-2.1215983 2.1215982-2.1215983z" fill="#8c81ff" opacity=".57573"/><path d="m28.963027 16.265587h39.559257v4.243197h-39.559257z" fill="#8478ff"/></g><g transform="translate(472.171123 362.910204)"><path d="m92.3120497 88.9715918-11.4429588 90.4078372 5.9993942-.079607 11.4429588-89.4817559z" fill="#bfe7ff" transform="matrix(-1 0 0 1 179.180534 0)"/><path d="m0 93.7376571c0-5.2164399 4.22876008-9.4452 9.4452-9.4452h37.7623641c5.721479 0 10.5034927-4.3533354 11.0392762-10.0496726l6.037847-64.1931118c.5357836-5.69633727 5.3177973-10.0496727 11.0392763-10.0496727h23.7001666c6.1237338 0 11.0879998 4.96426669 11.0879998 11.088 0 .2834703-.01087.5668363-.032588.8494734l-6.224387 81.0068571c-.443908 5.7772148-5.2611682 10.2385265-11.0554123 10.2385265h-83.3545427c-5.21643992 0-9.4452-4.2287599-9.4452-9.4451999z" fill="#91d6ff"/><path d="m98.770362 0c.5749108 0 1.1396021.04375457 1.690926.12811535.088744.56184804.134258 1.13757707.134258 1.7239366 0 .28426247-.010931.56841981-.03277.85184216l-6.2196076 80.71823379c-.445076 5.7762086-5.2618993 10.2361578-11.0552299 10.2361578h-83.13008718l-.15610279-.0013725c-.00116393-.0609754-.00174853-.1220927-.00174853-.1833464 0-5.2028908 4.21777629-9.4206671 9.42066701-9.4206671h37.64993719c5.7203498 0 10.5018088-4.3516688 11.0389999-10.0467394l6.0330123-63.9594209c.5371911-5.69507051 5.3186501-10.0467394 11.039-10.0467394z" fill="#bfe7ff"/></g><g transform="matrix(-1 0 0 1 556.280567 290.465078)"><path d="m10.0056596 56.8752086c-12.19816783-2.8422114-13.00152451-19.5945394-3.72757502-25.4056398-9.56413166-20.0597843 12.55300802-39.97654229 27.70304902-27.69355557 9.9320204-4.25365201 18.1856582 12.34497137 8.943843 25.23652177 3.8749265 22.1351676-4.0113303 27.8568862-18.2275301 28.0999532z" fill="#422851"/><path d="m10.1574171 52.8742814s5.9338272-1.3937873 6.1396813-11.121921c.205854-9.7281337.0613472-13.048821.0613472-13.048821l13.0704671-.2359741s.1424765 10.841849.1445068 14.7633841c.0054531 10.532706 7.3405418 9.643332 7.3405418 9.643332s-1.5248237 8.5403123-13.3682487 9.2066322c-9.2470735.5210526-13.3882955-9.2066322-13.3882955-9.2066322z" fill="url(#j)"/><path d="m13.3115714 23.8457333c-5.83071407-.225744-4.87965685 8.3145888 1.1773604 8.3029947 0 0 3.518008 12.1320488 15.7320805 12.1320488 9.9194019 0 10.5646759-14.140128 10.6546518-16.9609049.0967923-3.0076465.1090618-12.8885496.1090618-12.8885496l-27.9001393-.0129581z" fill="url(#l)"/><g stroke-linecap="round"><path d="m28.0824059 35.1582406s2.0052193 3.2430465 5.9228213 2.0892916" stroke="#f77b7b" stroke-width="1.5" transform="matrix(.95105652 -.30901699 .30901699 .95105652 -9.706264 11.371036)"/><path d="m29.7818223 39.0292407c.9192498.3860229 1.7911523.3860394 2.5541077-.0575248" stroke="#f49494" transform="matrix(.99939083 .0348995 -.0348995 .99939083 1.38495 -1.060095)"/><path d="m13.5801623 28.5824793c.366579-1.3213421.2043508-2.4753841-1.1071341-3.0025294" stroke="#f77b7b" transform="matrix(.97437006 -.22495105 .22495105 .97437006 -5.755893 3.643606)"/></g><path d="m12.3890484 22.7905357s3.1958919 4.290684 3.8432584 4.3134737.874052-5.5802512.874052-5.5802512c3.9203806-.2996539 13.8420519-2.2764712 16.2741562-6.8817329 1.7008408 4.0634181 4.9521827 5.868311 7.0884298 5.5217155l.4048918 8.6327347.997136-17.3554654h-30.2636153z" fill="#422851"/></g><g transform="matrix(-1 0 0 1 552.105966 421.693412)"><path d="m65.7021733 93.1980305s-5.2308374 10.5705935-.9427337 13.9016455c4.294552 3.331698 15.6383554 9.575082 15.6383554 9.575082l-30.0534877-1.889725 6.6804142-23.0541366z" fill="url(#m)"/><path d="m53.2513328 103.257643c1.4831036.173553-.1008256 5.169576 3.110416 5.549586 3.2047933.379364 4.7624269-4.353979 8.3992547-2.853388s16.9005153 9.258852 17.4228257 12.430546c.5287587 3.171048-4.4129677 4.104162-11.1901061 3.388014-6.7771384-.716147-8.0262616-3.128468-13.1139516-2.156831-5.0812417.970993-8.8877598-.576876-8.7201046-4.29181.1676551-3.714287 2.6085624-12.239025 4.0916659-12.066117z" fill="#222d4e"/><path d="m66.4198249 106.723489-.6601181.990447c-.3062948.459567-.1820431 1.08042.277524 1.386715.0218173.014541.0441981.028219.0670905.041l8.9656004 5.005931c.2907415.162336.6432141.1693.9401411.018576l1.3918819-.706537c-2.1858948-1.584061-3.9733569-2.774255-5.9486008-3.942913-1.5164197-.897194-3.1952818-1.822149-5.033519-2.793219z" fill="#fff" fill-opacity=".540975"/><path d="m20.4297468.03154356c9.0985179.40646194 59.7383047 11.61295444 68.9386969 13.51685914s16.9787283 12.2060683 9.9630036 24.1354037c-7.8797936 13.3913081-28.2111039 51.4223126-33.1473881 59.9954418-2.443254 4.2433398-14.7690595 1.8642034-11.8737835-5.2579217 5.3973141-13.2769189 7.903832-46.6298047 21.6644536-58.7907589 0 0-46.2768182 8.0583137-66.26647467-1.1722434-14.52796643-6.709848-11.24133676-33.40938626 10.72149217-32.42678064z" fill="url(#n)"/></g><g transform="matrix(-1 0 0 1 524.664782 346.189189)"><path d="m57.4555354 21.7037492s-.1028136-7.4071811 2.4868026-11.2782093c2.5896161-3.87102809 2.6924297-7.98290875 4.6523129-7.84831469 1.9598832.13459405.0192775 9.69206009.0192775 9.69206009s2.4868026-.9505302 4.273188-2.1528609c1.7863853-1.20233064 7.2033739-7.1296211 8.4692657-6.07927226 2.1462328 1.78965017-1.3108727 11.88484846-3.1936457 13.90311536-1.8891989 2.0189109-12.2091084 8.657811-12.2091084 8.657811z" fill="url(#o)"/><path d="m1.54220616 17.2652177c4.23241406 9.8219505 11.98206974 27.8652243 15.17689754 33.2483523 4.0037933 6.7415203 10.317242 9.7116838 17.7093114 4.7097971 7.7672419-5.255852 29.1545831-25.7552419 29.7818246-30.3987616.6213793-4.6435198-4.6134486-10.2149224-9.3500006-7.3303916s-24.4180311 19.2723792-24.4180311 19.2723792-7.943104-20.3723653-14.3327595-32.1738382c-5.5337935-10.21023015-21.00965654-2.25929495-14.56724234 12.6724628z" fill="#6a5ee3"/><path d="m30.524277 36.7771505c1.4222413 4.8265964 2.2995976 7.1001635 2.6320691 6.8207012.3324714-.2794622.2054599-3.1837394-.3810345-8.7128314z" fill="#000" fill-opacity=".302803"/></g><g transform="matrix(-1 0 0 1 565.420504 341.612781)"><path d="m0 10.0068988s10.1994164 34.1708395 10.5014785 40.6391209c.3020621 6.4689244-8.34205575 25.4808748-6.87030632 30.2862696 3.39337861 11.1045583 46.71679752 15.8861609 48.37200442.9478325.7719355-6.9667583-.8345172-13.2194979 1.0164166-21.428473 1.8445069-8.2089751 9.2586506-20.4076267 5.0534543-31.8764933-4.2051962-11.4688666-3.0784628-22.07935138-6.0862302-24.08484741s-10.038745-4.13535319-10.038745-4.13535319c-3.419086 5.03431506-14.9617148 4.96100915-20.4695282-.3549549 0 0-13.6827709 2.65573141-21.4785441 10.0068988z" fill="#7367f0"/><path d="m9.13993678 15.5412316c6.79868132 10.7952398 6.77824162 29.5907648 10.42962312 32.0523329 3.6513815 2.4615682 17.8629047.0459494 17.8629047 1.9953548s-19.639431 19.814601-16.4153412 28.3550006c1.6881932 4.4719116 1.2302591 8.4725848-1.3738024 12.0020196l-.8500054-.1853284c-7.7380956-1.7497346-13.95917868-4.8917165-15.16214342-8.8283218-1.47174943-4.8053948 8.16950452-23.8173452 7.86744232-30.2862696-.256411-5.4907211-8.36315125-30.9432939-10.80766043-38.5112472 1.99021739-3.51316336 4.8060629-2.37792633 8.44898271 3.4064591z" fill="#000" fill-opacity=".199355"/></g><g transform="matrix(-1 0 0 1 589 348.763197)"><path d="m44.3127259 37.0311967s8.5908955-7.6075861 11.2207615-8.490437 18.032439-1.943431 17.9350366.0515158c-.1103895 2.137259-8.3831037 2.0142652-9.2402452 3.0658301-.8571415 1.050921-1.0519464 8.2373659-4.292201 9.0442311-3.2337611.8068652-12.928551 2.19779-12.928551 2.19779z" fill="url(#p)"/><path d="m21.4575573 4.8202439c-9.0510351 12.78097-16.77858624 32.2495038-19.74479333 39.839726-2.96620708 7.5902223.0259606 19.0386908 13.06906483 16.7911264 13.019656-2.2416992 33.7350405-14.4220713 36.0271097-17.9752408 2.2920691-3.5531695-1.1900001-10.0185202-5.574828-9.1721644-4.062414.7830111-24.2128587 9.3557468-24.2128587 9.3557468s12.9635477-22.9906974 16.1290651-29.1539039c5.2875865-10.29293018-7.7203453-20.94657336-15.6927596-9.6852901z" fill="#6a5ee3"/><path d="m21.2264243 43.5022491c-4.5265694 2.2501233-6.5138109 2.9033447-5.9617245 1.9596644.5520863-.9436803 3.403006-3.0731856 8.5527591-6.3885159z" fill="#000" fill-opacity=".302803"/></g><g transform="translate(212 323)"><path d="m23.0613011 188.194225s-.1361349 8.71134 5.2103098 11.805515c5.3458449 3.094778 13.6284862 8.844636 13.6284862 8.844636l-31.5083405 1.068184.8983706-21.796744z" fill="#f8cfcf"/><path d="m9.29171139 197.79385-.51261684 14.132169h7.31844095l.5015983-1.820621s2.7554422-.11305 4.3475525.673242c1.6830633.83185 1.9091464 1.23512 1.9091464 1.23512l23.2137996.048933s1.1451414-4.567582-5.9310006-7.87136c-7.076142-3.304621-12.2284118-7.994534-13.2072392-8.474577-.9857571-.483418-2.9745956-.756764-4.3752715.379648-1.4006759 1.135568-2.5085699 4.122128-5.6823958 4.215775-4.0850882.120643-6.4316751-4.908421-7.58201381-2.518329z" fill="#4b4b4b"/><g stroke="#fff" stroke-linecap="round" stroke-width="2"><path d="m29.130605 197.249534-2.406665 2.32798"/><path d="m32.639785 199.014188-2.406665 2.32798"/><path d="m36.148965 200.778841-2.406665 2.32798"/></g><path d="m0 0s8.7534163 96.3795493 9.02568616 103.079373c.27226987 6.699824-2.81145626 18.262268-2.75148492 30.794583.03998089 8.354876.41540146 27.255366 1.1262617 56.70147l19.30957096.408507c5.4102142-53.211254 8.1445073-83.806537 8.2028794-91.7858495.0869585-11.9689691.8312028-98.04606117.8312028-98.04606117z" fill="#383838"/><path d="m13.9185899 106.079432.0213312.238453c.2906901 4.085684-2.246894 17.52812-7.61275231 40.327309l-.05296755-12.771238c-.05890042-12.308523 2.91462417-23.681505 2.76289736-30.431034l-.01141244-.363549c-.09175494-2.25784-1.14670521-14.7005178-2.50523663-30.2070313l.63409878 2.2710582c3.72301469 13.4519248 5.97762939 23.7642028 6.76404159 30.9360321z" fill="#fff" fill-opacity=".192499" opacity=".283552"/></g><g transform="translate(181 323)"><path d="m7.47719198 186.966267-3.72395103 22.558754 13.72789495-.068694.4342337-22.84377z" fill="#f8cfcf"/><path d="m3.63716179 199.556444-.11076156 3.353194c-1.37148092 1.521341-2.35971642 4.564436-2.96470652 9.129286 0 3.18959 21.21530279 3.094874 22.23488749 0-.7407415-4.971591-1.9099824-8.08238-3.5077229-9.332365l-.0123584-3.32218c-.0050341-1.353256-.9154434-2.53561-2.2224696-2.886336l-2.0631074-.553611c-2.0067481-2.927136-4.7416308-2.823729-7.08515748.366009l-1.90581755.413144c-1.34369485.291287-2.31739543 1.458704-2.36278608 2.832859z" fill="#4b4b4b"/><g stroke="#fff" stroke-linecap="round" stroke-width="2"><path d="m8.68547 198.748505h5.557264"/><path d="m8.68547 201.392936h5.557264"/><path d="m9.569125 204.037367h3.789954"/></g><path d="m14.4006735 1.264748s-6.13381003 66.0661008-6.05044959 78.7177065c.08336045 12.6522082 1.88769129 18.2085264-.68017291 27.2844685-1.71231216 6.050628-3.29851936 33.223593-4.75862158 81.518893l18.99116648 2.078529c8.088322-51.678714 12.5722396-81.100564 13.4517527-88.265549 1.3192697-10.7474771 17.6252978-102.24573972 17.6252978-102.24573972z" fill="#2e2e2e"/><path d="m19.5299423 46.1047812-1.1583356 4.1933237c-3.3917866 12.3753417-6.5225061 25.4623153-5.7029867 44.1568447l.0399843.8536303c.2017927 4.049629-2.3744308 27.5522411-7.72867073 70.5078351l-.50928097 3.019082c-.52519097 3.07915-.99264734 5.706448-1.40236911 7.881896l.11636765-3.8045c.68271875-20.998387 2.51899234-58.69747 4.48539986-65.64597 2.5678642-9.0759421.76353336-14.6322603.68017291-27.2844685-.05835231-8.856124 2.92970889-43.8853506 4.72779739-64.1058354l1.3226522-14.6118711 8.0165056-.18916484.0193826 2.25056485c.1412572 20.77266059-.827616 35.03220499-2.9066194 42.77863319z" fill="#fff" fill-opacity=".192499" opacity=".283552"/></g><g transform="translate(231 217)"><g transform="translate(56.695443)"><path d="m1.13909035 25.5658399s-1.58546536-8.7382676-1.0154104-10.5077683c.48692195-1.5292996 5.08892814-3.7345684 5.08892814-3.7345684s8.00452171-12.5057242 9.75625311-11.23248244c1.4251374 1.03245342-4.1685269 10.25229764-4.1685269 10.25229764s5.1008043 5.2926452 5.0295474 7.6582438c-.0712569 2.3661859-8.32517763 9.7724829-8.32517763 9.7724829z" fill="#f8cfcf"/><path d="m5.38481219 11.1978234s3.54502928-.4768784 4.10914617.6143039c.48098387.9296779-2.46430009 3.5665601-2.46430009 4.3077622 0 .741202.04209901 6.3516411.27908941 6.4026206.2369904.0509796 3.55096732-9.1552425 2.84433672-11.1026916-.5819311-1.59859965-4.76827221-.2219951-4.76827221-.2219951z" fill="#f28585"/></g><path d="m15.5457164 36.6838138c-9.28524563-8.022-23.2284973 6.4402933-7.68102477 19.8855581 5.93158417 5.1291928 24.56323827 17.9241107 29.13046737 20.7372609 7.2711109 4.4787604 13.2462964.4372152 15.7018935-6.6091361 2.0825644-5.9742758 14.5411838-37.9543836 12.9557946-42.6517515-1.0337126-3.0635008-6.5822288-6.0444356-9.3672575-3.6337629-4.0700539 3.5234751-16.5199357 34.4274005-16.5199357 34.4274005s-13.6623837-13.0345419-24.2199375-22.155569z" fill="#877bff"/><path d="m39.7656539 58.8393828c2.7185202 3.2974335 4.1759318 4.694326 4.3722346 4.1906774.1963028-.5036485-.8816165-2.8741932-3.233758-7.1116341z" fill="#000" fill-opacity=".159856"/><path d="m55.2041008 26.3933461c3.2394845-1.5000175 6.7785708.3543037 8.7291761 3.3301462" stroke="#5386bf" stroke-linecap="round"/></g><g transform="translate(206 200)"><path d="m.74126886 44.4314962s5.33828069-1.2285879 5.52347428-9.803689.05519014-11.502202.05519014-11.502202l12.65571292-.2080051s.12775 9.5568129.1300034 13.0135455c.0049058 7.5254568 5.7058465 9.5587639 5.7058465 9.5587639s-.473821 8.2285077-11.1285846 8.8158516c-8.31899413.4592946-12.94164264-9.8742649-12.94164264-9.8742649z" fill="#f8c5c5"/><g transform="translate(.526168)"><path d="m29.7245 13.881477-.2824928 8.1042001c2.3915803-2.7555614 4.0067859-6.1718908 4.4852941-10.553125z" fill="url(#q)"/><path d="m4.63170636 18.7910774c-5.24551642-.1989875-4.38991174 7.3290974 1.05919499 7.3188775 0 0 5.85615395 11.543565 15.05019435 11.5735982 4.4287023.0143478 5.8746841-3.8529843 7.2023136-6.5678719 1.3276296-2.7148876 2.3020422-6.7757968 2.3829877-9.2622394.0870778-2.6511635.0981158-11.3609269.0981158-11.3609269l-25.99700996-.0114222z" fill="#f8cfcf"/><path d="m30.4245128 14.4889488h-18.2831342c-.1920185 3.2390116-1.2893716 5.9283966-4.07593302 7.9123259.07898914 4.7449698 1.69826658 8.199086 4.50589182 10.6213857 2.4442752-6.8675142 17.39692-4.9886303 16.3094096-.5076779-2.2846401 9.4135772-23.69975396 9.6270636-22.40081961-12.0391391-.85410813-1.1418423-3.90965592-1.3553287-4.91545101-.2134864-1.71757504-4.7337073-.98456864-11.42994704 3.98297083-12.39852039-3.89943072-10.08685104 49.12253089-12.22065798 24.87706559 6.62511219z" fill="#424242"/><g stroke-linecap="round"><path d="m18.8157844 31.3779383s1.85716 2.2739188 5.3714902 1.2733628" stroke="#cc6969" transform="matrix(.96592583 -.25881905 .25881905 .96592583 -7.586266 6.660211)"/><path d="m5.16239396 23.2191675c.32419084-1.1644844.17379984-2.1834492-1.00695139-2.6538193" stroke="#de6767" transform="matrix(.97437006 -.22495105 .22495105 .97437006 -4.803372 1.625858)"/></g></g></g><g transform="translate(188 243)"><path d="m21.0887197 0 15.102695 9.79574142 6.8097639-7.90829872s14.3467493 4.43964056 17.0081067 9.6302781c3.8405473 7.4904971-1.2194765 67.5041069.9864184 71.1255837 4.7003392 7.716969-1.5491025 13.0143291-22.23909 14.9607528-20.6899875 1.9464238-39.04546008.3524951-35.71465348-9.9457026 3.33166795-10.2990594-9.52324395-77.511245 1.80983906-81.21376407 3.5411996-1.15691016 16.23692042-6.44459063 16.23692042-6.44459063z" fill="#7367f0"/><path d="m10.8965667 18.5293115c.9146089 1.6143866.4431315 7.2075288-1.41443214 16.7794265-1.58255978 8.1548214.2269148 16.5906836 5.00447504 23.3962486l.2684709.3763976c1.6156731 2.2296268 3.1051391 5.1653137 4.4683978 8.8070608 3.3436013 8.9319438-4.3684469 16.3776259 1.5415792 30.3505491l-.7148059-.0337197c-11.59577261-.5991942-19.2607485-3.5827661-17.00829138-10.5469197 2.73167101-8.4443115-5.41815026-55.148697-2.19546773-73.7375136 5.57926612 1.0940422 8.92914469 2.6299049 10.05007421 4.6084704z" fill="#000" fill-opacity=".159856"/><path d="m21.0887197 0 13.5089257 8.79513302c-1.9803366 2.29771878-3.0422943 4.97134958-3.4432643 7.91398158-5.1915986-4.0531243-10.5883812-9.71674329-12.2605487-15.80720693z" fill="#5e54c7"/><path d="m37.2590028 8.5661186c2.2843565 1.5424132 4.1065316 4.2730444 5.5899974 7.3778232 1.7783112-3.5680232 2.4594136-8.28014767 2.4594136-13.30449935l-2.2307838-.88058828z" fill="#5e54c7"/><path d="m34.5976454 8.79427083.1766869.0985215c.8095518.45141025 1.8193127.31865126 2.4846705-.32667373 5.0931967 18.6405728 8.6751567 39.1580003 9.7583102 60.0097437l-5.315382 8.813721-6.2171665-8.2486727c.8098345-21.6713645.8044486-42.8017618-.8871191-60.34663977z" fill="#cbc6ff"/></g><g transform="translate(169 250)"><g transform="matrix(.9945219 .10452846 -.10452846 .9945219 67.423799 45.740524)"><path d="m2.56360174.80580425 12.42651316.50272514c1.3210024.05344227 2.3643982 1.13990305 2.3643982 2.46198609v21.12960772c0 1.3608296-1.1031703 2.464-2.464 2.464-.0332107 0-.0664181-.0006714-.0996017-.0020139l-12.42651314-.5027252c-1.32100245-.0534422-2.36439826-1.139903-2.36439826-2.461986v-21.12960776c0-1.36082963 1.10317038-2.464 2.464-2.464.03321076 0 .06641812.00067144.09960174.00201391z" fill="#6182ec" fill-rule="nonzero"/><path d="m4.09613338.23929239 13.06052702 1.16489074 8.7411763-1.06697725c1.3508037-.16488362 2.579511.79649456 2.7443947 2.14729827.0120911.09905664.0181535.19875635.0181535.29854821v21.09706234c0 1.2453688-.9292582 2.2949525-2.1654518 2.4458464l-9.3382727 1.1398609-13.49832584-1.2039388c-1.27095339-.1133585-2.24510059-1.1782586-2.24510059-2.4542573v-21.11407618c0-1.36082963 1.10317037-2.464 2.464-2.464.07307484 0 .14611351.00325077.21889941.00974267z" fill="#96effa"/><g fill-rule="nonzero"><path d="m5.96163498 5.7483406 5.98602082.45751417c.8339272.06373743 1.4780669.75898766 1.4780669 1.59534709v2.40739954c0 .8836556-.7163444 1.6-1.6 1.6-.0406887 0-.0813627-.0015521-.1219331-.0046529l-5.98602077-.4575142c-.83392724-.0637374-1.47806692-.7589876-1.47806692-1.59534707v-2.40739954c0-.8836556.7163444-1.6 1.6-1.6.04068873 0 .08136266.0015521.12193307.00465291z" fill="#74cfdb"/><path d="m17.0521906 1.40418313h.519851c.4418278 0 .8.3581722.8.8v24.37738787c0 .4418278-.3581722.8-.8.8h-.519851c-.4418278 0-.8-.3581722-.8-.8v-24.37738787c0-.4418278.3581722-.8.8-.8z" fill="#eaefff"/><path d="m17.7588076 1.40418313h.519851c.4418278 0 .8.3581722.8.8v24.37738787c0 .4418278-.3581722.8-.8.8h-.519851c-.4418278 0-.8-.3581722-.8-.8v-24.37738787c0-.4418278.3581722-.8.8-.8z" fill="#7ad2dd"/></g></g><path d="m53.8898098 58.414051s4.5865625-.9164008 6.463755-2.3805211c1.8765534-1.4641204 7.5611809-2.4990482 7.5611809-2.4990482l-1.8183905 3.8053404s13.9322586-1.2994302 14.2620616.0661256c.3304421 1.3655558-3.699418 2.8502623-3.699418 2.8502623s-1.9871269 3.6880611-3.9109776 5.8259138c-1.820308 2.0230687-10.8636848 1.7822717-14.033884.5196473-2.7394101-1.0904484-5.7178634-.5452242-5.7178634-.5452242z" fill="#f8cfcf"/><path d="m17.0015287 5.23908666c4.981943-10.69738314 22.04055-3.48980303 17.7415033 7.96949344-4.1643996 11.1017371-14.2538758 37.0211887-14.2538758 37.0211887s31.9723484 4.0333412 34.4648294 5.9141273c3.3251194 2.5089146 1.2697887 9.6691001-1.556593 10.9439551-2.3910429 1.0780773-20.152989 1.7086056-37.531523.3473605-8.59748955-.6731235-14.95548978-4.3435059-15.84247006-13.8764216-.62130885-6.6754406 12.17853336-38.0146757 16.97812916-48.31970344z" fill="#877bff"/><path d="m20.5012322 50.2237695c-1.7715045 3.3459998-2.4040884 5.0531418-1.8977516 5.121426s2.0464301-1.5164717 4.6202799-4.7542677z" fill="#000" fill-opacity=".159856"/><path d="m52.5389078 55.5928642c1.0943295 3.0920903.5300499 6.7824525-.7462062 9.4209591" stroke="#5386bf" stroke-linecap="round" transform="matrix(.99939083 .0348995 -.0348995 .99939083 2.136511 -1.793972)"/></g><g transform="translate(86 385)"><path d="m4.42970395 56.0038809c9.02051125-.028746 16.35638375 7.2605199 16.38512975 16.2810312.0001103.0346004.0001106.0692011.0000009.1038015l-.0224601 7.088441c-9.0205112.028746-16.35638371-7.2605199-16.38512973-16.2810312-.00011026-.0346004-.00011058-.0692011-.00000094-.1038015z" fill="#02d3af" transform="matrix(.91354546 -.40673664 .40673664 .91354546 -26.462269 10.985847)"/><path d="m12.1742786 64.301643c8.2493423 5.8703479 13.5986682 12.4121917 16.0637858 19.6239093 2.4771749 7.2469911 3.492088 19.3954337 3.0311452 36.4212957-.0071376.263642.1989804.483202.4603775.490582.261397.007018.4790874-.20087.486225-.464513.4638089-17.131729-.5591604-29.3766047-3.0825023-36.7586575-2.535399-7.4173265-8.0117042-14.1144569-16.4131074-20.0930134-.2136656-.1520475-.509085-.1006085-.6598377.1148922s-.0997517.5134573.1139139.6655047z" fill="#02b596"/><path d="m49.965738 51.7697446c8.9481783-.0293909 16.2259361 7.2007148 16.255327 16.1488931.0001162.0353806.0001165.0707615.0000009.1061421l-.0250167 7.6584314c-8.9481783.0293909-16.225936-7.2007149-16.2553269-16.1488931-.0001162-.0353806-.0001166-.0707615-.000001-.1061421z" fill="#02d3af" transform="matrix(-.90630779 -.42261826 -.42261826 .90630779 137.652034 30.516721)"/><g transform="matrix(.9781476 -.20791169 .20791169 .9781476 4.883635 39.883874)"><path d="m.4960795.61786857c8.01916396 0 14.5199808 6.50081684 14.5199808 14.51998083v6.4919604c-8.01916396 0-14.5199808-6.5008168-14.5199808-14.51998076z" fill="#02d3af"/><path d="m5.08517434 6.77290275c5.03573816 5.38516115 8.08986356 10.68693385 9.17404826 15.90241545l.065109.3275185.0627272.3435418c1.0158123 5.793654 1.6037485 20.5280617 1.7560085 44.1456466.0017003.2637348.2150573.4761438.4765463.4744393.2614889-.0017252.4720893-.2169146.4703992-.4806494l-.0213657-2.9140003-.031621-3.3740385c-.2209862-20.9449073-.8357597-33.8346209-1.8509998-38.7184439-1.1234405-5.4043221-4.2646499-10.8572673-9.41195633-16.36173825-.17941756-.1918671-.47907878-.20071027-.66931205-.01975177-.19023328.1809585-.19900114.48319337-.01958358.67506047z" fill="#02b596"/></g><path d="m42.7671178 35.4217776c8.6447463-.0012956 15.6537481 7.0056057 15.6550436 15.6503519.0000003.0015573.0000003.0031145 0 .0046717l-.0011463 7.7144376c-8.6447462.0012955-15.653748-7.0056057-15.6550436-15.650352-.0000002-.0015572-.0000002-.0031144 0-.0046717z" fill="#02d3af" transform="matrix(-.9998477 -.01745241 -.01745241 .9998477 102.002548 .890163)"/><path d="m52.9504381 38.6616979c-5.5610822 8.1607716-9.6243486 16.0376474-12.1882346 23.6317095-2.5594165 7.5808238-5.1121927 19.2879752-7.6625865 35.1305466-.0419091.2603311.1333599.505637.3914742.5479059.2581143.042269.5013313-.1345053.5432403-.3948364l.3134764-1.9263124.2151312-1.2977455c2.3664419-14.1667058 4.732811-24.7530472 7.0956746-31.7516939 2.5343302-7.5065199 6.5578856-15.3064136 12.0722306-23.3985993.1481139-.217354.0934841-.5146556-.1220191-.6640416s-.5102732-.094287-.6583871.1230671z" fill="#02b596"/><g transform="translate(33.142697 13.911947)"><path d="m7.76208073 19.4044636c-3.00651779 8.5649307-5.17424844 19.155672-6.50319197 31.7722238-1.32894352 12.6165518-1.60571452 25.2331037-.830313 37.8496555l2.20063444.2001321c-.7878891-14.7253498-.70866655-27.3806825.23766763-37.9659982s2.94484089-21.1706315 5.99552012-31.7559472z" fill="#02b596"/><path d="m10.0734726 24.1767025c4.0116326.0080686 7.2571504-3.2620693 7.249082-7.3040723-.0080985-4.0420029-5.682679-14.96698212-7.2936276-14.97022895-1.61094862-.00324538-7.24187761 10.89895295-7.23380283 14.94095585.00809217 4.042003 3.26671588 7.3252469 7.27834843 7.3333454z" fill="#c2fff4" transform="matrix(.97029573 .2419219 -.2419219 .97029573 3.453344 -2.046123)"/><path d="m10.2149519 20.9735245c2.7906764.0056131 5.0482859-2.3303217 5.0425231-5.2174667-.005785-2.887145-4.2581668-9.30213909-5.37881681-9.30439783-1.12065005-.00225754-4.73290135 6.39688913-4.72713435 9.28403403.00578082 2.887145 2.2727517 5.2321971 5.06342806 5.2378305z" fill="#02d3af" transform="matrix(.97029573 .2419219 -.2419219 .97029573 3.620493 -2.061369)"/><path d="m9.58270016 20.0933927 4.05776874-12.66402398c.2412363-.75288234-.1683376-1.56045431-.9148088-1.80376248-.7464712-.24330818-1.5471664.1697833-1.7884027.92266563l-4.05776869 12.66402403c-.24123631.7528823.16833752 1.5604543.91480875 1.8037625.74647123.2433081 1.5471664-.1697833 1.7884027-.9226657z" fill="url(#r)"/></g><g transform="matrix(-.9945219 .10452846 .10452846 .9945219 24.642121 .47669)"><path d="m7.76208073 19.4044636c-3.00651779 8.5649307-5.17424844 19.155672-6.50319197 31.7722238-1.32894352 12.6165518-1.60571452 25.2331037-.830313 37.8496555l2.20063444.2001321c-.7878891-14.7253498-.70866655-27.3806825.23766763-37.9659982s2.94484089-21.1706315 5.99552012-31.7559472z" fill="#02b596"/><path d="m10.0734726 24.1767025c4.0116326.0080686 7.2571504-3.2620693 7.249082-7.3040723-.0080985-4.0420029-5.682679-14.96698212-7.2936276-14.97022895-1.61094862-.00324538-7.24187761 10.89895295-7.23380283 14.94095585.00809217 4.042003 3.26671588 7.3252469 7.27834843 7.3333454z" fill="#c2fff4" transform="matrix(.97029573 .2419219 -.2419219 .97029573 3.453344 -2.046123)"/><path d="m10.2149519 20.9735245c2.7906764.0056131 5.0482859-2.3303217 5.0425231-5.2174667-.005785-2.887145-4.2581668-9.30213909-5.37881681-9.30439783-1.12065005-.00225754-4.73290135 6.39688913-4.72713435 9.28403403.00578082 2.887145 2.2727517 5.2321971 5.06342806 5.2378305z" fill="#02d3af" transform="matrix(.97029573 .2419219 -.2419219 .97029573 3.620493 -2.061369)"/><path d="m9.58270016 20.0933927 4.05776874-12.66402398c.2412363-.75288234-.1683376-1.56045431-.9148088-1.80376248-.7464712-.24330818-1.5471664.1697833-1.7884027.92266563l-4.05776869 12.66402403c-.24123631.7528823.16833752 1.5604543.91480875 1.8037625.74647123.2433081 1.5471664-.1697833 1.7884027-.9226657z" fill="url(#r)"/></g><path d="m66.0193312 58.348269c-11.2273373 4.3935166-19.0560876 9.4707192-23.4826836 15.2506389-4.4262102 5.7794159-7.3509302 14.7425707-8.7934572 26.8913491-.0310939.261869.1541786.499579.4138178.53094.2596393.031361.4953251-.155503.526419-.417372 1.4239955-11.9927082 4.2979739-20.8003592 8.6026377-26.421069 4.304278-5.6202059 11.9950215-10.6079065 23.0757979-14.9440705.2437879-.0953998.3647388-.3720632.2701513-.617945-.0945875-.2458817-.368895-.3678714-.6126829-.2724715z" fill="#02b596"/></g><g transform="translate(95 448)"><g fill="#02b596"><path d="m26.9292167 30.5952364c-3.553894-12.6648174-12.348153-17.1442181-26.38277707-13.438202 10.50767747 3.4340737 18.44088317 7.9134744 23.79961697 13.438202z"/><path d="m49.9743878 27.6768516c-3.553894-12.6648174-11.2537251-18.07124574-23.0994933-16.219285 7.1945506 5.9139735 14.0333283 11.3204019 20.5163332 16.219285z" transform="matrix(-1 0 0 1 76.849282 0)"/><path d="m21.1930289 29.1213891c1.2630032-11.6076327 7.1417621-20.50688572 17.6362767-26.69775898-5.3329593 12.19678068-10.4634157 20.95588218-15.3913694 26.27730428z" transform="matrix(.92718385 -.37460659 .37460659 .92718385 -3.723189 12.390874)"/></g><path d="m22.1728688 27.6768516c-2.1071972-6.0894569-4.2032404-14.5947719-5.7735968-22.83953353 7.7626896 3.12201467 10.2561151 15.56007423 7.7626896 22.83953353z" fill="#02d3af"/><g transform="translate(6.35667 21.127769)"><use fill="#7569ec" xlink:href="#s"/><path d="m-3.94736842-4.02857143h12.944343c-8.02140092 30.45271133 16.12593612 51.38895043 0 81.84166183h-12.944343z" fill="#8175ff" mask="url(#L)"/></g></g><g transform="translate(632.625668 362.910204)"><path d="m47.1204989 88.9715918-11.4429588 90.4078372 5.9993942-.079607 11.4429587-89.4817559z" fill="#91d6ff"/><path d="m13.8214615 88.9715918-11.44295883 90.4078372 5.99939416-.079607 11.44295877-89.4817559z" fill="#91d6ff"/><path d="m92.3120497 88.9715918-11.4429588 90.4078372 5.9993942-.079607 11.4429588-89.4817559z" fill="#bfe7ff" transform="matrix(-1 0 0 1 179.180534 0)"/><path d="m0 93.7376571c0-5.2164399 4.22876008-9.4452 9.4452-9.4452h37.7623641c5.721479 0 10.5034927-4.3533354 11.0392762-10.0496726l6.037847-64.1931118c.5357836-5.69633727 5.3177973-10.0496727 11.0392763-10.0496727h23.7001666c6.1237338 0 11.0879998 4.96426669 11.0879998 11.088 0 .2834703-.01087.5668363-.032588.8494734l-6.224387 81.0068571c-.443908 5.7772148-5.2611682 10.2385265-11.0554123 10.2385265h-83.3545427c-5.21643992 0-9.4452-4.2287599-9.4452-9.4451999z" fill="#91d6ff"/><path d="m98.770362 0c.5749108 0 1.1396021.04375457 1.690926.12811535.088744.56184804.134258 1.13757707.134258 1.7239366 0 .28426247-.010931.56841981-.03277.85184216l-6.2196076 80.71823379c-.445076 5.7762086-5.2618993 10.2361578-11.0552299 10.2361578h-83.13008718l-.15610279-.0013725c-.00116393-.0609754-.00174853-.1220927-.00174853-.1833464 0-5.2028908 4.21777629-9.4206671 9.42066701-9.4206671h37.64993719c5.7203498 0 10.5018088-4.3516688 11.0389999-10.0467394l6.0330123-63.9594209c.5371911-5.69507051 5.3186501-10.0467394 11.039-10.0467394z" fill="#bfe7ff"/></g><g transform="matrix(-1 0 0 1 710 420)"><path d="m65.8908818 93.4149994s-5.2458614 10.5952026-.9454414 13.9340096c4.3068867 3.339454 15.6832714 9.597373 15.6832714 9.597373l-30.1398066-1.894125 6.6996016-23.1078072z" fill="url(#t)"/><path d="m53.4746784 103.00254c.9484452.452753-.6109667 4.709876 2.7260334 4.410582 3.3360857-.298341 5.4308372-4.698766 7.8910747-4.412816 2.4611518.284997 4.0229227 4.716331 8.7075222 7.80268 4.6836852 3.087303 11.6286592 6.768687 11.1633077 9.872193-.4653515 3.103507-11.3942551 3.934667-16.9309324 2.907155-5.5366773-1.026559-8.1212524-3.252201-11.7133272-3.074912s-5.8493496-.26212-6.9757014-2.56878c-1.1254375-2.306661 4.0375362-15.458571 5.132023-14.936102z" fill="#eedfe8"/><path d="m53.7411757 117.167073.3072085-.017588c4.4517259-.375439 7.505892 2.424367 11.7428214 3.213612 4.2378513.790157 15.4137206 1.063287 17.1984672-1.587623.0845621-.125536.1630686-.254133.235951-.384824.5994398.737833.8818394 1.52597.7369955 2.445205-.4653871 2.953526-11.3951279 3.74452-16.9322292 2.766663-5.5371014-.976949-8.1218744-3.095034-11.7142244-2.926313l-.6384902.023945c-3.2233354.087561-5.2795764-.40644-6.3377455-2.468586-.2575996-.502415-.1998225-1.583031.0588291-2.948473 1.5024504 1.027973 3.3989176 1.94328 5.3424166 1.883982z" fill="#ec7aa5"/><path d="m20.4884247.031617c9.1246504.4074082 59.9098838 11.6399899 69.1367012 13.5483269 9.2268174 1.9083371 17.0274941 12.2344846 9.9916191 24.191592-7.9024257 13.4224836-28.2921312 51.5420259-33.2425933 60.1351137-2.4502714 4.2532184-14.8114789 1.8685434-11.9078871-5.2701623 5.4128161-13.3078282 7.9265332-46.7383609 21.7266777-58.9276264 0 0-46.4097335 8.0770739-66.45680382-1.1749724-14.56969336-6.7254687-11.2736239-33.48716467 10.75228622-32.5022715z" fill="#413c75"/></g><g transform="matrix(-1 0 0 1 682.48 343.32)"><path d="m56.620558 19.7542764s-.1031089-5.4244253 2.4939451-9.3044654c2.597054-3.88004001 2.7001629-8.0014933 4.6656752-7.8665859 1.9655123.13490739.0193329 9.7146237.0193329 9.7146237s2.4939452-.9527432 4.2854613-2.1578729c1.7915162-1.20512976 7.2240634-7.1462192 8.493591-6.0934251 2.1523971 1.79381655-1.3146377 11.9125169-3.2028184 13.9354824-1.894625 2.023611-11.2441752 7.6779668-11.2441752 7.6779668l-27.5346006 27.7391758-4.1169693-14.725799z" fill="url(#u)"/><path d="m1.54663565 17.3054119c4.24457031 9.8448164 12.01648435 27.9300957 15.22048825 33.3257558 4.015293 6.7572149 10.346875 9.734293 17.7601758 4.7207618 1.0339832-.6992848 3.0357515-2.271924 6.005305-4.7179176-.659071-6.4220445-3.0584914-11.7897384-7.1943938-16.1054247-1.8723783 1.5490667-2.8085674 2.3236001-2.8085674 2.3236001s-7.965918-20.419793-14.3739258-32.24874027c-5.5496875-10.234-21.07000002-2.26455469-14.60908205 12.70196487z" fill="#ea5455"/><path d="m30.6119482 36.8627693c1.4263262 4.8378329 2.3062025 7.116693 2.6396289 6.8365801.3334263-.2801129.20605-3.1911513-.3821289-8.7331153z" fill="#000" fill-opacity=".159856"/></g><g transform="matrix(-1 0 0 1 711 287)"><path d="m11.7218772 35.4114385v8.7111819l-6.3970555-5.1506982s-1.96624316-8.3462071-3.56540249-14.5451813c-1.00280939-3.887286-3.44610838-17.04316909 6.38998645-16.4267409 8.05752984-14.20365389 31.52344764-5.41278857 31.71031994 11.9399601.2247593 20.870883.041338 28.9968246.041338 28.9968246-13.269498.7615225-20.7383464-1.1569602-28.1791864-13.5253462z" fill="#422851"/><path d="m5.18659098 51.997375s5.95087032-1.3970321 6.15731562-11.1478133c.2064453-9.7507813.0615234-13.0791993.0615234-13.0791993l13.1080078-.2365234s.1426727 10.8670894.1449219 14.7977539c.0054687 9.5572266 7.0338178 10.3407743 7.0338178 10.3407743s-1.2013959 7.8852023-13.0788373 8.5530734c-9.27363286.5222656-13.42674922-9.2280656-13.42674922-9.2280656z" fill="url(#v)"/><path d="m8.34980463 22.9012472c-5.84746094-.2262696-4.89367211 8.3339455 1.18074195 8.3223244 0 0 3.52811232 12.1602928 15.77726582 12.1602928 9.9478923 0 10.5950196-14.1730469 10.6852539-17.0003907.0970704-3.0146484.109375-12.9185547.109375-12.9185547l-27.98027339-.0129882z" fill="url(#w)"/><path d="m7.89727546 22.8450133c2.42330524.3995833 2.12926404 2.003971 2.78832194 1.8637132 3.3459863-.7113794 16.890053.2270463 18.6340216-7.2207433 2.1699287 4.6530298 2.7003658 5.7969206 7.4786067 7.0458558v-13.6349551l-30.22177544-2.8988839s.46911959 14.7037464 1.3208252 14.8450133z" fill="#422851"/><g stroke-linecap="round"><path d="m23.1629909 34.2395688s2.0113931 3.2510856 5.9398591 2.0952113" stroke="#f77b7b" stroke-width="1.5" transform="matrix(.95105652 -.30901699 .30901699 .95105652 -9.6637 9.808676)"/><path d="m24.8673644 38.1201267c.9218822.3869044 1.7962883.3869044 2.561443-.0577073" stroke="#f49494" transform="matrix(.99939083 .0348995 -.0348995 .99939083 1.350239 -.889265)"/><path d="m8.61933251 27.6491329c.36746426-1.3244108.20463685-2.4811907-1.11064158-3.0097341" stroke="#f77b7b" transform="matrix(.97437006 -.22495105 .22495105 .97437006 -5.672311 2.503293)"/></g></g><g transform="matrix(-1 0 0 1 726 337)"><path d="m21.5158423 1c7.4681307 4.57401367 16.1017601 6.25091256 24.1387928 1.28384364 13.1157752 25.86159846 16.3843753 56.71797476 13.2295556 90.82244466-19.1254483 7.5717017-35.1995135 6.0826069-48.8841907-2.5717923z" fill="#ffe4f4"/><g transform="translate(2 79)"><path d="m112.584626 97.840369s-.158146 12.470571 10.117594 17.133132c10.269273 4.661913 17.585799 4.381254 16.65458 7.985847-.931219 3.603946-27.661176 3.458445-30.157359.639568-2.127577-2.397888-6.754108-24.7270908-8.028067-23.019856z" fill="url(#x)"/><path d="m105.12081 115.451758c1.574718-1.133175 2.898955 5.401406 7.17648 3.583996 4.277524-1.816468.904396-7.822578 3.59632-8.930342 2.691924-1.107763 7.890168 4.847993 14.794065 6.29552 6.903897 1.446587 12.509449 2.713398 14.102585 5.400453 1.372123 2.309645 0 3.048008 0 3.048008s-6.646464 3.318869-10.776338 4.049408c-5.999506 1.061261-23.339237 1.767999-25.239029-.167058-1.166765-1.186822-4.441442-12.712456-3.654083-13.279985z" fill="#eedfe8"/><path d="m145.164844 122.072983c1.301628 2.122576-.752264 3.226792-.998403 3.349355l-.990353.421941c-1.880682.781281-6.12215 2.457648-9.257005 3.056906-5.748151 1.098815-23.547645 1.749907-25.462468-.139565-.336415-.331514-.751555-1.54458-1.154272-3.120676l1.221554.13324c5.877934.62241 18.998667 1.749337 25.47395.223881 5.747469-1.353997 8.893916-3.581499 10.328584-4.881551.348987.29928.630737.617129.838413.956469z" fill="#ec7aa5"/><path d="m5.89797632.17646042c-8.8437156 18.67697358-7.0514277 31.22210398 5.37686368 37.63539118 18.0287738 9.3032662 72.0007803-1.7 72.0007803-1.7s-.9644331 7.7647911 0 14.690049c2.5188621 18.0870705 14.4983382 48.2210542 17.0328987 52.0074624 3.505004 5.236166 14.181945 1.287286 14.38306-3.0726438.201115-4.3599294-8.048822-60.0435706-9.303381-70.662051-1.248091-10.6191272-5.188459-12.161594-16.6972691-15.0644033-2.6439884-.66688-33.9107727-8.4371818-36.7750785-8.2107007-16.4073712 1.29733333-31.7466625-.57703459-46.01787408-5.62310378z" fill="#524d87"/><path d="m20.44 34.9205711c17.8490882 2 65.1038118-2.1225581 67.0016672-.2492627 1.8119313 1.7884831 1.5096151 32.9040865 5.574195 50.9135261l-.618153-1.7006498c-3.8225815-10.6169499-7.7917742-23.5297581-9.1220889-33.0822841-.9644331-6.9252579 0-14.690049 0-14.690049l-2.1762171.4212377c-10.2594819 1.9271321-53.9592423 9.4656366-69.8245632 1.2787623-8.59637389-4.4359287-12.10428959-11.8054431-10.5237471-22.1085433 2.72161485 11.6454373 9.2845668 18.0514509 19.6889071 19.2172628z" fill="#fff" fill-opacity=".056108"/></g><path d="m21.8425791 1.02073112c12.3683457 40.51668028 19.7858021 97.95837938-18.8425791 87.96510288 20.5197512-37.7803109-7.37555616-54.7842828-1.05282787-74.3100256 2.16172685-6.6758084 19.73399307-14.1788235 19.89540697-13.65507728z" fill="#ea5455"/><path d="m7.89213813 17.8454787c13.97939717 2.1095481 2.45573867 26.5169265 7.07007057 30.1938631s12.6459214 4.0736282 13.5119538 6.3200262c1.7405557 4.5148203-6.6732935 15.9119147-25.2415476 34.1912831l-.2326149.4351829c17.8745494-32.9100497-.9881377-50.0550606-1.9691488-66.8346427 2.07108583-3.2485239 4.35830916-4.6834222 6.86128693-4.3057126z" fill="#000" fill-opacity=".159856"/><path d="m45 2c4.7198862 11.8383269 6.9886728 21.1267812 9.1055316 38.5033862 1.1768249 9.6480335 1.4707538 24.4268307.8817868 44.3363916l5.8326877 1.1469758c2.7798165-30.7593619 3.70513-48.1193249 2.7759405-52.079889-2.3396861-9.9689007-3.9247295-15.7934117-7.0139254-24.9068646-1.7015899-5.00195048-11.5820212-7-11.5820212-7z" fill="#ea5455"/></g><g transform="matrix(-1 0 0 1 746 346.9)"><path d="m44.44 37.1174069s7.6155701-7.6252969 10.2529895-8.5102031 17.0842314-1.9479554 16.9865492.0516357c-.1107065 2.1422346-9.4071814 2.0189545-10.2667847 3.0729675-.8596034 1.0533676-2.0549678 9.2565428-5.304529 10.0652864-3.2430491.8087436-9.9656841 3.2029066-9.9656841 3.2029066l-29.9242804 15.4615348 3.188124-15.4603415z" fill="url(#y)"/><path d="m21.5191872 4.83146563c-9.0770312 12.81072457-16.8267773 32.32458207-19.80150386 39.93247457-2.97472656 7.6078926.02603516 19.0830137 13.10660156 16.8302168 1.0382922-.1786741 2.4018968-.5966443 4.0908139-1.2539105 4.8096523-6.5930805 5.6532318-12.2534386 3.8582484-17.2932719-1.1278124.4760695-1.6917185.7141043-1.6917185.7141043s13.0007812-23.0442207 16.1753906-29.2217754c5.3027734-10.31689256-7.7425196-20.99533787-15.7378321-9.70783787z" fill="#ea5455"/><path d="m21.0816287 43.7610789c-4.402396 2.1503252-6.326758 2.7525491-5.773086 1.8066719.553672-.9458773 3.3164936-3.0412056 8.2884646-6.2859851z" fill="#000" fill-opacity=".159856"/></g><g transform="matrix(.97029573 -.2419219 .2419219 .97029573 586.371429 345.65373)"><path d="m2.464 0h24.187893c1.3608297 0 2.464 1.10317038 2.464 2.464v35.2263837c0 1.3608296-1.1031703 2.464-2.464 2.464h-24.187893c-1.36082962 0-2.464-1.1031704-2.464-2.464v-35.2263837c0-1.36082962 1.10317038-2.464 2.464-2.464z" fill="url(#z)"/><path d="m3.21908021.75591837h24.18789309c1.3608296 0 2.464 1.10317037 2.464 2.464v35.22638363c0 1.3608297-1.1031704 2.464-2.464 2.464h-24.18789309c-1.36082962 0-2.464-1.1031703-2.464-2.464v-35.22638363c0-1.36082963 1.10317038-2.464 2.464-2.464z" fill="#518df8"/><path d="m3.87105343 1.53621346h22.74768767c1.2247467 0 2.2176.99285334 2.2176 2.2176v31.84888164c0 1.2247467-.9928533 2.2176-2.2176 2.2176h-22.74768767c-1.22474666 0-2.2176-.9928533-2.2176-2.2176v-31.84888164c0-1.22474666.99285334-2.2176 2.2176-2.2176z" fill="#fff" fill-rule="nonzero"/></g><g transform="translate(271.374973 397.871429)"><path d="m112.829305 0h11.416813v144.879314h-11.416813z" fill="#e9e9e9"/><path d="m1 4.76228571h90.1887059v26.90852499h-75.1606845v113.2085033h-15.0280214z" fill="#d3d3d3"/><path d="m.41681283 4.76228571h8v140.11702829h-8z" fill="#dbdbdb"/></g><g transform="translate(259.804813 397.871429)"><path d="m404.624909 4.76228571h16v140.11702829h-16z" fill="#e9e9e9"/><path d="m404.624909 0h10v144.879314h-10z" fill="#dbdbdb"/><path d="m272.201583 4.76228571h139v26.55623109h-120.292459v113.5607972h-18.707541z" fill="#d3d3d3"/><path d="m23.7850267 0h248.8895403v40.2299755h-248.8895403z" fill="#dbdbdb"/><path d="m266.96616 4.76228571h11.416813v35.46768979h-11.416813z" fill="#e9e9e9"/><path d="m272.237176 4.76228571h9v140.11702829h-9z" fill="#dbdbdb"/><path d="m280.814701 0h145.125678c3.945207 0 7.143428 3.19822191 7.143428 7.14342857 0 3.94520663-3.198221 7.14342853-7.143428 7.14342853h-145.125678c-3.945206 0-7.143428-3.1982219-7.143428-7.14342853 0-3.94520666 3.198222-7.14342857 7.143428-7.14342857z" fill="#e9e9e9"/><path d="m20.9308235 2.85737143h248.8895405v14.28685717h-248.8895405z" fill="#e9e9e9"/><path d="m7.14342857 0h276.46433043c3.945206 0 7.143428 3.19822191 7.143428 7.14342857 0 3.94520663-3.198222 7.14342853-7.143428 7.14342853h-276.46433043c-3.94520666 0-7.14342857-3.1982219-7.14342857-7.14342853 0-3.94520666 3.19822191-7.14342857 7.14342857-7.14342857z" fill="#dbdbdb"/></g><g transform="translate(264.121994 426.881313)"><path d="m45.7287959 80.2993067 7.8973722 25.6432753-16.5671531.600712s1.8711094-8.7716798-.8000606-16.9943221c-2.1420976-6.6013672-3.8906171-9.8955915-3.8906171-9.8955915z" fill="#92691f" transform="matrix(-1 0 0 1 85.994506 0)"/><path d="m48.501397 99.4962375c4.2156911 3.9069315 8.3503905 6.5841435 12.4040983 8.0316355 6.0805617 2.171237 8.4084721 2.195203 8.8420221 3.011595l.0789753.155813c1.2504779 2.582363.4923166 6.01231-13.3687329 6.202212-3.3694833.046163-6.8719989-1.910942-16.1706483-3.981521l-.6711799 3.619802c-5.2040807-.068898-8.2405625-.889225-9.1094455-2.460979-1.3097766-2.351172.9161984-13.94555 2.4517985-14.1651646 1.5356002-.219615 1.8388489 4.4956476 5.9617417 4.5989956 4.129345.103348 9.5813707-5.0123885 9.5813707-5.0123885z" fill="#391b0b"/><path d="m48.501397 99.4962375c4.0982421 3.7980845 8.1199425 6.4340145 12.0651013 7.9077905-1.1165652 1.058583-2.6568534 1.36399-4.6210624.915479-2.4018275-.548438-5.4767767-3.114635-9.2248477-7.698591l.1845789.22116c.9779032-.765651 1.5962299-1.3458385 1.5962299-1.3458385z" fill="#81411e"/><path d="m2.50871085.03158016c43.86200005 3.50725699 68.81473425 5.35454481 74.85820255 5.54186344 9.0652026.28033203 15.9910726 13.2190671 8.9711862 25.1622451-7.8844679 13.4068471-29.3054447 52.0042678-33.4928585 60.9283861-3.5422037 7.5444196-19.6401968 4.4530162-16.7432033-7.0722475 3.4583264-13.793757 9.9039757-44.7401802 23.6727602-56.9152457 0 0-33.4868183 12.1406864-52.34866413.3662402-7.17412231-4.4784226-8.81326332-13.8155032-4.91742302-28.01124164z" fill="#7a3636"/><path d="m86.3380996 30.7356887-1.025504 1.7589092c-3.9906449 6.8956028-10.4332651 18.546851-16.5847777 29.8942814l.3238237-1.0395992c4.7572094-15.1387918 12.1485984-32.9722375 15.3085559-38.4137348 1.1075709-1.9072548 2.6156991-3.8510944 4.5243845-5.8315189.8091985 4.1542522.194207 8.9688317-2.5464824 13.6316623z" fill="#fff" fill-opacity=".192499"/></g><g transform="translate(272.074867 429.053061)"><path d="m102.64994 78.4265306s-4.3984892 19.5586496-10.1233467 21.6514514c-2.2042984.805811 16.8916017 3.106905 16.8916017 3.106905l4.793911-18.76416z" fill="#92691f" transform="matrix(-1 0 0 1 206.561558 0)"/><path d="m94.3850267 96.5778672-.3192946 16.5109668 6.5820039.049621.067676-3.711668s5.129864 3.076516 8.603592 4.158259c4.672565 1.458864 23.130793.694697 25.21619-1.528334 2.086364-2.232955 2.130837-5.785835-2.15114-6.222501-4.281009-.436667-11.360917-1.736743-14.409251-4.068941-3.686425-2.8115385-5.089258-7.2714943-6.160477-7.2754741-1.6397-.0059444-1.766352 5.241004-10.085703 5.3154358-3.1662841.0277879-7.3435963-3.2273645-7.3435963-3.2273645z" fill="#391b0b"/><path d="m110.111187 95.9620953s4.245028 6.6239227 6.768628 7.5829287c2.5236.949319 4.557575-.116243 4.557575-.116243s-4.351468-1.733961-6.032256-4.7601575c-3.807655-6.8544716-4.569187-3.3671768-5.293947-2.7065282z" fill="#81411e"/><path d="m-.00059812 3.17448864c-.06107505 14.01378896 4.61627078 22.78190926 14.03203752 26.30436086 14.12365 5.2830315 60.1133073 3.294778 60.1133073 3.294778s14.5946535 53.6987171 18.0916924 58.9287827c3.497039 5.2300655 20.0789399 5.7711672 19.1820979-6.2747131-.903294-12.0458803-7.374752-56.7679745-8.62646-67.374085-1.245255-10.60675639-5.1766693-13.14626133-16.6593258-15.04685405-4.0354847-.66794759-2.3227945-1.73815731-28.2666564-2.95283381-5.5723142-.26089251-14.9209076 1.82494069-23.5123962 2.76983865-5.7276591.62993198-17.1790913.74684056-34.35429672.35072575z" fill="#7a3636"/><g fill="#fff" fill-opacity=".192499"><path d="m45.9024591 3.62842169v-2.44099528l1.1500163-.1726705c4.1823793-.62088372 7.9846517-1.09328229 10.8136194-.96083167l2.9826499.14505124c22.8333939 1.15459841 21.4099412 2.16655288 25.2840065 2.80778257l.7462074.12631851c10.6628383 1.84733019 14.5214214 4.42786205 15.8270694 14.23280034l.3654 2.9508606c1.728886 13.5920021 7.498012 53.7878322 8.347109 65.1109596.067484.9064154.036003 1.7415619-.081424 2.5088048l-3.361597-16.92711c-4.953432-25.0961036-7.729146-39.9661944-8.3279907-44.6107496l-.1247737-.9649608c-1.1187764-8.2429859-4.0472135-18.47097603-13.4955824-17.80382155l-.8166915.06868761c-6.6521109.50623696-19.2681629-.76983098-37.8481562-3.82820381z"/><ellipse cx="113.245275" cy="19.859058" rx="3.775613" ry="6.613915" transform="matrix(.97437006 .22495105 -.22495105 .97437006 7.369785 -24.965658)"/></g></g><g transform="matrix(-1 0 0 1 304.165776 341.177551)"><path d="m16.2918063 60.9380157s-11.75813149 10.5503977-10.94640076 11.7001331c.81253427 1.1572974 6.85102666-1.9249791 6.85102666-1.9249791s-7.06496986 13.1310859-5.42936445 14.0316769c1.63480541.9005907 9.64480405-1.4850989 11.99868965-4.2363962 2.3546856-2.751297 5.5784594-15.1053462 5.5784594-15.1053462z" fill="url(#B)" transform="matrix(.87574719 .48276999 -.48276999 .87574719 37.054354 1.905836)"/><path d="m21.7634434 17.5386176c5.155229 6.3623409 22.7330289 25.7966009 22.7330289 25.7966009s-17.5777999 12.5197495-22.0039415 15.1680475c-7.2586141 4.340625.1225899 15.8556462 5.4455736 14.576712 7.2134494-1.7375419 25.4212648-14.298677 33.9767513-19.3821173 8.5554866-5.0834403 5.2821329-13.2909248-1.0477952-20.7800186-4.8623621-5.7527806-15.4330298-17.5382908-22.8701299-27.88435844-7.3997181-10.29406377-26.2372555.15895423-16.2334872 12.50513394z" fill="#ea5455"/><path d="m44.4964723 43.3352185c3.29914 3.1788505 4.7772351 4.8913192 4.4342853 5.1374061-.3429497.2460869-2.5021386-.9776563-6.4775667-3.6712297z" fill="#000" fill-opacity=".159856"/></g><g transform="matrix(-1 0 0 1 316.677307 290.153061)"><path d="m3.5827892 21.8539741c-4.32290796.473464-4.01643314 8.0818304 1.24590079 8.4790751 1.07556531 7.3344936 4.91133961 10.828955 9.58782271 11.2333049l-.2593745 11.0937849 20.6854373-.0122726s-5.8249572-7.8370243-5.5346127-18.5658608c.2903446-10.7294824-.1948534-20.808517-.1948534-20.808517l-26.79235124.4812151z" fill="url(#C)"/><path d="m12.0446399 1.16026676c-15.93647279 4.02226277-9.36191885 21.01473274-9.36191885 21.01473274 4.8152033-.6569071 9.44891825 5.1854967 11.20647065 10.9161551 5.081122 5.2224068 11.6617125 5.2139174 16.0381729 2.1714198 4.0138986-12.4150776 5.3643136-20.6896709 4.051245-24.8237797-1.9696029-6.20116313-7.4080477-12.9447768-21.9339697-9.27852794z" fill="#2c272e"/></g><g transform="matrix(-1 0 0 1 328.379822 336.773559)"><path d="m61.4223458 8.5139871c1.4307171 2.435986 2.4558292 12.2479567 0 51.1202846-1.2717092 20.1293716 4.1378916 39.9682132 2.7398761 48.7015043-.9320103 5.822193-4.6006291 9.081016-11.0058565 9.776469l-5.6030932-18.2288561-2.6358505 18.2288561c-26.4891188-2.476818-40.89435215-6.730425-43.21569992-12.760822-3.48935423-9.0646434.89230738-30.3752546 1.93465193-50.4416411 1.04650721-20.1465226.26133554-40.8253537 2.18692363-43.9598088 3.84287161-6.25579663 13.73514136-9.17796739 19.87431586-10.11326873 7.7909125-1.18785854 17.8486326-1.23307338 23.827795.66272042 5.9791624 1.89514788 10.4662206 4.57857635 11.8969376 7.01456231z" fill="#ea5455"/><path d="m20.9931678 22.357053c-3.1356165 23.1344426-7.3285993 39.3674178-12.5789483 48.6989258-2.17095826 3.8584701-4.37629925 5.449213-6.61602298 4.7722289l.53211238-5.126783c.53032386-5.1879558 1.03288129-10.5325315 1.30606481-15.7916428.19051112-3.6675682.32031988-7.3527773.41683088-10.9465704z" fill="#000" fill-opacity=".159856"/><path d="m49.5254082 1.49942479c.3625359.11490894.7130249.23420847 1.0520952.35778272-8.5844098 3.74345703-22.7592564 3.24286353-30.4652131.19378477 2.0072911-.56658818 3.9323486-.96245779 5.5853229-1.21428791 7.7909125-1.18785854 17.8486326-1.23307338 23.827795.66272042z" fill="#e5aa41"/></g><g transform="matrix(-1 0 0 1 403.596257 343.389796)"><path d="m19.4417882 35.7781658s-12.78443228-8.5347882-15.04397212-10.2490095c-2.25217977-1.7069576-5.07844459-14.6507811-3.32674921-16.46669345.84640743-.87890159 7.24230359 5.03370915 8.3831136 5.82544695 1.13344993.7844741 6.93318083 4.2782895 6.93318083 4.2782895s-1.6412944-9.90761791-.228162-10.70661936c1.0451292-.58109196 3.1353876 1.96844906 3.41507 4.66326296.2796825 2.694814 3.186908 6.2104204 3.5622713 10.2998551.1692815 1.7868578 1.9283369 5.200773 1.9283369 5.200773z" fill="url(#D)"/><path d="m95.5821368 19.4108665c-4.8989884 10.1797991-13.2194341 25.0619419-17.7893654 33.7884068-5.4075625 10.3259548-11.8514338 14.7010948-24.8488861 7.0387516-10.8846951-6.4168168-26.5808144-16.737797-34.6911059-22.3472059-7.5466519-5.2195726 1.3742976-18.1053153 8.5038697-13.7517717 9.4587807 5.7681222 33.6458655 17.1991729 33.6458655 17.1991729s12.4470254-22.7366072 17.6151586-33.6527623c6.5746914-13.87449777 27.0449318-7.97442542 17.5644636 11.7254086z" fill="#ea5455"/><path d="m60.4025146 41.3382202c-1.5173299 5.3441069-2.4550353 7.9105876-2.8131162 7.6994419-.358081-.2111456-.2323637-3.1606469.3771516-8.8485038z" fill="#000" fill-opacity=".159856"/></g><g transform="matrix(-1 0 0 1 344.751337 364.8)"><path d="m57.4273438 98.4205714-11.4429588 80.9588576 5.9993942-.079607 11.4429588-80.0327763z" fill="#bfe7ff" transform="matrix(-1 0 0 1 109.411122 0)"/><path d="m13.8214615 98.4205714-11.44295883 80.9588576 5.99939416-.079607 11.44295877-80.0327763z" fill="#91d6ff"/><path d="m92.3120497 98.4205714-11.4429588 80.9588576 5.9993942-.079607 11.4429588-80.0327763z" fill="#bfe7ff" transform="matrix(-1 0 0 1 179.180534 0)"/><path d="m0 93.7376571c0-5.2164399 4.22876008-9.4452 9.4452-9.4452h37.7623641c5.721479 0 10.5034927-4.3533354 11.0392762-10.0496726l6.037847-64.1931118c.5357836-5.69633727 5.3177973-10.0496727 11.0392763-10.0496727h23.7001666c6.1237338 0 11.0879998 4.96426669 11.0879998 11.088 0 .2834703-.01087.5668363-.032588.8494734l-6.224387 81.0068571c-.443908 5.7772148-5.2611682 10.2385265-11.0554123 10.2385265h-83.3545427c-5.21643992 0-9.4452-4.2287599-9.4452-9.4451999z" fill="#bfe7ff"/><path d="m69.5030079 1.56342235-6.3068983 81.85870555c-.445076 5.7762086-5.2618994 10.2361578-11.0552299 10.2361578h-51.98302838l-.15612182-.0023721c-.00115127-.0606437-.0017295-.1214278-.0017295-.1823468 0-5.2028908 4.21777629-9.4206671 9.42066701-9.4206671h37.64993719c5.7203498 0 10.5018088-4.3516688 11.0389999-10.0467394l6.0330123-63.9594209c.3430304-3.63666098 2.4167145-6.72553299 5.3603915-8.48331705z" fill="#91d6ff"/></g><g transform="matrix(-1 0 0 1 565.612299 356.295918)"><path d="m7.37748963 39.5003026h84.13636617c.4122784 0 .746496.3342177.746496.746496v1.0968206c0 .4122784-.3342176.746496-.746496.746496h-84.13636617c-.41227836 0-.746496-.3342176-.746496-.746496v-1.0968206c0-.4122783.33421764-.746496.746496-.746496z" fill="url(#z)"/><path d="m7.36960659 39.5003026h32.32686951c.4122784 0 .746496.3342177.746496.746496v1.0968206c0 .4122784-.3342176.746496-.746496.746496h-32.32686951c-.41227836 0-.746496-.3342176-.746496-.746496v-1.0968206c0-.4122783.33421764-.746496.746496-.746496z" fill="#518df8"/><path d="m4.09042689 0h55.81127271c1.8114298 0 3.3407401 1.34595173 3.570838 3.14270786l4.1509258 32.41316064c.2525555 1.9721194-1.1414264 3.7755746-3.1135458 4.0281301-.1516568.0194216-.3043968.029162-.4572921.029162h-55.8112728c-1.81142973 0-3.34074005-1.3459517-3.57083799-3.1427078l-4.1509258-32.41316066c-.25255548-1.97211936 1.14142648-3.77557465 3.11354584-4.02813012.15165678-.01942162.30439682-.02916202.45729214-.02916202z" fill="#518df8"/><path d="m5.78935737 0h54.63154633c1.8114297 0 3.34074 1.34595173 3.570838 3.14270786l4.1509258 32.41316064c.2525554 1.9721194-1.1414265 3.7755746-3.1135459 4.0281301-.1516568.0194216-.3043968.029162-.4572921.029162h-54.63154632c-1.81142973 0-3.34074005-1.3459517-3.57083799-3.1427078l-4.1509258-32.41316066c-.25255548-1.97211936 1.14142648-3.77557465 3.11354584-4.02813012.15165678-.01942162.30439682-.02916202.45729214-.02916202z" fill="url(#z)"/><path d="m7.38112511 1.87381867h51.75852819c1.630455 0 3.0069213 1.21159968 3.2138103 2.82887531l3.7401433 29.23714282c.2270579 1.7749384-1.0277472 3.3978771-2.8026856 3.624935-.1363472.0174421-.2736663.0261897-.4111247.0261897h-51.7585281c-1.63045503 0-3.00692132-1.2115997-3.2138103-2.8288753l-3.74014336-29.23714285c-.2270579-1.7749384 1.02774718-3.39787706 2.80268559-3.62493496.13634726-.01744214.27366631-.02618972.41112468-.02618972z" fill="#fff" fill-rule="nonzero"/></g><g transform="matrix(-1 0 0 1 444 350)"><path d="m18.766658 58.8685676s-10.3792696 9.344503-9.65738405 10.3687829c.72261844 1.0310037 6.05963285-1.6915633 6.05963285-1.6915633s-6.21713827 11.6517666-4.7665979 12.4569335c1.4498322.8051644 8.5341744-1.2926135 10.6102034-3.7314692 2.0767372-2.4388532 4.8955335-13.4108654 4.8955335-13.4108654l13.4310592-20.7652074-11.0142575-4.8951375z" fill="url(#F)" transform="matrix(.87574719 .48276999 -.48276999 .87574719 31.340928 -4.393765)"/><path d="m19.2325829 15.6171326c4.5557299 5.6652995 20.0894158 22.9703929 20.0894158 22.9703929s-1.0221194.7670135-3.0663584 2.3010404l9.9725041 12.0965094c4.2453165-2.6011695 7.074204-4.3245733 8.4866623-5.1702115 7.5605731-4.5265119 4.6678761-11.8348059-.9259476-18.5034143-4.2969204-5.1225209-13.6383302-15.6168416-20.2105735-24.82942112-6.5392083-9.16627312-23.1861375.14153962-14.3457027 11.13510422z" fill="#ffb66f"/><path d="m39.3219987 38.5875255c2.9154846 2.830584 4.2216928 4.3554391 3.9186245 4.5745654s-2.2111662-.8705469-5.7242936-3.2690194z" fill="#000" fill-opacity=".159856"/><path d="m36.8733934 39.6230062 12.9978231 12.8679945-6.4989116 4.2530575-8.9283311-15.285273z" fill="#ffedc2"/></g><g transform="translate(404 428)"><path d="m46.5668594 77.2333195 7.0306867 22.6487766-11.8178451.5305629s1.6657673-7.7473645-.7122591-15.009806c-1.9070163-5.8304911-3.4636471-8.7400316-3.4636471-8.7400316z" fill="url(#G)" transform="matrix(-1 0 0 1 91.20134 0)"/><path d="m50.1838 93.8380441s-.6486344 5.7355167 1.233345 7.6937979c1.8811094 1.957443 12.0656193 9.412892 12.8637591 10.826941.7981403 1.414885-.6273385 2.974267-.6273385 2.974267s-10.9962384.945054-15.9433463-2.046071c-3.5718003-2.160675-6.1098525-3.898926-6.1098525-3.898926l-1.34106 2.843175-5.8795069-1.268534s-1.5065287-4.765308-.5588158-7.016696c.9477126-2.252224 5.7602401-12.7443092 5.7602401-12.7443092s3.5341919.8787851 10.6025758 2.6363553z" fill="#391b0b" transform="matrix(.99756405 -.06975647 .06975647 .99756405 -7.08911 3.670897)"/><path d="m10.2477863.03068162c8.888859.86725985 52.6730166 11.29562618 61.688141 13.14750598 9.0151244 1.8518797 16.6368283 11.8725329 9.762379 23.4758948-5.1474123 8.6835904-14.9969891 26.518246-29.5487303 53.5039668-.1346014.0325862-.2664348.0907907-.4029269.0907907-4.4396057 0-8.3979465-.6078822-12.2088116-3.2642068 3.8603729-28.2962544 10.2850676-46.3872655 19.2740839-54.2730333 0 0-34.8176325 12.5197671-52.23033173-1.1402114-10.27164471-8.0579377-6.12968667-32.49646233 3.66619663-31.54070678z" fill="#33373e"/><path d="m81.6983063 36.6540824c-1.3957012 2.3545224-3.190071 5.4921631-5.2219436 9.1021214l2.333364-29.3137549c5.2453092 4.2426535 7.8646718 11.8125028 2.8885796 20.2116335z" fill="#fff" fill-opacity=".192499"/></g><g transform="translate(416 425)"><path d="m99.9147637 78.444262s-3.876694 17.2695035-8.9224078 19.1173631c-1.942801.7114997 11.9858301 2.7432729 11.9858301 2.7432729l4.225207-16.5680008z" fill="url(#H)" transform="matrix(-1 0 0 1 198.009888 0)"/><path d="m94.8069026 92.988282.251029 21.930526 6.4552524.001865.058332-5.403965s2.033781 5.037293 5.145624 5.327089c3.12116.289792 18.939487.407626 18.939487.407626s1.157617-5.059735-5.764095-7.353742c-5.757225-1.906903-14.029239-14.9143813-14.029239-14.9143813z" fill="#391b0b" transform="matrix(.98768834 -.15643447 .15643447 .98768834 -14.92996 18.531593)"/><path d="m5.70513092.17118857c-8.55455373 18.11898853-6.82086805 30.28932603 5.20105708 36.51101263 17.4392891 9.025326 63.842761-2.6193359 63.842761-2.6193359s-.9328992 7.5328136 0 14.2511755c2.4365031 17.5467091 14.4186448 39.1347898 15.5086727 42.692715.548873 1.7915588 13.9127793-.8557425 13.9127793-2.9808471s-6.8183477-50.4887396-8.0318861-60.789987c-1.2072831-10.3018748-5.0188135-11.7982595-16.151321-14.6143458-2.5575382-.6469566-35.7039057-8.18511623-38.4745578-7.96540138-15.8709013 1.25857477-27.8067364-.23642055-35.80750518-4.48498595z" fill="#42474f"/><path d="m41.5126361 4.65617452c2.7706521-.21971485 35.9170196 7.31844478 38.4745578 7.96540138l1.8275486.4690907c9.4952299 2.4841296 13.0149163 4.3375707 14.2373667 13.4563805l.3289149 2.6176807c1.0022237 7.639676 3.7104809 25.6040344 5.8529099 40.5598937-2.4178709-5.4962205-4.4186104-11.5957846-6.0027211-18.2979829-3.6916958-15.6191596-2.9019094-28.4442181-3.8933533-30.6902655-.9914439-2.2460473-49.4792573-9.4165943-57.8107663-10.89614775-3.6264982-.64401275-5.6722401-2.24149511-6.1372256-4.79244707 4.0264793.11358133 8.4004299-.01711866 13.1227684-.39160376z" fill="#fff" fill-opacity=".192499"/></g><g transform="matrix(-1 0 0 1 454 299)"><path d="m2.79727822 21.8774099c-3.85203405.421937-3.57894209 7.2022856 1.11019071 7.5562982.95840907 6.5362814 4.37637062 9.6504411 8.54346657 10.0107856l-.2311221 9.8864494 18.4322704-.0109369s-5.1904721-6.9841218-4.9317534-16.5453401c.2587187-9.561794-.173629-18.5439284-.173629-18.5439284l-23.87398715.4288446z" fill="url(#I)"/><path d="m31.0676971 22.3854082c-4.4864542-1.7763708-7.8006256 5.8717445-11.2334185 11.1874077-3.4327929 5.3156631-12.32659811 4.4124892-13.55237593 0-4.64070012-9.6643808-8.63994016-22.8034797-3.22443238-23.88187941.7622846-13.96767977 37.27657671-10.67008162 28.01022681 12.69447171z" fill="#9e5229" transform="matrix(-1 0 0 1 33.026718 0)"/><path d="m27.287924 4.40477125c1.5632459 1.3303588 2.5617957 3.09601424 2.6813229 5.28616524 5.4155078 1.07839971 1.4162678 14.21749861-3.2244323 23.88187941-1.1397252 4.1027216-8.90864 5.1715578-12.7532049 1.0285089-3.5073431-10.5151442-2.0101089-22.2733393 5.0785088-30.1951717z" fill="#000" fill-opacity=".199355"/><ellipse cx="22.132397" cy="4.406153" fill="#fb9934" rx="4.400797" ry="4.406153"/></g><g transform="matrix(-1 0 0 1 467 345)"><path d="m47.3795038 5.00092388c4.080604 5.98592972 10.8814639 26.30195702 11.2671858 30.87241102.4345842 5.2720337-5.2253577 13.6702764-5.3184829 21.3023015-.082778 7.6330648 4.2216751 26.7392272 2.9282697 28.8860917-1.2830581 2.1468644-43.8961203 14.5590129-46.29668068 13.5390198-2.40056038-1.0199934-10.68778756-12.0197917-8.79424209-16.4902601 1.90389271-4.4704683 9.76999847-14.6110511 8.86978837-20.7023241-.88986289-6.0902334-6.05753942-28.5725306-8.62365568-36.224309-2.55576902-7.6517784-1.70355128-15.6853117 3.06652774-18.97786362 2.36025964-1.62917163 8.65845734-6.25766004 19.87442454-6.23707844 11.2159672.02185549 22.7104182 3.567808 23.0268652 4.03201124z" fill="#ff9f43" transform="matrix(-1 0 0 1 58.670488 0)"/><path d="m2.1427409 30.9662887 19.554929-14.0507833-.0058748 2.5676953c-.0723417 15.8467418-1.0696947 24.2413313-17.66725779 50.2116792l.38392917-2.6466777c.54099209-3.8421312.96019643-7.4399756.93381584-9.8725658-.05875268-4.815044-2.33329154-9.9350691-3.89521958-14.382609z" fill="#000" fill-opacity=".159856"/><path d="m23.9551392.53176313c-.3146812 1.71607187.2167564 2.57410781 1.5943128 2.57410781 2.0663346 0 15.9262798.45579634 17.8032313-.35812973 1.251301-.54261739 1.6892206-1.28127675 1.313759-2.21597808z" fill="#fff6e1"/></g><g transform="matrix(-1 0 0 1 529 349)"><path d="m16.8755276 31.8605027s-11.28629022-7.5323549-13.28104617-9.0452364c-1.98825837-1.5064709-4.4833277-12.93000832-2.93690452-14.53263702.74722128-.77567229 6.39361516 4.44248672 7.4007395 5.14123292 1.00062676.6923356 6.12071699 3.7757932 6.12071699 3.7757932s-1.4489596-8.74394222-.2014249-9.44909885c.9226558-.51284119 2.7679675 1.73724951 3.0148754 4.11555055.2469079 2.378301 2.8134506 5.4809901 3.144827 9.09011.1494443 1.5769866.7334751 3.6202574.7334751 3.6202574l31.3154577 13.4485903-3.2762759 14.6228434z" fill="url(#J)"/><path d="m84.0933791 17.4155857c-4.3249011 8.9841549-11.6703164 22.118351-15.7047208 29.8198696-4.773878 9.1131443-10.4626251 12.9744127-21.9369726 6.2120318-.8952492-.5276131-2.311121-1.3794073-4.2476154-2.5553825l7.1035988-15.772308c2.4857382 1.0984783 3.7286074 1.6477175 3.7286074 1.6477175s10.9884223-20.0661329 15.5509285-29.70015693c5.804237-12.24490155 23.8756746-7.03780819 15.5061741 10.34822853z" fill="#ffb66f"/><path d="m53.0362765 36.7675141c-1.3395218 4.7164276-2.1673423 6.9814683-2.4834616 6.7951223-.3161193-.1863461-.2051342-2.7894207.3329552-7.8092238z" fill="#000" fill-opacity=".159856"/><path d="m49.4084444 34.4233267-4.9478109 19.6347132-7.3616869-3.9805591 9.6599773-17.1831458z" fill="#ffedc2"/></g><path d="m125.339469 4.14954723s-4.148462-5.30960841-8.938938-3.91660244c-4.790475 1.39300598-9.123724 9.93192471-7.06621 17.95834191 2.047123 8.0274569.358916 12.6059754-2.124649 18.0158285-6.671334 14.5527542 16.426563 23.7928848 16.426563 23.7928848-1.201482-7.1889715-.633737-12.953944 1.703234-17.2949176 3.610208-6.7060359 5.660531-15.3056588 5.660531-20.568134 0-9.1512926-5.660531-17.98740117-5.660531-17.98740117z" fill="#9e5229" transform="translate(307 296)"/><g transform="matrix(-1 0 0 1 478.778075 364.8)"><path d="m47.1204989 98.4205714-11.4429588 80.9588576 5.9993942-.079607 11.4429587-80.0327763z" fill="#91d6ff"/><path d="m13.8214615 98.4205714-11.44295883 80.9588576 5.99939416-.079607 11.44295877-80.0327763z" fill="#91d6ff"/><path d="m92.3120497 98.4205714-11.4429588 80.9588576 5.9993942-.079607 11.4429588-80.0327763z" fill="#bfe7ff" transform="matrix(-1 0 0 1 179.180534 0)"/><path d="m0 93.7376571c0-5.2164399 4.22876008-9.4452 9.4452-9.4452h37.7623641c5.721479 0 10.5034927-4.3533354 11.0392762-10.0496726l6.037847-64.1931118c.5357836-5.69633727 5.3177973-10.0496727 11.0392763-10.0496727h23.7001666c6.1237338 0 11.0879998 4.96426669 11.0879998 11.088 0 .2834703-.01087.5668363-.032588.8494734l-6.224387 81.0068571c-.443908 5.7772148-5.2611682 10.2385265-11.0554123 10.2385265h-83.3545427c-5.21643992 0-9.4452-4.2287599-9.4452-9.4451999z" fill="#bfe7ff"/><path d="m69.5030079 1.56342235-6.3068983 81.85870555c-.445076 5.7762086-5.2618994 10.2361578-11.0552299 10.2361578h-51.98302838l-.15612182-.0023721c-.00115127-.0606437-.0017295-.1214278-.0017295-.1823468 0-5.2028908 4.21777629-9.4206671 9.42066701-9.4206671h37.64993719c5.7203498 0 10.5018088-4.3516688 11.0389999-10.0467394l6.0330123-63.9594209c.3430304-3.63666098 2.4167145-6.72553299 5.3603915-8.48331705z" fill="#91d6ff"/></g></g></svg>