<svg viewBox="0 0 468.89 500" xmlns="http://www.w3.org/2000/svg" xmlns:xlink="http://www.w3.org/1999/xlink"><linearGradient id="a" gradientTransform="matrix(.87 .5 0 1.15 509.95 -2294.87)" gradientUnits="userSpaceOnUse" x1="-216.9" x2="-216.9" y1="2341.61" y2="2174.34"><stop offset=".21" stop-color="#fff" stop-opacity="0"/><stop offset="1" stop-color="#fff" stop-opacity=".2"/></linearGradient><linearGradient id="b" gradientTransform="matrix(.87 .5 0 1.15 94.31 -401.17)" gradientUnits="userSpaceOnUse" x1="285.59" x2="285.59" y1="433.22" y2="478.42"><stop offset="0" stop-color="#e9eaf2" stop-opacity=".8"/><stop offset="1" stop-color="#e9eaf2" stop-opacity="0"/></linearGradient><path d="m450 384.63-250.07-144.4c-3.51-2-6.35-7.46-6.35-12.13v-193.47c0-4.68 2.84-6.83 6.35-4.8l250.07 144.4c3.51 2 6.35 7.46 6.35 12.13v193.47c.04 4.68-2.8 6.83-6.35 4.8z" fill="#b1b4c4"/><path d="m451.33 386.63 2.77-1.6-1.2-8.21z" fill="#b1b4c4"/><path d="m193.13 31 2.73-1.58 3.92 2.24s-4.18.63-4.28.61-2.37-1.27-2.37-1.27z" fill="#b1b4c4"/><path d="m447.75 386-250.11-144.44c-3.51-2-6.36-7.46-6.36-12.14v-193.42c0-4.68 2.85-6.83 6.36-4.8l250.11 144.4c3.51 2 6.35 7.46 6.35 12.14v193.42c0 4.67-2.84 6.84-6.35 4.84z" fill="#e4e7f2"/><path d="m447.31 386.21-250.11-144.4c-3.51-2-6.36-7.46-6.36-12.14v-193.47c0-4.67 2.85-6.82 6.36-4.8l250.11 144.4c3.5 2 6.35 7.46 6.35 12.14v193.47c0 4.68-2.85 6.83-6.35 4.8z" fill="#d6d8e5"/><path d="m450.22 374.44-256.22-147.91.15-189.53c0-1.94 1.36-2.73 3-1.76l250.11 144.4a6.72 6.72 0 0 1 3 5.27z" fill="#fff"/><path d="m450.14 374.45-256.14-147.91.08-189.54c0-1.94 1.36-2.73 3-1.76l250.11 144.4a6.73 6.73 0 0 1 3 5.27z" fill="url(#a)" opacity=".5"/><path d="m258.67 498.63-250.11-144.4c-3.51-2-3.07-5.56 1-7.9l167.55-96.74c4-2.33 10.18-2.59 13.68-.56l250.12 144.4c3.5 2 3.06 5.56-1 7.9l-167.56 96.74c-4.05 2.33-10.18 2.59-13.68.56z" fill="#d6d8e5" opacity=".4"/><path d="m264.13 495.35-250.13-144.35c-3.51-2-3.07-5.56 1-7.9l167.55-96.73c4-2.34 10.18-2.6 13.69-.57l250.11 144.4c3.51 2 3.07 5.56-1 7.9l-167.53 96.69c-4.05 2.33-10.18 2.59-13.69.56z" fill="#b1b4c4"/><path d="m11.65 347.69v-4.72l5.3 2.22z" fill="#b1b4c4"/><path d="m448.72 393.68v-4.61l-3.92 1.35 2.6 3.82z" fill="#b1b4c4"/><path d="m264.13 491.38-250.13-144.38c-3.51-2-3.07-5.56 1-7.9l167.55-96.74c4-2.34 10.18-2.59 13.69-.56l250.11 144.4c3.51 2 3.07 5.56-1 7.9l-167.53 96.71c-4.05 2.34-10.18 2.6-13.69.57z" fill="#e4e7f2"/><path d="m264.13 490.77-250.13-144.4c-3.51-2-3.07-5.57 1-7.9l167.55-96.74c4-2.34 10.18-2.59 13.69-.57l250.11 144.41c3.51 2 3.07 5.56-1 7.9l-167.53 96.73c-4.05 2.34-10.18 2.59-13.69.57z" fill="#d6d8e5"/><g fill="#2b303f"><path d="m177.91 274.36-11.64-6.72c-1-.55-.83-1.51.26-2.14l11.12-6.42a4.11 4.11 0 0 1 3.7-.15l11.65 6.72c.95.55.83 1.51-.27 2.14l-11.11 6.42a4.13 4.13 0 0 1 -3.71.15z"/><path d="m194.4 283.88-11.65-6.73c-.95-.54-.83-1.5.27-2.14l11.11-6.41a4.13 4.13 0 0 1 3.71-.15l11.64 6.72c1 .55.83 1.51-.26 2.14l-11.12 6.41a4.08 4.08 0 0 1 -3.7.16z"/><path d="m211.07 293.51-11.64-6.73c-1-.55-.83-1.51.26-2.14l11.12-6.41a4.08 4.08 0 0 1 3.7-.16l11.65 6.73c1 .54.83 1.5-.27 2.14l-11.11 6.41a4.17 4.17 0 0 1 -3.71.16z"/><path d="m227.37 302.91-11.65-6.72c-.95-.55-.83-1.51.27-2.14l11.11-6.42a4.13 4.13 0 0 1 3.71-.15l11.65 6.72c.95.55.83 1.51-.27 2.14l-11.11 6.42a4.13 4.13 0 0 1 -3.71.15z"/><path d="m243.86 312.43-11.65-6.72c-1-.55-.83-1.51.27-2.14l11.11-6.42a4.13 4.13 0 0 1 3.71-.15l11.64 6.72c.95.55.83 1.51-.27 2.14l-11.11 6.42a4.11 4.11 0 0 1 -3.7.15z"/><path d="m260.34 322-11.64-6.72c-.95-.55-.84-1.51.26-2.14l11.11-6.42a4.13 4.13 0 0 1 3.71-.15l11.65 6.72c.95.55.83 1.51-.27 2.14l-11.11 6.42a4.13 4.13 0 0 1 -3.71.15z"/><path d="m276.83 331.47-11.65-6.72c-.95-.55-.83-1.51.27-2.14l11.11-6.42a4.13 4.13 0 0 1 3.71-.15l11.64 6.72c.95.55.83 1.51-.26 2.14l-11.12 6.41a4.08 4.08 0 0 1 -3.7.16z"/><path d="m293.31 341-11.64-6.73c-.95-.55-.83-1.5.26-2.14l11.12-6.41a4.08 4.08 0 0 1 3.7-.16l11.65 6.73c1 .55.83 1.5-.27 2.14l-11.13 6.4a4.1 4.1 0 0 1 -3.69.17z"/><path d="m309.8 350.5-11.65-6.72c-.95-.55-.83-1.51.27-2.14l11.11-6.41a4.1 4.1 0 0 1 3.71-.16l11.64 6.73c.95.54.83 1.5-.26 2.14l-11.11 6.41a4.13 4.13 0 0 1 -3.71.15z"/><path d="m326.28 360-11.64-6.72c-.95-.55-.83-1.51.26-2.14l11.1-6.4a4.11 4.11 0 0 1 3.7-.15l11.65 6.72c.95.55.83 1.51-.27 2.14l-11.08 6.42a4.13 4.13 0 0 1 -3.72.13z"/><path d="m342.77 369.54-11.65-6.72c-.95-.55-.83-1.51.27-2.14l11.11-6.42a4.13 4.13 0 0 1 3.71-.15l11.65 6.72c.95.55.83 1.51-.27 2.14l-11.11 6.42a4.13 4.13 0 0 1 -3.71.15z"/><path d="m359.26 379.06-11.65-6.72c-.95-.55-.83-1.51.27-2.14l11.12-6.42a4.13 4.13 0 0 1 3.71-.15l11.64 6.72c1 .55.83 1.51-.27 2.14l-11.08 6.42a4.11 4.11 0 0 1 -3.74.15z"/><path d="m375.74 388.58-11.64-6.73c-1-.55-.84-1.5.26-2.14l11.11-6.41a4.13 4.13 0 0 1 3.71-.16l11.65 6.73c.95.55.83 1.5-.27 2.14l-11.11 6.41a4.1 4.1 0 0 1 -3.71.16z"/><path d="m400.17 402.68-19.59-11.31c-.95-.55-.83-1.51.27-2.14l11.15-6.41a4.1 4.1 0 0 1 3.71-.16l19.54 11.34c.95.55.83 1.51-.26 2.14l-11.12 6.42a4.11 4.11 0 0 1 -3.7.12z"/><path d="m186.39 297.7-11.65-6.7c-1-.55-.83-1.51.27-2.14l11.11-6.42a4.13 4.13 0 0 1 3.71-.15l11.64 6.71c.95.55.83 1.51-.26 2.14l-11.12 6.42a4.11 4.11 0 0 1 -3.7.14z"/><path d="m202.9 307.24-11.64-6.72c-.95-.55-.83-1.51.26-2.14l11.12-6.38a4.11 4.11 0 0 1 3.7-.15l11.66 6.68c.95.55.83 1.51-.27 2.14l-11.11 6.42a4.13 4.13 0 0 1 -3.72.15z"/><path d="m219.42 316.77-11.65-6.72c-1-.55-.83-1.51.27-2.14l11.11-6.42a4.13 4.13 0 0 1 3.71-.15l11.64 6.72c.95.55.83 1.51-.26 2.14l-11.12 6.42a4.11 4.11 0 0 1 -3.7.15z"/><path d="m235.93 326.31-11.65-6.73c-.95-.54-.83-1.5.27-2.14l11.11-6.44a4.13 4.13 0 0 1 3.71-.16l11.63 6.76c.95.55.83 1.5-.27 2.14l-11.11 6.41a4.1 4.1 0 0 1 -3.69.16z"/><path d="m252.31 335.77-11.64-6.77c-.95-.55-.83-1.5.26-2.14l11.12-6.41a4.08 4.08 0 0 1 3.7-.16l11.65 6.73c1 .54.83 1.5-.27 2.14l-11.13 6.45a4.13 4.13 0 0 1 -3.69.16z"/><path d="m268.83 345.3-11.65-6.72c-.95-.55-.83-1.51.27-2.14l11.11-6.44a4.13 4.13 0 0 1 3.71-.15l11.64 6.72c.95.55.83 1.51-.26 2.14l-11.12 6.42a4.11 4.11 0 0 1 -3.7.17z"/><path d="m285.34 354.83-11.65-6.72c-.95-.55-.83-1.51.27-2.14l11.11-6.41a4.1 4.1 0 0 1 3.71-.16l11.65 6.73c.95.54.83 1.5-.27 2.14l-11.11 6.41a4.13 4.13 0 0 1 -3.71.15z"/><path d="m301.85 364.37-11.64-6.72c-.95-.55-.83-1.51.27-2.14l11.11-6.42a4.11 4.11 0 0 1 3.7-.15l11.65 6.72c.95.55.83 1.51-.27 2.14l-11.11 6.42a4.13 4.13 0 0 1 -3.71.15z"/><path d="m318.37 373.9-11.65-6.72c-1-.55-.83-1.51.27-2.14l11.11-6.42a4.13 4.13 0 0 1 3.71-.15l11.64 6.72c.95.55.84 1.51-.26 2.14l-11.11 6.42a4.13 4.13 0 0 1 -3.71.15z"/><path d="m334.88 383.44-11.64-6.73c-.95-.54-.83-1.5.26-2.14l11.12-6.41a4.14 4.14 0 0 1 3.7-.16l11.68 6.73c.95.55.83 1.51-.27 2.14l-11.11 6.41a4.1 4.1 0 0 1 -3.74.16z"/><path d="m351.4 393-11.65-6.72c-.95-.55-.83-1.51.27-2.14l11.11-6.42a4.13 4.13 0 0 1 3.71-.15l11.64 6.72c.95.55.83 1.51-.26 2.14l-11.12 6.42a4.11 4.11 0 0 1 -3.7.15z"/><path d="m367.91 402.51-11.64-6.73c-.95-.55-.84-1.5.26-2.14l11.11-6.41a4.13 4.13 0 0 1 3.71-.16l11.65 6.73c.95.55.83 1.5-.27 2.14l-11.11 6.41a4.1 4.1 0 0 1 -3.71.16z"/><path d="m169.87 288.17-19.58-11.31c-.95-.55-.83-1.5.26-2.14l11.12-6.41a4.08 4.08 0 0 1 3.7-.16l19.63 11.31c.95.55.83 1.51-.27 2.14l-11.15 6.4a4.13 4.13 0 0 1 -3.71.17z"/><path d="m399.37 403.29-11.64-6.72a3.8 3.8 0 0 0 -3.46 0l-11.74 6.78c-1 .55-1 1.44 0 2l.93.54c.88.5.87 1.33 0 1.84l-12.46 7.16c-1 .56-1 1.45 0 2l7.41 4.28a3.81 3.81 0 0 0 3.45 0l11.62-6.7 2.4-1.39 1.73-1 1.74-1 10-5.77c.97-.58.97-1.47.02-2.02z"/><path d="m114.06 311.3-11.64-6.72c-1-.55-.83-1.51.26-2.14l11.12-6.44a4.11 4.11 0 0 1 3.7-.15l11.65 6.72c.95.55.83 1.51-.27 2.14l-11.11 6.42a4.13 4.13 0 0 1 -3.71.17z"/><path d="m130.5 320.79-11.64-6.72c-1-.55-.83-1.51.26-2.14l11.12-6.42a4.11 4.11 0 0 1 3.7-.15l11.65 6.72c.95.55.83 1.51-.27 2.14l-11.11 6.42a4.13 4.13 0 0 1 -3.71.15z"/><path d="m146.94 330.28-11.64-6.72c-1-.55-.84-1.51.26-2.14l11.11-6.42a4.13 4.13 0 0 1 3.71-.15l11.62 6.72c.95.55.83 1.51-.27 2.14l-11.11 6.42a4.13 4.13 0 0 1 -3.68.15z"/><path d="m286.94 411.11-11.65-6.73c-1-.54-.83-1.5.27-2.14l11.11-6.41a4.13 4.13 0 0 1 3.71-.16l11.62 6.73c1 .55.83 1.5-.27 2.14l-11.09 6.46a4.08 4.08 0 0 1 -3.7.11z"/><path d="m303.37 420.6-11.64-6.72c-1-.55-.83-1.51.26-2.14l11.12-6.42a4.11 4.11 0 0 1 3.7-.15l11.65 6.72c1 .55.83 1.51-.27 2.14l-11.11 6.42a4.13 4.13 0 0 1 -3.71.15z"/><path d="m319.81 430.09-11.64-6.72c-.95-.55-.83-1.51.26-2.14l11.12-6.42a4.11 4.11 0 0 1 3.7-.15l11.65 6.72c1 .55.83 1.51-.27 2.14l-11.11 6.42a4.13 4.13 0 0 1 -3.71.15z"/><path d="m336.25 439.58-11.64-6.72c-.95-.55-.83-1.51.26-2.14l11.13-6.42a4.11 4.11 0 0 1 3.7-.15l11.65 6.72c1 .55.83 1.51-.27 2.14l-11.08 6.42a4.13 4.13 0 0 1 -3.75.15z"/><path d="m167.61 342.22-15.88-9.17c-.95-.55-.83-1.51.27-2.14l11.11-6.42a4.13 4.13 0 0 1 3.71-.15l15.88 9.17c1 .55.83 1.5-.27 2.14l-11.11 6.41a4.1 4.1 0 0 1 -3.71.16z"/><path d="m270.5 401.62-15.88-9.17c-1-.55-.83-1.51.26-2.14l11.12-6.42a4.11 4.11 0 0 1 3.7-.15l15.88 9.17c.95.55.83 1.5-.26 2.14l-11.12 6.41a4.08 4.08 0 0 1 -3.7.16z"/><path d="m249.82 389.68-77.41-44.68c-.95-.55-.83-1.51.26-2.14l11.12-6.42a4.11 4.11 0 0 1 3.7-.15l77.42 44.71c.95.55.83 1.51-.27 2.14l-11.11 6.42a4.13 4.13 0 0 1 -3.71.12z"/><path d="m174.89 309.52-11.64-6.72c-.95-.55-.83-1.51.27-2.14l11.11-6.42a4.11 4.11 0 0 1 3.7-.15l11.67 6.72c1 .55.83 1.51-.27 2.14l-11.11 6.42a4.13 4.13 0 0 1 -3.73.15z"/><path d="m191.36 319-11.64-6.73c-.95-.55-.83-1.5.26-2.14l11.12-6.41a4.11 4.11 0 0 1 3.7-.16l11.65 6.73c1 .55.83 1.5-.27 2.14l-11.11 6.41a4.1 4.1 0 0 1 -3.71.16z"/><path d="m207.83 328.53-11.65-6.72c-1-.55-.83-1.51.27-2.14l11.11-6.42a4.13 4.13 0 0 1 3.71-.15l11.64 6.72c1 .55.84 1.51-.26 2.14l-11.11 6.42a4.13 4.13 0 0 1 -3.71.15z"/><path d="m224.3 338-11.65-6.72c-1-.55-.83-1.51.27-2.14l11.08-6.38a4.13 4.13 0 0 1 3.71-.15l11.64 6.72c1 .55.83 1.51-.26 2.14l-11.09 6.42a4.11 4.11 0 0 1 -3.7.11z"/><path d="m240.76 347.55-11.64-6.72c-1-.55-.83-1.51.26-2.14l11.12-6.42a4.11 4.11 0 0 1 3.7-.15l11.65 6.72c1 .55.83 1.51-.27 2.14l-11.11 6.42a4.13 4.13 0 0 1 -3.71.15z"/><path d="m257.23 357.06-11.64-6.73c-1-.55-.84-1.5.26-2.14l11.15-6.41a4.1 4.1 0 0 1 3.71-.16l11.65 6.73c.95.55.83 1.5-.27 2.14l-11.11 6.41a4.1 4.1 0 0 1 -3.75.16z"/><path d="m273.7 366.56-11.65-6.72c-.95-.55-.83-1.51.27-2.14l11.11-6.42a4.13 4.13 0 0 1 3.71-.15l11.64 6.72c1 .55.83 1.51-.26 2.14l-11.12 6.42a4.11 4.11 0 0 1 -3.7.15z"/><path d="m290.17 376.07-11.65-6.72c-.95-.55-.83-1.51.27-2.14l11.11-6.42a4.13 4.13 0 0 1 3.71-.15l11.64 6.72c.95.55.83 1.51-.27 2.14l-11.11 6.42a4.11 4.11 0 0 1 -3.7.15z"/><path d="m306.63 385.58-11.63-6.72c-.95-.55-.83-1.51.26-2.14l11.12-6.42a4.11 4.11 0 0 1 3.7-.15l11.65 6.72c.95.55.83 1.51-.27 2.14l-11.11 6.42a4.13 4.13 0 0 1 -3.72.15z"/><path d="m323.1 395.09-11.65-6.73c-.95-.55-.83-1.5.27-2.14l11.11-6.41a4.1 4.1 0 0 1 3.71-.16l11.65 6.73c.95.54.83 1.5-.27 2.14l-11.11 6.41a4.13 4.13 0 0 1 -3.71.16z"/><path d="m339.57 404.59-11.65-6.72c-.95-.55-.83-1.51.27-2.14l11.11-6.42a4.13 4.13 0 0 1 3.71-.15l11.64 6.72c1 .55.83 1.51-.26 2.14l-11.12 6.42a4.11 4.11 0 0 1 -3.7.15z"/><path d="m356 414.1-11.64-6.72c-.95-.55-.83-1.51.27-2.14l11.11-6.42a4.11 4.11 0 0 1 3.7-.15l11.65 6.72c.95.55.83 1.51-.27 2.14l-11.08 6.47a4.13 4.13 0 0 1 -3.74.1z"/><path d="m158.43 300-24.09-13.9c-1-.55-.83-1.51.27-2.14l11.11-6.42a4.13 4.13 0 0 1 3.71-.15l24.08 13.9c1 .55.83 1.51-.26 2.14l-11.12 6.42a4.11 4.11 0 0 1 -3.7.15z"/><path d="m150.74 314-11.64-6.7c-.95-.55-.84-1.5.26-2.14l11.11-6.41a4.1 4.1 0 0 1 3.71-.16l11.65 6.73c.95.54.83 1.5-.27 2.14l-11.11 6.41a4.13 4.13 0 0 1 -3.71.13z"/><path d="m167.21 323.53-11.65-6.72c-.95-.55-.83-1.51.27-2.14l11.11-6.42a4.13 4.13 0 0 1 3.71-.15l11.64 6.72c1 .55.83 1.51-.26 2.14l-11.12 6.42a4.11 4.11 0 0 1 -3.7.15z"/><path d="m183.67 333-11.67-6.69c-1-.55-.83-1.5.27-2.14l11.11-6.41a4.13 4.13 0 0 1 3.71-.16l11.65 6.73c1 .55.83 1.5-.27 2.14l-11.11 6.41a4.1 4.1 0 0 1 -3.69.12z"/><path d="m200.13 342.54-11.64-6.72c-1-.55-.83-1.51.27-2.14l11.11-6.42a4.11 4.11 0 0 1 3.7-.15l11.65 6.72c.95.55.83 1.51-.27 2.14l-11.11 6.42a4.13 4.13 0 0 1 -3.71.15z"/><path d="m216.6 352.05-11.6-6.72c-.95-.55-.83-1.51.27-2.14l11.11-6.42a4.13 4.13 0 0 1 3.71-.15l11.64 6.72c.95.55.84 1.51-.26 2.14l-11.11 6.41a4.1 4.1 0 0 1 -3.76.16z"/><path d="m233.06 361.55-11.64-6.72c-.95-.55-.83-1.51.26-2.14l11.12-6.42a4.11 4.11 0 0 1 3.7-.15l11.65 6.72c.95.55.83 1.51-.27 2.14l-11.11 6.42a4.13 4.13 0 0 1 -3.71.15z"/><path d="m249.53 371.06-11.65-6.72c-.95-.55-.83-1.51.27-2.14l11.11-6.42a4.13 4.13 0 0 1 3.71-.15l11.64 6.72c.95.55.83 1.51-.26 2.14l-11.11 6.42a4.13 4.13 0 0 1 -3.71.15z"/><path d="m266 380.57-11.64-6.73c-.95-.55-.83-1.5.26-2.14l11.12-6.41a4.08 4.08 0 0 1 3.7-.16l11.65 6.73c.95.54.83 1.5-.27 2.14l-11.11 6.41a4.13 4.13 0 0 1 -3.71.16z"/><path d="m282.46 390.07-11.65-6.72c-.95-.55-.83-1.51.27-2.14l11.11-6.42a4.13 4.13 0 0 1 3.71-.15l11.64 6.72c.95.55.83 1.51-.26 2.14l-11.12 6.42a4.11 4.11 0 0 1 -3.7.15z"/><path d="m298.92 399.58-11.64-6.73c-.95-.54-.83-1.5.26-2.14l11.12-6.41a4.11 4.11 0 0 1 3.7-.16l11.64 6.73c.95.55.83 1.5-.27 2.14l-11.11 6.41a4.1 4.1 0 0 1 -3.7.16z"/><path d="m315.39 409.08-11.65-6.72c-.95-.55-.83-1.51.27-2.14l11.11-6.42a4.13 4.13 0 0 1 3.71-.15l11.64 6.72c.95.55.83 1.51-.26 2.14l-11.12 6.42a4.11 4.11 0 0 1 -3.7.15z"/><path d="m352.23 430.36-32-18.49c-.95-.55-.84-1.51.26-2.14l11.11-6.42a4.13 4.13 0 0 1 3.71-.15l32 18.49c.95.54.83 1.5-.27 2.14l-11.11 6.41a4.13 4.13 0 0 1 -3.7.16z"/><path d="m134.28 304.52-15.88-9.17c-1-.55-.83-1.51.26-2.14l11.12-6.41a4.08 4.08 0 0 1 3.7-.16l15.88 9.17c.95.55.83 1.51-.26 2.14l-11.1 6.42a4.11 4.11 0 0 1 -3.72.15z"/><path d="m416.71 393.13-233.84-135c-1-.54-.83-1.5.27-2.14l5.56-3.2a4.11 4.11 0 0 1 3.7-.16l233.84 135c.95.55.83 1.5-.27 2.14l-5.55 3.23a4.13 4.13 0 0 1 -3.71.13z"/></g><path d="m271.85 408.48a3.53 3.53 0 0 1 -1.62 1.68l-64.34 37.15a7.93 7.93 0 0 1 -7.13.29l-110-63.49a2.46 2.46 0 0 1 -1.08-1.11c-.4-1 .16-2.11 1.62-2.95l64.35-37.16a7.93 7.93 0 0 1 7.13-.29l110 63.49a1.94 1.94 0 0 1 1.07 2.39z" fill="#b1b4c4"/><path d="m271.85 408.48a3.53 3.53 0 0 1 -1.62 1.68l-64.34 37.15a7.93 7.93 0 0 1 -7.13.29l-110-63.49a2.46 2.46 0 0 1 -1.08-1.11 3.61 3.61 0 0 1 1.62-1.67l64.35-37.15a7.94 7.94 0 0 1 7.13-.3l110 63.5a2.41 2.41 0 0 1 1.07 1.1z" fill="#c3c6d1"/><path d="m434.51 382.89-233.84-135a4.12 4.12 0 0 1 -1.67-3.29v-2.75c0-1.27.77-1.85 1.72-1.3l233.84 135a4.1 4.1 0 0 1 1.72 3.28v2.75c-.05 1.28-.82 1.86-1.77 1.31z" fill="#2b303f"/><path d="m236 234.56-23.1-13.31c-2.89-1.67-5.24-6.16-5.24-10v-24.77c0-3.86 2.35-5.63 5.24-4l23.1 13.35c2.9 1.67 5.24 6.16 5.24 10v24.77c-.04 3.86-2.38 5.63-5.24 3.96z" fill="#e9eaf2"/><path d="m235.91 177.83-23.06-13.31c-2.89-1.67-5.24-8.5-5.24-11.84v-28.92c0-3.86 2.35-5.63 5.24-4l23.06 13.31c2.9 1.67 5.24 6.16 5.24 10v28.92c0 3.4-2.34 7.51-5.24 5.84z" fill="#e9eaf2"/><path d="m224.51 158.51c-4.69-2.71-8.51-9.33-8.51-14.75s3.82-7.63 8.51-4.92 8.52 9.33 8.52 14.75-3.82 7.63-8.52 4.92zm0-17.15c-3.49-2-6.33-.37-6.33 3.66a14 14 0 0 0 6.33 11c3.5 2 6.34.38 6.34-3.65a14 14 0 0 0 -6.34-11.01z" fill="#2f55d4"/><path d="m226.85 154.5-3.86-6.14v-5.11l2.18 1.26v3.97l3.12 4.95z" fill="#2f55d4"/><path d="m235.88 116.66-23.06-13.31c-2.89-1.68-5.24-9.2-5.24-12.55v-26.62c0-3.34 2.35-4.7 5.24-3l23.06 13.32a11.56 11.56 0 0 1 5.24 9.07v26.63c0 3.31-2.34 8.13-5.24 6.46z" fill="#e9eaf2"/><path d="m224.35 84.75c-1.39-.8-2.51-.15-2.51 1.46a5.54 5.54 0 0 0 2.51 4.35c1.39.8 2.52.15 2.52-1.45a5.59 5.59 0 0 0 -2.52-4.36zm6.71 1-2-1.16a1.64 1.64 0 0 1 -.66-.93l-.52-2.11a1.7 1.7 0 0 0 -.67-.93l-5.7-3.29c-.28-.16-.57-.09-.66.17l-.52 1.5a.43.43 0 0 1 -.66.17l-2-1.16c-.92-.54-1.67-.1-1.67 1v8.72a3.71 3.71 0 0 0 1.67 2.9l13.42 7.75c.92.53 1.68.1 1.68-1v-8.75a3.73 3.73 0 0 0 -1.71-2.91zm-6.71 6.78a9.29 9.29 0 0 1 -4.19-7.26c0-2.68 1.88-3.76 4.19-2.42a9.24 9.24 0 0 1 4.19 7.26c0 2.64-1.87 3.73-4.19 2.39zm6.12-3.83a1.28 1.28 0 0 1 -.58-1c0-.38.26-.53.58-.34a1.28 1.28 0 0 1 .59 1c0 .35-.26.5-.59.31z" fill="#2f55d4"/><path d="m231.63 210.35c0 4.51-7.07 10.37-7.07 10.37s-7.08-14-7.08-18.54 3.17-6.34 7.08-4.09a15.65 15.65 0 0 1 7.07 12.26z" fill="#2f55d4"/><ellipse cx="224.56" cy="205.95" fill="#e9eaf2" rx="3.78" ry="6.54" transform="matrix(.8660254 -.5 .5 .8660254 -72.89 139.88)"/><path d="m399.13 271-139.61-80.61c-2.36-1.35-4.26-5-4.26-8.13v-93.83c0-3.13 1.9-4.57 4.26-3.21l139.61 80.6c2.35 1.36 4.25 5 4.25 8.14v93.82c0 3.14-1.9 4.58-4.25 3.22z" fill="#e9eaf2"/><path d="m383 202.79-108.21-62.47c-2.62-1.52-4.75-5.58-4.75-9.07v-7.07c0-3.5 2.13-5.1 4.75-3.59l108.21 62.47c2.62 1.51 4.74 5.57 4.74 9.07v7.07c0 3.5-2.12 5.1-4.74 3.59z" fill="#fff"/><path d="m324.15 200.6-49.36-28.5c-2.62-1.51-4.75-5.57-4.75-9.07v-7.03c0-3.5 2.13-5.1 4.75-3.59l49.36 28.5c2.62 1.51 4.74 5.57 4.74 9.07v7.02c0 3.5-2.12 5.11-4.74 3.6z" fill="#2f55d4"/><path d="m427.86 291.64s-52.63 11.6-95.18-35.66-77.26-41.2-77.26-41.2v29.5l172.44 99.55z" fill="url(#b)"/><path d="m427.86 291.64s-52.63 11.6-95.18-35.66-77.26-41.2-77.26-41.2" fill="none" stroke="#cccedd" stroke-miterlimit="10" stroke-width="1.06"/><path d="m255.19 44.4a38.54 38.54 0 0 1 -5.57 7.6c-.6.7-5.23-1.07-4.26-1.57s4-4.72 5.52-7.54a96.19 96.19 0 0 0 3.24-10.29c.95-3.45 1.77-8.51 2.47-10.89a4.65 4.65 0 0 1 3.54-3.61c1.67-.39 2.75.07 2.44 2.09-.57 3.52-3.3 17.26-7.38 24.21z" fill="#ffcea9"/><path d="m257.84 98.25c-1.43 1.17-3.55.1-3.66.21a65.73 65.73 0 0 1 -5.29 4.41c-.9.7-2.29 1.64-2 3 .45 2.41 4.32 1.67 5.78.93s2.66-2 4-2.82c1-.62 2-.93 2.11-2.18.09-.75-.68-3.58-.94-3.55z" fill="#38226d"/><path d="m258.76 101.3c-.19 1.19-1.15 1.52-2.13 2.13-1.4.87-2.64 2.13-4.1 2.87s-4.71 1.36-5.66-.37c.51 2.33 4.32 1.6 5.76.87s2.66-2 4-2.82c1-.62 2-.93 2.11-2.18a3.08 3.08 0 0 0 .02-.5z" fill="#9c73ff"/><path d="m243.28 89.86c-1.43 1.17-3.94-.1-4.05 0a53 53 0 0 1 -4.73 4.27c-.9.71-2.29 1.65-2 3 .45 2.42 4.32 1.68 5.79.94s2.65-2 4-2.83c1-.61 2-.93 2.11-2.17.08-.75-.86-3.24-1.12-3.21z" fill="#38226d"/><path d="m244.35 92.74c-.19 1.19-1.15 1.52-2.13 2.13-1.4.87-2.64 2.13-4.1 2.87s-4.72 1.36-5.66-.37c.51 2.33 4.31 1.6 5.76.87s2.65-2 4-2.83c1-.61 2-.92 2.11-2.17a3.08 3.08 0 0 0 .02-.5z" fill="#9c73ff"/><path d="m277 52.24c1.59 9.94-2.82 13.65-8.56 15.76-4.12 1.52-10 3.86-10 3.86s.08 2.18.12 7.07c0 4.31-.52 20-.52 20a4.81 4.81 0 0 1 -4.4 0s-2.31-12.05-2.8-17.49c-.67-7.37-1.8-12.2-1.42-13.79.33-1.4 8.39-5.36 10.95-7.48l-16.89 5.66a29.83 29.83 0 0 1 .49 5.55c-.15 5.85-.48 18.52-.48 18.52s-2.31 1.67-4.29 0c0 0-4.25-25.07-3.73-28.39.49-3.15 15.37-9.59 18-11.81a4.2 4.2 0 0 1 3.3-.89z" fill="#2f55d4"/><path d="m236.54 56.38 11.35-6.55a.63.63 0 0 1 .65 0l19.9 11.49-11.67 6.74z" fill="#f4f4f4"/><g fill="#3a2c6d"><path d="m257.3 65.65.87.5c.07 0 .06.11 0 .16l-.83.48a.32.32 0 0 1 -.27 0l-.87-.5c-.07 0-.06-.11 0-.16l.83-.48a.32.32 0 0 1 .27 0z"/><path d="m256.08 65 .86.49c.07 0 .06.12 0 .16l-.82.48a.31.31 0 0 1 -.28 0l-.86-.5c-.07 0-.06-.11 0-.16l.82-.47a.28.28 0 0 1 .28 0z"/><path d="m254.84 64.23.86.5c.07 0 .07.11 0 .16l-.82.47a.31.31 0 0 1 -.28 0l-.86-.5c-.07 0-.06-.11 0-.16l.82-.48a.31.31 0 0 1 .28.01z"/><path d="m253.63 63.53.86.5c.07 0 .07.11 0 .16l-.82.48a.34.34 0 0 1 -.28 0l-.86-.5c-.07 0-.06-.11 0-.16l.82-.48a.34.34 0 0 1 .28 0z"/><path d="m252.4 62.82.87.5c.07 0 .06.12 0 .16l-.83.48a.29.29 0 0 1 -.27 0l-.87-.5c-.07 0-.06-.11 0-.16l.83-.47a.29.29 0 0 1 .27-.01z"/><path d="m251.18 62.12.87.5c.07 0 .06.11 0 .16l-.83.47a.29.29 0 0 1 -.27 0l-.87-.5c-.07 0-.06-.11 0-.15l.83-.48a.29.29 0 0 1 .27 0z"/><path d="m250 61.41.86.5c.07 0 .06.11 0 .16l-.82.48a.34.34 0 0 1 -.28 0l-.86-.5c-.07 0-.07-.11 0-.16l.82-.48a.34.34 0 0 1 .28 0z"/><path d="m248.73 60.7.87.5c.07 0 .06.12 0 .16l-.83.48a.29.29 0 0 1 -.27 0l-.87-.5c-.07 0-.06-.11 0-.16l.83-.47a.29.29 0 0 1 .27-.01z"/><path d="m247.51 60 .86.5c.07 0 .06.11 0 .16l-.82.47a.31.31 0 0 1 -.28 0l-.86-.5c-.07 0-.06-.11 0-.15l.82-.48a.31.31 0 0 1 .28 0z"/><path d="m246.28 59.29.87.5c.07 0 .06.11 0 .16l-.83.48a.32.32 0 0 1 -.27 0l-.87-.5c-.07 0-.06-.11 0-.16l.83-.48a.29.29 0 0 1 .27 0z"/><path d="m245.06 58.58.86.5c.07 0 .07.11 0 .16l-.82.48a.31.31 0 0 1 -.28 0l-.86-.5c-.07 0-.06-.11 0-.16l.82-.47a.31.31 0 0 1 .28-.01z"/><path d="m243.84 57.88.86.5c.07 0 .06.11 0 .16l-.83.47a.29.29 0 0 1 -.27 0l-.87-.5c-.07 0-.06-.11 0-.16l.83-.47a.31.31 0 0 1 .28 0z"/><path d="m242.61 57.17.87.5c.07 0 .06.11 0 .16l-.83.47a.29.29 0 0 1 -.27 0l-.87-.5c-.07 0-.06-.12 0-.16l.83-.48a.29.29 0 0 1 .27.01z"/><path d="m240.8 56.12 1.45.84c.07 0 .06.11 0 .16l-.82.48a.34.34 0 0 1 -.28 0l-1.45-.84c-.07 0-.07-.11 0-.16l.82-.48a.34.34 0 0 1 .28 0z"/><path d="m256.67 63.92.87.5c.07 0 .06.11 0 .16l-.83.47a.26.26 0 0 1 -.27 0l-.87-.49c-.07 0-.06-.12 0-.16l.83-.48a.29.29 0 0 1 .27 0z"/><path d="m255.45 63.21.86.5c.07 0 .06.11 0 .16l-.82.48a.34.34 0 0 1 -.28 0l-.86-.5c-.07 0-.07-.11 0-.16l.82-.48a.31.31 0 0 1 .28 0z"/><path d="m254.22 62.5.86.5c.08 0 .07.11 0 .16l-.82.48a.34.34 0 0 1 -.28 0l-.86-.5c-.07 0-.06-.11 0-.16l.82-.48a.34.34 0 0 1 .28 0z"/><path d="m253 61.79.87.5c.07 0 .06.12 0 .16l-.83.48a.29.29 0 0 1 -.27 0l-.87-.5c-.07 0-.06-.11 0-.16l.83-.47a.29.29 0 0 1 .27-.01z"/><path d="m251.78 61.09.86.5c.07 0 .06.11 0 .16l-.82.48a.34.34 0 0 1 -.28 0l-.86-.5c-.07 0-.07-.11 0-.16l.82-.48a.34.34 0 0 1 .28 0z"/><path d="m250.55 60.38.87.5c.07 0 .06.12 0 .16l-.83.48a.29.29 0 0 1 -.27 0l-.87-.5c-.07 0-.06-.11 0-.16l.83-.47a.29.29 0 0 1 .27-.01z"/><path d="m249.32 59.68.87.5c.07 0 .06.11 0 .15l-.83.48a.29.29 0 0 1 -.27 0l-.87-.5c-.07 0-.06-.11 0-.16l.83-.47a.29.29 0 0 1 .27 0z"/><path d="m248.1 59 .86.5c.07 0 .06.11 0 .16l-.82.47a.31.31 0 0 1 -.28 0l-.86-.5c-.07 0-.06-.11 0-.15l.82-.48a.31.31 0 0 1 .28 0z"/><path d="m246.87 58.26.87.5c.07 0 .06.11 0 .16l-.83.47a.29.29 0 0 1 -.27 0l-.87-.5c-.07 0-.06-.12 0-.16l.83-.48a.29.29 0 0 1 .27.01z"/><path d="m245.65 57.55.86.5c.07 0 .06.11 0 .16l-.83.48a.32.32 0 0 1 -.27 0l-.87-.5c-.07 0-.06-.11 0-.16l.83-.48a.34.34 0 0 1 .28 0z"/><path d="m244.42 56.84.86.5c.07 0 .07.11 0 .16l-.82.48a.31.31 0 0 1 -.28 0l-.86-.5c-.07 0-.06-.11 0-.16l.82-.48a.34.34 0 0 1 .28 0z"/><path d="m243.19 56.14.87.49c.07 0 .06.12 0 .16l-.83.48a.29.29 0 0 1 -.27 0l-.87-.5c-.07 0-.06-.11 0-.16l.83-.47a.26.26 0 0 1 .27 0z"/><path d="m257.9 64.63 1.45.84c.07 0 .07.11 0 .16l-.82.47a.31.31 0 0 1 -.28 0l-1.45-.84c-.07 0-.06-.11 0-.16l.82-.47a.31.31 0 0 1 .28 0z"/><path d="m240.86 56.08.86.5a.3.3 0 0 0 .26 0l.87-.51a.08.08 0 0 0 0-.15h-.07c-.06 0-.06-.09 0-.13l.92-.53c.08 0 .08-.11 0-.15l-.55-.32a.3.3 0 0 0 -.26 0l-.86.5-.18.1-.13.08-.13.07-.74.43a.08.08 0 0 0 .01.11z"/><path d="m262 62.91.87.5c.07 0 .06.11 0 .16l-.83.47a.26.26 0 0 1 -.27 0l-.87-.49c-.07-.05-.06-.12 0-.16l.83-.48a.29.29 0 0 1 .27 0z"/><path d="m260.82 62.2.87.5c.07 0 .06.12 0 .16l-.83.48a.29.29 0 0 1 -.27 0l-.87-.5c-.07 0-.06-.11 0-.16l.83-.47a.29.29 0 0 1 .27-.01z"/><path d="m259.6 61.5.87.5c.07 0 .06.11 0 .16l-.83.47a.29.29 0 0 1 -.27 0l-.87-.5c-.07 0-.06-.12 0-.16l.83-.48a.29.29 0 0 1 .27.01z"/><path d="m249.21 55.5.86.5c.07 0 .06.11 0 .16l-.82.47a.31.31 0 0 1 -.28 0l-.86-.5c-.08 0-.07-.11 0-.16l.82-.47a.31.31 0 0 1 .28 0z"/><path d="m248 54.79.87.5c.07 0 .06.11 0 .16l-.83.48a.32.32 0 0 1 -.27 0l-.87-.5c-.07 0-.06-.11 0-.16l.83-.48a.32.32 0 0 1 .27 0z"/><path d="m246.76 54.09.87.5c.07 0 .06.11 0 .16l-.83.47a.29.29 0 0 1 -.27 0l-.87-.5c-.07 0-.06-.11 0-.15l.83-.48a.29.29 0 0 1 .27 0z"/><path d="m245.54 53.38.87.5c.07 0 .06.11 0 .16l-.83.48a.32.32 0 0 1 -.27 0l-.87-.5c-.07 0-.06-.11 0-.16l.83-.48a.32.32 0 0 1 .27 0z"/><path d="m258.07 60.61 1.18.68c.07 0 .06.12 0 .16l-.83.48a.29.29 0 0 1 -.27 0l-1.15-.67c-.07 0-.07-.11 0-.16l.82-.48a.34.34 0 0 1 .25-.01z"/><path d="m250.43 56.2 1.18.68c.07 0 .06.11 0 .16l-.83.48a.32.32 0 0 1 -.27 0l-1.18-.68c-.07 0-.07-.11 0-.16l.82-.48a.34.34 0 0 1 .28 0z"/><path d="m252 57.09 5.75 3.32c.07 0 .06.11 0 .16l-.82.47a.31.31 0 0 1 -.28 0l-5.75-3.32c-.07 0-.06-.11 0-.15l.83-.48a.29.29 0 0 1 .27 0z"/><path d="m257.53 63 .86.5c.07 0 .06.11 0 .16l-.82.48a.34.34 0 0 1 -.28 0l-.86-.5c-.07 0-.07-.11 0-.16l.82-.48a.34.34 0 0 1 .28 0z"/><path d="m256.3 62.33.87.5c.07 0 .06.12 0 .16l-.83.48a.29.29 0 0 1 -.27 0l-.87-.5c-.07 0-.06-.11 0-.16l.83-.47a.29.29 0 0 1 .27-.01z"/><path d="m255.08 61.63.87.5c.07 0 .06.11 0 .16l-.83.47a.31.31 0 0 1 -.28 0l-.86-.5c-.07-.05-.06-.12 0-.16l.83-.48a.29.29 0 0 1 .27.01z"/><path d="m253.86 60.92.86.5c.07 0 .06.11 0 .16l-.82.48a.34.34 0 0 1 -.28 0l-.86-.5c-.07 0-.06-.11 0-.16l.82-.48a.34.34 0 0 1 .28 0z"/><path d="m252.63 60.22.87.5c.07 0 .06.11 0 .16l-.83.47a.29.29 0 0 1 -.27 0l-.87-.5c-.07 0-.06-.11 0-.16l.83-.47a.29.29 0 0 1 .27 0z"/><path d="m251.41 59.51.87.5c.07 0 .06.11 0 .16l-.83.48a.32.32 0 0 1 -.27 0l-.87-.5c-.07 0-.06-.11 0-.16l.83-.48a.32.32 0 0 1 .27 0z"/><path d="m250.19 58.8.86.5c.07 0 .07.12 0 .16l-.82.48a.31.31 0 0 1 -.28 0l-.86-.5c-.07 0-.06-.11 0-.16l.82-.47a.31.31 0 0 1 .28-.01z"/><path d="m249 58.1.86.5c.07 0 .06.11 0 .16l-.82.47a.28.28 0 0 1 -.28 0l-.86-.49c-.07 0-.07-.12 0-.16l.82-.48a.31.31 0 0 1 .28 0z"/><path d="m247.74 57.39.87.5c.07 0 .06.11 0 .16l-.83.48a.32.32 0 0 1 -.27 0l-.87-.5c-.07 0-.06-.11 0-.16l.83-.48a.32.32 0 0 1 .27 0z"/><path d="m246.52 56.69.86.5c.08 0 .07.11 0 .15l-.83.48a.31.31 0 0 1 -.28 0l-.86-.5c-.07 0-.06-.11 0-.16l.82-.47a.31.31 0 0 1 .29 0z"/><path d="m245.3 56 .86.5c.07 0 .06.11 0 .16l-.82.48a.34.34 0 0 1 -.28 0l-.86-.5c-.07 0-.06-.11 0-.16l.8-.48a.31.31 0 0 1 .3 0z"/><path d="m244.07 55.27.87.5c.07 0 .06.12 0 .16l-.83.48a.29.29 0 0 1 -.27 0l-.87-.5c-.07 0-.06-.11 0-.16l.83-.47a.29.29 0 0 1 .27-.01z"/><path d="m258.75 63.75 1.79 1c.07 0 .06.11 0 .16l-.83.48a.32.32 0 0 1 -.27 0l-1.79-1c-.07 0-.06-.11 0-.16l.82-.47a.31.31 0 0 1 .28-.01z"/><path d="m259.32 62.71.86.5c.08 0 .07.11 0 .15l-.82.48a.31.31 0 0 1 -.28 0l-.86-.5c-.07 0-.06-.11 0-.16l.82-.47a.31.31 0 0 1 .28 0z"/><path d="m258.1 62 .86.5c.07 0 .06.11 0 .16l-.82.48a.34.34 0 0 1 -.28 0l-.86-.5c-.07 0-.06-.11 0-.16l.82-.48a.31.31 0 0 1 .28 0z"/><path d="m256.87 61.29.87.5c.07 0 .06.12 0 .16l-.83.48a.29.29 0 0 1 -.27 0l-.87-.5c-.07 0-.06-.11 0-.16l.83-.47a.29.29 0 0 1 .27-.01z"/><path d="m255.65 60.59.87.5c.07 0 .06.11 0 .16l-.83.47a.26.26 0 0 1 -.27 0l-.87-.49c-.07-.05-.06-.12 0-.16l.83-.48a.29.29 0 0 1 .27 0z"/><path d="m254.43 59.88.86.5c.07 0 .07.11 0 .16l-.82.48a.34.34 0 0 1 -.28 0l-.86-.5c-.07 0-.06-.11 0-.16l.82-.48a.34.34 0 0 1 .28 0z"/><path d="m253.21 59.18.86.5c.07 0 .06.11 0 .15l-.82.48a.31.31 0 0 1 -.28 0l-.86-.5c-.07 0-.07-.11 0-.16l.82-.47a.31.31 0 0 1 .28 0z"/><path d="m252 58.47.87.5c.07 0 .06.11 0 .16l-.83.48a.32.32 0 0 1 -.27 0l-.87-.5c-.07 0-.06-.11 0-.16l.83-.48a.32.32 0 0 1 .27 0z"/><path d="m250.76 57.76.87.5c.07 0 .06.12 0 .16l-.83.48a.29.29 0 0 1 -.27 0l-.87-.5c-.07 0-.06-.11 0-.16l.83-.47a.29.29 0 0 1 .27-.01z"/><path d="m249.54 57.06.86.5c.07 0 .06.11 0 .16l-.82.47a.31.31 0 0 1 -.28 0l-.86-.5c-.07 0-.06-.12 0-.16l.82-.48a.31.31 0 0 1 .28.01z"/><path d="m248.32 56.35.86.5c.07 0 .06.11 0 .16l-.82.48a.34.34 0 0 1 -.28 0l-.86-.5c-.08 0-.07-.11 0-.16l.82-.48a.34.34 0 0 1 .28 0z"/><path d="m247.09 55.65.87.5c.07 0 .06.11 0 .16l-.83.47a.29.29 0 0 1 -.27 0l-.87-.5c-.07 0-.06-.11 0-.15l.83-.48a.29.29 0 0 1 .27 0z"/><path d="m244.36 54.07 2.38 1.37c.07 0 .06.11 0 .16l-.83.48a.34.34 0 0 1 -.28 0l-2.37-1.38c-.07 0-.07-.11 0-.15l.82-.48a.31.31 0 0 1 .28 0z"/><path d="m260.54 63.41 1.18.68c.07 0 .06.12 0 .16l-.82.48a.31.31 0 0 1 -.28 0l-1.18-.68c-.07 0-.06-.11 0-.16l.83-.48a.32.32 0 0 1 .27 0z"/><path d="m239.57 56.83 17.36 10c.07 0 .07.11 0 .16l-.41.23a.29.29 0 0 1 -.27 0l-17.37-10c-.07 0-.06-.11 0-.16l.41-.24a.34.34 0 0 1 .28.01z"/></g><path d="m259.89 57.28-.12.06-3 1.74-5.33-3.08-.11-.07 3.11-1.79z" fill="#bfbfbf"/><path d="m259.77 57.34-3 1.74-5.33-3.08 3-1.73z" fill="#e5e5e5"/><path d="m268.44 61.32v.27a1.09 1.09 0 0 1 -.54.95l-10.58 6.1a1.07 1.07 0 0 1 -1.09 0l-19.14-11a1.1 1.1 0 0 1 -.55-1v-.27l20.23 11.68z" fill="#e5e5e5"/><path d="m256.47 68.22a1.3 1.3 0 0 1 -1.12-.08l-19-11a1.29 1.29 0 0 1 -.63-.91l-2.09-12.44a1.49 1.49 0 0 1 0-.21 1.27 1.27 0 0 1 .39-.92l19.8 11.43a1 1 0 0 1 .46.67z" fill="#f4f4f4"/><path d="m256.77 68.06-.13.08-.17.08-2.26-13.46a1 1 0 0 0 -.46-.67l-19.75-11.43a.86.86 0 0 1 .26-.2l19.84 11.45a1 1 0 0 1 .47.67z" fill="#e5e5e5"/><path d="m271.16 14.83s-.25 4.73-.14 5.15 2.17 1.81 2.77 2.31-3.27 4.32-5.15 5.18-7.86-1.41-8-4.35 1-5.39 1.94-5.52 8.58-2.77 8.58-2.77z" fill="#ffcea9"/><path d="m271.68 20.8s-3.43 5.12-8.22 5.6c-1.51-1.49-1.65-6.79.44-8.48 0 0-1.92-1.56-3.24-1.25a6.75 6.75 0 0 0 -3 3.77 30.8 30.8 0 0 0 -1.69 11c.08 5 0 17.71 0 17.71a10.81 10.81 0 0 0 5.05 7.27 15.59 15.59 0 0 0 11.41 1.58c2.43-.57 3.33-1.92 4.17-3.69-.22-3.51-1.61-10.76-1-15.19s1.52-7.73 1.76-11.3-.47-3.51-2.27-4.79a28.11 28.11 0 0 0 -3.41-2.23z" fill="#f4f4f4"/><path d="m266.18 61.59a23 23 0 0 1 2.69-1.54 5.71 5.71 0 0 0 2.3-1.4c.84-.82 2.22-3.94 3.21-7a31.2 31.2 0 0 0 1.15-10.57c-.41-4.27-1.95-10.24-2.34-12.69s.4-3.44 1.55-4.34c1.34-1.06 3.19-.59 4.18 2.85a66 66 0 0 1 2.2 14.57 33.18 33.18 0 0 1 -1.67 10.77 38.88 38.88 0 0 1 -4.1 8.46c-.47.79-.63 1.5-1.35 3.12a10.88 10.88 0 0 1 -3.14 4.18c-1.2.86-1.77 1-2.06.82s-.28-.59.23-1a9.08 9.08 0 0 0 2.14-2.41s-1.05 1.06-1.74 1.64a9 9 0 0 1 -2 1.28c-.7.31-1.68-.29-1.18-.76s1-.71 2-1.58a8.65 8.65 0 0 0 1.43-1.55 16.71 16.71 0 0 1 -2.23 1.45 3.81 3.81 0 0 1 -2 .55c-.37 0-.82-.54-.12-1a13.71 13.71 0 0 0 2.67-1.89c.77-.76 1.2-1.41 1-1.42s-.64.46-1.54.75-1.87 0-2-.47-.12-.41.72-.82z" fill="#ffcea9"/><path d="m260.44 7.77c.57-3.67 3.22-6.45 7-6.24a7.28 7.28 0 0 1 3.71 13.3 7.45 7.45 0 0 1 -.59 1.61c-1.33 1.56-5.38 2.56-6.56 2.36a3.45 3.45 0 0 1 -3-2.47c-1.26-2.88-.87-6.74-.56-8.56z" fill="#ffcea9"/><path d="m271.16 14.83-.35-3.21s2.62-6.78-3.57-5.48c-4.08.86-5.11 1.24-6.35-1.5s3.11-5.21 8.34-4.52a7.18 7.18 0 0 1 6.44 7.29c-.13 2.02-.67 6.1-4.51 7.42z" fill="#3a2c6d"/><path d="m281.75 33.23s-3.38 3.36-7.37 2.39c-.57-.39-1.95-8.24-1.95-8.24s0-4.35 3.34-4.24 5.98 10.09 5.98 10.09z" fill="#ededed"/><path d="m256.25 26.71a3.67 3.67 0 0 1 -2.5-1.11c.14-1.76 2.39-8.44 6.91-8.93a8.35 8.35 0 0 0 -2.82 3.41 43.31 43.31 0 0 0 -1.59 6.63z" fill="#ededed"/><path d="m459.4 311.15-83.52-48.22c-5.25-3-9.5-11.15-9.5-18.14v-131.41c0-7 4.25-10.2 9.5-7.18l83.52 48.23c5.24 3 9.49 11.15 9.49 18.14v131.43c0 7-4.25 10.18-9.49 7.15z" fill="#211b49"/><path d="m462.74 313.07 2.86-1.41-1.93-3.79z" fill="#211b49"/><path d="m367.94 106.57a16.71 16.71 0 0 1 2.64-1.27l2.12 4.19z" fill="#211b49"/><path d="m457.21 312.25-83.53-48.25c-5.24-3-9.49-11.15-9.49-18.14v-131.38c0-7 4.25-10.21 9.49-7.18l83.53 48.23c5.24 3 9.49 11.14 9.49 18.13v131.41c0 6.99-4.25 10.21-9.49 7.18z" fill="#2e245b"/><path d="m388.87 134.7-15.19-8.77v-5.48l15.19 8.77z" fill="#a298e2"/><path d="m456.26 173.61-64.54-37.27v-5.47l64.54 37.26z" fill="#c33afc"/><path d="m388.87 152.24-15.19-8.77v-5.48l15.19 8.77z" fill="#a298e2"/><path d="m434.43 178.54-42.71-24.66v-5.48l42.71 24.66z" fill="#f4ce2c"/><path d="m388.87 161-15.19-8.76v-5.48l15.19 8.76z" fill="#a298e2"/><path d="m444.87 193.34-53.15-30.69v-5.48l53.15 30.69z" fill="#ff8657"/><path d="m388.87 169.77-15.19-8.77v-5.48l15.19 8.77z" fill="#a298e2"/><path d="m428.74 192.79-37.02-21.37v-5.48l37.02 21.37z" fill="#a298e2"/><path d="m388.87 143.47-15.19-8.77v-5.48l15.19 8.77z" fill="#a298e2"/><path d="m423.99 163.75-32.27-18.64v-5.48l32.27 18.63z" fill="#4d3bff"/><path d="m388.87 178.54-15.19-8.77v-5.48l15.19 8.77z" fill="#a298e2"/><path d="m410.7 191.14-18.98-10.96v-5.48l18.98 10.96z" fill="#c33afc"/><path d="m388.87 196.07-15.19-8.76v-5.48l15.19 8.77z" fill="#a298e2"/><path d="m451.52 232.24-59.8-34.52v-5.48l59.8 34.52z" fill="#f4ce2c"/><path d="m388.87 204.84-15.19-8.77v-5.48l15.19 8.77z" fill="#a298e2"/><path d="m409.75 216.9-18.03-10.41v-5.48l18.03 10.41z" fill="#ff8657"/><path d="m388.87 213.61-15.19-8.77v-5.48l15.19 8.77z" fill="#a298e2"/><path d="m444.87 245.94-53.15-30.69v-5.47l53.15 30.68z" fill="#a298e2"/><path d="m388.87 187.31-15.19-8.77v-5.48l15.19 8.77z" fill="#a298e2"/><path d="m442.02 218-50.3-29.05v-5.48l50.3 29.05z" fill="#4d3bff"/><path d="m388.87 222.38-15.19-8.77v-5.48l15.19 8.77z" fill="#a298e2"/><path d="m398.36 227.86-6.64-3.84v-5.48l6.64 3.84z" fill="#c33afc"/><path d="m388.87 239.91-15.19-8.76v-5.48l15.19 8.77z" fill="#a298e2"/><path d="m404.06 248.68-12.34-7.12v-5.48l12.34 7.12z" fill="#f4ce2c"/><path d="m388.87 248.68-15.19-8.77v-5.48l15.19 8.77z" fill="#a298e2"/><path d="m423.99 268.96-32.27-18.63v-5.48l32.27 18.63z" fill="#ff8657"/><path d="m388.87 257.45-15.19-8.77v-5.48l15.19 8.77z" fill="#a298e2"/><path d="m442.97 288.69-51.25-29.6v-5.48l51.25 29.6z" fill="#a298e2"/><path d="m388.87 231.15-15.19-8.77v-5.48l15.19 8.77z" fill="#a298e2"/><path d="m456.26 270.06-64.54-37.27v-5.48l64.54 37.26z" fill="#4d3bff"/><g fill="#b1b4c4"><path d="m36.12 211.94-9.12-4.68-19.11 11c-4.33 2.5-7.85.48-7.85-4.53v-20.82a17.36 17.36 0 0 1 7.85-13.6l113.81-65.73c4.33-2.5 7.85-.47 7.85 4.53v20.89a17.36 17.36 0 0 1 -7.85 13.6l-76.52 44.14"/><path d="m126.7 112.77 4.3 1.74-3.64 3.74-2.58-4.13z"/><path d="m36.12 211.94 4.53 1.82.01-3.9-4.01-.8z"/><path d="m7.61 221c.17.36-4.91-1.72-5.09-2s6.16-4 6.16-4z"/></g><path d="m49.71 198.55 76.52-44.17a17.39 17.39 0 0 0 7.85-13.6v-20.85c0-5-3.52-7-7.85-4.54l-113.85 65.73a17.38 17.38 0 0 0 -7.85 13.6v20.85c0 5 3.52 7 7.85 4.53l19.11-11 9.16 4.69z" fill="#e9eaf2"/><path d="m123.87 133.53-109.13 63v-7.25l109.13-63.01z" fill="#2f55d4"/><path d="m86.19 167.98-71.45 41.25v-7.26l71.45-41.25z" fill="#2f55d4"/></svg>