<svg enable-background="new 0 0 1200 1200" viewBox="0 0 1200 1200" xmlns="http://www.w3.org/2000/svg"><path d="m896.4 562v427.7c0 31.3-25.3 56.6-56.6 56.6h-332.4c-31.3 0-56.6-25.3-56.6-56.6v-848.6c0-31.3 25.3-56.6 56.6-56.6h332.4c31.3 0 56.6 25.3 56.6 56.6z" fill="#fff"/><path d="m814.6 1064.2-73.5-101.8s-41.4-57.2-67.4-58.2c-.2 15 .8 122.6 5.4 159.9h135.5z" fill="#56cad8"/><path d="m578.2 62.1h190.8c8.7 0 15.7 7 15.7 15.7v24.1c0 8.7-7 15.7-15.7 15.7h-190.8c-8.7 0-15.7-7-15.7-15.7v-24.1c0-8.6 7-15.7 15.7-15.7z" fill="#f3f3f3"/><path d="m882.8 1047.9h13.6v-165.6l-114.6-19-108.2 41c5.1 11.6 32 88.6 89.7 156h119.4v-12.4z" fill="#74d5de"/><path d="m641.7 641.7c-9.3-.2-9.3 14.1-9.3 14.1-4.5-13.4-102.7-257.7-102.7-257.7s-20.3 8.6 3.1 54.8c-7.6 4.5-28.7 21.4-20 48.6 6.6 20.4 21 27.6 30 27.6-1.5 15.3 31.2 171.6 35.5 179.1 10 17.7 29.3 37 40.7 37.5 18.2.9 63-23 74.1-35.5s-33.9-68.2-51.4-68.5z" fill="#de8e68"/><path d="m776.9 555.5c-44.3-39.5-152.4 55.1-150.3 71.5s60.3 75.7 77.4 70.7 107.8-111.2 72.9-142.2z" fill="#fcc486"/><path d="m896.4 562c-19.7-31.9-48.6-52.5-90-52.5-143.7 0-147.8 374-132.8 394.8 13.3 18.4 171.8 23.2 222.8 10.5" fill="#fed385"/><path d="m896.4 698.5-15.1 6.2c1.3 4.8 7.1 31.7 15.1 61.4" fill="#de8e68"/><path d="m896.4 558.7c-10-7.4-20.2-10.4-29.6-6.5-54.2 22.6-15.6 158.5 0 163.5 5 1.6 16.4 0 29.6-3.5" fill="#fed892"/><path d="m834 542.3c0 11.9-65.9 14.5-65.9 0v-81h65.9z" fill="#de8e68"/><ellipse cx="792.3" cy="426.8" fill="#de8e68" rx="80.3" ry="59.7" transform="matrix(.3697 -.9292 .9292 .3697 102.7826 1005.1974)"/><ellipse cx="843.8" cy="454.9" fill="#de8e68" rx="18.9" ry="13.2" transform="matrix(.5823 -.813 .813 .5823 -17.3948 876.0408)"/><path d="m899.2 416.9c0-11-10.3-23.1-12.2-36.9-1-7 1.2-36.1-7-46-17-20.4-27-16.2-40-21-22.6-8.3-31.3-22-50-22-21.2 0-29.8 11-45 11-17.4 0-31.6-8-56-8-13 0-30 17-30 32 0 35.5 33 30.4 33 39 0 6-2 10.8-2 19 0 10.8 14 17 22 17 24.4 0 27.6-3 27.6-3 4.8-9.7 11-18.6 18.4-26.5 1-1 16.8 10.1 42.6 11 21.2.7 36.1 4.8 36.1 14.7 0 7-2.6 27.7-2.4 33.5s2.2 9.6 3.5 9.6 2-1.9 10.2-1.9c8.7 0 9.4 10.7 10.9 10.7 8.8 0 40.3-7.1 40.3-32.2z" fill="#2f55d4"/><path d="m504.5 284.8h49.9c14.8 0 26.8 12 26.8 26.8v49.9c0 14.8-12 26.8-26.8 26.8h-49.9c-14.8 0-26.8-12-26.8-26.8v-49.9c0-14.8 12-26.8 26.8-26.8z" fill="#fed385"/><circle cx="568.8" cy="293.1" fill="#2f55d4" r="21.2"/><path d="m841.6 54h-335.9c-45.2 0-81.9 36.7-81.9 81.9v858.8c0 45.2 36.7 81.9 81.9 81.9h335.9c45.2 0 81.9-36.7 81.9-81.9v-858.8c0-45.2-36.7-81.9-81.9-81.9zm54.8 508v427.7c0 31.3-25.3 56.6-56.6 56.6h-332.4c-31.3 0-56.6-25.3-56.6-56.6v-848.6c0-31.3 25.3-56.6 56.6-56.6h332.4c31.3 0 56.6 25.3 56.6 56.6z" fill="#f3f3f3"/><path d="m893.6 181.1h121.3c21.9 0 39.7 17.8 39.7 39.7s-17.8 39.7-39.7 39.7h-121.3c-21.9 0-39.7-17.8-39.7-39.7 0-22 17.8-39.7 39.7-39.7z" fill="#74d5de"/><path d="m901.1 242-34.4-34.5v69z" fill="#74d5de"/><circle cx="913.3" cy="222.1" fill="#fed385" r="10"/><circle cx="954.3" cy="222.1" fill="#fed385" r="10"/><circle cx="995.2" cy="222.1" fill="#fed385" r="10"/><path d="m351.1 987.3c14.9-6.4 26.5-16.3 26.5-44.8 0-133.5-158-97.5-158-208.4" fill="none" stroke="#74d5de" stroke-linecap="round" stroke-miterlimit="10" stroke-width="9"/><g fill="#74d5de"><path d="m247.4 733.4c8.6 11.2-20.1 23.9-24.2 18.6s15.1-30.5 24.2-18.6z"/><path d="m387.4 537.2c10.4 13.6-20.4 26-25.4 19.5s14.2-34.1 25.4-19.5z"/><path d="m379 593.4c8.3 15-32 27.1-36 19.9s27.2-36 36-19.9z"/><path d="m381.4 636.1c10.9 13.2-26.6 32.4-31.8 26.1s20.2-40.3 31.8-26.1z"/><path d="m394.2 684c10.9 13.2-26.6 32.4-31.8 26.1s20.2-40.2 31.8-26.1z"/><path d="m405.4 728.7c9.9 12-22.9 28.4-27.6 22.6s17-35.5 27.6-22.6z"/><path d="m420.4 777.6c9.9 12-22.9 28.4-27.6 22.6s17-35.5 27.6-22.6z"/><path d="m193 724.6c3.6-13.6 31.3 1.2 29.6 7.8s-33.4 6.8-29.6-7.8z"/><path d="m192.5 772.5c-1.8-13.9 29.5-10.5 30.3-3.8s-28.4 18.8-30.3 3.8z"/><path d="m220.1 816c-9.1-10.7 18.9-25 23.3-19.9s-13.5 31.3-23.3 19.9z"/><path d="m254.8 839.5c-5.5-12.9 25.5-18.1 28.1-11.9s-22.3 25.7-28.1 11.9z"/><path d="m301.3 863.9c-5.5-12.9 25.5-18.1 28.1-11.9s-22.2 25.7-28.1 11.9z"/><path d="m336.2 899.3c-1.2-14 29.9-9.3 30.5-2.6s-29.2 17.6-30.5 2.6z"/><path d="m262.5 763.5c11 8.8-13.8 28.1-19.1 23.9s7.3-33.4 19.1-23.9z"/><path d="m287.4 788.5c12.1 7.2-9.7 29.7-15.5 26.3s2.6-33.9 15.5-26.3z"/><path d="m333.1 813.1c11.4 8.2-12.5 28.7-18 24.7s5.8-33.5 18-24.7z"/></g><path d="m353.9 992.5c0-5.7 48.5-58.9 48.5-125 0-107.8-60.2-161.8-60.2-238.8 0-14.6 1.3-60.4 24.5-79" fill="none" stroke="#74d5de" stroke-linecap="round" stroke-miterlimit="10" stroke-width="9"/><path d="m419.8 1116.4h-88.4c-4.1 0-7.8-2.6-9.1-6.6l-44-133.3c-1.6-5 1.1-10.4 6.1-12.1 1-.3 2-.5 3-.5h176.8c5.3 0 9.6 4.3 9.6 9.6 0 1-.2 2-.5 3l-44.4 133.3c-1.4 4-5 6.6-9.1 6.6z" fill="#2f55d4"/><g fill="#74d5de"><path d="m434.6 833.7c5.2 14.7-31.2 18.9-33.6 11.9s28.1-27.7 33.6-11.9z"/><path d="m375.2 855.3c11.5-10.4 29.5 21.5 23.9 26.5s-36.3-15.3-23.9-26.5z"/><path d="m365.9 815.5c7.6-13.5 34.7 11.1 31.1 17.5s-39.3-3-31.1-17.5z"/><path d="m357.2 768.3c7.6-13.5 34.7 11.1 31.1 17.5s-39.3-3-31.1-17.5z"/><path d="m341.7 730.8c5-14.8 36.2 4.3 33.8 11.4s-39.2 4.3-33.8-11.4z"/><path d="m319.7 679c7.3-13.8 35 10.1 31.5 16.7s-39.2-1.9-31.5-16.7z"/><path d="m309.4 621.4c8.5-13 34 13.3 29.9 19.5s-39-5.5-29.9-19.5z"/><path d="m314.5 571.8c8.5-13 34 13.3 29.9 19.5s-39-5.5-29.9-19.5z"/><path d="m434.6 884.7c5.2 14.7-31.2 18.9-33.6 11.9s28.1-27.6 33.6-11.9z"/></g></svg>