<svg viewBox="0 0 496.36 500" xmlns="http://www.w3.org/2000/svg"><g fill="#b1b4c4"><path d="m418.51 409.33-107.88-62.33c-9.14-5.27-16.55-19.43-16.55-31.61v-300.9c0-12.18 7.41-17.78 16.55-12.5l107.88 62.28c9.14 5.28 16.55 19.44 16.55 31.62v300.93c0 12.18-7.41 17.79-16.55 12.51z"/><path d="m420.36 414.76 8.55-4.32-8.2-14.06z"/><path d="m292.4 4.99 7.87-4.13-1.59 11.6z"/></g><path d="m411.63 412.77-107.88-62.29c-9.14-5.27-16.55-19.43-16.55-31.61v-300.94c0-12.18 7.41-17.78 16.55-12.51l107.88 62.29c9.14 5.28 16.55 19.43 16.55 31.62v300.93c0 12.19-7.41 17.79-16.55 12.51z" fill="#616e84"/><path d="m427 100.1v300.9c0 12.2-7.4 17.79-16.54 12.52l-42.31-24.43-13.15-7.57-52.4-30.27c-9.14-5.28-16.54-19.43-16.54-31.62v-300.93c0-12.19 7.4-17.78 16.54-12.51l107.89 62.28c9.14 5.29 16.51 19.43 16.51 31.63z" fill="#20232d"/><path d="m419.25 97v293.1c0 7.37-5.17 10.38-11.57 6.68l-33.68-19.43-3-1.72-1-.59-7.29-4.2-21.1-12.17-8.75-5.05-3.52-2-23.91-13.8c-6.39-3.69-11.57-12.67-11.57-20.07v-293.12c0-7.39 5.18-10.38 11.57-6.69l42.12 24.32v.12c0 5.75 4 12.74 9 15.61s9 .54 9-5.2c0 0 0-.09 0-.13l42.13 24.34c6.4 3.67 11.57 12.65 11.57 20z" fill="#fff"/><ellipse cx="356.55" cy="50.77" fill="#2b303f" rx="2.79" ry="4.84" transform="matrix(.8660254 -.5 .5 .8660254 22.39 185.08)"/><path d="m356.55 52.43a3.16 3.16 0 0 1 -1.44-2.49c0-.91.64-1.28 1.44-.82a3.16 3.16 0 0 1 1.45 2.48c0 .91-.66 1.28-1.45.83z" fill="#fff" opacity=".1"/><path d="m431.41 139.69c-.88.51-1.59 0-1.59-1.2v-12.83a3.82 3.82 0 0 1 1.59-3c.88-.51 1.59 0 1.59 1.21v12.83a3.81 3.81 0 0 1 -1.59 2.99z" fill="#757b89"/><path d="m431.41 160.72c-.88.5-1.59 0-1.59-1.21v-12.83a3.83 3.83 0 0 1 1.59-3.05c.88-.5 1.59 0 1.59 1.21v12.83a3.83 3.83 0 0 1 -1.59 3.05z" fill="#757b89"/><path d="m399 371.8-84.85-49c-4.4-2.54-8-9.37-8-15.24v-157.56c0-5.88 3.58-8.58 8-6l84.85 49c4.41 2.55 8 9.37 8 15.25v157.6c0 5.79-3.62 8.49-8 5.95z" fill="#e9eaf2"/><g fill="#ced0db"><ellipse cx="335.56" cy="192.78" rx="13.03" ry="22.57" transform="matrix(.8660254 -.5 .5 .8660254 -51.43 193.62)"/><path d="m394 224.41-32.82-18.95v-7.68l32.82 18.95z"/><path d="m386.43 233.85-25.25-14.57v-7.68l25.25 14.58z"/><path d="m394 268.74-74.39-42.95v-7.67l74.39 42.94z"/><path d="m376.83 272.65-57.22-33.04v-7.68l57.22 33.04z"/><path d="m393.74 296.23-74.39-42.95v-7.68l74.39 42.95z"/><path d="m376.58 300.14-57.23-33.04v-7.68l57.23 33.04z"/><path d="m393.74 323.87-74.39-42.95v-7.68l74.39 42.95z"/><path d="m393.08 351.12-74.39-42.95v-7.67l74.39 42.94z"/><path d="m376.58 327.78-57.23-33.04v-7.68l57.23 33.04z"/><path d="m329.61 135.35a2.93 2.93 0 0 1 -1.27-2.09l-5.34-62.48-4.2 26.81c-.1.67-.65.89-1.29.52l-10.21-5.9a2.9 2.9 0 0 1 -1.3-2.27c0-.83.59-1.17 1.31-.76l9.1 5.26 5.59-35.84c.1-.68.69-.89 1.33-.49a3 3 0 0 1 1.26 2.08l5.24 61.56 5-36.86c.09-.68.62-.91 1.25-.57a2.92 2.92 0 0 1 1.32 2l6 35.93 5.84-47c.08-.7.64-.94 1.29-.57a2.89 2.89 0 0 1 1.3 2l6.94 60.92 5.76-30c.12-.62.64-.82 1.26-.49a3 3 0 0 1 1.27 1.88l5.86 30.2 5.25-45.46c.08-.69.62-.95 1.27-.59a2.83 2.83 0 0 1 1.32 2l6.45 48 4.52-21c.12-.6.62-.8 1.21-.49a2.88 2.88 0 0 1 1.31 1.8l4.36 17.93 9.37 5.26a2.88 2.88 0 0 1 1.31 2.25c0 .84-.56 1.19-1.29.79l-10.33-5.8a3 3 0 0 1 -1.25-1.77l-3.17-13-4.93 23c-.13.63-.68.84-1.31.43a2.92 2.92 0 0 1 -1.26-2l-6.09-45.27-5 43.35c-.08.67-.59.93-1.22.61a2.85 2.85 0 0 1 -1.35-1.92l-6.09-31.65-6.14 31.91c-.13.65-.7.83-1.33.45a3 3 0 0 1 -1.26-2l-6.67-58.66-5.6 44.83c-.08.68-.61.93-1.25.59a3 3 0 0 1 -1.33-2l-6-36.26-5.5 40.25c-.11.72-.66.95-1.31.58z"/></g><path d="m344.14 101.42c2.09-3.36 18.07-5.57 23.32 8 2 5.13 1.69 18.25 3.36 26.5s5.59 12.91 7 19.6-.89 17.89-17 19.87-28.51-3.67-32.31-8.81-3.89-16.06.07-21.92 6.95-10.64 6.86-18.27z" fill="#2b2a30"/><path d="m354.69 99.09s-12-3.47-19.32 3c-6.67 5.94-6.11 14-5.14 17.83s2.91 9 5.93 9.27 18.53-30.1 18.53-30.1z" fill="#2b2a30"/><path d="m359.29 131.89s-.79 13.41-.55 14.39 5.27 1.94 6.67 3.11-7.29 14.77-11.71 16.79-18.12-3.13-19.07-10c-.87-6.27 3.92-11.14 5.77-12.84a27.21 27.21 0 0 1 3.78-.1l.4-6.5c6-1.86 14.71-4.85 14.71-4.85z" fill="#ffcea9"/><path d="m326.87 157.22c-.08-.37-2 .71-2.05.74s-.95 34.4-2.65 37.51c-4.28 7.31-15.66 19.66-15.94 21.05-.84 4.17 1.58.43 5.49 0 2.2-.27 15.11-13.34 18-16.32l.18.11c0-.12 0-.23.05-.34l.38-.39a17.16 17.16 0 0 0 .09-2.78c5.37-37.37-1.23-39.86-3.55-39.58z" fill="#ffcea9"/><path d="m323.94 162.5-.68 16.56-1.09 13.05s.21 1.75-1.71 4.81-12.18 15.77-12.18 15.77l4.64 3.85 10.57-8.68 7-46.76-3.68-4.55z" fill="#fff"/><path d="m361.13 147.59c3.76.58 8.07 2.59 8.66 4.65.69 2.41 2.18 13.75-1.08 22.38s-5.46 14.12-7.33 17.83c0 0-16.3 7-29.44-1.16 0 0-.9-9.24-1-14.19-12.13-10.58-1.76-23.63 8.51-33.76a20.85 20.85 0 0 1 3.7-.05s-9.16 10.84-2.79 17c13.69-4.13 16.4-10.29 20.77-12.7z" fill="#f4f4f4"/><path d="m334.24 115.28c1.36-8.61 7.58-15.12 16.46-14.6a17.07 17.07 0 0 1 8.59 31.21 17.47 17.47 0 0 1 -1.37 3.77c-3.15 3.66-11.51 6-14.27 6-2.38 0-4.44-2.2-6.67-5.9-4.66-7.68-3.48-16.22-2.74-20.48z" fill="#ffcea9"/><path d="m353.45 100.84c6.23 1.22 11.36 3 13.05 9.09 1.16 4.21 2.67 12.25 1.23 15.63l-.9 2.44-7.54 3.89s-3.52-2.93-2.43-11.53a6.1 6.1 0 0 0 -1.06-3.26 10 10 0 0 1 -1-2.6c-.76-2.4-2.69-4-4.89-5.29-5.62-3.15-13.84-.43-15 .71 3.76-7.78 11.3-10.5 18.54-9.08z" fill="#2b2a30"/><path d="m375.56 237.18c-1 10.88-7.06 57.12-7.06 57.12a86 86 0 0 1 3.74 24c-.06 6.73-1.82 18.15-3.81 28.73l-3.49 25.15-8.33-4.82.33-18.75c-.43-6.28-1.05-15.55-1.45-21.48-.65-9.64-2.38-25-2.88-28.78s-1.72-10.5-2.31-18-3.41-45.55-3.41-45.55l-.39 7.13s-.37 11.58-2 25.84-2.26 20.62-2.26 20.62 2.89 5.3 3.26 9.21c.3 3.09 3.82 27.49 1.71 39.91l-3.09 22.62-10-5.74-1.29-16.15c-1.71-12.1-5.32-37.76-5.88-41.1-.72-4.39-1.32-6.55-2.16-20.35s-.53-43.77.86-54.64 5.4-26.66 5.4-26.66a32 32 0 0 0 12.06 3c7 .36 18.25-1.77 18.25-1.77a110 110 0 0 0 6.43 9.95c3.15 4.33 9.21 13.86 7.77 30.51z" fill="#ffcea9"/><path d="m361.38 192.45 9.36 18.81s14.29 20.91-.52 74.67l2.78 16.58s-28 18-46.77 0c0 0-6.51-49.68-3.05-72.59a263.09 263.09 0 0 1 8.73-38.92s4.59 5.07 28.22 1.72" fill="#2f55d4"/><path d="m339.49 143.34s-13.86 2.26-15.55 19.16l3.17-3.17s7.77-11.76 12.38-15.99z" fill="#fff"/><path d="m343.19 143.29c-3.58 6.91-13 18.2-10.33 30.42 3.54 16.29-3.24 113.9-3.24 113.9s-8-5.07-8-9.13 3-109.42 3-114.41 8.76-13.85 14.71-20.77a13.79 13.79 0 0 1 4.91-.81c0 .37 0 .42-.05.8-.3.02-.47 0-1 0z" fill="#fff"/><path d="m281.42 232.72 32-18.6 22.98 13.27-32.01 18.6z" fill="#f4f4f4"/><path d="m309.29 215.48c-2 .46-4 .61-5.68 1.86a13.68 13.68 0 0 1 -2 1.48c-.32.17-.63.37-1 .51a3.1 3.1 0 0 0 -1.28.85 3.16 3.16 0 0 0 -.57 1.77 7.53 7.53 0 0 0 -.11 2.32c.28 1.15 1.47 1.06 2.1.26a2.46 2.46 0 0 0 .53-1.4 3.08 3.08 0 0 1 1.35-2.45l7.65-4.75a.93.93 0 0 0 -.99-.45z" fill="#ffcea9"/><path d="m371.47 173.06s-.26 28.71.79 38 14.3 36.51 2.63 73.44c-1.72 2-3.3 6.05-18 7.75-8.77 0-11.95-1.34-11.95-1.34s3.39-61.93-1.53-116.31c0-15 12.9-13.26 15.29-29.88 11.39 5.32 11.4 7 11.4 7z" fill="#fff"/><path d="m365.69 151.4c-6.27.7-7.09 8.65-7.09 8.65l-.29 12.17s.68 15.52 2.48 20.25l-27.2 18.69 5.93 6.91s28.74-13.27 31-15.37 0-26.45.35-33.46c1.51-13.24 1.13-18.54-5.18-17.84z" opacity=".1"/><path d="m370.19 158.13c-1.06-4.35-4.47-2.95-7.4-5.5-6.81 9.63-2.29 35.68-1.37 38.46l-26.12 16.65c-.42.28-1.32.83-1.75 1.1-2.37 1.43-6.93 3.91-9.71 4.23-2.62.3-4 4-6.78 4.31a1.08 1.08 0 0 0 -.71 1.86c1.12 1.08 4.11.19 6.15-2.2a1 1 0 0 0 0 .18 2 2 0 0 0 1.64 2 .94.94 0 0 0 .14.49 2 2 0 0 0 1.56 1.13 2 2 0 0 0 2.15 1.39 2.37 2.37 0 0 0 1.57-.72 13.81 13.81 0 0 0 5.71-4.12 57 57 0 0 1 4.24-3.94c7.09-3.05 28.35-12.13 29.3-13.42 1.38-1.91 2.89-35.69 1.38-41.9z" fill="#ffcea9"/><path d="m364.64 149.3c-6.27.7-7.09 8.65-7.09 8.65l-.29 12.16s.68 15.53 2.47 20.26l-27.19 18.69 5.93 6.91s28.74-13.27 30.95-15.37 2.77-23.74 3.15-30.74c1.56-13.22-1.65-21.26-7.93-20.56z" fill="#fff"/><ellipse cx="169.8" cy="450.86" fill="#d6d8e5" opacity=".4" rx="49.46" ry="28.56"/><path d="m134.56 239.1c-.55 4.81-6.29 25.56-5.06 32.67s20.84 19 20.84 19l2.72-12.17-10.86-10.6 2.93-20.15z" fill="#ffcea9"/><path d="m149.73 218.65c-2.8-1.21-8-1.48-10.92 3.3s-5.88 21.16-6.15 24c0 0 4.05 5.59 10.12 4.66z" fill="#ededed"/><path d="m172.12 450a16.84 16.84 0 0 0 12.69-1.54c3.05.09 19.64-7 21.9-1.05 2 5.23-5.21 10.06-9.05 11-8.38 2-14.58 6.21-17.95 6.92-2.5.53-5.75.88-7.75-1.09-2.39-2.36-2.19-11.11.16-14.24z" fill="#1d3892"/><path d="m179.71 463.89c3.37-.7 9.57-4.88 17.95-6.91 3.22-.78 8.76-4.3 9.32-8.5.74 4.81-5.74 9.08-9.32 9.94-8.38 2-14.58 6.21-17.95 6.92-2.5.53-5.75.88-7.75-1.09a5 5 0 0 1 -1.1-2c2.92 2.42 6.35 2.17 8.85 1.64z" fill="#2f55d4"/><path d="m145.21 437.93a16.78 16.78 0 0 0 12.69-1.53c3.06.09 19.64-7 21.9-1 2 5.23-5.21 10.06-9.05 11-8.38 2-14.58 6.21-17.94 6.92-2.51.53-5.76.88-7.75-1.1-2.4-2.42-2.19-11.17.15-14.29z" fill="#1d3892"/><path d="m152.81 451.81c3.36-.71 9.56-4.88 17.94-6.91 3.22-.78 8.76-4.31 9.32-8.5.75 4.81-5.74 9.08-9.32 9.94-8.38 2-14.58 6.21-17.94 6.92-2.51.53-5.76.88-7.75-1.1a4.76 4.76 0 0 1 -1.1-2c2.91 2.42 6.34 2.18 8.85 1.65z" fill="#2f55d4"/><path d="m144.88 392.86a101.35 101.35 0 0 1 3.83-18.17s-1.14-15.69-1.71-30.55c-.65-16.87-6.5-31.72-1.89-45.18l52.06 11.58s-3.15 67.26-3.85 75.4a151.22 151.22 0 0 1 -2.32 18.88c-2.38 13.06-6.24 44.12-6.24 44.12-5.51 3.2-12.73 1.43-12.73 1.43s.4-39.28.75-48.69c.43-11.49.78-10.61.78-10.61l-1.72-28.61-1.12-14.24s-1.44 10.45-2.38 19.78c-.82 8.14-2.78 15.5-5 30.64-1.9 13.14-5 39.54-5 39.54-5.5 3.2-13 .55-13 .55s-1.95-34.47-.46-45.87z" fill="#2f55d4"/><path d="m152.48 218.93c4 .2 6.92 1.22 7.42 0a52.39 52.39 0 0 0 .9-6.2c-.46-1.15-.85-2.38-.85-2.38-5-3.07-6.55-8.45-7.21-14.71-1.11-10.71 4.67-20.09 15.38-21.21 10.07-1 17.48 6 19.45 15.75 1.07 4.79 3.19 13.86.32 21.75-1.6 4.41-3.66 7.91-5.73 8.59a51.23 51.23 0 0 1 -5.95-.52s-.53 3-.9 4.88-.22 2.92 3.58 5.27-5.75 7.15-12 6.68-13.25-4.24-15.18-8.28c-2.13-4.45-1.95-9.75.77-9.62z" fill="#ffcea9"/><path d="m158.22 219.52c-1.1 2.74 1.69 6.09 9.14 8.43s8.11-.67 8.11-.67 10.92 5 14.47 7.45c4.47 3.13 6.45 12.17 7.06 27.43.69 17.66.75 43.86.17 48.38 0 0-8.35 8.32-19 7.44s-28.67-10.33-33-17.64c.12-15.48 1.93-18-.58-26.92-5.74-20.42-8.76-28.78-6-42.35 2.3-11.19 5.52-12.58 9.94-12.47a92 92 0 0 1 9.69.92z" fill="#f4f4f4"/><path d="m213.8 276.76c-8.77 2.21-10.83-3.32-12-7.9-2.79-11.09-4.29-21.1-6.37-27.39-2.45-7.42-5-8.61-8.62-10.05-4.24-1.7-7.88 1.88-6.47 11.32 1.67 11.18 3.86 19 8 32.25 1.09 3.45 3.53 9.59 7.2 12.55 4.52 3.66 11.34 3.5 21.65.94 4.4-1.1 9.22-3.73 17.54-7.61 2.23-1 4-1.73 8.25-3.73s8.75-5.33 11-8.58 2.54-4.78 2.08-5.52c-.57-.93-1.59-.73-2.79.64a23.8 23.8 0 0 1 -6.31 5.84s2.77-2.86 4.27-4.72a23.58 23.58 0 0 0 3.32-5.42c.79-1.9-.84-4.47-2.08-3.12s-1.83 2.73-4.1 5.45a23.73 23.73 0 0 1 -4.07 3.87 44.57 44.57 0 0 0 3.75-6c1.44-2.94 1.42-4.45 1.36-5.44s-1.46-2.17-2.77-.3c-1.19 1.69-2 4.33-4.71 7.2-2 2.08-3.71 3.28-3.76 2.7s1.21-1.72 1.93-4.14 0-5-1.34-5.26-1.08-.2-2.16 2.06-2.72 3.94-4 7.25c-1.11 2.91-1.61 4.09-3.61 6.21-2.09 2.26-6.85 4.8-15.19 6.9z" fill="#ffcea9"/><path d="m183.57 229.9c5.86-.86 10 1.78 12.58 10.65s4.4 16.16 4.4 16.16a15.94 15.94 0 0 1 -9.81 6.51c-7 1.7-9.53-1.65-9.53-1.65s-2-9.3-3.16-15.63-1.73-14.94 5.52-16.04z" fill="#ededed"/><path d="m187.23 188.81s9.26-14.07-10.79-16.94c-14.46-2.06-23.76 7.23-24.83 17.31-1 9.63 4.91 19.63 9.19 23.6 2.09.75 6.59 1.18 12.5-1.51a70.89 70.89 0 0 0 .27-7.89s-7.05-14.83 13.66-14.57z" fill="#1d3892"/><ellipse cx="54.58" cy="348.37" fill="#d6d8e5" opacity=".4" rx="23.98" ry="13.85"/><ellipse cx="58" cy="345.8" fill="#d6d8e5" rx="23.98" ry="13.85"/><path d="m25.9 298.46 8.39 48.3h47.63l8.19-47.95z" fill="#d6d8e5"/><ellipse cx="58" cy="297.86" fill="#e4e6ef" rx="32.13" ry="18.55"/><path d="m58 312.32c-7.87 0-15.21-1.73-20.67-4.88-4.68-2.71-7.37-6.2-7.37-9.58s2.69-6.87 7.37-9.57c5.45-3.15 12.8-4.89 20.67-4.89s15.22 1.74 20.68 4.89c4.68 2.7 7.36 6.19 7.36 9.57s-2.68 6.87-7.36 9.58c-5.46 3.15-12.8 4.88-20.68 4.88z" fill="#28221c"/><path d="m71.83 283.25s-.63-39.16-13.83-53c-16.11 14.18-13.56 53.06-13.56 53.06l13.76 25c1.8.06 13.63-25.06 13.63-25.06z" fill="#99b524"/><path d="m58.2 308.28s-7.33-46.92-34.57-64.55c0 0-4.86 64.27 34.57 64.55z" fill="#a6ce28"/><path d="m58 308.28s6.61-46 33.16-62.6c0 0 6.27 62.32-33.16 62.6z" fill="#a6ce28"/><ellipse cx="342.45" cy="486.17" fill="#d6d8e5" opacity=".4" rx="23.95" ry="13.83"/><ellipse cx="346.01" cy="485.28" fill="#d9dce8" rx="23.95" ry="13.83"/><path d="m322.06 485.06v-6.94l7.61 2.55z" fill="#d9dce8"/><path d="m369.94 478.61v6.23l-8.77-1.72z" fill="#d9dce8"/><ellipse cx="346.01" cy="478.17" fill="#eff1f9" rx="23.95" ry="13.83"/><path d="m330.31 488.61-2.6-1.5 33.77-19.49 2.59 1.5z" fill="#d3d6e2"/><path d="m327.71 487.11v7.1l2.36 1.4.33.16v-7.16z" fill="#c5c8d3"/><ellipse cx="23.95" cy="461.12" fill="#d6d8e5" opacity=".4" rx="23.95" ry="13.83"/><ellipse cx="27.51" cy="460.23" fill="#d9dce8" rx="23.95" ry="13.83"/><path d="m3.56 460v-6.95l7.61 2.56z" fill="#d9dce8"/><path d="m51.44 453.56v6.23l-8.77-1.73z" fill="#d9dce8"/><ellipse cx="27.51" cy="453.12" fill="#eff1f9" rx="23.95" ry="13.83"/><path d="m11.81 463.56-2.59-1.5 33.76-19.49 2.6 1.5z" fill="#d3d6e2"/><path d="m9.22 462.06v7.1l2.35 1.39.33.17v-7.16z" fill="#c5c8d3"/><ellipse cx="468.86" cy="447.32" fill="#d6d8e5" opacity=".4" rx="23.95" ry="13.83"/><ellipse cx="472.41" cy="446.43" fill="#d9dce8" rx="23.95" ry="13.83"/><path d="m448.47 446.21c0-.06 0-6.95 0-6.95l7.62 2.56z" fill="#d9dce8"/><path d="m496.35 439.76v6.23l-8.77-1.73z" fill="#d9dce8"/><ellipse cx="472.41" cy="439.32" fill="#eff1f9" rx="23.95" ry="13.83"/><path d="m456.72 449.76-2.6-1.5 33.76-19.49 2.6 1.5z" fill="#d3d6e2"/><path d="m454.12 448.26v7.1l2.36 1.39.33.17v-7.16z" fill="#c5c8d3"/></svg>