<svg height="481pt" viewBox="-45 0 481 481.67945" width="481pt" xmlns="http://www.w3.org/2000/svg"><path d="m241.390625 385.679688c.058594-40.582032 29.082031-75.339844 69-82.632813-33.105469-6.046875-66.628906 8.246094-85.183594 36.328125-18.550781 28.082031-18.550781 64.527344 0 92.609375 18.554688 28.078125 52.078125 42.375 85.183594 36.328125-39.917969-7.296875-68.941406-42.050781-69-82.632812zm0 0" fill="#d4e1f4"/><path d="m180.535156 379.617188c-3.3125 0-6 2.683593-6 6 0 3.3125 2.6875 6 6 6h9.371094c3.3125 0 6-2.6875 6-6 0-3.316407-2.6875-6-6-6zm0 0" fill="#2f55d4"/><path d="m6.339844 434.078125h210.113281v-12h-59.65625v-45.699219l68.148437-66.269531 20.277344 6.875 3.851563-11.367187-28.570313-9.683594c29.746094-11.296875 46.890625-42.515625 40.460938-73.679688l-7.878906-38.175781c10.191406-6.242187 15.175781-18.351563 12.335937-29.957031-1.742187-7.328125-7.125-13.25-14.257813-15.683594l.136719-37.632812c.167969-55.507813-44.695312-100.636719-100.199219-100.804688-55.507812-.164062-100.640624 44.695312-100.804687 100.203125l.09375 32.378906v.140625l.128906 5.75c-7.085937 2.453125-12.429687 8.355469-14.167969 15.648438-3.105468 12.710937 3.171876 25.847656 15.015626 31.414062l-9.382813 35.257813c-8.234375 30.902343 7.296875 63.195312 36.582031 76.054687l-43.480468 14.738282c-20.773438 7.035156-34.753907 26.53125-34.746094 48.464843v68.027344c0 3.316406 2.6875 6 6 6zm105.027344-135.671875 33.433593 33.34375v27.710938l-55.199219-53.679688zm71.449218-9.371094-31.929687 31.84375-31.921875-31.84375v-14.957031c7.683594 2.34375 15.667968 3.535156 23.699218 3.535156h16.453126c8.03125 0 16.015624-1.191406 23.699218-3.535156zm-26.015625 70.601563v-27.707031l33.617188-33.523438 21.765625 7.375zm81.957031-91.339844c-9.777343 12.28125-24.527343 19.558594-40.222656 19.847656-.265625.007813-.527344.03125-.785156.074219l-2.933594-.996094v-17.855468c10.570313-5.179688 20.039063-12.351563 27.886719-21.121094 10.839844-12.054688 18.609375-26.546875 22.65625-42.242188l3.847656 18.675782c3.191407 15.371093-.640625 31.363281-10.453125 43.617187zm-87.960937-256.617187c23.570313 0 46.167969 9.402343 62.78125 26.121093s25.871094 39.375 25.71875 62.941407l-.113281 31.78125c-25.390625-1.230469-49.550782-11.324219-68.265625-28.523438 12.578125-9.917969 24.855469-23.625 35.597656-42.636719 1.09375-1.867187 1.09375-4.179687 0-6.046875-1.089844-1.871094-3.101563-3.007812-5.265625-2.976562s-4.144531 1.226562-5.179688 3.125c-33.492187 59.28125-81.75 61.972656-104.941406 63.269531l-.339844.019531c-5.589843.3125-10.863281 4.25-13.765624 10.28125-.832032 1.691406-2.214844 3.046875-3.917969 3.847656-3.21875 1.523438-7.046875.859376-9.566407-1.652343l-1.15625-1.15625-.085937-29.890625c.050781-48.855469 39.644531-88.449219 88.5-88.503906zm-102.789063 145.292968c1.027344-4.3125 4.746094-7.453125 9.171876-7.75 2.632812-.242187 4.796874-2.179687 5.328124-4.769531 9.808594 3.578125 20.738282-.828125 25.320313-10.210937 1.027344-2.125 2.648437-3.453126 3.628906-3.507813l.335938-.019531c14.714843-.824219 41.875-2.34375 69.140625-19.636719 21.183594 20.308594 49.046875 32.203125 78.367187 33.457031.554688 2.546875 2.695313 4.441406 5.292969 4.6875 4.425781.292969 8.144531 3.4375 9.175781 7.75.292969 1.210938.441407 2.449219.441407 3.695313.015624 7.503906-5.375 13.925781-12.765626 15.214843-2.871093.503907-4.964843 2.996094-4.964843 5.910157v.128906c-.175781 21.546875-8.242188 42.277344-22.683594 58.273437-8.269531 9.300782-18.652344 16.480469-30.273437 20.941407h-.710938v.261719c-7.59375 2.777343-15.613281 4.203124-23.699219 4.214843h-16.449219c-8.082031-.011719-16.105468-1.4375-23.699218-4.214843v-.261719h-.707032c-11.621093-4.460938-22.007812-11.640625-30.277343-20.941407-14.4375-15.996093-22.507813-36.726562-22.679688-58.273437v-.128906c0-2.914063-2.09375-5.40625-4.964843-5.910157-7.394532-1.285156-12.785157-7.710937-12.769532-15.214843 0-1.246094.144532-2.484375.441406-3.695313zm13.398438 110.890625c-8.992188-12.78125-11.855469-28.890625-7.824219-43.984375l3.820313-14.355468c4.257812 14.359374 11.664062 27.585937 21.679687 38.722656 7.847657 8.769531 17.316407 15.945312 27.882813 21.125v17.851562l-8.03125 2.722656c-15.117188-1.574218-28.8125-9.632812-37.53125-22.082031zm-49.066406 92.1875c-.003906-16.792969 10.695312-31.71875 26.601562-37.101562l37.890625-12.84375 67.96875 66.09375v45.878906h-132.460937zm0 0" fill="#2f55d4"/><g fill="#2eca8b"><path d="m295.390625 289.679688c-53.019531 0-96 42.980468-96 96 0 53.019531 42.980469 96 96 96s96-42.980469 96-96c-.058594-52.996094-43.003906-95.941407-96-96zm0 180c-46.390625 0-84-37.609376-84-84 0-46.390626 37.609375-84 84-84 46.394531 0 84 37.609374 84 84-.050781 46.371093-37.628906 83.949218-84 84zm0 0"/><path d="m288.640625 344.539062c-.851563-2.550781-4.042969-3.828124-7.234375-3.828124s-6.277344 1.277343-7.125 3.828124l-21.167969 68.929688c-.089843.308594-.125.632812-.109375.957031 0 2.765625 3.9375 4.679688 7.023438 4.679688 1.914062 0 3.398437-.640625 3.933594-2.339844l4.363281-15.101563h26.273437l4.359375 15.101563c.53125 1.699219 2.023438 2.339844 3.828125 2.339844 3.191406 0 7.128906-2.023438 7.128906-4.679688-.019531-.328125-.09375-.652343-.214843-.957031zm-17.875 48.078126 10.636719-36.484376 10.636718 36.484376zm0 0"/><path d="m323.949219 341.347656c-2.765625 0-5.636719 1.066406-5.636719 3.617188v70.414062c0 2.449219 2.871094 3.722656 5.636719 3.722656 2.875 0 5.636719-1.273437 5.636719-3.722656v-70.414062c0-2.550782-2.761719-3.617188-5.636719-3.617188zm0 0"/></g></svg>