<svg id="Layer_1" height="512" viewBox="0 0 512 512" width="512" xmlns="http://www.w3.org/2000/svg" data-name="Layer 1"><path d="m346.84 269.473-124.206-51.715c-.114-.048-.223-.094-.325-.14.1-.046.211-.093.325-.14l124.206-51.717c.422-.175.87-.336 1.333-.487-6.167-2.011-15.719-1.85-21.333.487l-124.206 51.717c-.114.047-.223.094-.325.14.1.046.211.092.325.14l124.206 51.715c5.615 2.338 15.168 2.5 21.334.487-.464-.151-.912-.311-1.334-.487z" fill="#d4e1f4"/><path d="m343.955 344.178c-17.225-15.719-43.255-39.473-71.43-39.473h-.776v-45.171l-20-8.327v53.5h.776c28.175 0 54.205 23.754 71.43 39.473 4.728 4.314 10.5 9.582 13.117 11.072 2.052-1.195 6.056-4.723 9.96-8.273-1.046-.948-2.084-1.896-3.077-2.801z" fill="#d4e1f4"/><g fill="#2f55d4"><path d="m57.749 477.307h224a34.051 34.051 0 0 0 33.561-28.568 34.049 34.049 0 0 0 28.439-33.539v-53.3a6 6 0 0 0 -12 0v53.3a22.025 22.025 0 0 1 -22 22h-223a22.025 22.025 0 0 1 -22-22v-346.507a22.025 22.025 0 0 1 22-22h169v51.29a26.029 26.029 0 0 0 26 26h50v32.143a6 6 0 0 0 12 0v-38.143a5.937 5.937 0 0 0 -.03-.6c-.012-.118-.033-.233-.052-.349-.012-.076-.02-.153-.035-.229-.028-.14-.065-.276-.1-.413-.014-.05-.024-.1-.039-.151-.042-.138-.092-.271-.143-.4-.018-.048-.034-.1-.053-.145-.051-.124-.11-.243-.17-.363-.027-.055-.051-.112-.08-.167-.057-.107-.122-.21-.185-.313-.039-.063-.074-.128-.115-.189-.061-.093-.13-.181-.2-.27-.05-.067-.1-.135-.151-.2-.068-.083-.142-.161-.215-.241-.052-.058-.1-.119-.156-.175l-76-77.29-.021-.019c-.08-.081-.166-.155-.25-.231-.061-.054-.119-.113-.182-.165q-.216-.178-.449-.336l-.016-.013a5.962 5.962 0 0 0 -2.757-1c-.2-.02-.4-.031-.6-.031h-175a34.047 34.047 0 0 0 -33.815 30.46 34.048 34.048 0 0 0 -29.186 33.653v344.5a34.039 34.039 0 0 0 34 34.001zm210-379.324v-42.631l55.686 56.631h-41.686a14.015 14.015 0 0 1 -14-14zm-232 .823a22.035 22.035 0 0 1 17-21.42v337.814a34.038 34.038 0 0 0 34 34h216.191a22.033 22.033 0 0 1 -21.191 16.106h-224a22.025 22.025 0 0 1 -22-22z"/><path d="m245.749 152.434h-93.5a6 6 0 0 0 0 12h93.5a6 6 0 0 0 0-12z"/><path d="m106.526 164.434h21.546a6 6 0 0 0 0-12h-21.546a6 6 0 1 0 0 12z"/><path d="m106.526 228.94h59.223a6 6 0 0 0 0-12h-59.223a6 6 0 0 0 0 12z"/><path d="m221.749 287.448a6 6 0 0 0 -6-6h-65.783a6 6 0 0 0 0 12h65.783a6 6 0 0 0 6-6z"/><path d="m106.526 293.448h19.411a6 6 0 1 0 0-12h-19.411a6 6 0 0 0 0 12z"/><path d="m223.966 357.955h21.783a6 6 0 0 0 0-12h-21.783a6 6 0 0 0 0 12z"/><path d="m106.526 357.955h91.933a6 6 0 0 0 0-12h-91.933a6 6 0 0 0 0 12z"/></g><path d="m469.749 309.318v-76.911l8.577-3.571c8.11-3.377 9.32-8.478 9.32-11.218s-1.21-7.842-9.32-11.218l-124.206-51.717c-8.944-3.723-22.951-3.723-31.893 0l-124.206 51.717c-8.11 3.376-9.321 8.477-9.321 11.218s1.211 7.841 9.321 11.218l41.728 17.374v64.495a6 6 0 0 0 6 6h6.776c23.523 0 47.485 21.867 63.341 36.337 10.991 10.03 16.069 14.465 21.236 14.465 5.1 0 9.863-4.178 21.089-14.473 15.778-14.467 39.62-36.329 62.418-36.329h7.14a6 6 0 0 0 6-6v-63.305l24-9.992v71.31a25.761 25.761 0 1 0 12 .6zm-267.44-91.7c.1-.046.211-.093.325-.14l124.206-51.717c6.035-2.513 16.628-2.514 22.667 0l124.206 51.717c.114.047.222.094.325.14-.1.046-.211.092-.325.14l-124.205 51.715c-6.037 2.513-16.631 2.513-22.668 0l-124.206-51.715c-.114-.048-.223-.094-.325-.14zm219.44 87.087h-1.14c-27.467 0-53.38 23.761-70.528 39.485-4.688 4.3-10.413 9.548-13.009 11.06-2.617-1.49-8.389-6.758-13.117-11.072-17.225-15.719-43.255-39.473-71.43-39.473h-.776v-53.5l70.479 29.344a46.932 46.932 0 0 0 31.892 0l67.629-28.158zm40.743 43.232a13.829 13.829 0 0 1 -.9-27.624 5.87 5.87 0 0 0 3.6.225 13.841 13.841 0 0 1 -2.7 27.4z" fill="#2eca8b"/></svg>