<svg height="712" viewBox="0 0 904 712" width="904" xmlns="http://www.w3.org/2000/svg" xmlns:xlink="http://www.w3.org/1999/xlink"><defs><linearGradient id="a" x1="0%" y1="50%" y2="50%"><stop offset="0" stop-color="#fff"/><stop offset="1" stop-color="#fff" stop-opacity="0"/></linearGradient><path id="b" d="m8 0h249.565a8 8 0 0 1 8 8v41.602a8 8 0 0 1 -8 8h-249.565a8 8 0 0 1 -8-8v-41.602a8 8 0 0 1 8-8z"/><filter id="c" height="205.9%" width="123%" x="-11.5%" y="-40.8%"><feOffset dy="7" in="SourceAlpha" result="shadowOffsetOuter1"/><feGaussianBlur in="shadowOffsetOuter1" result="shadowBlurOuter1" stdDeviation="9"/><feColorMatrix in="shadowBlurOuter1" values="0 0 0 0 0.596078431 0 0 0 0 0.494117647 0 0 0 0 0.925490196 0 0 0 0.5 0"/></filter><path id="d" d="m7.2 0h251.165a7.2 7.2 0 0 1 7.2 7.2v43.202a7.2 7.2 0 0 1 -7.2 7.2h-251.165a7.2 7.2 0 0 1 -7.2-7.2v-43.202a7.2 7.2 0 0 1 7.2-7.2z"/><filter id="e" height="205.9%" width="123%" x="-11.5%" y="-40.8%"><feOffset dy="7" in="SourceAlpha" result="shadowOffsetOuter1"/><feGaussianBlur in="shadowOffsetOuter1" result="shadowBlurOuter1" stdDeviation="9"/><feColorMatrix in="shadowBlurOuter1" values="0 0 0 0 0.596078431 0 0 0 0 0.494117647 0 0 0 0 0.925490196 0 0 0 0.5 0"/></filter><path id="f" d="m7.2 0h251.165a7.2 7.2 0 0 1 7.2 7.2v43.202a7.2 7.2 0 0 1 -7.2 7.2h-251.165a7.2 7.2 0 0 1 -7.2-7.2v-43.202a7.2 7.2 0 0 1 7.2-7.2z"/><filter id="g" height="205.9%" width="123%" x="-11.5%" y="-40.8%"><feOffset dy="7" in="SourceAlpha" result="shadowOffsetOuter1"/><feGaussianBlur in="shadowOffsetOuter1" result="shadowBlurOuter1" stdDeviation="9"/><feColorMatrix in="shadowBlurOuter1" values="0 0 0 0 0.596078431 0 0 0 0 0.494117647 0 0 0 0 0.925490196 0 0 0 0.5 0"/></filter><path id="h" d="m7.2 0h251.165a7.2 7.2 0 0 1 7.2 7.2v43.202a7.2 7.2 0 0 1 -7.2 7.2h-251.165a7.2 7.2 0 0 1 -7.2-7.2v-43.202a7.2 7.2 0 0 1 7.2-7.2z"/><filter id="i" height="205.9%" width="123%" x="-11.5%" y="-40.8%"><feOffset dy="7" in="SourceAlpha" result="shadowOffsetOuter1"/><feGaussianBlur in="shadowOffsetOuter1" result="shadowBlurOuter1" stdDeviation="9"/><feColorMatrix in="shadowBlurOuter1" values="0 0 0 0 0.596078431 0 0 0 0 0.494117647 0 0 0 0 0.925490196 0 0 0 0.5 0"/></filter><path id="j" d="m7.2 0h251.165a7.2 7.2 0 0 1 7.2 7.2v43.202a7.2 7.2 0 0 1 -7.2 7.2h-251.165a7.2 7.2 0 0 1 -7.2-7.2v-43.202a7.2 7.2 0 0 1 7.2-7.2z"/><filter id="k" height="205.9%" width="123%" x="-11.5%" y="-40.8%"><feOffset dy="7" in="SourceAlpha" result="shadowOffsetOuter1"/><feGaussianBlur in="shadowOffsetOuter1" result="shadowBlurOuter1" stdDeviation="9"/><feColorMatrix in="shadowBlurOuter1" values="0 0 0 0 0.596078431 0 0 0 0 0.494117647 0 0 0 0 0.925490196 0 0 0 0.5 0"/></filter><mask id="l" fill="#fff"><path d="m0 .1h23.677v3.964h-23.677z" fill="#fff" fill-rule="evenodd"/></mask><mask id="m" fill="#fff"><path d="m0 .1h4.757v3.964h-4.757z" fill="#fff" fill-rule="evenodd"/></mask></defs><g fill="none" fill-rule="evenodd"><g transform="translate(114.844 108.53)"><path d="m14.4 0h774.6v603h-774.6c-7.953 0-14.4-6.447-14.4-14.4v-574.2c0-7.953 6.447-14.4 14.4-14.4z" fill="#f2f6ff" opacity=".2"/><path d="m28 32h761v555h-761c-6.627 0-12-5.373-12-12v-531c0-6.627 5.373-12 12-12z" fill="#f2f6ff" opacity=".2"/><g fill="#fff"><circle cx="22" cy="16" r="6"/><circle cx="42" cy="16" r="6"/><circle cx="62" cy="16" r="6"/></g></g><path d="m14.4 0h261.8a1.8 1.8 0 0 1 1.8 1.8v323.4a1.8 1.8 0 0 1 -1.8 1.8h-261.8c-7.953 0-14.4-6.447-14.4-14.4v-298.2c0-7.953 6.447-14.4 14.4-14.4z" fill="url(#a)" opacity=".2" transform="translate(404.67 327.905)"/><g fill-rule="nonzero" transform="translate(411.776 334.108)"><use fill="#000" filter="url(#c)" xlink:href="#b"/><use fill="#fff" xlink:href="#b"/></g><path d="m640.406 363.299h9.82a2.923 2.923 0 0 1 2.922 2.923v2.392a2.923 2.923 0 0 1 -2.923 2.923h-.821c-2.644 0-5.256.57-7.66 1.672l-1.792.822c.12-.668-.535-1.308-1.2-1.772a2.94 2.94 0 0 1 -1.269-2.41v-3.627a2.923 2.923 0 0 1 2.923-2.923" fill="#97bdff"/><path d="m641.886 364.765h8.679c1.427 0 2.583 1.13 2.583 2.524v2.065c0 1.394-1.156 2.524-2.583 2.524h-.727c-2.336 0-4.542-.31-6.665.641l-1.585.71-.745.243s.168-.57-.42-.971a2.522 2.522 0 0 1 -1.121-2.08v-3.132c0-1.393 1.157-2.524 2.584-2.524" fill="#6da3f2"/><path d="m641.576 372.842a18.785 18.785 0 0 1 7.828-1.709h.821a2.52 2.52 0 0 0 2.52-2.52v-2.391a2.52 2.52 0 0 0 -2.52-2.52h-9.819a2.52 2.52 0 0 0 -2.52 2.52v3.628c0 .825.41 1.599 1.096 2.078.68.474 1.153.969 1.321 1.498zm-1.17-9.947h9.82a3.327 3.327 0 0 1 3.326 3.327v2.392a3.327 3.327 0 0 1 -3.327 3.326h-.821c-2.586 0-5.14.558-7.492 1.636l-1.792.821a.403.403 0 0 1 -.565-.438c.067-.372-.312-.866-1.034-1.37a3.343 3.343 0 0 1 -1.441-2.74v-3.627a3.326 3.326 0 0 1 3.326-3.327z" fill="#457ae6" fill-rule="nonzero"/><path d="m656.244 351.958h-9.818a2.923 2.923 0 0 0 -2.924 2.923v2.392a2.923 2.923 0 0 0 2.924 2.923h.821c2.644 0 5.256.57 7.66 1.672l1.792.822c-.121-.667.534-1.308 1.2-1.772a2.94 2.94 0 0 0 1.268-2.409v-3.628a2.923 2.923 0 0 0 -2.923-2.923" fill="#cadeff"/><path d="m654.765 353.425h-8.68c-1.426 0-2.583 1.13-2.583 2.524v2.064c0 1.394 1.157 2.524 2.584 2.524h.726c2.337 0 4.542-.31 6.666.642l1.585.71.745.243s-.169-.57.42-.972a2.522 2.522 0 0 0 1.12-2.08v-3.131c0-1.394-1.156-2.524-2.583-2.524" fill="#eff5ff"/><path d="m656.244 351.555a3.326 3.326 0 0 1 3.327 3.326v3.628c0 1.09-.54 2.11-1.441 2.74-.722.504-1.102.997-1.034 1.369a.403.403 0 0 1 -.565.439l-1.793-.822a17.978 17.978 0 0 0 -7.491-1.635h-.821a3.327 3.327 0 0 1 -3.327-3.327v-2.392a3.327 3.327 0 0 1 3.327-3.326zm1.424 9.032a2.537 2.537 0 0 0 1.096-2.078v-3.628a2.52 2.52 0 0 0 -2.52-2.52h-9.818a2.52 2.52 0 0 0 -2.52 2.52v2.392a2.52 2.52 0 0 0 2.52 2.52h.821c2.701 0 5.371.583 7.828 1.708l1.272.584c.169-.529.642-1.024 1.321-1.498z" fill="#457ae6" fill-rule="nonzero"/><path d="m618.722 334.108h1v57.602h-1z" fill="#d9e4ff"/><path d="m473.107 350.06h46.98a3.6 3.6 0 0 1 3.6 3.6v.775a3.6 3.6 0 0 1 -3.6 3.6h-46.98a3.6 3.6 0 0 1 -3.6-3.6v-.775a3.6 3.6 0 0 1 3.6-3.6z" fill="#598bff"/><path d="m471.28 365.125h126.129a1.772 1.772 0 0 1 0 3.545h-126.13a1.772 1.772 0 1 1 0-3.545zm0 8.861h92.378a1.772 1.772 0 1 1 0 3.545h-92.378a1.772 1.772 0 0 1 0-3.545z" fill="#d9e4ff"/><path d="m438.002 366.507h6.742c.404 0 .79.076 1.15.211a3.283 3.283 0 0 0 -2.3-.942h-6.741a3.308 3.308 0 0 0 -3.272 2.889l-.067 5.286 3.679 1.47 9.544-1.302-.557-5.178c.202-1.623-9.853-2.434-8.178-2.434" fill="#6fa0ef"/><path d="m446.884 368.848a3.287 3.287 0 0 0 -.991-2.13c-.358-.135-1.364-.72-1.768-.72l-6.123.509a3.31 3.31 0 0 0 -3.272 2.889l-.076 5.227 5.518 1.343 6.755-1.72c-.023-.149-.033-5.248-.043-5.398" fill="#97bdff"/><path d="m434.078 374.031h-.994v-5.366l.004-.062a3.805 3.805 0 0 1 3.765-3.324h6.741c1.992 0 3.65 1.557 3.786 3.569v5.28h-.993v-.497l.001-4.75a2.811 2.811 0 0 0 -2.794-2.609h-6.741c-1.4 0-2.589 1.05-2.775 2.425z" fill="#457ae6" fill-rule="nonzero"/><path d="m440.224 366.695a.95.95 0 0 0 .947-.947v-1.753a.95.95 0 0 0 -.947-.947.95.95 0 0 0 -.948.947v1.753c0 .52.427.947.948.947" fill="#c7e3ff"/><path d="m440.224 366.695a.95.95 0 0 0 .947-.947v-1.753a.95.95 0 0 0 -.947-.947.95.95 0 0 0 -.948.947v1.753c0 .52.427.947.948.947z" stroke="#457ae6" stroke-linecap="round" stroke-width="1.8"/><path d="m440.197 364.523c2.1 0 3.82-2.526 3.82-4.626v-3.734c0-1.034-.847-1.88-1.88-1.88h-3.878c-1.035 0-1.88.846-1.88 1.88v3.734c0 2.1 1.718 4.626 3.818 4.626" fill="#cadeff"/><path d="m442.581 359.897v-3.734c0-1.034-.846-1.88-1.88-1.88h.935c1.034 0 1.88.846 1.88 1.88v3.734c0 2.1-1.719 4.626-3.82 4.626-.158 0-.313-.019-.467-.046 1.882-.337 3.352-2.638 3.352-4.58" fill="#fff"/><path d="m440.197 365.02c-2.287 0-4.315-2.62-4.315-5.123v-3.734a2.382 2.382 0 0 1 2.377-2.377h3.877a2.382 2.382 0 0 1 2.377 2.377v3.734c0 2.504-2.028 5.123-4.316 5.123zm0-.993c1.676 0 3.323-2.127 3.323-4.13v-3.734a1.39 1.39 0 0 0 -1.384-1.384h-3.877c-.76 0-1.384.624-1.384 1.384v3.734c0 2.003 1.647 4.13 3.322 4.13z" fill="#457ae6" fill-rule="nonzero"/><path d="m444.025 356.036-7.585-.028-.04 2.763c-1.262-1.263-1.196-5.652-1.196-5.652l1.729-.266-.598-1.196c8.68 1.787 7.69 4.38 7.69 4.38" fill="#6fa0ef"/><path d="m436.335 351.656-.2-.399s7.082.965 8.578 2.46c1.496 1.497-.645 4.788-.645 4.788l-.043-2.469s.99-2.591-7.69-4.38" fill="#97bdff"/><path d="m436.009 356.612a1.6 1.6 0 0 1 1.524-1.097l5.414.02a1.6 1.6 0 0 1 1.503 1.067 5.34 5.34 0 0 0 .252-.934c.117-.711.01-1.25-.34-1.6-.497-.496-1.92-1.024-3.916-1.5a47.723 47.723 0 0 0 -3.439-.676l.674 1.349-1.978.304c.003.185.01.396.021.627.03.641.09 1.276.18 1.865.032.201.067.393.105.575zm-.739-5.974.932.127.387.057a54.428 54.428 0 0 1 4.087.78c2.185.521 3.71 1.087 4.388 1.764.612.613.782 1.466.618 2.463-.095.575-.297 1.177-.574 1.785a10.41 10.41 0 0 1 -.624 1.162l-.885 1.36-.027-1.622-.024-1.389a.607.607 0 0 0 -.605-.596l-5.413-.02a.607.607 0 0 0 -.609.598l-.04 2.846-.831-.83c-.568-.568-.916-1.58-1.127-2.934a18.833 18.833 0 0 1 -.19-1.97 19.807 19.807 0 0 1 -.026-1.075v-.033l.007-.42 1.47-.225z" fill="#457ae6" fill-rule="nonzero"/><path d="m433.643 349.647.3.627" fill="#728bb7"/><path d="m438.738 368.75 1.396-2.056-.93-1.946-2.368 1.342z" fill="#fff"/><path d="m438.748 369.619-2.637-3.689 3.31-1.876 1.284 2.683zm.815-2.968-.578-1.208-1.424.807 1.166 1.632.836-1.23z" fill="#457ae6" fill-rule="nonzero"/><path d="m441.815 368.75-1.396-2.056.93-1.946 2.368 1.342z" fill="#fff"/><path d="m442.992 366.25-1.424-.807-.578 1.208.836 1.23 1.166-1.63zm-3.144.487 1.284-2.683 3.31 1.876-2.637 3.689zm-.211 5.293h.993v3.683h-.993zm2.37-1.41v-.993h3.622v.993z" fill="#457ae6" fill-rule="nonzero"/><path d="m432.991 351.245-.411.278-.556-.823.411-.278a14.087 14.087 0 0 1 7.913-2.417c7.816 0 14.151 6.336 14.151 14.151 0 7.816-6.336 14.152-14.151 14.152-7.816 0-14.152-6.336-14.152-14.152 0-2.248.526-4.423 1.52-6.386l.225-.443.886.449-.225.443a13.098 13.098 0 0 0 -1.413 5.937c0 7.267 5.892 13.16 13.159 13.16s13.158-5.892 13.158-13.16c0-7.267-5.89-13.158-13.158-13.158-2.66 0-5.2.79-7.357 2.247z" fill="#457ae6" fill-rule="nonzero"/><g fill-rule="nonzero" transform="translate(411.776 398.8)"><use fill="#000" filter="url(#e)" xlink:href="#d"/><use fill="#fff" xlink:href="#d"/></g><path d="m640.406 427.99h9.82a2.923 2.923 0 0 1 2.922 2.923v2.392a2.923 2.923 0 0 1 -2.923 2.923h-.821c-2.644 0-5.256.57-7.66 1.672l-1.792.822c.12-.667-.535-1.308-1.2-1.772a2.94 2.94 0 0 1 -1.269-2.41v-3.627a2.923 2.923 0 0 1 2.923-2.923" fill="#97bdff"/><path d="m641.886 429.456h8.679c1.427 0 2.583 1.13 2.583 2.524v2.065c0 1.394-1.156 2.524-2.583 2.524h-.727c-2.336 0-4.542-.31-6.665.641l-1.585.71-.745.243s.168-.57-.42-.971a2.522 2.522 0 0 1 -1.121-2.08v-3.132c0-1.393 1.157-2.524 2.584-2.524" fill="#6da3f2"/><path d="m641.576 437.533a18.785 18.785 0 0 1 7.828-1.709h.821a2.52 2.52 0 0 0 2.52-2.52v-2.391a2.52 2.52 0 0 0 -2.52-2.52h-9.819a2.52 2.52 0 0 0 -2.52 2.52v3.628c0 .825.41 1.599 1.096 2.078.68.474 1.153.969 1.321 1.498zm-1.17-9.946h9.82a3.327 3.327 0 0 1 3.326 3.326v2.392a3.327 3.327 0 0 1 -3.327 3.326h-.821c-2.586 0-5.14.558-7.492 1.636l-1.792.822a.403.403 0 0 1 -.565-.44c.067-.371-.312-.865-1.034-1.368a3.343 3.343 0 0 1 -1.441-2.74v-3.628a3.326 3.326 0 0 1 3.326-3.326z" fill="#457ae6" fill-rule="nonzero"/><path d="m656.244 416.65h-9.818a2.923 2.923 0 0 0 -2.924 2.922v2.392a2.923 2.923 0 0 0 2.924 2.923h.821c2.644 0 5.256.57 7.66 1.672l1.792.822c-.121-.667.534-1.307 1.2-1.772a2.94 2.94 0 0 0 1.268-2.409v-3.628a2.923 2.923 0 0 0 -2.923-2.923" fill="#cadeff"/><path d="m654.765 418.116h-8.68c-1.426 0-2.583 1.13-2.583 2.524v2.064c0 1.394 1.157 2.524 2.584 2.524h.726c2.337 0 4.542-.31 6.666.642l1.585.71.745.243s-.169-.57.42-.972a2.522 2.522 0 0 0 1.12-2.08v-3.131c0-1.394-1.156-2.524-2.583-2.524" fill="#eff5ff"/><path d="m656.244 416.246a3.326 3.326 0 0 1 3.327 3.326v3.628c0 1.091-.54 2.111-1.441 2.74-.722.504-1.102.997-1.034 1.369a.403.403 0 0 1 -.565.439l-1.793-.822a17.978 17.978 0 0 0 -7.491-1.635h-.821a3.327 3.327 0 0 1 -3.327-3.327v-2.392a3.327 3.327 0 0 1 3.327-3.326zm1.424 9.032a2.537 2.537 0 0 0 1.096-2.078v-3.628a2.52 2.52 0 0 0 -2.52-2.52h-9.818a2.52 2.52 0 0 0 -2.52 2.52v2.392a2.52 2.52 0 0 0 2.52 2.52h.821c2.701 0 5.371.583 7.828 1.709l1.272.583c.169-.529.642-1.024 1.321-1.498z" fill="#457ae6" fill-rule="nonzero"/><path d="m618.722 398.8h1v57.6h-1z" fill="#d9e4ff"/><path d="m473.107 414.75h46.98a3.6 3.6 0 0 1 3.6 3.6v.776a3.6 3.6 0 0 1 -3.6 3.6h-46.98a3.6 3.6 0 0 1 -3.6-3.6v-.775a3.6 3.6 0 0 1 3.6-3.6z" fill="#598bff"/><path d="m471.28 429.816h126.129a1.772 1.772 0 0 1 0 3.545h-126.13a1.772 1.772 0 1 1 0-3.545zm0 8.862h92.378a1.772 1.772 0 0 1 0 3.545h-92.378a1.772 1.772 0 0 1 0-3.545z" fill="#d9e4ff"/><path d="m438.002 431.198h6.742c.404 0 .79.076 1.15.211a3.283 3.283 0 0 0 -2.3-.942h-6.741a3.308 3.308 0 0 0 -3.272 2.889l-.067 5.286 3.679 1.47 9.544-1.302-.557-5.178c.202-1.623-9.853-2.434-8.178-2.434" fill="#6fa0ef"/><path d="m446.884 433.539a3.287 3.287 0 0 0 -.991-2.13c-.358-.135-1.364-.72-1.768-.72l-6.123.509a3.31 3.31 0 0 0 -3.272 2.889l-.076 5.227 5.518 1.343 6.755-1.72c-.023-.149-.033-5.248-.043-5.398" fill="#97bdff"/><path d="m434.078 438.722h-.994v-5.366l.004-.062a3.805 3.805 0 0 1 3.765-3.324h6.741c1.992 0 3.65 1.557 3.786 3.569v5.28h-.993v-.497l.001-4.75a2.811 2.811 0 0 0 -2.794-2.609h-6.741c-1.4 0-2.589 1.05-2.775 2.425z" fill="#457ae6" fill-rule="nonzero"/><path d="m440.224 431.386a.95.95 0 0 0 .947-.947v-1.753a.95.95 0 0 0 -.947-.947.95.95 0 0 0 -.948.947v1.753c0 .52.427.947.948.947" fill="#c7e3ff"/><path d="m440.224 431.386a.95.95 0 0 0 .947-.947v-1.753a.95.95 0 0 0 -.947-.947.95.95 0 0 0 -.948.947v1.753c0 .52.427.947.948.947z" stroke="#457ae6" stroke-linecap="round" stroke-width="1.8"/><path d="m440.197 429.214c2.1 0 3.82-2.526 3.82-4.626v-3.734c0-1.034-.847-1.88-1.88-1.88h-3.878c-1.035 0-1.88.846-1.88 1.88v3.734c0 2.1 1.718 4.626 3.818 4.626" fill="#cadeff"/><path d="m442.581 424.588v-3.734c0-1.034-.846-1.88-1.88-1.88h.935c1.034 0 1.88.846 1.88 1.88v3.734c0 2.1-1.719 4.626-3.82 4.626-.158 0-.313-.019-.467-.046 1.882-.337 3.352-2.638 3.352-4.58" fill="#fff"/><path d="m440.197 429.71c-2.287 0-4.315-2.618-4.315-5.122v-3.734a2.382 2.382 0 0 1 2.377-2.377h3.877a2.382 2.382 0 0 1 2.377 2.377v3.734c0 2.504-2.028 5.123-4.316 5.123zm0-.992c1.676 0 3.323-2.127 3.323-4.13v-3.734a1.39 1.39 0 0 0 -1.384-1.384h-3.877c-.76 0-1.384.624-1.384 1.384v3.734c0 2.003 1.647 4.13 3.322 4.13z" fill="#457ae6" fill-rule="nonzero"/><path d="m444.025 420.727-7.585-.028-.04 2.763c-1.262-1.263-1.196-5.652-1.196-5.652l1.729-.266-.598-1.196c8.68 1.787 7.69 4.38 7.69 4.38" fill="#6fa0ef"/><path d="m436.335 416.348-.2-.4s7.082.965 8.578 2.46c1.496 1.497-.645 4.788-.645 4.788l-.043-2.469s.99-2.591-7.69-4.38" fill="#97bdff"/><path d="m436.009 421.303a1.6 1.6 0 0 1 1.524-1.097l5.414.02a1.6 1.6 0 0 1 1.503 1.067 5.34 5.34 0 0 0 .252-.934c.117-.711.01-1.25-.34-1.6-.497-.496-1.92-1.024-3.916-1.5a47.723 47.723 0 0 0 -3.439-.676l.674 1.349-1.978.304c.003.185.01.396.021.627.03.641.09 1.276.18 1.865.032.201.067.393.105.575zm-.739-5.973.932.126.387.057a54.428 54.428 0 0 1 4.087.78c2.185.521 3.71 1.087 4.388 1.764.612.613.782 1.466.618 2.464-.095.574-.297 1.176-.574 1.784a10.41 10.41 0 0 1 -.624 1.162l-.885 1.36-.027-1.622-.024-1.389a.607.607 0 0 0 -.605-.596l-5.413-.02a.607.607 0 0 0 -.609.598l-.04 2.846-.831-.83c-.568-.568-.916-1.58-1.127-2.933a18.833 18.833 0 0 1 -.19-1.97 19.807 19.807 0 0 1 -.026-1.076v-.033l.007-.42 1.47-.225z" fill="#457ae6" fill-rule="nonzero"/><path d="m433.643 414.339.3.626" fill="#728bb7"/><path d="m438.738 433.441 1.396-2.055-.93-1.946-2.368 1.341z" fill="#fff"/><path d="m438.748 434.31-2.637-3.689 3.31-1.876 1.284 2.684-1.957 2.88zm.815-2.968-.578-1.208-1.424.807 1.166 1.632.836-1.23z" fill="#457ae6" fill-rule="nonzero"/><path d="m441.815 433.441-1.396-2.055.93-1.946 2.368 1.341z" fill="#fff"/><path d="m442.992 430.941-1.424-.807-.578 1.208.836 1.23 1.166-1.63zm-3.144.488 1.284-2.684 3.31 1.876-2.637 3.689zm-.211 5.293h.993v3.682h-.993zm2.37-1.41v-.994h3.622v.994z" fill="#457ae6" fill-rule="nonzero"/><path d="m432.991 415.936-.411.278-.556-.823.411-.278a14.087 14.087 0 0 1 7.913-2.417c7.816 0 14.151 6.336 14.151 14.152 0 7.815-6.336 14.151-14.151 14.151-7.816 0-14.152-6.336-14.152-14.151 0-2.25.526-4.424 1.52-6.387l.225-.443.886.449-.225.443a13.098 13.098 0 0 0 -1.413 5.938c0 7.266 5.892 13.158 13.159 13.158s13.158-5.891 13.158-13.158c0-7.268-5.89-13.16-13.158-13.16-2.66 0-5.2.791-7.357 2.248z" fill="#457ae6" fill-rule="nonzero"/><g fill-rule="nonzero" transform="translate(411.776 462.604)"><use fill="#000" filter="url(#g)" xlink:href="#f"/><use fill="#fff" xlink:href="#f"/></g><path d="m640.406 491.795h9.82a2.923 2.923 0 0 1 2.922 2.923v2.392a2.923 2.923 0 0 1 -2.923 2.923h-.821c-2.644 0-5.256.57-7.66 1.672l-1.792.822c.12-.668-.535-1.308-1.2-1.772a2.94 2.94 0 0 1 -1.269-2.41v-3.627a2.923 2.923 0 0 1 2.923-2.923" fill="#97bdff"/><path d="m641.886 493.261h8.679c1.427 0 2.583 1.13 2.583 2.524v2.065c0 1.394-1.156 2.524-2.583 2.524h-.727c-2.336 0-4.542-.31-6.665.641l-1.585.71-.745.243s.168-.57-.42-.971a2.522 2.522 0 0 1 -1.121-2.08v-3.132c0-1.394 1.157-2.524 2.584-2.524" fill="#6da3f2"/><path d="m641.576 501.338a18.785 18.785 0 0 1 7.828-1.709h.821a2.52 2.52 0 0 0 2.52-2.52v-2.391a2.52 2.52 0 0 0 -2.52-2.52h-9.819a2.52 2.52 0 0 0 -2.52 2.52v3.628c0 .825.41 1.599 1.096 2.078.68.474 1.153.969 1.321 1.498zm-1.17-9.947h9.82a3.327 3.327 0 0 1 3.326 3.327v2.392a3.327 3.327 0 0 1 -3.327 3.326h-.821c-2.586 0-5.14.558-7.492 1.636l-1.792.821a.403.403 0 0 1 -.565-.438c.067-.372-.312-.866-1.034-1.37a3.343 3.343 0 0 1 -1.441-2.74v-3.627a3.326 3.326 0 0 1 3.326-3.327z" fill="#457ae6" fill-rule="nonzero"/><path d="m656.244 480.454h-9.818a2.923 2.923 0 0 0 -2.924 2.923v2.392a2.923 2.923 0 0 0 2.924 2.923h.821c2.644 0 5.256.57 7.66 1.672l1.792.822c-.121-.667.534-1.308 1.2-1.772a2.94 2.94 0 0 0 1.268-2.409v-3.628a2.923 2.923 0 0 0 -2.923-2.923" fill="#cadeff"/><path d="m654.765 481.92h-8.68c-1.426 0-2.583 1.13-2.583 2.524v2.065c0 1.394 1.157 2.524 2.584 2.524h.726c2.337 0 4.542-.31 6.666.642l1.585.709.745.243s-.169-.57.42-.971a2.522 2.522 0 0 0 1.12-2.08v-3.132c0-1.393-1.156-2.523-2.583-2.523" fill="#eff5ff"/><path d="m656.244 480.05a3.326 3.326 0 0 1 3.327 3.327v3.628c0 1.09-.54 2.11-1.441 2.74-.722.503-1.102.997-1.034 1.369a.403.403 0 0 1 -.565.439l-1.793-.822a17.978 17.978 0 0 0 -7.491-1.636h-.821a3.327 3.327 0 0 1 -3.327-3.326v-2.392a3.327 3.327 0 0 1 3.327-3.326h9.818zm1.424 9.033a2.537 2.537 0 0 0 1.096-2.078v-3.628a2.52 2.52 0 0 0 -2.52-2.52h-9.818a2.52 2.52 0 0 0 -2.52 2.52v2.392a2.52 2.52 0 0 0 2.52 2.52h.821c2.701 0 5.371.582 7.828 1.708l1.272.584c.169-.529.642-1.024 1.321-1.498z" fill="#457ae6" fill-rule="nonzero"/><path d="m618.722 462.604h1v57.602h-1z" fill="#d9e4ff"/><path d="m473.107 478.556h46.98a3.6 3.6 0 0 1 3.6 3.6v.775a3.6 3.6 0 0 1 -3.6 3.6h-46.98a3.6 3.6 0 0 1 -3.6-3.6v-.775a3.6 3.6 0 0 1 3.6-3.6z" fill="#598bff"/><path d="m471.28 493.62h126.129a1.772 1.772 0 1 1 0 3.545h-126.13a1.772 1.772 0 1 1 0-3.545zm0 8.862h92.378a1.772 1.772 0 1 1 0 3.545h-92.378a1.772 1.772 0 0 1 0-3.545z" fill="#d9e4ff"/><path d="m438.002 495.003h6.742c.404 0 .79.076 1.15.21a3.283 3.283 0 0 0 -2.3-.942h-6.741a3.308 3.308 0 0 0 -3.272 2.89l-.067 5.286 3.679 1.47 9.544-1.302-.557-5.179c.202-1.622-9.853-2.433-8.178-2.433" fill="#6fa0ef"/><path d="m446.884 497.344a3.287 3.287 0 0 0 -.991-2.13c-.358-.135-1.364-.72-1.768-.72l-6.123.509a3.31 3.31 0 0 0 -3.272 2.889l-.076 5.227 5.518 1.343 6.755-1.72c-.023-.149-.033-5.248-.043-5.398" fill="#97bdff"/><path d="m434.078 502.527h-.994v-5.366l.004-.062a3.805 3.805 0 0 1 3.765-3.324h6.741c1.992 0 3.65 1.557 3.786 3.569v5.28h-.993v-.497l.001-4.75a2.811 2.811 0 0 0 -2.794-2.609h-6.741c-1.4 0-2.589 1.05-2.775 2.425z" fill="#457ae6" fill-rule="nonzero"/><path d="m440.224 495.19a.95.95 0 0 0 .947-.946v-1.753a.95.95 0 0 0 -.947-.947.95.95 0 0 0 -.948.947v1.753c0 .52.427.947.948.947" fill="#c7e3ff"/><path d="m440.224 495.19a.95.95 0 0 0 .947-.946v-1.753a.95.95 0 0 0 -.947-.947.95.95 0 0 0 -.948.947v1.753c0 .52.427.947.948.947z" stroke="#457ae6" stroke-linecap="round" stroke-width="1.8"/><path d="m440.197 493.02c2.1 0 3.82-2.527 3.82-4.627v-3.734c0-1.034-.847-1.88-1.88-1.88h-3.878c-1.035 0-1.88.846-1.88 1.88v3.734c0 2.1 1.718 4.626 3.818 4.626" fill="#cadeff"/><path d="m442.581 488.393v-3.735c0-1.033-.846-1.88-1.88-1.88h.935c1.034 0 1.88.847 1.88 1.88v3.735c0 2.1-1.719 4.626-3.82 4.626-.158 0-.313-.019-.467-.046 1.882-.337 3.352-2.638 3.352-4.58" fill="#fff"/><path d="m440.197 493.516c-2.287 0-4.315-2.62-4.315-5.123v-3.734a2.382 2.382 0 0 1 2.377-2.377h3.877a2.382 2.382 0 0 1 2.377 2.377v3.734c0 2.504-2.028 5.123-4.316 5.123zm0-.993c1.676 0 3.323-2.127 3.323-4.13v-3.734a1.39 1.39 0 0 0 -1.384-1.384h-3.877c-.76 0-1.384.624-1.384 1.384v3.734c0 2.003 1.647 4.13 3.322 4.13z" fill="#457ae6" fill-rule="nonzero"/><path d="m444.025 484.532-7.585-.028-.04 2.763c-1.262-1.263-1.196-5.652-1.196-5.652l1.729-.266-.598-1.196c8.68 1.787 7.69 4.38 7.69 4.38" fill="#6fa0ef"/><path d="m436.335 480.152-.2-.399s7.082.964 8.578 2.46c1.496 1.497-.645 4.788-.645 4.788l-.043-2.469s.99-2.591-7.69-4.38" fill="#97bdff"/><path d="m436.009 485.108a1.6 1.6 0 0 1 1.524-1.097l5.414.02a1.6 1.6 0 0 1 1.503 1.067 5.34 5.34 0 0 0 .252-.934c.117-.711.01-1.25-.34-1.6-.497-.496-1.92-1.024-3.916-1.5a47.723 47.723 0 0 0 -3.439-.676l.674 1.348-1.978.305c.003.184.01.396.021.627.03.641.09 1.275.18 1.865.032.201.067.393.105.575zm-.739-5.974.932.127.387.057a54.428 54.428 0 0 1 4.087.78c2.185.52 3.71 1.087 4.388 1.764.612.613.782 1.466.618 2.463-.095.575-.297 1.177-.574 1.785a10.41 10.41 0 0 1 -.624 1.162l-.885 1.36-.027-1.622-.024-1.389a.607.607 0 0 0 -.605-.596l-5.413-.02a.607.607 0 0 0 -.609.598l-.04 2.846-.831-.83c-.568-.568-.916-1.58-1.127-2.934a18.833 18.833 0 0 1 -.19-1.97 19.807 19.807 0 0 1 -.026-1.075v-.033l.007-.42 1.47-.225z" fill="#457ae6" fill-rule="nonzero"/><path d="m433.643 478.143.3.627" fill="#728bb7"/><path d="m438.738 497.246 1.396-2.056-.93-1.946-2.368 1.342z" fill="#fff"/><path d="m438.748 498.114-2.637-3.688 3.31-1.876 1.284 2.683zm.815-2.967-.578-1.208-1.424.807 1.166 1.632.836-1.23z" fill="#457ae6" fill-rule="nonzero"/><path d="m441.815 497.246-1.396-2.056.93-1.946 2.368 1.342z" fill="#fff"/><path d="m442.992 494.746-1.424-.807-.578 1.208.836 1.23zm-3.144.487 1.284-2.683 3.31 1.876-2.637 3.688-1.957-2.88zm-.211 5.294h.993v3.682h-.993zm2.37-1.411v-.993h3.622v.993z" fill="#457ae6" fill-rule="nonzero"/><path d="m432.991 479.74-.411.278-.556-.822.411-.278a14.087 14.087 0 0 1 7.913-2.417c7.816 0 14.151 6.336 14.151 14.151 0 7.816-6.336 14.152-14.151 14.152-7.816 0-14.152-6.336-14.152-14.152 0-2.248.526-4.423 1.52-6.386l.225-.443.886.449-.225.443a13.098 13.098 0 0 0 -1.413 5.937c0 7.267 5.892 13.159 13.159 13.159s13.158-5.892 13.158-13.159-5.89-13.158-13.158-13.158c-2.66 0-5.2.79-7.357 2.246z" fill="#457ae6" fill-rule="nonzero"/><g fill-rule="nonzero" transform="translate(411.776 526.41)"><use fill="#000" filter="url(#i)" xlink:href="#h"/><use fill="#fff" xlink:href="#h"/></g><path d="m640.406 555.6h9.82a2.923 2.923 0 0 1 2.922 2.923v2.392a2.923 2.923 0 0 1 -2.923 2.923h-.821c-2.644 0-5.256.57-7.66 1.672l-1.792.822c.12-.668-.535-1.308-1.2-1.772a2.94 2.94 0 0 1 -1.269-2.41v-3.627a2.923 2.923 0 0 1 2.923-2.923" fill="#97bdff"/><path d="m641.886 557.066h8.679c1.427 0 2.583 1.13 2.583 2.524v2.065c0 1.394-1.156 2.524-2.583 2.524h-.727c-2.336 0-4.542-.31-6.665.641l-1.585.71-.745.243s.168-.57-.42-.971a2.522 2.522 0 0 1 -1.121-2.08v-3.132c0-1.394 1.157-2.524 2.584-2.524" fill="#6da3f2"/><path d="m641.576 565.143a18.785 18.785 0 0 1 7.828-1.709h.821a2.52 2.52 0 0 0 2.52-2.52v-2.391a2.52 2.52 0 0 0 -2.52-2.52h-9.819a2.52 2.52 0 0 0 -2.52 2.52v3.628c0 .825.41 1.599 1.096 2.078.68.474 1.153.969 1.321 1.497zm-1.17-9.947h9.82a3.327 3.327 0 0 1 3.326 3.327v2.392a3.327 3.327 0 0 1 -3.327 3.326h-.821c-2.586 0-5.14.558-7.492 1.635l-1.792.822a.403.403 0 0 1 -.565-.439c.067-.371-.312-.865-1.034-1.369a3.343 3.343 0 0 1 -1.441-2.74v-3.627a3.326 3.326 0 0 1 3.326-3.327z" fill="#457ae6" fill-rule="nonzero"/><path d="m656.244 544.259h-9.818a2.923 2.923 0 0 0 -2.924 2.923v2.392a2.923 2.923 0 0 0 2.924 2.923h.821c2.644 0 5.256.57 7.66 1.672l1.792.822c-.121-.667.534-1.308 1.2-1.772a2.94 2.94 0 0 0 1.268-2.409v-3.628a2.923 2.923 0 0 0 -2.923-2.923" fill="#cadeff"/><path d="m654.765 545.725h-8.68c-1.426 0-2.583 1.13-2.583 2.524v2.065c0 1.394 1.157 2.524 2.584 2.524h.726c2.337 0 4.542-.31 6.666.642l1.585.709.745.243s-.169-.57.42-.971a2.522 2.522 0 0 0 1.12-2.08v-3.132c0-1.393-1.156-2.524-2.583-2.524" fill="#eff5ff"/><path d="m656.244 543.856a3.326 3.326 0 0 1 3.327 3.326v3.628c0 1.09-.54 2.11-1.441 2.74-.722.503-1.102.997-1.034 1.369a.403.403 0 0 1 -.565.439l-1.793-.822a17.978 17.978 0 0 0 -7.491-1.636h-.821a3.327 3.327 0 0 1 -3.327-3.326v-2.392a3.327 3.327 0 0 1 3.327-3.326zm1.424 9.032a2.537 2.537 0 0 0 1.096-2.078v-3.628a2.52 2.52 0 0 0 -2.52-2.52h-9.818a2.52 2.52 0 0 0 -2.52 2.52v2.392a2.52 2.52 0 0 0 2.52 2.52h.821c2.701 0 5.371.582 7.828 1.708l1.272.584c.169-.53.642-1.024 1.321-1.498z" fill="#457ae6" fill-rule="nonzero"/><path d="m618.722 526.41h1v57.601h-1z" fill="#d9e4ff"/><path d="m473.107 542.36h46.98a3.6 3.6 0 0 1 3.6 3.6v.776a3.6 3.6 0 0 1 -3.6 3.6h-46.98a3.6 3.6 0 0 1 -3.6-3.6v-.776a3.6 3.6 0 0 1 3.6-3.6z" fill="#598bff"/><path d="m471.28 557.426h126.129a1.772 1.772 0 0 1 0 3.545h-126.13a1.772 1.772 0 1 1 0-3.545zm0 8.861h92.378a1.772 1.772 0 1 1 0 3.545h-92.378a1.772 1.772 0 0 1 0-3.545z" fill="#d9e4ff"/><path d="m438.002 558.808h6.742c.404 0 .79.076 1.15.21a3.283 3.283 0 0 0 -2.3-.942h-6.741a3.308 3.308 0 0 0 -3.272 2.89l-.067 5.286 3.679 1.47 9.544-1.302-.557-5.179c.202-1.622-9.853-2.433-8.178-2.433" fill="#6fa0ef"/><path d="m446.884 561.148a3.287 3.287 0 0 0 -.991-2.13c-.358-.134-1.364-.72-1.768-.72l-6.123.51a3.31 3.31 0 0 0 -3.272 2.889l-.076 5.227 5.518 1.343 6.755-1.721c-.023-.148-.033-5.248-.043-5.398" fill="#97bdff"/><path d="m434.078 566.332h-.994v-5.367l.004-.061a3.805 3.805 0 0 1 3.765-3.324h6.741c1.992 0 3.65 1.557 3.786 3.569v5.28h-.993v-.498l.001-4.748a2.811 2.811 0 0 0 -2.794-2.61h-6.741c-1.4 0-2.589 1.05-2.775 2.425z" fill="#457ae6" fill-rule="nonzero"/><path d="m440.224 558.995a.95.95 0 0 0 .947-.946v-1.753a.95.95 0 0 0 -.947-.947.95.95 0 0 0 -.948.947v1.753c0 .52.427.946.948.946" fill="#c7e3ff"/><path d="m440.224 558.995a.95.95 0 0 0 .947-.946v-1.753a.95.95 0 0 0 -.947-.947.95.95 0 0 0 -.948.947v1.753c0 .52.427.946.948.946z" stroke="#457ae6" stroke-linecap="round" stroke-width="1.8"/><path d="m440.197 556.824c2.1 0 3.82-2.526 3.82-4.626v-3.734c0-1.034-.847-1.88-1.88-1.88h-3.878c-1.035 0-1.88.846-1.88 1.88v3.734c0 2.1 1.718 4.626 3.818 4.626" fill="#cadeff"/><path d="m442.581 552.198v-3.735c0-1.033-.846-1.88-1.88-1.88h.935c1.034 0 1.88.847 1.88 1.88v3.735c0 2.1-1.719 4.626-3.82 4.626-.158 0-.313-.02-.467-.046 1.882-.337 3.352-2.638 3.352-4.58" fill="#fff"/><path d="m440.197 557.32c-2.287 0-4.315-2.618-4.315-5.122v-3.734a2.382 2.382 0 0 1 2.377-2.377h3.877a2.382 2.382 0 0 1 2.377 2.377v3.734c0 2.504-2.028 5.123-4.316 5.123zm0-.993c1.676 0 3.323-2.126 3.323-4.129v-3.734a1.39 1.39 0 0 0 -1.384-1.384h-3.877c-.76 0-1.384.624-1.384 1.384v3.734c0 2.003 1.647 4.13 3.322 4.13z" fill="#457ae6" fill-rule="nonzero"/><path d="m444.025 548.337-7.585-.028-.04 2.763c-1.262-1.263-1.196-5.652-1.196-5.652l1.729-.266-.598-1.197c8.68 1.788 7.69 4.38 7.69 4.38" fill="#6fa0ef"/><path d="m436.335 543.957-.2-.399s7.082.964 8.578 2.46c1.496 1.497-.645 4.788-.645 4.788l-.043-2.47s.99-2.59-7.69-4.379" fill="#97bdff"/><path d="m436.009 548.913a1.6 1.6 0 0 1 1.524-1.097l5.414.02a1.6 1.6 0 0 1 1.503 1.067 5.34 5.34 0 0 0 .252-.934c.117-.711.01-1.25-.34-1.6-.497-.496-1.92-1.024-3.916-1.5a47.723 47.723 0 0 0 -3.439-.676l.674 1.348-1.978.304c.003.185.01.396.021.628.03.641.09 1.275.18 1.865.032.201.067.393.105.575zm-.739-5.974.932.127.387.056a54.428 54.428 0 0 1 4.087.781c2.185.52 3.71 1.087 4.388 1.764.612.612.782 1.466.618 2.463-.095.575-.297 1.177-.574 1.785a10.41 10.41 0 0 1 -.624 1.162l-.885 1.36-.027-1.622-.024-1.389a.607.607 0 0 0 -.605-.596l-5.413-.02a.607.607 0 0 0 -.609.598l-.04 2.846-.831-.83c-.568-.568-.916-1.58-1.127-2.934a18.833 18.833 0 0 1 -.19-1.97 19.807 19.807 0 0 1 -.026-1.075v-.033l.007-.42 1.47-.225z" fill="#457ae6" fill-rule="nonzero"/><path d="m433.643 541.948.3.627" fill="#728bb7"/><path d="m438.738 561.051 1.396-2.056-.93-1.946-2.368 1.342z" fill="#fff"/><path d="m438.748 561.92-2.637-3.689 3.31-1.876 1.284 2.683-1.957 2.881zm.815-2.968-.578-1.208-1.424.807 1.166 1.632.836-1.23z" fill="#457ae6" fill-rule="nonzero"/><path d="m441.815 561.051-1.396-2.056.93-1.946 2.368 1.342z" fill="#fff"/><path d="m442.992 558.55-1.424-.806-.578 1.208.836 1.23 1.166-1.631zm-3.144.488 1.284-2.683 3.31 1.876-2.637 3.688-1.957-2.88zm-.211 5.293h.993v3.683h-.993zm2.37-1.41v-.993h3.622v.993z" fill="#457ae6" fill-rule="nonzero"/><path d="m432.991 543.545-.411.278-.556-.823.411-.278a14.087 14.087 0 0 1 7.913-2.416c7.816 0 14.151 6.335 14.151 14.151s-6.336 14.152-14.151 14.152c-7.816 0-14.152-6.336-14.152-14.152 0-2.248.526-4.423 1.52-6.386l.225-.443.886.449-.225.443a13.098 13.098 0 0 0 -1.413 5.937c0 7.267 5.892 13.159 13.159 13.159s13.158-5.892 13.158-13.159-5.89-13.158-13.158-13.158c-2.66 0-5.2.79-7.357 2.246z" fill="#457ae6" fill-rule="nonzero"/><g fill-rule="nonzero" transform="translate(411.776 590.214)"><use fill="#000" filter="url(#k)" xlink:href="#j"/><use fill="#fff" xlink:href="#j"/></g><path d="m640.406 619.405h9.82a2.923 2.923 0 0 1 2.922 2.923v2.391a2.923 2.923 0 0 1 -2.923 2.924h-.821c-2.644 0-5.256.57-7.66 1.672l-1.792.821c.12-.667-.535-1.307-1.2-1.772a2.94 2.94 0 0 1 -1.269-2.408v-3.628a2.923 2.923 0 0 1 2.923-2.923" fill="#97bdff"/><path d="m641.886 620.871h8.679c1.427 0 2.583 1.13 2.583 2.524v2.065c0 1.394-1.156 2.524-2.583 2.524h-.727c-2.336 0-4.542-.31-6.665.641l-1.585.71-.745.243s.168-.57-.42-.971a2.522 2.522 0 0 1 -1.121-2.08v-3.132c0-1.394 1.157-2.524 2.584-2.524" fill="#6da3f2"/><path d="m641.576 628.948a18.785 18.785 0 0 1 7.828-1.709h.821a2.52 2.52 0 0 0 2.52-2.52v-2.391a2.52 2.52 0 0 0 -2.52-2.52h-9.819a2.52 2.52 0 0 0 -2.52 2.52v3.628c0 .825.41 1.599 1.096 2.078.68.473 1.153.969 1.321 1.497zm-1.17-9.947h9.82a3.327 3.327 0 0 1 3.326 3.327v2.391a3.327 3.327 0 0 1 -3.327 3.327h-.821c-2.586 0-5.14.558-7.492 1.635l-1.792.822a.403.403 0 0 1 -.565-.439c.067-.372-.312-.865-1.034-1.369a3.343 3.343 0 0 1 -1.441-2.74v-3.627a3.326 3.326 0 0 1 3.326-3.327z" fill="#457ae6" fill-rule="nonzero"/><path d="m656.244 608.064h-9.818a2.923 2.923 0 0 0 -2.924 2.923v2.392a2.923 2.923 0 0 0 2.924 2.923h.821c2.644 0 5.256.57 7.66 1.672l1.792.822c-.121-.668.534-1.308 1.2-1.772a2.94 2.94 0 0 0 1.268-2.41v-3.627a2.923 2.923 0 0 0 -2.923-2.923" fill="#cadeff"/><path d="m654.765 609.53h-8.68c-1.426 0-2.583 1.13-2.583 2.524v2.065c0 1.394 1.157 2.524 2.584 2.524h.726c2.337 0 4.542-.31 6.666.641l1.585.71.745.243s-.169-.57.42-.971a2.522 2.522 0 0 0 1.12-2.08v-3.132c0-1.393-1.156-2.524-2.583-2.524" fill="#eff5ff"/><path d="m656.244 607.66a3.326 3.326 0 0 1 3.327 3.327v3.628c0 1.09-.54 2.11-1.441 2.74-.722.503-1.102.997-1.034 1.369a.403.403 0 0 1 -.565.438l-1.793-.821a17.978 17.978 0 0 0 -7.491-1.636h-.821a3.327 3.327 0 0 1 -3.327-3.326v-2.392a3.327 3.327 0 0 1 3.327-3.327zm1.424 9.033a2.537 2.537 0 0 0 1.096-2.078v-3.628a2.52 2.52 0 0 0 -2.52-2.52h-9.818a2.52 2.52 0 0 0 -2.52 2.52v2.392a2.52 2.52 0 0 0 2.52 2.52h.821c2.701 0 5.371.582 7.828 1.708l1.272.584c.169-.53.642-1.024 1.321-1.498z" fill="#457ae6" fill-rule="nonzero"/><path d="m618.722 590.214h1v57.602h-1z" fill="#d9e4ff"/><path d="m473.107 606.165h46.98a3.6 3.6 0 0 1 3.6 3.6v.776a3.6 3.6 0 0 1 -3.6 3.6h-46.98a3.6 3.6 0 0 1 -3.6-3.6v-.776a3.6 3.6 0 0 1 3.6-3.6z" fill="#598bff"/><path d="m471.28 621.23h126.129a1.772 1.772 0 1 1 0 3.545h-126.13a1.772 1.772 0 1 1 0-3.545zm0 8.862h92.378a1.772 1.772 0 1 1 0 3.545h-92.378a1.772 1.772 0 0 1 0-3.545z" fill="#d9e4ff"/><path d="m438.002 622.613h6.742c.404 0 .79.076 1.15.21a3.283 3.283 0 0 0 -2.3-.942h-6.741a3.308 3.308 0 0 0 -3.272 2.89l-.067 5.286 3.679 1.47 9.544-1.302-.557-5.179c.202-1.622-9.853-2.433-8.178-2.433" fill="#6fa0ef"/><path d="m446.884 624.953a3.287 3.287 0 0 0 -.991-2.13c-.358-.134-1.364-.72-1.768-.72l-6.123.51a3.31 3.31 0 0 0 -3.272 2.889l-.076 5.227 5.518 1.343 6.755-1.721c-.023-.148-.033-5.248-.043-5.398" fill="#97bdff"/><path d="m434.078 630.137h-.994v-5.367l.004-.061a3.805 3.805 0 0 1 3.765-3.324h6.741c1.992 0 3.65 1.557 3.786 3.569v5.279h-.993v-.497l.001-4.749a2.811 2.811 0 0 0 -2.794-2.609h-6.741c-1.4 0-2.589 1.05-2.775 2.425z" fill="#457ae6" fill-rule="nonzero"/><path d="m440.224 622.8a.95.95 0 0 0 .947-.947v-1.752a.95.95 0 0 0 -.947-.947.95.95 0 0 0 -.948.947v1.752c0 .521.427.947.948.947" fill="#c7e3ff"/><path d="m440.224 622.8a.95.95 0 0 0 .947-.947v-1.752a.95.95 0 0 0 -.947-.947.95.95 0 0 0 -.948.947v1.752c0 .521.427.947.948.947z" stroke="#457ae6" stroke-linecap="round" stroke-width="1.8"/><path d="m440.197 620.629c2.1 0 3.82-2.526 3.82-4.626v-3.735c0-1.033-.847-1.88-1.88-1.88h-3.878c-1.035 0-1.88.847-1.88 1.88v3.735c0 2.1 1.718 4.626 3.818 4.626" fill="#cadeff"/><path d="m442.581 616.003v-3.735c0-1.034-.846-1.88-1.88-1.88h.935c1.034 0 1.88.846 1.88 1.88v3.735c0 2.1-1.719 4.626-3.82 4.626-.158 0-.313-.02-.467-.046 1.882-.337 3.352-2.638 3.352-4.58" fill="#fff"/><path d="m440.197 621.125c-2.287 0-4.315-2.619-4.315-5.122v-3.735a2.382 2.382 0 0 1 2.377-2.376h3.877a2.382 2.382 0 0 1 2.377 2.376v3.735c0 2.504-2.028 5.122-4.316 5.122zm0-.993c1.676 0 3.323-2.126 3.323-4.129v-3.735a1.39 1.39 0 0 0 -1.384-1.383h-3.877c-.76 0-1.384.624-1.384 1.383v3.735c0 2.003 1.647 4.13 3.322 4.13z" fill="#457ae6" fill-rule="nonzero"/><path d="m444.025 612.142-7.585-.028-.04 2.763c-1.262-1.263-1.196-5.652-1.196-5.652l1.729-.266-.598-1.197c8.68 1.788 7.69 4.38 7.69 4.38" fill="#6fa0ef"/><path d="m436.335 607.762-.2-.4s7.082.965 8.578 2.46c1.496 1.497-.645 4.79-.645 4.79l-.043-2.47s.99-2.592-7.69-4.38" fill="#97bdff"/><path d="m436.009 612.718a1.6 1.6 0 0 1 1.524-1.097l5.414.02a1.6 1.6 0 0 1 1.503 1.067 5.34 5.34 0 0 0 .252-.934c.117-.712.01-1.25-.34-1.6-.497-.496-1.92-1.024-3.916-1.5a47.723 47.723 0 0 0 -3.439-.676l.674 1.348-1.978.304c.003.185.01.396.021.628.03.64.09 1.275.18 1.865.032.2.067.393.105.575zm-.739-5.974.932.127.387.056a54.428 54.428 0 0 1 4.087.781c2.185.52 3.71 1.086 4.388 1.764.612.612.782 1.466.618 2.463-.095.575-.297 1.177-.574 1.785a10.41 10.41 0 0 1 -.624 1.162l-.885 1.36-.027-1.622-.024-1.39a.607.607 0 0 0 -.605-.596l-5.413-.02a.607.607 0 0 0 -.609.599l-.04 2.846-.831-.831c-.568-.568-.916-1.579-1.127-2.933a18.833 18.833 0 0 1 -.19-1.97 19.807 19.807 0 0 1 -.026-1.075v-.033l.007-.42 1.47-.225z" fill="#457ae6" fill-rule="nonzero"/><path d="m433.643 605.753.3.627" fill="#728bb7"/><path d="m438.738 624.856 1.396-2.056-.93-1.946-2.368 1.342z" fill="#fff"/><path d="m438.748 625.724-2.637-3.688 3.31-1.876 1.284 2.683zm.815-2.967-.578-1.208-1.424.807 1.166 1.631z" fill="#457ae6" fill-rule="nonzero"/><path d="m441.815 624.856-1.396-2.056.93-1.946 2.368 1.342z" fill="#fff"/><path d="m442.992 622.356-1.424-.807-.578 1.208.836 1.23zm-3.144.487 1.284-2.683 3.31 1.876-2.637 3.688-1.957-2.88zm-.211 5.293h.993v3.683h-.993zm2.37-1.41v-.993h3.622v.993z" fill="#457ae6" fill-rule="nonzero"/><path d="m432.991 607.35-.411.278-.556-.823.411-.278a14.087 14.087 0 0 1 7.913-2.417c7.816 0 14.151 6.336 14.151 14.152s-6.336 14.152-14.151 14.152c-7.816 0-14.152-6.336-14.152-14.152 0-2.248.526-4.423 1.52-6.386l.225-.443.886.448-.225.443a13.098 13.098 0 0 0 -1.413 5.938c0 7.267 5.892 13.159 13.159 13.159s13.158-5.892 13.158-13.159-5.89-13.158-13.158-13.158c-2.66 0-5.2.79-7.357 2.246z" fill="#457ae6" fill-rule="nonzero"/><rect fill="url(#a)" height="66" opacity=".2" rx="12" width="609" x="61.218" y="155.048"/><g transform="translate(181.769 231.271)"><rect fill="url(#a)" height="246" opacity=".2" rx="12" width="212"/><path d="m15.096 7.105h180.92a8 8 0 0 1 8 8v215.79a8 8 0 0 1 -8 8h-180.919a8 8 0 0 1 -8-8v-215.79a8 8 0 0 1 8-8z" fill="#fff" fill-rule="nonzero"/><path d="m15.096 63.054h180.92a8 8 0 0 1 8 8v143.856a8 8 0 0 1 -8 8h-180.919a8 8 0 0 1 -8-8v-143.856a8 8 0 0 1 8-8z" fill="#fff" fill-rule="nonzero"/><path d="m63.866 7.105h1v57.725h-1z" fill="#d9e4ff"/><path d="m7.096 63.943h196.921v1h-196.92zm0 158.967h196.921v1h-196.92z" fill="#d9e4ff"/><path d="m173.91 189.162h12.314a3.6 3.6 0 0 1 3.6 3.6v12.338a3.6 3.6 0 0 1 -3.6 3.6h-12.314a3.6 3.6 0 0 1 -3.6-3.6v-12.338a3.6 3.6 0 0 1 3.6-3.6zm-24.837 0h12.314a3.6 3.6 0 0 1 3.6 3.6v12.338a3.6 3.6 0 0 1 -3.6 3.6h-12.314a3.6 3.6 0 0 1 -3.6-3.6v-12.338a3.6 3.6 0 0 1 3.6-3.6zm-24.837 0h12.315a3.6 3.6 0 0 1 3.6 3.6v12.338a3.6 3.6 0 0 1 -3.6 3.6h-12.315a3.6 3.6 0 0 1 -3.6-3.6v-12.338a3.6 3.6 0 0 1 3.6-3.6zm-24.836 0h12.314a3.6 3.6 0 0 1 3.6 3.6v12.338a3.6 3.6 0 0 1 -3.6 3.6h-12.315a3.6 3.6 0 0 1 -3.6-3.6v-12.338a3.6 3.6 0 0 1 3.6-3.6zm-24.838 0h12.315a3.6 3.6 0 0 1 3.6 3.6v12.338a3.6 3.6 0 0 1 -3.6 3.6h-12.315a3.6 3.6 0 0 1 -3.6-3.6v-12.338a3.6 3.6 0 0 1 3.6-3.6zm-24.836 0h12.314a3.6 3.6 0 0 1 3.6 3.6v12.338a3.6 3.6 0 0 1 -3.6 3.6h-12.314a3.6 3.6 0 0 1 -3.6-3.6v-12.338a3.6 3.6 0 0 1 3.6-3.6zm-24.837 0h12.314a3.6 3.6 0 0 1 3.6 3.6v12.338a3.6 3.6 0 0 1 -3.6 3.6h-12.313a3.6 3.6 0 0 1 -3.6-3.6v-12.338a3.6 3.6 0 0 1 3.6-3.6zm149.021-24.866h12.314a3.6 3.6 0 0 1 3.6 3.6v12.338a3.6 3.6 0 0 1 -3.6 3.6h-12.314a3.6 3.6 0 0 1 -3.6-3.6v-12.338a3.6 3.6 0 0 1 3.6-3.6zm-24.837 0h12.314a3.6 3.6 0 0 1 3.6 3.6v12.338a3.6 3.6 0 0 1 -3.6 3.6h-12.314a3.6 3.6 0 0 1 -3.6-3.6v-12.338a3.6 3.6 0 0 1 3.6-3.6zm-24.837 0h12.315a3.6 3.6 0 0 1 3.6 3.6v12.338a3.6 3.6 0 0 1 -3.6 3.6h-12.315a3.6 3.6 0 0 1 -3.6-3.6v-12.338a3.6 3.6 0 0 1 3.6-3.6zm-24.836 0h12.314a3.6 3.6 0 0 1 3.6 3.6v12.338a3.6 3.6 0 0 1 -3.6 3.6h-12.315a3.6 3.6 0 0 1 -3.6-3.6v-12.338a3.6 3.6 0 0 1 3.6-3.6zm-24.838 0h12.315a3.6 3.6 0 0 1 3.6 3.6v12.338a3.6 3.6 0 0 1 -3.6 3.6h-12.315a3.6 3.6 0 0 1 -3.6-3.6v-12.338a3.6 3.6 0 0 1 3.6-3.6zm-24.836 0h12.314a3.6 3.6 0 0 1 3.6 3.6v12.338a3.6 3.6 0 0 1 -3.6 3.6h-12.314a3.6 3.6 0 0 1 -3.6-3.6v-12.338a3.6 3.6 0 0 1 3.6-3.6zm-24.837 0h12.314a3.6 3.6 0 0 1 3.6 3.6v12.338a3.6 3.6 0 0 1 -3.6 3.6h-12.313a3.6 3.6 0 0 1 -3.6-3.6v-12.338a3.6 3.6 0 0 1 3.6-3.6zm149.021-24.866h12.314a3.6 3.6 0 0 1 3.6 3.6v12.338a3.6 3.6 0 0 1 -3.6 3.6h-12.314a3.6 3.6 0 0 1 -3.6-3.6v-12.338a3.6 3.6 0 0 1 3.6-3.6zm-24.837 0h12.314a3.6 3.6 0 0 1 3.6 3.6v12.338a3.6 3.6 0 0 1 -3.6 3.6h-12.314a3.6 3.6 0 0 1 -3.6-3.6v-12.338a3.6 3.6 0 0 1 3.6-3.6zm-24.837 0h12.315a3.6 3.6 0 0 1 3.6 3.6v12.338a3.6 3.6 0 0 1 -3.6 3.6h-12.315a3.6 3.6 0 0 1 -3.6-3.6v-12.338a3.6 3.6 0 0 1 3.6-3.6z" fill="#f2f6ff"/><path d="m99.4 139.43h12.314a3.6 3.6 0 0 1 3.6 3.6v12.338a3.6 3.6 0 0 1 -3.6 3.6h-12.315a3.6 3.6 0 0 1 -3.6-3.6v-12.338a3.6 3.6 0 0 1 3.6-3.6z" fill="#598bff"/><path d="m24.889 139.43h61.988a3.6 3.6 0 0 1 3.6 3.6v12.338a3.6 3.6 0 0 1 -3.6 3.6h-61.988a3.6 3.6 0 0 1 -3.6-3.6v-12.338a3.6 3.6 0 0 1 3.6-3.6zm49.673-24.867h111.662a3.6 3.6 0 0 1 3.6 3.6v12.338a3.6 3.6 0 0 1 -3.6 3.6h-111.662a3.6 3.6 0 0 1 -3.6-3.6v-12.338a3.6 3.6 0 0 1 3.6-3.6z" fill="#d9e4ff"/><path d="m49.726 114.563h12.314a3.6 3.6 0 0 1 3.6 3.6v12.338a3.6 3.6 0 0 1 -3.6 3.6h-12.314a3.6 3.6 0 0 1 -3.6-3.6v-12.338a3.6 3.6 0 0 1 3.6-3.6z" fill="#598bff"/><path d="m24.889 114.563h12.314a3.6 3.6 0 0 1 3.6 3.6v12.338a3.6 3.6 0 0 1 -3.6 3.6h-12.313a3.6 3.6 0 0 1 -3.6-3.6v-12.338a3.6 3.6 0 0 1 3.6-3.6zm149.021-24.866h12.314a3.6 3.6 0 0 1 3.6 3.6v12.338a3.6 3.6 0 0 1 -3.6 3.6h-12.314a3.6 3.6 0 0 1 -3.6-3.6v-12.338a3.6 3.6 0 0 1 3.6-3.6zm-24.837 0h12.314a3.6 3.6 0 0 1 3.6 3.6v12.338a3.6 3.6 0 0 1 -3.6 3.6h-12.314a3.6 3.6 0 0 1 -3.6-3.6v-12.338a3.6 3.6 0 0 1 3.6-3.6zm-24.837 0h12.315a3.6 3.6 0 0 1 3.6 3.6v12.338a3.6 3.6 0 0 1 -3.6 3.6h-12.315a3.6 3.6 0 0 1 -3.6-3.6v-12.338a3.6 3.6 0 0 1 3.6-3.6zm-24.836 0h12.314a3.6 3.6 0 0 1 3.6 3.6v12.338a3.6 3.6 0 0 1 -3.6 3.6h-12.315a3.6 3.6 0 0 1 -3.6-3.6v-12.338a3.6 3.6 0 0 1 3.6-3.6zm-24.838 0h12.315a3.6 3.6 0 0 1 3.6 3.6v12.338a3.6 3.6 0 0 1 -3.6 3.6h-12.315a3.6 3.6 0 0 1 -3.6-3.6v-12.338a3.6 3.6 0 0 1 3.6-3.6zm-24.836 0h12.314a3.6 3.6 0 0 1 3.6 3.6v12.338a3.6 3.6 0 0 1 -3.6 3.6h-12.314a3.6 3.6 0 0 1 -3.6-3.6v-12.338a3.6 3.6 0 0 1 3.6-3.6zm-24.837 0h12.314a3.6 3.6 0 0 1 3.6 3.6v12.338a3.6 3.6 0 0 1 -3.6 3.6h-12.313a3.6 3.6 0 0 1 -3.6-3.6v-12.338a3.6 3.6 0 0 1 3.6-3.6z" fill="#f2f6ff"/><path d="m45.476 46.835h-21.823l-1.058.16-.007 1.225.533.542h24.543l1.242-.662-.118-3.192z" fill="#97bdff"/><path d="m48.297 44.37h.994v4.276a.497.497 0 0 1 -.497.497h-26.199a.497.497 0 0 1 -.496-.497v-1.651h.993v1.155h25.205z" fill="#97bdff"/><path d="m21.514 31.393h27.763v-4.772h-27.763z" fill="#cadeff"/><path d="m21.514 28.476h27.763v-1.788h-27.763z" fill="#fff" opacity=".7"/><path d="m21.5 30.959h28.304v11.917c-1.975-.062-3.134.104-3.476.496-.968 1.113.038 3.41-.496 3.476-.816.1-8.927-.065-24.331-.496v-15.393z" fill="#cadeff"/><path d="m22.99 30.959h26.318v12.413h-2.98c.442 1.325.442 1.987 0 1.987h-23.337v-14.4z" fill="#eff5ff"/><g fill="#457ae6"><path d="m49.667 25.872c.275 0 .497.222.497.496v16.855c0 .13-.052.256-.144.35l-3.522 3.555a.497.497 0 0 1 -.352.147h-24.646a.497.497 0 0 1 -.497-.497v-20.41c0-.274.223-.496.497-.496h28.166zm-.496.993h-27.174v19.417h23.943l3.232-3.263v-16.154z" fill-rule="nonzero"/><path d="m46.498 47.128a.497.497 0 0 1 -.849-.35v-3.555c0-.274.222-.496.497-.496h3.521c.442 0 .664.532.353.846zm1.979-3.408h-1.835v1.852zm-27.394-12.093v-.994h28.703v.994z" fill-rule="nonzero"/><path d="m29.565 28.728c0 .87-.699 1.576-1.561 1.576a1.569 1.569 0 0 1 -1.561-1.576c0-.87.698-1.576 1.561-1.576.862 0 1.56.706 1.56 1.576m15.129 0c0 .87-.7 1.576-1.56 1.576a1.569 1.569 0 0 1 -1.562-1.576c0-.87.699-1.576 1.561-1.576s1.561.706 1.561 1.576"/></g><path d="m28.02 29.496a.838.838 0 0 1 -.831-.84v-5.355c0-.461.374-.839.831-.839s.831.378.831.84v5.354c0 .461-.374.84-.83.84" fill="#cadeff"/><path d="m28.02 28.999a.341.341 0 0 0 .335-.343v-5.355a.341.341 0 0 0 -.335-.342.341.341 0 0 0 -.335.342v5.355c0 .188.153.343.335.343zm0 .993a1.335 1.335 0 0 1 -1.328-1.336v-5.355c0-.734.596-1.335 1.328-1.335s1.328.6 1.328 1.335v5.355c0 .735-.596 1.336-1.328 1.336z" fill="#457ae6" fill-rule="nonzero"/><path d="m43.148 29.496a.838.838 0 0 1 -.831-.84v-5.355c0-.461.374-.839.83-.839.458 0 .832.378.832.84v5.354c0 .461-.374.84-.831.84" fill="#cadeff"/><path d="m43.148 28.999a.342.342 0 0 0 .335-.343v-5.355a.341.341 0 0 0 -.335-.342.341.341 0 0 0 -.335.342v5.355c0 .188.153.343.335.343zm0 .993a1.334 1.334 0 0 1 -1.328-1.336v-5.355c0-.734.596-1.335 1.328-1.335s1.328.6 1.328 1.335v5.355c0 .735-.596 1.336-1.328 1.336z" fill="#457ae6" fill-rule="nonzero"/><path d="m21.695 4.064h-19.713a1.982 1.982 0 1 1 0-3.965h19.713a1.982 1.982 0 0 1 0 3.965" fill="#97bdff" mask="url(#l)" transform="translate(23.984 34.335)"/><path d="m36.416 43.267h-10.45a1.982 1.982 0 0 1 0-3.965h10.45a1.982 1.982 0 1 1 0 3.965" fill="#97bdff"/><path d="m2.775 4.064h-.793a1.982 1.982 0 1 1 0-3.965h.793a1.982 1.982 0 0 1 0 3.965" fill="#457ae6" mask="url(#m)" transform="translate(23.984 34.335)"/><path d="m36.411 43.273h-.793a1.982 1.982 0 1 1 0-3.964h.793a1.982 1.982 0 0 1 0 3.964" fill="#457ae6"/><path d="m80.724 28.419h67.406a3.552 3.552 0 0 1 0 7.105h-67.406a3.552 3.552 0 1 1 0-7.105z" fill="#598bff"/><path d="m78.948 42.628h103.778a1.776 1.776 0 0 1 0 3.552h-103.778a1.776 1.776 0 1 1 0-3.552z" fill="#d9e4ff"/><path d="m26.613 75.487h8.866a1.776 1.776 0 1 1 0 3.552h-8.866a1.776 1.776 0 0 1 0-3.552zm24.837 0h8.866a1.776 1.776 0 1 1 0 3.552h-8.866a1.776 1.776 0 0 1 0-3.552zm24.837 0h8.866a1.776 1.776 0 1 1 0 3.552h-8.866a1.776 1.776 0 1 1 0-3.552zm24.836 0h8.867a1.776 1.776 0 1 1 0 3.552h-8.867a1.776 1.776 0 1 1 0-3.552zm24.837 0h8.866a1.776 1.776 0 1 1 0 3.552h-8.866a1.776 1.776 0 1 1 0-3.552zm24.837 0h8.866a1.776 1.776 0 1 1 0 3.552h-8.866a1.776 1.776 0 0 1 0-3.552zm24.837 0h8.866a1.776 1.776 0 1 1 0 3.552h-8.866a1.776 1.776 0 1 1 0-3.552z" fill="#d9e4ff"/></g><path d="m14.4 0h158.8a1.8 1.8 0 0 1 1.8 1.8v67.4a1.8 1.8 0 0 1 -1.8 1.8h-158.8c-7.953 0-14.4-6.447-14.4-14.4v-42.2c0-7.953 6.447-14.4 14.4-14.4z" fill="url(#a)" opacity=".2" transform="translate(.118 231.868)"/><path d="m15.225 238.968h144.785a8 8 0 0 1 8 8v40.8a8 8 0 0 1 -8 8h-144.785a8 8 0 0 1 -8-8v-40.8a8 8 0 0 1 8-8z" fill="#fff" fill-rule="nonzero"/><path d="m79.177 272.693h65.74a1.775 1.775 0 0 1 0 3.55h-65.74a1.775 1.775 0 0 1 0-3.55z" fill="#d9e4ff"/><path d="m80.952 258.493h44.423a3.55 3.55 0 1 1 0 7.1h-44.423a3.55 3.55 0 0 1 0-7.1z" fill="#598bff"/><path d="m64.078 238.968h1v56.8h-1z" fill="#d9e4ff"/><path d="m28.863 279.451h19.924v-19.344h-19.924z" fill="#cadeff"/><path d="m28.863 260.107h18.357v19.344h-18.357z" fill="#eff5ff"/><path d="m28.863 279.516h-5.979a.243.243 0 0 1 -.243-.243v-18.923c0-.134.108-.243.243-.243h5.979c.135 0 .243.11.243.243v18.923a.243.243 0 0 1 -.243.243" fill="#6da3f2"/><path d="m28.837 279.516h-4.82a.22.22 0 0 1 -.22-.22v-18.97a.22.22 0 0 1 .22-.22h4.82a.22.22 0 0 1 .22.22v18.97a.22.22 0 0 1 -.22.22" fill="#97bdff"/><g fill="#457ae6"><path d="m28.61 259.854h.993v19.418a.74.74 0 0 1 -.74.74h-5.979a.74.74 0 0 1 -.74-.74v-19.418h.993v19.166h5.473z" fill-rule="nonzero"/><path d="m48.23 279.02a.06.06 0 0 0 .06-.06v-22.542a.06.06 0 0 0 -.06-.06h-25.033a.06.06 0 0 0 -.06.06v22.541c0 .034.027.06.06.06h25.033zm0 .993h-25.033a1.053 1.053 0 0 1 -1.053-1.054v-22.54c0-.582.472-1.054 1.053-1.054h25.033c.582 0 1.054.472 1.054 1.053v22.541c0 .582-.472 1.054-1.054 1.054z" fill-rule="nonzero"/><path d="m23.973 258.304h.745v-.745h-.745zm1.51 0h.746v-.745h-.746zm1.511 0h.745v-.745h-.745z"/><path d="m49.191 259.623v.994h-26.803v-.994zm-20.581 17.843v-.993h14.827v.993z" fill-rule="nonzero"/></g><g transform="translate(405.348 231.28)"><rect fill="url(#a)" height="83" opacity=".2" rx="12" width="82"/><path d="m14.24 6.18h55.303a8 8 0 0 1 8 8v54.64a8 8 0 0 1 -8 8h-55.303a8 8 0 0 1 -8-8v-54.64a8 8 0 0 1 8-8z" fill="#fff" fill-rule="nonzero"/><path d="m33.176 24.42.403.822" fill="#728bb7"/><path d="m41.833 27.976c1.323 0 2.397 1.048 2.397 2.342 0 1.293-1.074 2.342-2.397 2.342-1.324 0-2.398-1.049-2.398-2.342 0-1.294 1.074-2.342 2.398-2.342m2.727 24.797v1.588c0 1.472-1.22 2.665-2.727 2.665-1.508 0-2.729-1.194-2.729-2.665v-1.588h5.457z" fill="#457ae6"/><path d="m41.833 52.773v4.253c1.507 0 2.728-1.193 2.728-2.665v-1.588z" fill="#457ae6"/><path d="m41.833 54.432h12.31c0-5.506-3.567-1.78-3.567-14.542 0-5.318-3.566-9.572-8.743-9.572s-8.744 4.254-8.744 9.572c0 12.761-3.566 9.035-3.566 14.542z" fill="#6da3f2"/><path d="m43.168 52.69h10.313c0-4.897-2.987-1.584-2.987-12.934 0-4.73-2.988-8.513-7.326-8.513-4.337 0-7.325 3.784-7.325 8.513 0 10.633-2.621 8.397-2.953 12.098-.04.445.294.836.726.836z" fill="#97bdff"/><path d="m30.49 55.083c-.938 0-1.679-.792-1.585-1.703.125-1.236.445-1.972 1.128-2.883l.36-.475c.139-.183.248-.336.352-.494 1.109-1.68 1.677-4.284 1.677-9.638 0-5.784 3.953-10.224 9.41-10.224 5.458 0 9.411 4.44 9.411 10.224 0 5.354.569 7.958 1.677 9.639.105.157.214.31.352.493.05.067.294.385.36.475.683.911 1.004 1.647 1.13 2.883.091.912-.649 1.703-1.586 1.703zm22.686-1.303c.15 0 .272-.13.257-.271-.1-.986-.327-1.508-.878-2.243-.061-.082-.303-.398-.358-.471a10.7 10.7 0 0 1 -.398-.56c-1.27-1.927-1.89-4.763-1.89-10.345 0-5.101-3.4-8.92-8.076-8.92s-8.077 3.819-8.077 8.92c0 5.582-.619 8.418-1.889 10.344-.12.183-.245.357-.398.56l-.359.472c-.55.735-.777 1.257-.877 2.243-.015.142.106.271.257.271z" fill="#457ae6" fill-rule="nonzero"/><path d="m46.98 36.813c0 1.36-.821 2.463-1.835 2.463-1.013 0-1.834-1.103-1.834-2.463s.821-2.464 1.834-2.464c1.014 0 1.835 1.103 1.835 2.464" fill="#cadeff"/><g fill="#457ae6" fill-rule="nonzero"><path d="m34.604 26.949.578-.326.667 1.13-.578.325c-4.05 2.28-6.598 6.492-6.598 11.14v.651h-1.333v-.652c0-5.118 2.806-9.757 7.265-12.268zm21.722 12.268v.652h-1.334v-.652c0-4.647-2.548-8.858-6.598-11.14l-.578-.325.667-1.129.578.326c4.459 2.51 7.265 7.15 7.265 12.268z"/><path d="m32.525 24.545.578-.326.666 1.13-.578.325c-5.332 3.003-8.687 8.55-8.687 14.669v.651h-1.335v-.651c0-6.59 3.614-12.565 9.356-15.798zm27.971 15.798v.651h-1.334v-.651c0-6.12-3.355-11.666-8.688-14.67l-.578-.325.667-1.129.578.326c5.741 3.233 9.355 9.207 9.355 15.798z"/></g></g><path d="m76.67 162.327h395a8 8 0 0 1 8 8v35a8 8 0 0 1 -8 8h-395a8 8 0 0 1 -8-8v-35a8 8 0 0 1 8-8z" fill="#fff" fill-rule="nonzero"/><path d="m388.728 169.362h73.584c3.566 0 4.86.371 6.163 1.068a7.27 7.27 0 0 1 3.024 3.025c.697 1.303 1.069 2.596 1.069 6.162v16.42c0 3.566-.372 4.86-1.069 6.163a7.27 7.27 0 0 1 -3.024 3.024c-1.304.698-2.597 1.069-6.163 1.069h-73.584c-3.566 0-4.86-.371-6.163-1.069a7.27 7.27 0 0 1 -3.024-3.024c-.697-1.303-1.068-2.597-1.068-6.163v-16.42c0-3.566.37-4.859 1.068-6.162a7.27 7.27 0 0 1 3.024-3.025c1.304-.697 2.597-1.068 6.163-1.068z" fill="#598bff"/><text fill="#fff" font-family="-apple-system, BlinkMacSystemFont, 'Segoe UI', Roboto, 'Helvetica Neue', Arial, sans-serif, 'Apple Color Emoji', 'Segoe UI Emoji', 'Segoe UI Symbol'" font-size="14.4" font-weight="600" transform="translate(378.473 169.362)"><tspan x="18" y="24.466">SEARCH</tspan></text><path d="m105.118 184.922c-.28 6.323-5.631 11.223-11.955 10.944-6.324-.28-11.224-5.632-10.945-11.956.28-6.323 5.632-11.223 11.956-10.944s11.223 5.632 10.944 11.956" fill="#97bdff"/><path d="m105.055 183.674c-.247 5.611-4.997 9.959-10.608 9.711-5.61-.247-9.958-4.997-9.71-10.608.247-5.61 4.996-9.958 10.607-9.71 5.612.247 9.96 4.996 9.711 10.607" fill="#cadeff"/><path d="m105.055 183.674c.248-5.61-4.1-10.36-9.71-10.608a10.142 10.142 0 0 0 -7.944 3.292 10.12 10.12 0 0 1 6.63-2.089c5.61.248 9.958 4.997 9.71 10.608a10.125 10.125 0 0 1 -2.665 6.42 10.145 10.145 0 0 0 3.98-7.623" fill="#fff" opacity=".7"/><path d="m95.332 173.34c-5.46-.24-10.081 3.99-10.322 9.45-.241 5.459 3.99 10.08 9.45 10.321s10.08-3.989 10.322-9.449c.24-5.46-3.99-10.08-9.45-10.322zm-.925 20.95c-6.11-.27-10.845-5.442-10.575-11.552.27-6.111 5.441-10.846 11.552-10.577 6.11.27 10.845 5.443 10.576 11.553-.27 6.11-5.442 10.845-11.553 10.576z" fill="#457ae6" fill-rule="nonzero"/><path d="m103.74 192.75-1.61-1.76-1.304 1.194 1.61 1.759a1.225 1.225 0 0 1 -.076 1.73l6.91 7.548 3.11-2.848-6.91-7.547a1.225 1.225 0 0 1 -1.73-.077" fill="#c7e3ff"/><path d="m103.815 193.402-1.61-1.76.283-.26-.359-.392-1.303 1.194 1.61 1.76a1.225 1.225 0 0 1 -.076 1.73l6.909 7.547 1.02-.934-6.55-7.155a1.225 1.225 0 0 0 .076-1.73" fill="#6da3f2"/><path d="m105.47 192.826a1.225 1.225 0 0 1 -1.73-.077l-1.251-1.366-.285.259 1.61 1.76a1.224 1.224 0 0 1 -.075 1.73l6.55 7.156 2.09-1.915-6.908-7.547z" fill="#97bdff"/><path d="m104.175 192.351a.635.635 0 0 0 .898.04l.434-.398 7.706 8.417-3.98 3.644-7.707-8.417.436-.399a.636.636 0 0 0 .04-.897l-2.01-2.194 2.174-1.99zm-2.082-.527-.434.397 1.212 1.324c.537.587.616 1.431.256 2.093l6.179 6.75 2.24-2.052-6.178-6.75c-.691.301-1.526.149-2.063-.438z" fill="#457ae6" fill-rule="nonzero"/><path d="m134.67 169.362h215a8 8 0 0 1 8 8v20.93a8 8 0 0 1 -8 8h-215a8 8 0 0 1 -8-8v-20.93a8 8 0 0 1 8-8z" fill="#f2f6ff"/><path d="m146.583 179.914h76.147a7.914 7.914 0 0 1 0 15.828h-76.147a7.914 7.914 0 0 1 0-15.828z" fill="#d9e4ff"/><path d="m14.4 0h169.8a1.8 1.8 0 0 1 1.8 1.8v156.4a1.8 1.8 0 0 1 -1.8 1.8h-169.8c-7.953 0-14.4-6.447-14.4-14.4v-131.2c0-7.953 6.447-14.4 14.4-14.4z" fill="url(#a)" opacity=".2" transform="translate(498.942 155.462)"/><path d="m514.028 162.533h154.942a8 8 0 0 1 8 8v130.74a8 8 0 0 1 -8 8h-154.942a8 8 0 0 1 -8-8v-130.74a8 8 0 0 1 8-8z" fill="#fff" fill-rule="nonzero"/><path d="m506.028 204.964h170.942v1h-170.942zm15.939-14.144h88.578a1.768 1.768 0 1 1 0 3.536h-88.578a1.768 1.768 0 1 1 0-3.536zm93 41.548h46.064a1.768 1.768 0 1 1 0 3.536h-46.064a1.768 1.768 0 0 1 0-3.536z" fill="#d9e4ff"/><path d="m614.967 238.556h22.15a1.768 1.768 0 1 1 0 3.536h-22.15a1.768 1.768 0 0 1 0-3.536z" fill="#f2f6ff"/><path d="m614.967 251.815h46.064a1.768 1.768 0 1 1 0 3.536h-46.064a1.768 1.768 0 0 1 0-3.536z" fill="#d9e4ff"/><path d="m614.967 258.003h22.15a1.768 1.768 0 1 1 0 3.536h-22.15a1.768 1.768 0 0 1 0-3.536z" fill="#f2f6ff"/><path d="m614.967 271.263h46.064a1.768 1.768 0 1 1 0 3.536h-46.064a1.768 1.768 0 0 1 0-3.536z" fill="#d9e4ff"/><path d="m614.967 278.335h22.15a1.768 1.768 0 1 1 0 3.536h-22.15a1.768 1.768 0 0 1 0-3.536z" fill="#f2f6ff"/><path d="m597.313 230.6h5.2a3.6 3.6 0 0 1 3.6 3.6v5.175a3.6 3.6 0 0 1 -3.6 3.6h-5.2a3.6 3.6 0 0 1 -3.6-3.6v-5.175a3.6 3.6 0 0 1 3.6-3.6z" fill="#36f"/><path d="m597.313 250.047h5.2a3.6 3.6 0 0 1 3.6 3.6v5.176a3.6 3.6 0 0 1 -3.6 3.6h-5.2a3.6 3.6 0 0 1 -3.6-3.6v-5.176a3.6 3.6 0 0 1 3.6-3.6z" fill="#598bff"/><path d="m597.313 270.379h5.2a3.6 3.6 0 0 1 3.6 3.6v5.175a3.6 3.6 0 0 1 -3.6 3.6h-5.2a3.6 3.6 0 0 1 -3.6-3.6v-5.175a3.6 3.6 0 0 1 3.6-3.6z" fill="#cadeff"/><path d="m523.735 176.677h62.014a3.536 3.536 0 0 1 0 7.072h-62.014a3.536 3.536 0 0 1 0-7.072z" fill="#598bff"/><path d="m540.09 275c-9.674-5.61-12.967-18-7.356-27.671 5.61-9.673 18-12.966 27.672-7.357 9.672 5.611 12.966 18 7.356 27.673-5.611 9.673-18 12.966-27.673 7.355m24.07-41.499c-13.246-7.683-30.213-3.173-37.896 10.074-7.685 13.245-3.175 30.213 10.072 37.897s30.214 3.174 37.897-10.073c7.684-13.247 3.174-30.214-10.073-37.898" fill="#49a4f5"/><path d="m574.232 271.399c7.683-13.247 3.175-30.214-10.072-37.897-13.247-7.684-30.214-3.174-37.898 10.072l6.471 3.754c5.611-9.672 18-12.966 27.673-7.355 9.673 5.61 12.966 18 7.355 27.673-4.835 8.336-14.706 11.917-23.534 9.159l-2.23 7.151c12.092 3.78 25.613-1.138 32.235-12.557" fill="#598bff"/><path d="m540.09 275c-9.674-5.61-12.967-18-7.356-27.671l-6.471-3.754c-7.685 13.245-3.175 30.213 10.072 37.897a27.764 27.764 0 0 0 5.663 2.485l2.229-7.152a20.234 20.234 0 0 1 -4.138-1.805" fill="#cadeff"/><path d="m533.386 247.544-4.988-2.893c-7.884 12.81-.924 28.196 9.288 34.12a21.4 21.4 0 0 0 4.366 1.916l1.032-3.61a15.588 15.588 0 0 1 -3.19-1.392c-7.457-4.324-13.467-17.802-6.508-28.14z" fill="#eef5ff"/><path d="m573.159 270.776c7.339-12.654 3.031-28.862-9.622-36.2-12.653-7.34-28.861-3.033-36.201 9.621s-3.032 28.861 9.623 36.2c12.653 7.34 28.86 3.033 36.2-9.621zm2.147 1.245c-8.027 13.84-25.753 18.552-39.593 10.524-13.84-8.027-18.553-25.754-10.525-39.593 8.028-13.84 25.755-18.552 39.595-10.524 13.84 8.027 18.55 25.753 10.523 39.593z" fill="#36f"/><path d="m566.954 267.177c5.351-9.227 2.21-21.045-7.016-26.396-9.227-5.352-21.045-2.21-26.397 7.016-5.351 9.227-2.21 21.044 7.017 26.397 9.226 5.351 21.044 2.21 26.396-7.017zm2.147 1.245c-6.04 10.413-19.377 13.959-29.789 7.92-10.413-6.04-13.958-19.378-7.919-29.791 6.04-10.412 19.378-13.957 29.79-7.918 10.413 6.04 13.958 19.377 7.918 29.79z" fill="#36f"/><path d="m534.164 246.723-1.245 2.147-8.354-4.844 1.246-2.148zm8.674 38.775-2.382-.701 2.427-8.241 2.382.701z" fill="#36f"/><path d="m542.338 253.583h15.95a1.768 1.768 0 1 1 0 3.536h-15.95a1.768 1.768 0 0 1 0-3.536zm3.543 6.188h8.864a1.768 1.768 0 1 1 0 3.536h-8.864a1.768 1.768 0 0 1 0-3.536z" fill="#d9e4ff"/><path d="m650.842 185.684-3.684-3.509a.72.72 0 0 0 -.984 0 .641.641 0 0 0 0 .938l4.176 3.978a.72.72 0 0 0 .984 0l4.175-3.978a.641.641 0 0 0 0-.938.72.72 0 0 0 -.984 0l-3.683 3.51z" fill="#a6c1ff"/><path d="m14.4 0h182.8a1.8 1.8 0 0 1 1.8 1.8v366.4a1.8 1.8 0 0 1 -1.8 1.8h-182.8c-7.953 0-14.4-6.447-14.4-14.4v-341.2c0-7.953 6.447-14.4 14.4-14.4z" fill="url(#a)" opacity=".2" transform="translate(689.696 248.184)"/><path d="m704.803 255.282h168.786a8 8 0 0 1 8 8v339.804a8 8 0 0 1 -8 8h-168.786a8 8 0 0 1 -8-8v-339.804a8 8 0 0 1 8-8z" fill="#fff" fill-rule="nonzero"/><path d="m854.767 335.793-4.159-3.97a.812.812 0 0 0 -1.11 0 .726.726 0 0 0 0 1.061l4.714 4.5a.812.812 0 0 0 1.11 0l4.715-4.5a.726.726 0 0 0 0-1.06.812.812 0 0 0 -1.111 0l-4.159 3.97z" fill="#a6c1ff"/><path d="m725.652 341.104a.835.835 0 0 1 -.386-.094l-4.25-2.22-4.248 2.22a.835.835 0 0 1 -1.206-.88l.809-4.69-3.433-3.322a.835.835 0 0 1 .46-1.423l4.75-.69 2.123-4.272c.282-.566 1.21-.566 1.492 0l2.124 4.272 4.75.69a.831.831 0 0 1 .46 1.423l-3.434 3.321.81 4.69a.833.833 0 0 1 -.821.975m12.24-12.5h52a2 2 0 1 1 0 4h-52a2 2 0 1 1 0-4z" fill="#598bff"/><path d="m737.892 336.604h25a2 2 0 1 1 0 4h-25a2 2 0 1 1 0-4z" fill="#f2f6ff"/><path d="m754.969 365.948a.835.835 0 0 1 -.386-.094l-4.25-2.22-4.248 2.22a.835.835 0 0 1 -1.206-.88l.809-4.69-3.433-3.321a.835.835 0 0 1 .46-1.424l4.75-.69 2.123-4.271c.282-.567 1.21-.567 1.492 0l2.124 4.271 4.75.69a.831.831 0 0 1 .46 1.424l-3.434 3.32.81 4.69a.833.833 0 0 1 -.821.975m15.365-12.5h52a2 2 0 1 1 0 4h-52a2 2 0 1 1 0-4z" fill="#a6c1ff"/><path d="m770.334 361.448h25a2 2 0 1 1 0 4h-25a2 2 0 1 1 0-4z" fill="#f2f6ff"/><path d="m754.969 390.793a.835.835 0 0 1 -.386-.095l-4.25-2.22-4.248 2.22a.835.835 0 0 1 -1.206-.88l.809-4.69-3.433-3.321a.835.835 0 0 1 .46-1.424l4.75-.69 2.123-4.271c.282-.567 1.21-.567 1.492 0l2.124 4.271 4.75.69a.831.831 0 0 1 .46 1.424l-3.434 3.32.81 4.69a.833.833 0 0 1 -.821.976m15.365-12.501h52a2 2 0 1 1 0 4h-52a2 2 0 1 1 0-4z" fill="#a6c1ff"/><path d="m770.334 386.292h25a2 2 0 1 1 0 4h-25a2 2 0 1 1 0-4z" fill="#f2f6ff"/><path d="m754.969 415.637a.835.835 0 0 1 -.386-.094l-4.25-2.22-4.248 2.22a.835.835 0 0 1 -1.206-.881l.809-4.69-3.433-3.321a.835.835 0 0 1 .46-1.423l4.75-.69 2.123-4.272c.282-.567 1.21-.567 1.492 0l2.124 4.272 4.75.69a.831.831 0 0 1 .46 1.423l-3.434 3.32.81 4.69a.833.833 0 0 1 -.821.976m15.365-12.501h52a2 2 0 1 1 0 4h-52a2 2 0 1 1 0-4z" fill="#a6c1ff"/><path d="m770.334 411.136h25a2 2 0 1 1 0 4h-25a2 2 0 1 1 0-4z" fill="#f2f6ff"/><path d="m754.969 490.17a.835.835 0 0 1 -.386-.095l-4.25-2.22-4.248 2.22a.835.835 0 0 1 -1.206-.88l.809-4.69-3.433-3.322a.835.835 0 0 1 .46-1.423l4.75-.69 2.123-4.272c.282-.566 1.21-.566 1.492 0l2.124 4.272 4.75.69a.831.831 0 0 1 .46 1.423l-3.434 3.321.81 4.69a.833.833 0 0 1 -.821.975m15.365-12.501h52a2 2 0 1 1 0 4h-52a2 2 0 1 1 0-4z" fill="#a6c1ff"/><path d="m770.334 485.668h25a2 2 0 1 1 0 4h-25a2 2 0 1 1 0-4z" fill="#f2f6ff"/><path d="m754.969 515.013a.835.835 0 0 1 -.386-.094l-4.25-2.22-4.248 2.22a.835.835 0 0 1 -1.206-.88l.809-4.69-3.433-3.322a.835.835 0 0 1 .46-1.423l4.75-.69 2.123-4.272c.282-.566 1.21-.566 1.492 0l2.124 4.272 4.75.69a.831.831 0 0 1 .46 1.423l-3.434 3.321.81 4.69a.833.833 0 0 1 -.821.975m15.365-12.5h52a2 2 0 1 1 0 4h-52a2 2 0 1 1 0-4z" fill="#a6c1ff"/><path d="m770.334 510.513h25a2 2 0 1 1 0 4h-25a2 2 0 1 1 0-4z" fill="#f2f6ff"/><path d="m754.969 539.857a.835.835 0 0 1 -.386-.094l-4.25-2.22-4.248 2.22a.835.835 0 0 1 -1.206-.88l.809-4.69-3.433-3.322a.835.835 0 0 1 .46-1.423l4.75-.69 2.123-4.272c.282-.566 1.21-.566 1.492 0l2.124 4.272 4.75.69a.831.831 0 0 1 .46 1.423l-3.434 3.321.81 4.69a.833.833 0 0 1 -.821.975m15.365-12.5h52a2 2 0 1 1 0 4h-52a2 2 0 1 1 0-4z" fill="#a6c1ff"/><path d="m770.334 535.357h25a2 2 0 1 1 0 4h-25a2 2 0 1 1 0-4z" fill="#f2f6ff"/><path d="m783.397 440.48a.835.835 0 0 1 -.385-.093l-4.25-2.22-4.248 2.22a.835.835 0 0 1 -1.207-.881l.81-4.69-3.434-3.321a.835.835 0 0 1 .46-1.423l4.75-.69 2.124-4.272c.281-.567 1.21-.567 1.492 0l2.123 4.272 4.75.69a.831.831 0 0 1 .46 1.423l-3.433 3.32.81 4.69a.833.833 0 0 1 -.822.976m15.366-12.501h52a2 2 0 1 1 0 4h-52a2 2 0 1 1 0-4z" fill="#d9e4ff"/><path d="m798.763 435.98h25a2 2 0 1 1 0 4h-25a2 2 0 1 1 0-4z" fill="#f2f6ff"/><path d="m783.397 465.325a.835.835 0 0 1 -.385-.094l-4.25-2.22-4.248 2.22a.835.835 0 0 1 -1.207-.881l.81-4.69-3.434-3.32a.835.835 0 0 1 .46-1.424l4.75-.69 2.124-4.272c.281-.567 1.21-.567 1.492 0l2.123 4.272 4.75.69a.831.831 0 0 1 .46 1.423l-3.433 3.32.81 4.69a.833.833 0 0 1 -.822.976m15.366-12.501h52a2 2 0 1 1 0 4h-52a2 2 0 1 1 0-4z" fill="#d9e4ff"/><path d="m798.763 460.824h25a2 2 0 1 1 0 4h-25a2 2 0 1 1 0-4z" fill="#f2f6ff"/><path d="m748.33 419.431h1v38.153h-1z" fill="#d9e4ff"/><path d="m748.33 431.853h13.326v1h-13.326zm0 24.844h13.326v1h-13.326z" fill="#d9e4ff"/><path d="m783.397 568.25a.835.835 0 0 1 -.385-.094l-4.25-2.22-4.248 2.22a.835.835 0 0 1 -1.207-.88l.81-4.69-3.434-3.321a.835.835 0 0 1 .46-1.424l4.75-.69 2.124-4.271c.281-.567 1.21-.567 1.492 0l2.123 4.271 4.75.69a.831.831 0 0 1 .46 1.424l-3.433 3.32.81 4.69a.833.833 0 0 1 -.822.976m15.366-12.501h52a2 2 0 1 1 0 4h-52a2 2 0 1 1 0-4z" fill="#d9e4ff"/><path d="m798.763 563.75h25a2 2 0 1 1 0 4h-25a2 2 0 1 1 0-4z" fill="#f2f6ff"/><path d="m783.397 593.095a.835.835 0 0 1 -.385-.094l-4.25-2.22-4.248 2.22a.835.835 0 0 1 -1.207-.881l.81-4.69-3.434-3.321a.835.835 0 0 1 .46-1.423l4.75-.69 2.124-4.272c.281-.567 1.21-.567 1.492 0l2.123 4.272 4.75.69a.831.831 0 0 1 .46 1.423l-3.433 3.32.81 4.69a.833.833 0 0 1 -.822.976m15.366-12.501h52a2 2 0 1 1 0 4h-52a2 2 0 1 1 0-4z" fill="#d9e4ff"/><path d="m798.763 588.594h25a2 2 0 1 1 0 4h-25a2 2 0 1 1 0-4z" fill="#f2f6ff"/><path d="m748.33 547.2h1v38.154h-1z" fill="#d9e4ff"/><path d="m748.33 559.623h13.326v1h-13.326zm0 24.844h13.326v1h-13.326z" fill="#d9e4ff"/><path d="m736.249 273.284h-20.16c-.232 0-.42-.16-.42-.357v-2.362c0-.197.188-.357.42-.357h20.16c.232 0 .42.16.42.357v2.362c0 .197-.188.357-.42.357" fill="#6da3f2"/><path d="m736.32 271.571h-20.303c-.192 0-.348-.097-.348-.217v-.93c0-.12.156-.217.348-.217h20.303c.193 0 .349.098.349.217v.93c0 .12-.156.217-.349.217" fill="#97bdff"/><path d="m726.964 270.411v-.981h9.045c.528 0 .955.377.955.841v2.317c0 .465-.427.842-.955.842h-19.591c-.527 0-.954-.377-.954-.842v-2.317c0-.464.427-.841.954-.841h12.952v.981h-12.793v2.038h19.273v-2.038z" fill="#457ae6" fill-rule="nonzero"/><path d="m736.144 277.93h-15.36c-.177 0-.32.16-.32.357v2.362c0 .197.143.357.32.357h15.36c.176 0 .32-.16.32-.357v-2.362c0-.197-.144-.357-.32-.357" fill="#cadeff"/><path d="m736.198 279.43h-15.47c-.146 0-.264.097-.264.217v.93c0 .12.118.217.265.217h15.469c.146 0 .265-.097.265-.217v-.93c0-.12-.119-.217-.265-.217" fill="#eff5ff"/><path d="m731.978 280.506v1h-11.553c-.53 0-.961-.384-.961-.857v-2.362c0-.473.43-.857.961-.857h15.746c.531 0 .961.384.961.857v2.362c0 .473-.43.857-.961.857h-5.747v-1h5.586v-2.076h-15.424v2.076z" fill="#457ae6" fill-rule="nonzero"/><path d="m736.198 284.43h-15.47c-.146 0-.264.24-.264.535v2.294c0 .295.118.535.265.535h15.469c.146 0 .265-.24.265-.535v-2.294c0-.295-.119-.535-.265-.535" fill="#eff5ff"/><path d="m731.978 287.006v1h-11.553c-.53 0-.961-.384-.961-.857v-2.362c0-.473.43-.857.961-.857h15.746c.531 0 .961.384.961.857v2.362c0 .473-.43.857-.961.857h-6.867v-1h6.706v-2.076h-15.424v2.076z" fill="#457ae6" fill-rule="nonzero"/><path d="m736.198 290.93h-15.47c-.146 0-.264.24-.264.535v2.294c0 .295.118.535.265.535h15.469c.146 0 .265-.24.265-.535v-2.294c0-.295-.119-.535-.265-.535" fill="#eff5ff"/><path d="m731.978 293.506v1h-11.553c-.53 0-.961-.384-.961-.857v-2.362c0-.473.43-.857.961-.857h15.746c.531 0 .961.384.961.857v2.362c0 .473-.43.857-.961.857h-2.478v-1h2.317v-2.076h-15.424v2.076z" fill="#457ae6" fill-rule="nonzero"/><path d="m713.964 273.43h-4.5l2.203-2.974c.026-.035.068-.035.093 0z" fill="#457ae6"/><path d="m715.29 279.43a.5.5 0 0 1 .5-.5h1.494a.5.5 0 1 1 0 1h-1.495a.5.5 0 0 1 -.5-.5zm0 6.5a.5.5 0 0 1 .5-.5h1.494a.5.5 0 1 1 0 1h-1.495a.5.5 0 0 1 -.5-.5zm0 6.5a.5.5 0 0 1 .5-.5h1.494a.5.5 0 1 1 0 1h-1.495a.5.5 0 0 1 -.5-.5z" fill="#457ae6" fill-rule="nonzero"/><path d="m750.107 255.282h1v54.125h-1zm-30.207 93.165h1v182.783h-1z" fill="#d9e4ff"/><path d="m719.9 357.32h13.327v1h-13.327zm0 24.844h13.327v1h-13.327zm0 24.846h13.327v1h-13.327zm0 74.531h13.327v1h-13.327zm0 24.844h13.327v1h-13.327zm0 24.845h13.327v1h-13.327zm-23.097-222.71h184.786v1h-184.786zm66.627-21.295h31.098a1.775 1.775 0 0 1 0 3.55l-31.098-.001a1.775 1.775 0 1 1 0-3.55z" fill="#d9e4ff"/><path d="m765.205 273.028h63.084a3.55 3.55 0 1 1 0 7.098h-63.084a3.55 3.55 0 1 1 0-7.098z" fill="#598bff"/><path d="m14.4 0h182.8a1.8 1.8 0 0 1 1.8 1.8v236.4a1.8 1.8 0 0 1 -1.8 1.8h-182.8c-7.953 0-14.4-6.447-14.4-14.4v-211.2c0-7.953 6.447-14.4 14.4-14.4z" fill="url(#a)" opacity=".2" transform="translate(690.17 .746)"/><g transform="translate(697.277 7.83)"><path d="m8 0h168.786a8 8 0 0 1 8 8v209.83a8 8 0 0 1 -8 8h-168.786a8 8 0 0 1 -8-8v-209.83a8 8 0 0 1 8-8z" fill="#fff" fill-rule="nonzero"/><path d="m37.759 199.262h107.491a4 4 0 0 1 4 4v9.712a4 4 0 0 1 -4 4h-107.491a4 4 0 0 1 -4-4v-9.712a4 4 0 0 1 4-4z" fill="#f2f6ff"/><ellipse cx="167.018" cy="208.118" fill="#d9e4ff" rx="10.661" ry="10.627"/><ellipse cx="167.018" cy="208.118" fill="#fff" rx="3.554" ry="3.542"/><ellipse cx="16.879" cy="208.118" fill="#d9e4ff" rx="6.219" ry="6.199"/><path d="m62.634 124.87h111.045a4 4 0 0 1 4 4v20.34a4 4 0 0 1 -4 4h-111.045a4 4 0 0 1 -4-4v-20.34a4 4 0 0 1 4-4z" fill="#598bff"/><path d="m66.634 130.59h102.045a2 2 0 0 1 0 4h-102.045a2 2 0 1 1 0-4zm0 6.873h102.045a2 2 0 0 1 0 4h-102.045a2 2 0 1 1 0-4zm0 6.874h45.045a2 2 0 1 1 0 4h-45.045a2 2 0 1 1 0-4z" fill="#fff"/><path d="m37.759 68.192h80.84a4 4 0 0 1 4 4v13.254a4 4 0 0 1 -4 4h-80.84a4 4 0 0 1 -4-4v-13.254a4 4 0 0 1 4-4z" fill="#f2f6ff"/><path d="m40.86 73.506h74.458a1.771 1.771 0 0 1 0 3.542h-74.457a1.771 1.771 0 0 1 0-3.542zm0 7.084h25.458a1.771 1.771 0 1 1 0 3.542h-25.457a1.771 1.771 0 1 1 0-3.542z" fill="#a6c1ff"/><path d="m16.158 81.312h4.424c.266 0 .52.05.755.138a2.155 2.155 0 0 0 -1.51-.618h-4.423c-1.1 0-2.014.83-2.147 1.896l-.044 3.469 2.414.964 6.264-.854-.366-3.398c.133-1.065-6.466-1.597-5.367-1.597" fill="#6fa0ef"/><path d="m21.987 82.848a2.157 2.157 0 0 0 -.65-1.398c-.236-.089-.895-.472-1.16-.472l-4.019.334c-1.1 0-2.014.83-2.147 1.895l-.05 3.43 3.621.882 4.433-1.13c-.015-.096-.022-3.443-.028-3.541" fill="#97bdff"/><path d="m13.583 86.25h-.652v-3.522l.002-.04a2.497 2.497 0 0 1 2.47-2.182h4.425a2.5 2.5 0 0 1 2.484 2.342v3.464h-.651v-3.442a1.845 1.845 0 0 0 -1.833-1.712h-4.424c-.919 0-1.699.689-1.821 1.59z" fill="#457ae6" fill-rule="nonzero"/><path d="m17.616 81.435c.342 0 .621-.28.621-.622v-1.15a.623.623 0 0 0 -.621-.621.624.624 0 0 0 -.622.621v1.15c0 .342.28.622.622.622" fill="#c7e3ff"/><path d="m17.616 81.435c.342 0 .621-.28.621-.622v-1.15a.623.623 0 0 0 -.621-.621.624.624 0 0 0 -.622.621v1.15c0 .342.28.622.622.622z" stroke="#457ae6" stroke-linecap="round" stroke-width="1.8"/><path d="m17.599 80.01c1.378 0 2.506-1.658 2.506-3.036v-2.45c0-.68-.555-1.234-1.234-1.234h-2.545c-.678 0-1.233.555-1.233 1.233v2.451c0 1.378 1.128 3.036 2.506 3.036" fill="#cadeff"/><path d="m19.163 76.974v-2.45c0-.68-.555-1.235-1.234-1.235h.614c.678 0 1.233.556 1.233 1.234v2.45c0 1.379-1.127 3.037-2.506 3.037-.104 0-.205-.013-.306-.03 1.235-.222 2.2-1.732 2.2-3.006" fill="#fff"/><path d="m17.599 80.336c-1.501 0-2.832-1.719-2.832-3.362v-2.45c0-.86.7-1.56 1.56-1.56h2.544c.859 0 1.56.7 1.56 1.56v2.45c0 1.643-1.331 3.362-2.832 3.362zm0-.652c1.1 0 2.18-1.396 2.18-2.71v-2.45a.912.912 0 0 0 -.908-.909h-2.545a.911.911 0 0 0 -.907.908v2.451c0 1.314 1.08 2.71 2.18 2.71z" fill="#457ae6" fill-rule="nonzero"/><path d="m20.11 74.44-4.977-.018-.026 1.813c-.829-.829-.785-3.71-.785-3.71l1.134-.174-.392-.785c5.696 1.173 5.047 2.874 5.047 2.874" fill="#6fa0ef"/><path d="m15.064 71.566-.131-.262s4.647.633 5.63 1.614c.98.982-.424 3.143-.424 3.143l-.028-1.62s.65-1.702-5.047-2.875" fill="#97bdff"/><path d="m14.85 74.818a1.05 1.05 0 0 1 1-.72l3.553.014c.455.002.843.293.986.7.077-.213.134-.419.166-.613.077-.467.006-.82-.224-1.05-.325-.326-1.26-.672-2.569-.984a31.318 31.318 0 0 0 -2.257-.444l.443.885-1.299.2c.003.12.007.259.014.41.02.422.059.838.119 1.225.02.132.043.258.068.377zm-.485-3.92.612.083.254.037a35.718 35.718 0 0 1 2.682.513c1.434.341 2.435.712 2.88 1.157.401.402.513.962.405 1.617a4.722 4.722 0 0 1 -.377 1.17 6.832 6.832 0 0 1 -.409.763l-.58.893-.019-1.065-.016-.911a.398.398 0 0 0 -.396-.392l-3.553-.013a.398.398 0 0 0 -.4.393l-.026 1.868-.545-.546c-.373-.372-.601-1.036-.74-1.924a12.36 12.36 0 0 1 -.125-1.293c-.014-.287-.018-.53-.016-.706v-.021l.004-.276.965-.148-.6-1.2z" fill="#457ae6" fill-rule="nonzero"/><path d="m13.298 70.248.197.41" fill="#728bb7"/><path d="m16.641 82.784.916-1.35-.61-1.276-1.554.88z" fill="#fff"/><path d="m16.648 83.354-1.73-2.42 2.171-1.232.843 1.76zm.535-1.948-.38-.793-.934.53.765 1.07z" fill="#457ae6" fill-rule="nonzero"/><path d="m18.66 82.784-.916-1.35.611-1.276 1.553.88z" fill="#fff"/><path d="m19.433 81.143-.935-.53-.38.793.55.808.765-1.07zm-2.064.32.843-1.761 2.172 1.231-1.73 2.42zm-.138 3.474h.652v2.416h-.652zm1.556-.926v-.652h2.376v.652z" fill="#457ae6" fill-rule="nonzero"/><path d="m12.87 71.296-.27.182-.365-.54.27-.182a9.287 9.287 0 1 1 -3.097 3.51l.147-.291.582.294-.147.291a8.636 8.636 0 1 0 2.88-3.264z" fill="#457ae6" fill-rule="nonzero"/><path d="m37.759 160.295h80.84a4 4 0 0 1 4 4v13.255a4 4 0 0 1 -4 4h-80.84a4 4 0 0 1 -4-4v-13.255a4 4 0 0 1 4-4z" fill="#f2f6ff"/><path d="m40.86 165.609h74.458a1.771 1.771 0 0 1 0 3.542h-74.457a1.771 1.771 0 0 1 0-3.542zm0 7.085h25.458a1.771 1.771 0 0 1 0 3.542h-25.457a1.771 1.771 0 1 1 0-3.542z" fill="#a6c1ff"/><path d="m16.158 173.415h4.424c.266 0 .52.05.755.138a2.155 2.155 0 0 0 -1.51-.618h-4.423c-1.1 0-2.014.83-2.147 1.896l-.044 3.47 2.414.964 6.264-.855-.366-3.398c.133-1.065-6.466-1.597-5.367-1.597" fill="#6fa0ef"/><path d="m21.987 174.951a2.157 2.157 0 0 0 -.65-1.398c-.236-.088-.895-.472-1.16-.472l-4.019.334c-1.1 0-2.014.83-2.147 1.896l-.05 3.43 3.621.882 4.433-1.13c-.015-.097-.022-3.444-.028-3.542" fill="#97bdff"/><path d="m13.583 178.353h-.652v-3.522l.002-.04a2.497 2.497 0 0 1 2.47-2.182h4.425a2.5 2.5 0 0 1 2.484 2.342v3.465h-.651v-3.443a1.845 1.845 0 0 0 -1.833-1.712h-4.424c-.919 0-1.699.689-1.821 1.591v3.5z" fill="#457ae6" fill-rule="nonzero"/><path d="m17.616 173.538c.342 0 .621-.28.621-.621v-1.15a.623.623 0 0 0 -.621-.622.624.624 0 0 0 -.622.621v1.15c0 .343.28.622.622.622" fill="#c7e3ff"/><path d="m17.616 173.538c.342 0 .621-.28.621-.621v-1.15a.623.623 0 0 0 -.621-.622.624.624 0 0 0 -.622.621v1.15c0 .343.28.622.622.622z" stroke="#457ae6" stroke-linecap="round" stroke-width="1.8"/><path d="m17.599 172.113c1.378 0 2.506-1.658 2.506-3.036v-2.45c0-.679-.555-1.234-1.234-1.234h-2.545c-.678 0-1.233.555-1.233 1.234v2.45c0 1.378 1.128 3.036 2.506 3.036" fill="#cadeff"/><path d="m19.163 169.077v-2.45c0-.679-.555-1.234-1.234-1.234h.614c.678 0 1.233.555 1.233 1.233v2.451c0 1.378-1.127 3.036-2.506 3.036-.104 0-.205-.012-.306-.03 1.235-.221 2.2-1.731 2.2-3.006" fill="#fff"/><path d="m17.599 172.439c-1.501 0-2.832-1.719-2.832-3.362v-2.45c0-.859.7-1.56 1.56-1.56h2.544c.859 0 1.56.701 1.56 1.56v2.45c0 1.643-1.331 3.362-2.832 3.362zm0-.652c1.1 0 2.18-1.395 2.18-2.71v-2.45a.912.912 0 0 0 -.908-.908h-2.545a.911.911 0 0 0 -.907.908v2.45c0 1.315 1.08 2.71 2.18 2.71z" fill="#457ae6" fill-rule="nonzero"/><path d="m20.11 166.544-4.977-.019-.026 1.813c-.829-.829-.785-3.709-.785-3.709l1.134-.174-.392-.786c5.696 1.174 5.047 2.875 5.047 2.875" fill="#6fa0ef"/><path d="m15.064 163.67-.131-.263s4.647.633 5.63 1.615c.98.982-.424 3.142-.424 3.142l-.028-1.62s.65-1.701-5.047-2.875" fill="#97bdff"/><path d="m14.85 166.921a1.05 1.05 0 0 1 1-.72l3.553.014c.455.002.843.293.986.7.077-.212.134-.418.166-.613.077-.467.006-.82-.224-1.05-.325-.326-1.26-.672-2.569-.984a31.318 31.318 0 0 0 -2.257-.444l.443.885-1.299.2c.003.12.007.26.014.411.02.42.059.837.119 1.224.02.132.043.258.068.377zm-.485-3.92.612.083.254.037a35.718 35.718 0 0 1 2.682.513c1.434.341 2.435.713 2.88 1.157.401.402.513.962.405 1.617a4.722 4.722 0 0 1 -.377 1.171 6.832 6.832 0 0 1 -.409.763l-.58.893-.019-1.065-.016-.912a.398.398 0 0 0 -.396-.391l-3.553-.014a.398.398 0 0 0 -.4.393l-.026 1.868-.545-.545c-.373-.373-.601-1.036-.74-1.925a12.36 12.36 0 0 1 -.125-1.293c-.014-.287-.018-.53-.016-.705v-.022l.004-.275.965-.148z" fill="#457ae6" fill-rule="nonzero"/><path d="m13.298 162.35.197.412" fill="#728bb7"/><path d="m16.641 174.887.916-1.349-.61-1.277-1.554.88z" fill="#fff"/><path d="m16.648 175.457-1.73-2.42 2.171-1.232.843 1.761-1.284 1.89zm.535-1.947-.38-.793-.934.53.765 1.07z" fill="#457ae6" fill-rule="nonzero"/><path d="m18.66 174.887-.916-1.349.611-1.277 1.553.88z" fill="#fff"/><path d="m19.433 173.246-.935-.53-.38.794.55.807.765-1.07zm-2.064.32.843-1.76 2.172 1.23-1.73 2.42zm-.138 3.474h.652v2.416h-.652zm1.556-.926v-.651h2.376v.651z" fill="#457ae6" fill-rule="nonzero"/><path d="m12.87 163.399-.27.182-.365-.54.27-.182a9.287 9.287 0 1 1 -3.097 3.51l.147-.291.582.295-.147.29a8.636 8.636 0 1 0 2.88-3.264z" fill="#457ae6" fill-rule="nonzero"/><path d="m37.759 100.074h46.191a4 4 0 0 1 4 4v6.17a4 4 0 0 1 -4 4h-46.191a4 4 0 0 1 -4-4v-6.17a4 4 0 0 1 4-4z" fill="#f2f6ff"/><path d="m40.86 105.387h40.458a1.771 1.771 0 1 1 0 3.542h-40.457a1.771 1.771 0 0 1 0-3.542z" fill="#a6c1ff"/><path d="m16.158 109.651h4.424c.266 0 .52.05.755.139a2.155 2.155 0 0 0 -1.51-.619h-4.423c-1.1 0-2.014.831-2.147 1.896l-.044 3.47 2.414.964 6.264-.854-.366-3.399c.133-1.065-6.466-1.597-5.367-1.597" fill="#6fa0ef"/><path d="m21.987 111.187a2.157 2.157 0 0 0 -.65-1.397c-.236-.09-.895-.473-1.16-.473l-4.019.334c-1.1 0-2.014.831-2.147 1.896l-.05 3.43 3.621.882 4.433-1.13c-.015-.097-.022-3.443-.028-3.542" fill="#97bdff"/><path d="m13.583 114.589h-.652v-3.522l.002-.04a2.497 2.497 0 0 1 2.47-2.182h4.425a2.5 2.5 0 0 1 2.484 2.342v3.465h-.651v-3.442a1.845 1.845 0 0 0 -1.833-1.713h-4.424c-.919 0-1.699.69-1.821 1.591z" fill="#457ae6" fill-rule="nonzero"/><path d="m17.616 109.774c.342 0 .621-.28.621-.621v-1.15a.623.623 0 0 0 -.621-.622.624.624 0 0 0 -.622.622v1.15c0 .342.28.621.622.621" fill="#c7e3ff"/><path d="m17.616 109.774c.342 0 .621-.28.621-.621v-1.15a.623.623 0 0 0 -.621-.622.624.624 0 0 0 -.622.622v1.15c0 .342.28.621.622.621z" stroke="#457ae6" stroke-linecap="round" stroke-width="1.8"/><path d="m17.599 108.35c1.378 0 2.506-1.658 2.506-3.036v-2.451c0-.679-.555-1.234-1.234-1.234h-2.545c-.678 0-1.233.555-1.233 1.234v2.45c0 1.379 1.128 3.036 2.506 3.036" fill="#cadeff"/><path d="m19.163 105.313v-2.45c0-.679-.555-1.234-1.234-1.234h.614c.678 0 1.233.555 1.233 1.234v2.45c0 1.378-1.127 3.036-2.506 3.036-.104 0-.205-.012-.306-.03 1.235-.221 2.2-1.731 2.2-3.006" fill="#fff"/><path d="m17.599 108.675c-1.501 0-2.832-1.719-2.832-3.361v-2.451c0-.859.7-1.56 1.56-1.56h2.544c.859 0 1.56.701 1.56 1.56v2.45c0 1.644-1.331 3.362-2.832 3.362zm0-.652c1.1 0 2.18-1.395 2.18-2.71v-2.45a.912.912 0 0 0 -.908-.908h-2.545a.911.911 0 0 0 -.907.908v2.45c0 1.315 1.08 2.71 2.18 2.71z" fill="#457ae6" fill-rule="nonzero"/><path d="m20.11 102.78-4.977-.019-.026 1.814c-.829-.83-.785-3.71-.785-3.71l1.134-.174-.392-.785c5.696 1.173 5.047 2.874 5.047 2.874" fill="#6fa0ef"/><path d="m15.064 99.906-.131-.262s4.647.632 5.63 1.614c.98.982-.424 3.142-.424 3.142l-.028-1.62s.65-1.701-5.047-2.874" fill="#97bdff"/><path d="m14.85 103.157a1.05 1.05 0 0 1 1-.72l3.553.014c.455.002.843.293.986.7.077-.212.134-.418.166-.613.077-.467.006-.82-.224-1.05-.325-.325-1.26-.672-2.569-.984a31.318 31.318 0 0 0 -2.257-.444l.443.885-1.299.2c.003.12.007.26.014.411.02.421.059.837.119 1.224.02.132.043.258.068.377zm-.485-3.92.612.084a35.718 35.718 0 0 1 2.936.55c1.434.34 2.435.712 2.88 1.156.401.402.513.963.405 1.617a4.722 4.722 0 0 1 -.377 1.171 6.832 6.832 0 0 1 -.409.763l-.58.893-.019-1.065-.016-.912a.398.398 0 0 0 -.396-.391l-3.553-.013a.398.398 0 0 0 -.4.392l-.026 1.868-.545-.545c-.373-.373-.601-1.036-.74-1.925a12.36 12.36 0 0 1 -.125-1.293c-.014-.286-.018-.53-.016-.705v-.022l.004-.275.965-.148z" fill="#457ae6" fill-rule="nonzero"/><path d="m13.298 98.587.197.411" fill="#728bb7"/><path d="m16.641 111.123.916-1.349-.61-1.277-1.554.88z" fill="#fff"/><path d="m16.648 111.693-1.73-2.42 2.171-1.232.843 1.761zm.535-1.947-.38-.793-.934.53.765 1.07z" fill="#457ae6" fill-rule="nonzero"/><path d="m18.66 111.123-.916-1.349.611-1.277 1.553.88z" fill="#fff"/><path d="m19.433 109.483-.935-.53-.38.793.55.807zm-2.064.32.843-1.762 2.172 1.232-1.73 2.42zm-.138 3.473h.652v2.417h-.652zm1.556-.926v-.651h2.376v.652z" fill="#457ae6" fill-rule="nonzero"/><path d="m12.87 99.635-.27.183-.365-.54.27-.183a9.287 9.287 0 1 1 -3.097 3.51l.147-.29.582.294-.147.29a8.636 8.636 0 1 0 2.88-3.264z" fill="#457ae6" fill-rule="nonzero"/><path d="m24.453 30.62h6.741c.404 0 .79.075 1.15.21a3.283 3.283 0 0 0 -2.3-.942h-6.74a3.308 3.308 0 0 0 -3.272 2.89l-.067 5.286 3.678 1.469 9.545-1.302-.557-5.178c.202-1.623-9.854-2.434-8.178-2.434" fill="#6fa0ef"/><path d="m33.334 32.96a3.287 3.287 0 0 0 -.99-2.13c-.359-.135-1.364-.72-1.768-.72l-6.124.51a3.31 3.31 0 0 0 -3.271 2.888l-.076 5.227 5.518 1.344 6.755-1.721c-.024-.148-.033-5.248-.044-5.398" fill="#97bdff"/><path d="m20.528 38.144h-.993v-5.367l.004-.061a3.805 3.805 0 0 1 3.764-3.324h6.742c1.991 0 3.65 1.556 3.786 3.568v5.28h-.993v-5.246a2.811 2.811 0 0 0 -2.793-2.61h-6.742c-1.4 0-2.588 1.05-2.775 2.425z" fill="#457ae6" fill-rule="nonzero"/><path d="m26.674 30.807a.95.95 0 0 0 .947-.947v-1.753a.95.95 0 0 0 -.947-.947.95.95 0 0 0 -.947.947v1.753c0 .521.426.947.947.947" fill="#c7e3ff"/><path d="m26.674 30.807a.95.95 0 0 0 .947-.947v-1.753a.95.95 0 0 0 -.947-.947.95.95 0 0 0 -.947.947v1.753c0 .521.426.947.947.947z" stroke="#457ae6" stroke-linecap="round" stroke-width="1.8"/><path d="m26.648 28.636c2.1 0 3.819-2.526 3.819-4.626v-3.735c0-1.034-.846-1.88-1.88-1.88h-3.878c-1.034 0-1.88.846-1.88 1.88v3.735c0 2.1 1.719 4.626 3.819 4.626" fill="#cadeff"/><path d="m29.032 24.01v-3.735c0-1.034-.846-1.88-1.88-1.88h.934c1.034 0 1.88.846 1.88 1.88v3.734c0 2.1-1.718 4.626-3.819 4.626-.158 0-.313-.019-.467-.045 1.882-.337 3.352-2.639 3.352-4.58" fill="#fff"/><path d="m26.648 29.132c-2.288 0-4.315-2.619-4.315-5.122v-3.735a2.382 2.382 0 0 1 2.376-2.376h3.878a2.382 2.382 0 0 1 2.376 2.376v3.735c0 2.503-2.027 5.122-4.315 5.122zm0-.993c1.676 0 3.322-2.127 3.322-4.13v-3.734a1.39 1.39 0 0 0 -1.383-1.383h-3.878c-.76 0-1.383.623-1.383 1.383v3.735c0 2.002 1.646 4.129 3.322 4.129z" fill="#457ae6" fill-rule="nonzero"/><path d="m30.476 20.149-7.585-.029-.04 2.764c-1.263-1.264-1.196-5.653-1.196-5.653l1.728-.265-.598-1.197c8.68 1.788 7.69 4.38 7.69 4.38" fill="#6fa0ef"/><path d="m22.785 15.769-.2-.4s7.082.965 8.578 2.46c1.497 1.497-.645 4.789-.645 4.789l-.042-2.47s.99-2.591-7.69-4.38" fill="#97bdff"/><path d="m22.46 20.724a1.6 1.6 0 0 1 1.524-1.096l5.414.02a1.6 1.6 0 0 1 1.502 1.067 5.34 5.34 0 0 0 .252-.935c.118-.71.01-1.249-.34-1.6-.496-.496-1.92-1.024-3.915-1.499a47.723 47.723 0 0 0 -3.44-.676l.675 1.348-1.979.304c.004.185.01.396.022.627.03.642.089 1.276.18 1.865.032.202.066.393.104.575zm-.74-5.973.932.127c.072.01.204.028.388.056a54.428 54.428 0 0 1 4.087.781c2.185.52 3.71 1.086 4.387 1.764.613.612.783 1.466.618 2.463-.095.575-.297 1.177-.574 1.785a10.41 10.41 0 0 1 -.623 1.162l-.885 1.36-.028-1.623-.024-1.388a.607.607 0 0 0 -.604-.597l-5.414-.02a.607.607 0 0 0 -.608.598l-.04 2.846-.832-.83c-.567-.568-.915-1.58-1.126-2.933a18.833 18.833 0 0 1 -.191-1.97 19.807 19.807 0 0 1 -.025-1.076v-.032l.007-.42 1.47-.226-.914-1.827z" fill="#457ae6" fill-rule="nonzero"/><path d="m20.094 13.76.3.627" fill="#728bb7"/><path d="m25.188 32.863 1.397-2.056-.931-1.946-2.367 1.342z" fill="#fff"/><path d="m25.199 33.73-2.637-3.687 3.31-1.877 1.284 2.684zm.815-2.966-.579-1.209-1.424.807 1.167 1.632z" fill="#457ae6" fill-rule="nonzero"/><path d="m28.266 32.863-1.397-2.056.931-1.946 2.368 1.342z" fill="#fff"/><path d="m29.443 30.362-1.424-.807-.579 1.209.836 1.23zm-3.145.488 1.284-2.684 3.31 1.877-2.637 3.688zm-.21 5.293h.993v3.682h-.993zm2.37-1.41v-.993h3.621v.993z" fill="#457ae6" fill-rule="nonzero"/><path d="m19.442 15.357-.412.278-.556-.823.412-.278a14.087 14.087 0 0 1 7.912-2.417c7.816 0 14.152 6.336 14.152 14.152 0 7.815-6.336 14.152-14.152 14.152-7.815 0-14.151-6.337-14.151-14.152 0-2.249.525-4.424 1.52-6.387l.224-.443.886.45-.224.442a13.098 13.098 0 0 0 -1.413 5.938c0 7.267 5.891 13.158 13.158 13.158 7.268 0 13.159-5.891 13.159-13.158 0-7.268-5.891-13.159-13.159-13.159-2.66 0-5.2.79-7.356 2.247z" fill="#457ae6" fill-rule="nonzero"/><path d="m53.304 0h1v54.022h-1z" fill="#d9e4ff"/><path d="m0 53.137h184.786v1h-184.786zm0 136.383h184.786v1h-184.786zm66.624-157.638h31.105a1.771 1.771 0 0 1 0 3.542h-31.105a1.771 1.771 0 0 1 0-3.542z" fill="#d9e4ff"/><path d="m68.395 17.712h63.098a3.542 3.542 0 1 1 0 7.085h-63.098a3.542 3.542 0 1 1 0-7.085z" fill="#598bff"/></g><g transform="translate(311.297 82.53)"><rect fill="url(#a)" height="66" opacity=".2" rx="12" width="374"/><path d="m15.107 7.135h343.786a8 8 0 0 1 8 8v35.73a8 8 0 0 1 -8 8h-343.786a8 8 0 0 1 -8-8v-35.73a8 8 0 0 1 8-8z" fill="#fff" fill-rule="nonzero"/><path d="m126.148 7.135h1v51.73h-1z" fill="#d9e4ff"/><path d="m72.86 29.432h35.506a3.568 3.568 0 0 1 0 7.135h-35.506a3.568 3.568 0 0 1 0-7.135z" fill="#598bff"/><g transform="translate(23.68 22.27)"><path d="m.59 17.69h15.92v-17.1h-15.92z" fill="#6da3f2"/><path d="m33.02 17.69h-16.51v-11.204l16.51 10.024z" fill="#cadeff"/><path d="m32.431 15.682h-15.92v-15.364c10.157-.424 15.464-.424 15.92 0 .456.425.456 5.546 0 15.364z" fill="#eff5ff"/><path d="m.59 17.69h13.562v-17.1h-13.562z" fill="#97bdff"/><g fill="#457ae6" fill-rule="nonzero"><path d="m32.198 17.014v-16.424h-31.608v16.424zm.131 1.18h-31.869c-.596 0-1.049-.51-1.049-1.106v-16.573c-.001-.595.452-1.105 1.049-1.105h31.87c.596 0 1.048.51 1.048 1.105v16.573c0 .596-.452 1.105-1.048 1.105z"/><path d="m16.51 17.72h-1.179v-18.31h1.18z"/></g><path d="m23.365 10.54h-2.215l-.387 1.253h-1.727l2.46-6.707h1.52l2.478 6.707h-1.736l-.392-1.253zm-1.829-1.248h1.442l-.723-2.327zm7.182 2.501a1.08 1.08 0 0 1 -.085-.205 2.91 2.91 0 0 1 -.062-.242c-.12.15-.275.278-.466.383-.19.104-.434.156-.732.156-.23 0-.448-.037-.652-.11a1.723 1.723 0 0 1 -.537-.307 1.455 1.455 0 0 1 -.366-.472 1.36 1.36 0 0 1 -.136-.608c0-.258.047-.488.14-.69a1.31 1.31 0 0 1 .43-.515c.191-.14.434-.247.727-.322a4.238 4.238 0 0 1 1.043-.113h.48v-.262c0-.212-.047-.38-.139-.503-.092-.122-.244-.184-.456-.184-.178 0-.315.045-.41.134s-.143.225-.143.41h-1.552c0-.23.051-.446.154-.645.103-.2.25-.372.44-.516.19-.145.42-.258.689-.341s.569-.124.9-.124c.298 0 .574.036.827.11.254.074.473.185.657.334s.329.335.433.557c.104.223.157.482.157.777v2.04c0 .163.004.305.013.424.01.12.023.225.042.316a1.462 1.462 0 0 0 .157.44v.078zm-.972-1.013a.866.866 0 0 0 .481-.125.78.78 0 0 0 .275-.28v-.798h-.489a.988.988 0 0 0 -.366.06c-.1.04-.18.094-.24.161a.609.609 0 0 0 -.129.233.954.954 0 0 0 -.039.274c0 .141.048.256.143.343a.517.517 0 0 0 .364.132z" fill="#5590eb"/><ellipse cx="16.805" cy="25.355" fill="#cadeff" rx="13.267" ry="1.179"/></g><path d="m246.076 7.135h1v51.73h-1z" fill="#d9e4ff"/><path d="m192.788 29.432h35.507a3.568 3.568 0 0 1 0 7.135h-35.507a3.568 3.568 0 0 1 0-7.135z" fill="#598bff"/><g fill="#457ae6" fill-rule="nonzero"><path d="m151.375 46.583-.175-1.166a38.12 38.12 0 0 1 1.783-.221l.12 1.173c-.622.063-1.2.135-1.728.214zm3.472-.361-.081-1.177a67.48 67.48 0 0 1 1.782-.097l.05 1.178c-.602.025-1.187.057-1.751.096zm3.505-.15-.022-1.178a82.535 82.535 0 0 1 1.782-.014l-.004 1.179h-.23c-.514 0-1.023.004-1.526.014zm3.513.01.029-1.178a74.79 74.79 0 0 1 1.781.065l-.057 1.178a73.61 73.61 0 0 0 -1.753-.064zm3.503.173.09-1.175c.625.047 1.222.103 1.783.166l-.132 1.172a49.253 49.253 0 0 0 -1.74-.163zm3.463.4.195-1.163c.703.117 1.306.249 1.796.392l-.331 1.132c-.44-.129-1-.25-1.66-.361z"/><path d="m148.948 47.397c.565.198 1.412.384 2.479.542 2.219.328 5.232.517 8.451.517.966 0 1.913-.017 2.825-.05l.043 1.179c-.927.034-1.887.05-2.868.05-7.291 0-12.663-.795-12.663-2.378 0-.788.848-1.2 2.455-1.56l.257 1.15c-.585.132-1.035.272-1.326.41.095.045.211.093.347.14z"/><path d="m160.65 47.366.834-.834 2.093 2.094a.59.59 0 0 1 0 .833l-2.008 2.008-.834-.834 1.591-1.59z"/></g><path d="m161.66 41.863 13.414.47c.268 0 .484-.21.484-.47v-22.606c0-.26-.216-.47-.484-.47l-13.415.942a.477.477 0 0 0 -.484.47v21.193c0 .26.217.471.484.471m-16.977.471 13.414-.47c.268 0 .485-.211.485-.473v-21.191a.478.478 0 0 0 -.485-.472l-13.414-.941a.478.478 0 0 0 -.484.47v22.606c0 .26.217.47.484.47" fill="#cadeff"/><path d="m161.66 41.863 13.414.47c.268 0 .484-.21.484-.47v-22.606c0-.26-.216-.47-.484-.47l-13.415.942a.477.477 0 0 0 -.484.47v21.193c0 .26.217.471.484.471" fill="#6da3f2"/><path d="m144.682 42.334 13.414-.47c.268 0 .485-.211.485-.473v-21.191a.478.478 0 0 0 -.485-.472l-13.414-.941a.478.478 0 0 0 -.484.47v22.606c0 .26.217.47.484.47" fill="#cadeff"/><path d="m146.526 42.334 11.635-.467c.232 0 .42-.21.42-.468v-21.016c0-.257-.188-.593-.42-.593l-11.635-.692c-.232 0-.42.21-.42.467v22.302c0 .258.188.467.42.467" fill="#fff" opacity=".7"/><path d="m161.597 41.875 11.678.459c.233 0 .422-.206.422-.46v-22.512c0-.254-.189-.46-.422-.46l-11.633 1.115c-.233 0-.467.481-.467.735v20.664c0 .254.189.46.422.46" fill="#97bdff"/><path d="m144.702 42.923c-.61 0-1.094-.47-1.094-1.06v-22.606c0-.59.485-1.06 1.115-1.059l13.373.94c.59 0 1.075.472 1.075 1.062v21.19c0 .59-.485 1.062-1.054 1.062l-13.415.47zm13.29-1.646v-20.965l-13.205-.928v22.356l13.204-.463zm2.594.115v-21.193c0-.589.484-1.06 1.032-1.058l13.456-.944c.59 0 1.074.47 1.074 1.06v22.606c0 .59-.484 1.06-1.095 1.06l-13.406-.47a1.067 1.067 0 0 1 -1.061-1.061zm1.179-.115 13.203.463v-22.355l-13.203.926z" fill="#457ae6" fill-rule="nonzero"/><path d="m312.75 30.838h35.441a3.6 3.6 0 0 1 3.6 3.6v.8a3.6 3.6 0 0 1 -3.6 3.6h-35.441a3.6 3.6 0 0 1 -3.6-3.6v-.8a3.6 3.6 0 0 1 3.6-3.6z" fill="#598bff"/><g transform="translate(261.178 17.838)"><circle cx="8.845" cy="17.1" fill="#6da3f2" r="7.076"/><circle cx="9.434" cy="16.51" fill="#97bdff" r="5.897"/><path d="m8.845 23.586a6.486 6.486 0 1 0 0-12.972 6.486 6.486 0 0 0 0 12.972zm0 1.18a7.666 7.666 0 1 1 0-15.332 7.666 7.666 0 0 1 0 15.332zm14.741-4.718a2.948 2.948 0 1 1 0-5.896 2.948 2.948 0 0 1 0 5.896zm10.024 0a2.948 2.948 0 1 1 0-5.896 2.948 2.948 0 0 1 0 5.896z" fill="#457ae6" fill-rule="nonzero"/><path d="m23.586 18.869a1.769 1.769 0 1 0 0-3.538 1.769 1.769 0 0 0 0 3.538zm10.024 0a1.769 1.769 0 1 0 0-3.538 1.769 1.769 0 0 0 0 3.538z" fill="#6da3f2"/><path d="m23.586 20.048a2.948 2.948 0 1 1 0-5.896 2.948 2.948 0 0 1 0 5.896zm0-1.179a1.769 1.769 0 1 0 0-3.538 1.769 1.769 0 0 0 0 3.538zm10.024 1.179a2.948 2.948 0 1 1 0-5.896 2.948 2.948 0 0 1 0 5.896zm0-1.179a1.769 1.769 0 1 0 0-3.538 1.769 1.769 0 0 0 0 3.538z" fill="#457ae6" fill-rule="nonzero"/><ellipse cx="19.459" cy="32.726" fill="#cadeff" rx="11.793" ry="1.474"/><g fill="#457ae6" fill-rule="nonzero"><path d="m20.693 17.69h14.097v-1.18h-14.098v1.18zm14.097-1.18v1.18h-18.87v-1.18z"/><path d="m28.182 17.69h6.608v-1.18h-6.608zm6.608-1.18v1.18h-8.845v-1.18z"/><path d="m28.12 16.51h-9.251v1.18h9.25v-1.18zm-9.251 1.18v-1.18h12.383v1.18z"/></g></g></g></g></svg>