<svg height="780" viewBox="0 0 1440 780" width="1440" xmlns="http://www.w3.org/2000/svg" xmlns:xlink="http://www.w3.org/1999/xlink"><linearGradient id="a"><stop offset="0" stop-color="#fff"/><stop offset="1" stop-color="#fff" stop-opacity="0"/></linearGradient><radialGradient id="b" cx="50%" cy="0%" gradientTransform="matrix(0 1 -.541291 0 .5 -.5)" r="100%" xlink:href="#a"/><radialGradient id="c" cx="50%" cy="0%" gradientTransform="matrix(0 1 -.540849 0 .5 -.5)" r="100%" xlink:href="#a"/><radialGradient id="d" cx="50%" cy="30.541746%" gradientTransform="matrix(0 1 -.73936621 0 .725815 -.194583)" r="69.458254%" xlink:href="#a"/><radialGradient id="e" cx="51.011124%" cy="53.67705%" gradientTransform="matrix(0 1 -.65338169 0 .860827 .02666)" r="69.458254%" xlink:href="#a"/><g fill="none" fill-rule="evenodd" transform="translate(-1)"><path d="m1442 291.791719c0-223.7706537-713.189319-48.812165-969.944313-291.791719-31.41398.21087246-188.432542.21087246-471.055687 0v780h1439.9486c.70093-285.006957 1.0514-447.74305 1.0514-488.208281z" fill="url(#b)" opacity=".1"/><path d="m1441.97823 333.23641c-14.96108-356.23641-989.97823 183.928474-1330.592354-333.23641-31.4135049.21087246-68.208797.21087246-110.385876 0v780h1439.92685c2.5936-252.775968 2.94406-401.697165 1.05138-446.76359z" fill="url(#c)" opacity=".1"/><path d="m1442 438.033075c-55.61556-547.033075-765.348962 239.327394-1440.99988185-12.096576-1.33349087 204.712374-1.33349087 322.733541 0 354.063501h1439.94848185c.70093-187.516217 1.0514-301.505192 1.0514-341.966925z" fill="url(#d)" opacity=".1"/><path d="m1442 517.249573c-110.86284-623.311803-440.89685 327.916969-1440.99989695 167.027816-.0000687 23.814979-.00009923 55.715129-.0000916 95.70045h1439.92683855c.71543-134.73225 1.07315-222.308338 1.07315-262.728266z" fill="url(#e)" opacity=".08"/></g></svg>